999
DXF file: D:\Onedrive-GHH\OneDrive - Georgehenryhines\Projects-backup\Magic-wand\220728-DXF\led-pcba-220802.dxf
999
Pro/ENGINEER 2015240 by Parametric Technology Corporation
  0
SECTION
  2
HEADER
  9
$ACADVER
  1
AC1014
  9
$DWGCODEPAGE
  3
ANSI_1252
  9
$EXTMAX
 10
279.4
 20
215.9
 30
0.0
  9
$EXTMIN
 10
0.0
 20
0.0
 30
0.0
  9
$LIMMIN
 10
0.0
 20
0.0
  9
$LIMMAX
 10
279.4
 20
215.9
  9
$VIEWCTR
 10
139.7
 20
107.95
  9
$VIEWSIZE
 40
215.9
  9
$CLAYER
  8
0
  9
$LTSCALE
 40
15.367
  9
$CELTYPE
  6
BYLAYER
  9
$DIMSCALE
 40
1.0
  9
$DIMASZ
 40
4.75
  9
$DIMEXO
 40
1.6
  9
$DIMDLI
 40
10.6172
  9
$DIMEXE
 40
3.2
  9
$DIMCEN
 40
2.5146
  9
$DIMLFAC
 40
1.0
  9
$DIMBLK
  1
_CLOSED
  9
$DIMTXT
 40
4.0
  9
$DIMTOL
 70
1
  9
$DIMLIM
 70
0
  9
$DIMTFAC
 40
1.0
  9
$DIMTP
 40
0.01
  9
$DIMTM
 40
0.01
  9
$DIMGAP
 40
0.625
  9
$PDMODE
 70
3
  9
$PDSIZE
 40
8.0
  9
$HANDSEED
  5
2C6
  9
$TILEMODE
 70
1
  9
$MEASUREMENT
 70
1
  0
ENDSEC
  0
SECTION
  2
CLASSES
  0
ENDSEC
  0
SECTION
  2
TABLES
  0
TABLE
  2
VPORT
  5
8
100
AcDbSymbolTable
 70
2
  0
VPORT
  5
1F4
100
AcDbSymbolTableRecord
100
AcDbViewportTableRecord
  2
*ACTIVE
 70
0
 10
0.0
 20
0.0
 11
1.0
 21
1.0
 12
139.7
 22
107.95
 13
0.0
 23
0.0
 14
1.0
 24
1.0
 15
0.0
 25
0.0
 16
0.0
 26
0.0
 36
1.0
 17
0.0
 27
0.0
 37
0.0
 40
215.9
 41
1.2941176471
 42
50.0
 43
0.0
 44
0.0
 50
0.0
 51
0.0
 71
0
 72
100
 73
1
 74
1
 75
0
 76
0
 77
0
 78
0
  0
ENDTAB
  0
TABLE
  2
LTYPE
  5
5
100
AcDbSymbolTable
 70
6
  0
LTYPE
  5
14
100
AcDbSymbolTableRecord
100
AcDbLinetypeTableRecord
  2
BYBLOCK
 70
0
  3

 72
65
 73
0
 40
0.0
  0
LTYPE
  5
15
100
AcDbSymbolTableRecord
100
AcDbLinetypeTableRecord
  2
BYLAYER
 70
0
  3

 72
65
 73
0
 40
0.0
  0
LTYPE
  5
16
100
AcDbSymbolTableRecord
100
AcDbLinetypeTableRecord
  2
CONTINUOUS
 70
64
  3
Solid line
 72
65
 73
0
 40
0.0
  0
LTYPE
  5
1F5
100
AcDbSymbolTableRecord
100
AcDbLinetypeTableRecord
  2
CENTER
 70
64
  3
____ _ ____ _ ____ _ ____ _ ____ _ ____ _ ____
 72
65
 73
4
 40
0.6
 49
0.375
 74
0
 49
-0.075
 74
0
 49
0.075
 74
0
 49
-0.075
 74
0
  0
LTYPE
  5
1F6
100
AcDbSymbolTableRecord
100
AcDbLinetypeTableRecord
  2
HIDDEN
 70
64
  3
- - - - - - - - - - - - - - - - - - - -
 72
65
 73
2
 40
0.2
 49
0.1
 74
0
 49
-0.1
 74
0
  0
LTYPE
  5
1F7
100
AcDbSymbolTableRecord
100
AcDbLinetypeTableRecord
  2
PHANTOM
 70
64
  3
_____ _ _ _____ _ _ _____ _ _ _____
 72
65
 73
6
 40
0.8
 49
0.45
 74
0
 49
-0.05
 74
0
 49
0.1
 74
0
 49
-0.05
 74
0
 49
0.1
 74
0
 49
-0.05
 74
0
  0
LTYPE
  5
1F8
100
AcDbSymbolTableRecord
100
AcDbLinetypeTableRecord
  2
DOT
 70
64
  3
. . . . . . . . . . . . . . . . . . . .
 72
65
 73
2
 40
0.2
 49
0.1
 74
0
 49
-0.1
 74
0
  0
LTYPE
  5
1F9
100
AcDbSymbolTableRecord
100
AcDbLinetypeTableRecord
  2
DASHED
 70
64
  3
- - - - - - - - - - - - - - - - - - - -
 72
65
 73
2
 40
0.2
 49
0.1
 74
0
 49
-0.1
 74
0
  0
ENDTAB
  0
TABLE
  2
LAYER
  5
2
100
AcDbSymbolTable
 70
36
  0
LAYER
  5
10
100
AcDbSymbolTableRecord
100
AcDbLayerTableRecord
  2
0
 70
0
 62
7
  6
CONTINUOUS
  0
LAYER
  5
1FA
100
AcDbSymbolTableRecord
100
AcDbLayerTableRecord
  2
DEFAULT_1
 70
0
 62
7
  6
CENTER
  0
LAYER
  5
1FB
100
AcDbSymbolTableRecord
100
AcDbLayerTableRecord
  2
DEFAULT_2
 70
0
 62
8
  6
HIDDEN
  0
LAYER
  5
1FC
100
AcDbSymbolTableRecord
100
AcDbLayerTableRecord
  2
DEFAULT_3
 70
0
 62
7
  6
PHANTOM
  0
LAYER
  5
1FD
100
AcDbSymbolTableRecord
100
AcDbLayerTableRecord
  2
0010__DEF_DATUMS
 70
0
 62
7
  6
CONTINUOUS
  0
LAYER
  5
1FE
100
AcDbSymbolTableRecord
100
AcDbLayerTableRecord
  2
0011__CONST_DATUMS
 70
0
 62
7
  6
CONTINUOUS
  0
LAYER
  5
1FF
100
AcDbSymbolTableRecord
100
AcDbLayerTableRecord
  2
0020__AXES
 70
0
 62
7
  6
CONTINUOUS
  0
LAYER
  5
200
100
AcDbSymbolTableRecord
100
AcDbLayerTableRecord
  2
0030__CURVES
 70
0
 62
7
  6
CONTINUOUS
  0
LAYER
  5
201
100
AcDbSymbolTableRecord
100
AcDbLayerTableRecord
  2
0040__PNTS
 70
0
 62
7
  6
CONTINUOUS
  0
LAYER
  5
202
100
AcDbSymbolTableRecord
100
AcDbLayerTableRecord
  2
0050__CSYS
 70
0
 62
7
  6
CONTINUOUS
  0
LAYER
  5
203
100
AcDbSymbolTableRecord
100
AcDbLayerTableRecord
  2
0060__SURFACES
 70
0
 62
7
  6
CONTINUOUS
  0
LAYER
  5
204
100
AcDbSymbolTableRecord
100
AcDbLayerTableRecord
  2
0070__IMPORT
 70
0
 62
7
  6
CONTINUOUS
  0
LAYER
  5
205
100
AcDbSymbolTableRecord
100
AcDbLayerTableRecord
  2
5_ALL_CURVES
 70
0
 62
7
  6
CONTINUOUS
  0
LAYER
  5
206
100
AcDbSymbolTableRecord
100
AcDbLayerTableRecord
  2
COLOR1
 70
0
 62
7
  6
CONTINUOUS
  0
LAYER
  5
207
100
AcDbSymbolTableRecord
100
AcDbLayerTableRecord
  2
FOV
 70
0
 62
7
  6
CONTINUOUS
  0
LAYER
  5
208
100
AcDbSymbolTableRecord
100
AcDbLayerTableRecord
  2
XSEC__DATUMS
 70
0
 62
7
  6
CONTINUOUS
  0
LAYER
  5
209
100
AcDbSymbolTableRecord
100
AcDbLayerTableRecord
  2
___SHELL
 70
0
 62
7
  6
CONTINUOUS
  0
ENDTAB
  0
TABLE
  2
STYLE
  5
3
100
AcDbSymbolTable
 70
1
  0
STYLE
  5
11
100
AcDbSymbolTableRecord
100
AcDbTextStyleTableRecord
  2
STANDARD
 70
0
 40
0.0
 41
0.8
 50
0.0
 71
0
 42
0.2
  3
txt
  4

  0
STYLE
  5
20A
100
AcDbSymbolTableRecord
100
AcDbTextStyleTableRecord
  2
TEXTSTYLE_1
 70
0
 40
0.0
 41
0.8
 50
0.0
 71
0
 42
0.2
  3
gdt
  4

  0
ENDTAB
  0
TABLE
  2
VIEW
  5
6
100
AcDbSymbolTable
 70
0
  0
ENDTAB
  0
TABLE
  2
UCS
  5
7
100
AcDbSymbolTable
 70
0
  0
ENDTAB
  0
TABLE
  2
APPID
  5
9
100
AcDbSymbolTable
 70
1
  0
APPID
  5
20B
100
AcDbSymbolTableRecord
100
AcDbRegAppTableRecord
  2
ACAD
 70
0
  0
ENDTAB
  0
TABLE
  2
BLOCK_RECORD
  5
1
100
AcDbSymbolTable
 70
0
  0
BLOCK_RECORD
  5
1F
100
AcDbSymbolTableRecord
100
AcDbBlockTableRecord
  2
*MODEL_SPACE
  0
BLOCK_RECORD
  5
1B
100
AcDbSymbolTableRecord
100
AcDbBlockTableRecord
  2
*PAPER_SPACE
  0
ENDTAB
  0
TABLE
  2
DIMSTYLE
  5
A
100
AcDbSymbolTable
 70
1
  0
DIMSTYLE
105
20C
100
AcDbSymbolTableRecord
100
AcDbDimStyleTableRecord
  2
STANDARD
 70
0
  3

  4

  5
_CLOSED
  6
_CLOSED
  7
_CLOSED
 40
1.0
 41
4.75
 42
1.6
 43
0.38
 44
3.2
 45
0.0
 46
0.0
 47
0.01
 48
0.01
140
4.0
141
0.09
142
0.0
143
25.4
144
1.0
145
0.0
146
1.0
147
0.625
 71
1.0
 72
0.0
 73
1
 74
1
 75
0
 76
0
 77
0
 78
8
170
0
171
2
172
0
173
0
174
0
175
0
176
0
177
0
178
0
270
2
271
2
272
2
273
2
274
2
275
0
280
0
281
0
282
0
283
1
284
8
285
0
286
0
287
3
288
0
340
11
  0
ENDTAB
  0
ENDSEC
  0
SECTION
  2
BLOCKS
  0
BLOCK
  5
20
100
AcDbEntity
  8
0
100
AcDbBlockBegin
  2
*MODEL_SPACE
 70
0
 10
0.0
 20
0.0
 30
0.0
  3
*MODEL_SPACE
  1

  0
ENDBLK
  5
21
100
AcDbEntity
  8
0
100
AcDbBlockEnd
  0
BLOCK
  5
1C
100
AcDbEntity
  8
0
100
AcDbBlockBegin
  2
*PAPER_SPACE
 70
0
 10
0.0
 20
0.0
 30
0.0
  3
*PAPER_SPACE
  1

  0
ENDBLK
  5
1D
100
AcDbEntity
  8
0
100
AcDbBlockEnd
  0
ENDSEC
  0
SECTION
  2
ENTITIES
  0
LINE
  5
20D
100
AcDbEntity
  8
0
100
AcDbLine
 62
7
  6
CONTINUOUS
 10
16.0154814268
 20
145.8666332624
 11
16.0154814268
 21
119.8666332624
  0
LINE
  5
20E
100
AcDbEntity
  8
0
100
AcDbLine
 62
7
  6
CONTINUOUS
 10
22.0154814268
 20
119.8666332624
 11
22.0154814268
 21
123.8666332624
  0
LINE
  5
20F
100
AcDbEntity
  8
0
100
AcDbLine
 62
7
  6
CONTINUOUS
 10
22.0154814268
 20
141.8666332624
 11
22.0154814268
 21
145.8666332624
  0
LINE
  5
210
100
AcDbEntity
  8
0
100
AcDbLine
 62
7
  6
CONTINUOUS
 10
38.5154814268
 20
135.3666332624
 11
38.5154814268
 21
130.3666332624
  0
LINE
  5
211
100
AcDbEntity
  8
0
100
AcDbLine
 62
7
  6
CONTINUOUS
 10
43.5154814268
 20
130.3666332624
 11
43.5154814268
 21
135.3666332624
  0
LINE
  5
212
100
AcDbEntity
  8
0
100
AcDbLine
 62
7
  6
CONTINUOUS
 10
63.5154814268
 20
135.3666332624
 11
63.5154814268
 21
130.3666332624
  0
LINE
  5
213
100
AcDbEntity
  8
0
100
AcDbLine
 62
7
  6
CONTINUOUS
 10
68.5154814268
 20
130.3666332624
 11
68.5154814268
 21
135.3666332624
  0
LINE
  5
214
100
AcDbEntity
  8
0
100
AcDbLine
 62
7
  6
CONTINUOUS
 10
88.5154814268
 20
135.3666332624
 11
88.5154814268
 21
130.3666332624
  0
LINE
  5
215
100
AcDbEntity
  8
0
100
AcDbLine
 62
7
  6
CONTINUOUS
 10
93.5154814268
 20
130.3666332624
 11
93.5154814268
 21
135.3666332624
  0
LINE
  5
216
100
AcDbEntity
  8
0
100
AcDbLine
 62
7
  6
CONTINUOUS
 10
113.5154814268
 20
135.3666332624
 11
113.5154814268
 21
130.3666332624
  0
LINE
  5
217
100
AcDbEntity
  8
0
100
AcDbLine
 62
7
  6
CONTINUOUS
 10
118.5154814268
 20
130.3666332624
 11
118.5154814268
 21
135.3666332624
  0
LINE
  5
218
100
AcDbEntity
  8
0
100
AcDbLine
 62
7
  6
CONTINUOUS
 10
16.0154814268
 20
119.8666332624
 11
22.0154814268
 21
119.8666332624
  0
LINE
  5
219
100
AcDbEntity
  8
0
100
AcDbLine
 62
7
  6
CONTINUOUS
 10
23.0154814268
 20
124.8666332624
 11
69.0154814268
 21
124.8666332624
  0
LINE
  5
21A
100
AcDbEntity
  8
0
100
AcDbLine
 62
7
  6
CONTINUOUS
 10
138.5154814268
 20
135.3666332624
 11
138.5154814268
 21
130.3666332624
  0
LINE
  5
21B
100
AcDbEntity
  8
0
100
AcDbLine
 62
7
  6
CONTINUOUS
 10
258.3126944226
 20
126.8666332624
 11
81.0154814268
 21
126.8666332624
  0
LINE
  5
21C
100
AcDbEntity
  8
0
100
AcDbLine
 62
7
  6
CONTINUOUS
 10
38.5154814268
 20
130.3666332624
 11
43.5154814268
 21
130.3666332624
  0
LINE
  5
21D
100
AcDbEntity
  8
0
100
AcDbLine
 62
7
  6
CONTINUOUS
 10
63.5154814268
 20
130.3666332624
 11
68.5154814268
 21
130.3666332624
  0
LINE
  5
21E
100
AcDbEntity
  8
0
100
AcDbLine
 62
7
  6
CONTINUOUS
 10
88.5154814268
 20
130.3666332624
 11
93.5154814268
 21
130.3666332624
  0
LINE
  5
21F
100
AcDbEntity
  8
0
100
AcDbLine
 62
7
  6
CONTINUOUS
 10
113.5154814268
 20
130.3666332624
 11
118.5154814268
 21
130.3666332624
  0
LINE
  5
220
100
AcDbEntity
  8
0
100
AcDbLine
 62
7
  6
CONTINUOUS
 10
138.5154814268
 20
130.3666332624
 11
143.5154814268
 21
130.3666332624
  0
LINE
  5
221
100
AcDbEntity
  8
0
100
AcDbLine
 62
7
  6
CONTINUOUS
 10
163.5154814268
 20
130.3666332624
 11
168.5154814268
 21
130.3666332624
  0
LINE
  5
222
100
AcDbEntity
  8
0
100
AcDbLine
 62
7
  6
CONTINUOUS
 10
188.5154814268
 20
130.3666332624
 11
193.5154814268
 21
130.3666332624
  0
LINE
  5
223
100
AcDbEntity
  8
0
100
AcDbLine
 62
7
  6
CONTINUOUS
 10
213.5154814268
 20
130.3666332624
 11
218.5154814268
 21
130.3666332624
  0
LINE
  5
224
100
AcDbEntity
  8
0
100
AcDbLine
 62
7
  6
CONTINUOUS
 10
238.5154814268
 20
130.3666332624
 11
243.5154814268
 21
130.3666332624
  0
LINE
  5
225
100
AcDbEntity
  8
0
100
AcDbLine
 62
7
  6
CONTINUOUS
 10
81.0154814268
 20
138.8666332624
 11
69.0154814268
 21
140.8666332624
  0
LINE
  5
226
100
AcDbEntity
  8
0
100
AcDbLine
 62
7
  6
CONTINUOUS
 10
143.5154814268
 20
130.3666332624
 11
143.5154814268
 21
135.3666332624
  0
LINE
  5
227
100
AcDbEntity
  8
0
100
AcDbLine
 62
7
  6
CONTINUOUS
 10
69.0154814268
 20
124.8666332624
 11
81.0154814268
 21
126.8666332624
  0
LINE
  5
228
100
AcDbEntity
  8
0
100
AcDbLine
 62
7
  6
CONTINUOUS
 10
243.5154814268
 20
135.3666332624
 11
238.5154814268
 21
135.3666332624
  0
LINE
  5
229
100
AcDbEntity
  8
0
100
AcDbLine
 62
7
  6
CONTINUOUS
 10
218.5154814268
 20
135.3666332624
 11
213.5154814268
 21
135.3666332624
  0
LINE
  5
22A
100
AcDbEntity
  8
0
100
AcDbLine
 62
7
  6
CONTINUOUS
 10
193.5154814268
 20
135.3666332624
 11
188.5154814268
 21
135.3666332624
  0
LINE
  5
22B
100
AcDbEntity
  8
0
100
AcDbLine
 62
7
  6
CONTINUOUS
 10
168.5154814268
 20
135.3666332624
 11
163.5154814268
 21
135.3666332624
  0
LINE
  5
22C
100
AcDbEntity
  8
0
100
AcDbLine
 62
7
  6
CONTINUOUS
 10
143.5154814268
 20
135.3666332624
 11
138.5154814268
 21
135.3666332624
  0
LINE
  5
22D
100
AcDbEntity
  8
0
100
AcDbLine
 62
7
  6
CONTINUOUS
 10
118.5154814268
 20
135.3666332624
 11
113.5154814268
 21
135.3666332624
  0
LINE
  5
22E
100
AcDbEntity
  8
0
100
AcDbLine
 62
7
  6
CONTINUOUS
 10
93.5154814268
 20
135.3666332624
 11
88.5154814268
 21
135.3666332624
  0
LINE
  5
22F
100
AcDbEntity
  8
0
100
AcDbLine
 62
7
  6
CONTINUOUS
 10
68.5154814268
 20
135.3666332624
 11
63.5154814268
 21
135.3666332624
  0
LINE
  5
230
100
AcDbEntity
  8
0
100
AcDbLine
 62
7
  6
CONTINUOUS
 10
43.5154814268
 20
135.3666332624
 11
38.5154814268
 21
135.3666332624
  0
LINE
  5
231
100
AcDbEntity
  8
0
100
AcDbLine
 62
7
  6
CONTINUOUS
 10
81.0154814268
 20
138.8666332624
 11
258.3102137984
 21
138.8666332624
  0
LINE
  5
232
100
AcDbEntity
  8
0
100
AcDbLine
 62
7
  6
CONTINUOUS
 10
69.0154814268
 20
140.8666332624
 11
23.0154814268
 21
140.8666332624
  0
LINE
  5
233
100
AcDbEntity
  8
0
100
AcDbLine
 62
7
  6
CONTINUOUS
 10
22.0154814268
 20
145.8666332624
 11
16.0154814268
 21
145.8666332624
  0
LINE
  5
234
100
AcDbEntity
  8
0
100
AcDbLine
 62
7
  6
CONTINUOUS
 10
163.5154814268
 20
135.3666332624
 11
163.5154814268
 21
130.3666332624
  0
LINE
  5
235
100
AcDbEntity
  8
0
100
AcDbLine
 62
7
  6
CONTINUOUS
 10
168.5154814268
 20
130.3666332624
 11
168.5154814268
 21
135.3666332624
  0
LINE
  5
236
100
AcDbEntity
  8
0
100
AcDbLine
 62
7
  6
CONTINUOUS
 10
188.5154814268
 20
135.3666332624
 11
188.5154814268
 21
130.3666332624
  0
LINE
  5
237
100
AcDbEntity
  8
0
100
AcDbLine
 62
7
  6
CONTINUOUS
 10
193.5154814268
 20
130.3666332624
 11
193.5154814268
 21
135.3666332624
  0
LINE
  5
238
100
AcDbEntity
  8
0
100
AcDbLine
 62
7
  6
CONTINUOUS
 10
213.5154814268
 20
135.3666332624
 11
213.5154814268
 21
130.3666332624
  0
LINE
  5
239
100
AcDbEntity
  8
0
100
AcDbLine
 62
7
  6
CONTINUOUS
 10
218.5154814268
 20
130.3666332624
 11
218.5154814268
 21
135.3666332624
  0
LINE
  5
23A
100
AcDbEntity
  8
0
100
AcDbLine
 62
7
  6
CONTINUOUS
 10
238.5154814268
 20
135.3666332624
 11
238.5154814268
 21
130.3666332624
  0
LINE
  5
23B
100
AcDbEntity
  8
0
100
AcDbLine
 62
7
  6
CONTINUOUS
 10
243.5154814268
 20
130.3666332624
 11
243.5154814268
 21
135.3666332624
  0
LINE
  5
23C
100
AcDbEntity
  8
0
100
AcDbLine
 62
7
  6
CONTINUOUS
 10
16.0154814268
 20
101.6466025108
 11
16.0154814268
 21
103.2466025108
  0
LINE
  5
23D
100
AcDbEntity
  8
0
100
AcDbLine
 62
7
  6
CONTINUOUS
 10
22.0154814268
 20
101.6466025108
 11
22.0154814268
 21
103.2466025108
  0
LINE
  5
23E
100
AcDbEntity
  8
0
100
AcDbLine
 62
9
  6
CONTINUOUS
 10
23.0154814268
 20
101.6466025108
 11
23.0154814268
 21
103.2466025108
  0
LINE
  5
23F
100
AcDbEntity
  8
0
100
AcDbLine
 62
7
  6
CONTINUOUS
 10
38.5154814268
 20
101.6466025108
 11
38.5154814268
 21
100.6466025108
  0
LINE
  5
240
100
AcDbEntity
  8
0
100
AcDbLine
 62
7
  6
CONTINUOUS
 10
38.5154814268
 20
103.2466025108
 11
38.5154814268
 21
104.2466025108
  0
LINE
  5
241
100
AcDbEntity
  8
0
100
AcDbLine
 62
7
  6
CONTINUOUS
 10
43.5154814268
 20
101.6466025108
 11
43.5154814268
 21
100.6466025108
  0
LINE
  5
242
100
AcDbEntity
  8
0
100
AcDbLine
 62
7
  6
CONTINUOUS
 10
43.5154814268
 20
103.2466025108
 11
43.5154814268
 21
104.2466025108
  0
LINE
  5
243
100
AcDbEntity
  8
0
100
AcDbLine
 62
7
  6
CONTINUOUS
 10
63.5154814268
 20
101.6466025108
 11
63.5154814268
 21
100.6466025108
  0
LINE
  5
244
100
AcDbEntity
  8
0
100
AcDbLine
 62
7
  6
CONTINUOUS
 10
63.5154814268
 20
103.2466025108
 11
63.5154814268
 21
104.2466025108
  0
LINE
  5
245
100
AcDbEntity
  8
0
100
AcDbLine
 62
7
  6
CONTINUOUS
 10
68.5154814268
 20
101.6466025108
 11
68.5154814268
 21
100.6466025108
  0
LINE
  5
246
100
AcDbEntity
  8
0
100
AcDbLine
 62
7
  6
CONTINUOUS
 10
68.5154814268
 20
103.2466025108
 11
68.5154814268
 21
104.2466025108
  0
LINE
  5
247
100
AcDbEntity
  8
0
100
AcDbLine
 62
7
  6
CONTINUOUS
 10
69.0154814268
 20
101.6466025108
 11
69.0154814268
 21
103.2466025108
  0
LINE
  5
248
100
AcDbEntity
  8
0
100
AcDbLine
 62
7
  6
CONTINUOUS
 10
81.0154814268
 20
101.6466025108
 11
81.0154814268
 21
103.2466025108
  0
LINE
  5
249
100
AcDbEntity
  8
0
100
AcDbLine
 62
7
  6
CONTINUOUS
 10
88.5154814268
 20
101.6466025108
 11
88.5154814268
 21
100.6466025108
  0
LINE
  5
24A
100
AcDbEntity
  8
0
100
AcDbLine
 62
7
  6
CONTINUOUS
 10
88.5154814268
 20
103.2466025108
 11
88.5154814268
 21
104.2466025108
  0
LINE
  5
24B
100
AcDbEntity
  8
0
100
AcDbLine
 62
7
  6
CONTINUOUS
 10
93.5154814268
 20
101.6466025108
 11
93.5154814268
 21
100.6466025108
  0
LINE
  5
24C
100
AcDbEntity
  8
0
100
AcDbLine
 62
7
  6
CONTINUOUS
 10
93.5154814268
 20
103.2466025108
 11
93.5154814268
 21
104.2466025108
  0
LINE
  5
24D
100
AcDbEntity
  8
0
100
AcDbLine
 62
7
  6
CONTINUOUS
 10
113.5154814268
 20
101.6466025108
 11
113.5154814268
 21
100.6466025108
  0
LINE
  5
24E
100
AcDbEntity
  8
0
100
AcDbLine
 62
7
  6
CONTINUOUS
 10
113.5154814268
 20
103.2466025108
 11
113.5154814268
 21
104.2466025108
  0
LINE
  5
24F
100
AcDbEntity
  8
0
100
AcDbLine
 62
7
  6
CONTINUOUS
 10
118.5154814268
 20
101.6466025108
 11
118.5154814268
 21
100.6466025108
  0
LINE
  5
250
100
AcDbEntity
  8
0
100
AcDbLine
 62
7
  6
CONTINUOUS
 10
118.5154814268
 20
103.2466025108
 11
118.5154814268
 21
104.2466025108
  0
LINE
  5
251
100
AcDbEntity
  8
0
100
AcDbLine
 62
7
  6
CONTINUOUS
 10
138.5154814268
 20
101.6466025108
 11
138.5154814268
 21
100.6466025108
  0
LINE
  5
252
100
AcDbEntity
  8
0
100
AcDbLine
 62
7
  6
CONTINUOUS
 10
138.5154814268
 20
103.2466025108
 11
138.5154814268
 21
104.2466025108
  0
LINE
  5
253
100
AcDbEntity
  8
0
100
AcDbLine
 62
7
  6
CONTINUOUS
 10
243.5154814268
 20
100.6466025108
 11
238.5154814268
 21
100.6466025108
  0
LINE
  5
254
100
AcDbEntity
  8
0
100
AcDbLine
 62
7
  6
CONTINUOUS
 10
218.5154814268
 20
100.6466025108
 11
213.5154814268
 21
100.6466025108
  0
LINE
  5
255
100
AcDbEntity
  8
0
100
AcDbLine
 62
7
  6
CONTINUOUS
 10
193.5154814268
 20
100.6466025108
 11
188.5154814268
 21
100.6466025108
  0
LINE
  5
256
100
AcDbEntity
  8
0
100
AcDbLine
 62
7
  6
CONTINUOUS
 10
168.5154814268
 20
100.6466025108
 11
163.5154814268
 21
100.6466025108
  0
LINE
  5
257
100
AcDbEntity
  8
0
100
AcDbLine
 62
7
  6
CONTINUOUS
 10
143.5154814268
 20
100.6466025108
 11
138.5154814268
 21
100.6466025108
  0
LINE
  5
258
100
AcDbEntity
  8
0
100
AcDbLine
 62
7
  6
CONTINUOUS
 10
118.5154814268
 20
100.6466025108
 11
113.5154814268
 21
100.6466025108
  0
LINE
  5
259
100
AcDbEntity
  8
0
100
AcDbLine
 62
7
  6
CONTINUOUS
 10
93.5154814268
 20
100.6466025108
 11
88.5154814268
 21
100.6466025108
  0
LINE
  5
25A
100
AcDbEntity
  8
0
100
AcDbLine
 62
7
  6
CONTINUOUS
 10
68.5154814268
 20
100.6466025108
 11
63.5154814268
 21
100.6466025108
  0
LINE
  5
25B
100
AcDbEntity
  8
0
100
AcDbLine
 62
7
  6
CONTINUOUS
 10
43.5154814268
 20
100.6466025108
 11
38.5154814268
 21
100.6466025108
  0
LINE
  5
25C
100
AcDbEntity
  8
0
100
AcDbLine
 62
7
  6
CONTINUOUS
 10
16.0154814268
 20
101.6466025108
 11
264.3102140483
 21
101.6466025108
  0
LINE
  5
25D
100
AcDbEntity
  8
0
100
AcDbLine
 62
7
  6
CONTINUOUS
 10
16.0154814268
 20
103.2466025108
 11
264.3092852822
 21
103.2466025108
  0
LINE
  5
25E
100
AcDbEntity
  8
0
100
AcDbLine
 62
7
  6
CONTINUOUS
 10
143.5154814268
 20
101.6466025108
 11
143.5154814268
 21
100.6466025108
  0
LINE
  5
25F
100
AcDbEntity
  8
0
100
AcDbLine
 62
7
  6
CONTINUOUS
 10
143.5154814268
 20
103.2466025108
 11
143.5154814268
 21
104.2466025108
  0
LINE
  5
260
100
AcDbEntity
  8
0
100
AcDbLine
 62
7
  6
CONTINUOUS
 10
38.5154814268
 20
104.2466025108
 11
43.5154814268
 21
104.2466025108
  0
LINE
  5
261
100
AcDbEntity
  8
0
100
AcDbLine
 62
7
  6
CONTINUOUS
 10
63.5154814268
 20
104.2466025108
 11
68.5154814268
 21
104.2466025108
  0
LINE
  5
262
100
AcDbEntity
  8
0
100
AcDbLine
 62
7
  6
CONTINUOUS
 10
88.5154814268
 20
104.2466025108
 11
93.5154814268
 21
104.2466025108
  0
LINE
  5
263
100
AcDbEntity
  8
0
100
AcDbLine
 62
7
  6
CONTINUOUS
 10
113.5154814268
 20
104.2466025108
 11
118.5154814268
 21
104.2466025108
  0
LINE
  5
264
100
AcDbEntity
  8
0
100
AcDbLine
 62
7
  6
CONTINUOUS
 10
138.5154814268
 20
104.2466025108
 11
143.5154814268
 21
104.2466025108
  0
LINE
  5
265
100
AcDbEntity
  8
0
100
AcDbLine
 62
7
  6
CONTINUOUS
 10
163.5154814268
 20
104.2466025108
 11
168.5154814268
 21
104.2466025108
  0
LINE
  5
266
100
AcDbEntity
  8
0
100
AcDbLine
 62
7
  6
CONTINUOUS
 10
188.5154814268
 20
104.2466025108
 11
193.5154814268
 21
104.2466025108
  0
LINE
  5
267
100
AcDbEntity
  8
0
100
AcDbLine
 62
7
  6
CONTINUOUS
 10
213.5154814268
 20
104.2466025108
 11
218.5154814268
 21
104.2466025108
  0
LINE
  5
268
100
AcDbEntity
  8
0
100
AcDbLine
 62
7
  6
CONTINUOUS
 10
238.5154814268
 20
104.2466025108
 11
243.5154814268
 21
104.2466025108
  0
LINE
  5
269
100
AcDbEntity
  8
0
100
AcDbLine
 62
7
  6
CONTINUOUS
 10
163.5154814268
 20
101.6466025108
 11
163.5154814268
 21
100.6466025108
  0
LINE
  5
26A
100
AcDbEntity
  8
0
100
AcDbLine
 62
7
  6
CONTINUOUS
 10
163.5154814268
 20
103.2466025108
 11
163.5154814268
 21
104.2466025108
  0
LINE
  5
26B
100
AcDbEntity
  8
0
100
AcDbLine
 62
7
  6
CONTINUOUS
 10
168.5154814268
 20
101.6466025108
 11
168.5154814268
 21
100.6466025108
  0
LINE
  5
26C
100
AcDbEntity
  8
0
100
AcDbLine
 62
7
  6
CONTINUOUS
 10
168.5154814268
 20
103.2466025108
 11
168.5154814268
 21
104.2466025108
  0
LINE
  5
26D
100
AcDbEntity
  8
0
100
AcDbLine
 62
7
  6
CONTINUOUS
 10
188.5154814268
 20
101.6466025108
 11
188.5154814268
 21
100.6466025108
  0
LINE
  5
26E
100
AcDbEntity
  8
0
100
AcDbLine
 62
7
  6
CONTINUOUS
 10
188.5154814268
 20
103.2466025108
 11
188.5154814268
 21
104.2466025108
  0
LINE
  5
26F
100
AcDbEntity
  8
0
100
AcDbLine
 62
7
  6
CONTINUOUS
 10
193.5154814268
 20
101.6466025108
 11
193.5154814268
 21
100.6466025108
  0
LINE
  5
270
100
AcDbEntity
  8
0
100
AcDbLine
 62
7
  6
CONTINUOUS
 10
193.5154814268
 20
103.2466025108
 11
193.5154814268
 21
104.2466025108
  0
LINE
  5
271
100
AcDbEntity
  8
0
100
AcDbLine
 62
7
  6
CONTINUOUS
 10
213.5154814268
 20
101.6466025108
 11
213.5154814268
 21
100.6466025108
  0
LINE
  5
272
100
AcDbEntity
  8
0
100
AcDbLine
 62
7
  6
CONTINUOUS
 10
213.5154814268
 20
103.2466025108
 11
213.5154814268
 21
104.2466025108
  0
LINE
  5
273
100
AcDbEntity
  8
0
100
AcDbLine
 62
7
  6
CONTINUOUS
 10
218.5154814268
 20
101.6466025108
 11
218.5154814268
 21
100.6466025108
  0
LINE
  5
274
100
AcDbEntity
  8
0
100
AcDbLine
 62
7
  6
CONTINUOUS
 10
218.5154814268
 20
103.2466025108
 11
218.5154814268
 21
104.2466025108
  0
LINE
  5
275
100
AcDbEntity
  8
0
100
AcDbLine
 62
7
  6
CONTINUOUS
 10
238.5154814268
 20
101.6466025108
 11
238.5154814268
 21
100.6466025108
  0
LINE
  5
276
100
AcDbEntity
  8
0
100
AcDbLine
 62
7
  6
CONTINUOUS
 10
238.5154814268
 20
103.2466025108
 11
238.5154814268
 21
104.2466025108
  0
LINE
  5
277
100
AcDbEntity
  8
0
100
AcDbLine
 62
7
  6
CONTINUOUS
 10
243.5154814268
 20
101.6466025108
 11
243.5154814268
 21
100.6466025108
  0
LINE
  5
278
100
AcDbEntity
  8
0
100
AcDbLine
 62
7
  6
CONTINUOUS
 10
243.5154814268
 20
103.2466025108
 11
243.5154814268
 21
104.2466025108
  0
LINE
  5
279
100
AcDbEntity
  8
0
100
AcDbLine
 62
9
  6
CONTINUOUS
 10
258.3102137984
 20
103.2466025108
 11
258.3102137984
 21
101.6466025108
  0
LINE
  5
27A
100
AcDbEntity
  8
0
100
AcDbLine
 62
7
  6
CONTINUOUS
 10
264.3102140548
 20
101.6466025108
 11
264.3102140548
 21
103.2466025108
  0
LINE
  5
27B
100
AcDbEntity
  8
0
100
AcDbLine
 62
7
  6
CONTINUOUS
 10
16.0154814268
 20
58.9757971279
 11
16.0154814268
 21
84.9757971279
  0
LINE
  5
27C
100
AcDbEntity
  8
0
100
AcDbLine
 62
7
  6
CONTINUOUS
 10
22.0154814268
 20
84.9757971279
 11
22.0154814268
 21
80.9757971279
  0
LINE
  5
27D
100
AcDbEntity
  8
0
100
AcDbLine
 62
7
  6
CONTINUOUS
 10
22.0154814268
 20
62.9757971279
 11
22.0154814268
 21
58.9757971279
  0
LINE
  5
27E
100
AcDbEntity
  8
0
100
AcDbLine
 62
7
  6
CONTINUOUS
 10
38.5154814268
 20
74.4757971279
 11
38.5154814268
 21
69.4757971279
  0
LINE
  5
27F
100
AcDbEntity
  8
0
100
AcDbLine
 62
7
  6
CONTINUOUS
 10
43.5154814268
 20
69.4757971279
 11
43.5154814268
 21
74.4757971279
  0
LINE
  5
280
100
AcDbEntity
  8
0
100
AcDbLine
 62
7
  6
CONTINUOUS
 10
63.5154814268
 20
74.4757971279
 11
63.5154814268
 21
69.4757971279
  0
LINE
  5
281
100
AcDbEntity
  8
0
100
AcDbLine
 62
7
  6
CONTINUOUS
 10
68.5154814268
 20
69.4757971279
 11
68.5154814268
 21
74.4757971279
  0
LINE
  5
282
100
AcDbEntity
  8
0
100
AcDbLine
 62
7
  6
CONTINUOUS
 10
88.5154814268
 20
74.4757971279
 11
88.5154814268
 21
69.4757971279
  0
LINE
  5
283
100
AcDbEntity
  8
0
100
AcDbLine
 62
7
  6
CONTINUOUS
 10
93.5154814268
 20
69.4757971279
 11
93.5154814268
 21
74.4757971279
  0
LINE
  5
284
100
AcDbEntity
  8
0
100
AcDbLine
 62
7
  6
CONTINUOUS
 10
113.5154814268
 20
74.4757971279
 11
113.5154814268
 21
69.4757971279
  0
LINE
  5
285
100
AcDbEntity
  8
0
100
AcDbLine
 62
7
  6
CONTINUOUS
 10
118.5154814268
 20
69.4757971279
 11
118.5154814268
 21
74.4757971279
  0
LINE
  5
286
100
AcDbEntity
  8
0
100
AcDbLine
 62
7
  6
CONTINUOUS
 10
22.0154814268
 20
58.9757971279
 11
16.0154814268
 21
58.9757971279
  0
LINE
  5
287
100
AcDbEntity
  8
0
100
AcDbLine
 62
7
  6
CONTINUOUS
 10
69.0154814268
 20
63.9757971279
 11
23.0154814268
 21
63.9757971279
  0
LINE
  5
288
100
AcDbEntity
  8
0
100
AcDbLine
 62
7
  6
CONTINUOUS
 10
138.5154814268
 20
74.4757971279
 11
138.5154814268
 21
69.4757971279
  0
LINE
  5
289
100
AcDbEntity
  8
0
100
AcDbLine
 62
7
  6
CONTINUOUS
 10
81.0154814268
 20
65.9757971279
 11
258.3102137984
 21
65.9757971279
  0
LINE
  5
28A
100
AcDbEntity
  8
0
100
AcDbLine
 62
7
  6
CONTINUOUS
 10
38.5154814268
 20
69.4757971279
 11
43.5154814268
 21
69.4757971279
  0
LINE
  5
28B
100
AcDbEntity
  8
0
100
AcDbLine
 62
7
  6
CONTINUOUS
 10
63.5154814268
 20
69.4757971279
 11
68.5154814268
 21
69.4757971279
  0
LINE
  5
28C
100
AcDbEntity
  8
0
100
AcDbLine
 62
7
  6
CONTINUOUS
 10
88.5154814268
 20
69.4757971279
 11
93.5154814268
 21
69.4757971279
  0
LINE
  5
28D
100
AcDbEntity
  8
0
100
AcDbLine
 62
7
  6
CONTINUOUS
 10
113.5154814268
 20
69.4757971279
 11
118.5154814268
 21
69.4757971279
  0
LINE
  5
28E
100
AcDbEntity
  8
0
100
AcDbLine
 62
7
  6
CONTINUOUS
 10
138.5154814268
 20
69.4757971279
 11
143.5154814268
 21
69.4757971279
  0
LINE
  5
28F
100
AcDbEntity
  8
0
100
AcDbLine
 62
7
  6
CONTINUOUS
 10
163.5154814268
 20
69.4757971279
 11
168.5154814268
 21
69.4757971279
  0
LINE
  5
290
100
AcDbEntity
  8
0
100
AcDbLine
 62
7
  6
CONTINUOUS
 10
188.5154814268
 20
69.4757971279
 11
193.5154814268
 21
69.4757971279
  0
LINE
  5
291
100
AcDbEntity
  8
0
100
AcDbLine
 62
7
  6
CONTINUOUS
 10
213.5154814268
 20
69.4757971279
 11
218.5154814268
 21
69.4757971279
  0
LINE
  5
292
100
AcDbEntity
  8
0
100
AcDbLine
 62
7
  6
CONTINUOUS
 10
238.5154814268
 20
69.4757971279
 11
243.5154814268
 21
69.4757971279
  0
LINE
  5
293
100
AcDbEntity
  8
0
100
AcDbLine
 62
7
  6
CONTINUOUS
 10
81.0154814268
 20
77.9757971279
 11
69.0154814268
 21
79.9757971279
  0
LINE
  5
294
100
AcDbEntity
  8
0
100
AcDbLine
 62
7
  6
CONTINUOUS
 10
143.5154814268
 20
69.4757971279
 11
143.5154814268
 21
74.4757971279
  0
LINE
  5
295
100
AcDbEntity
  8
0
100
AcDbLine
 62
7
  6
CONTINUOUS
 10
69.0154814268
 20
63.9757971279
 11
81.0154814268
 21
65.9757971279
  0
LINE
  5
296
100
AcDbEntity
  8
0
100
AcDbLine
 62
7
  6
CONTINUOUS
 10
243.5154814268
 20
74.4757971279
 11
238.5154814268
 21
74.4757971279
  0
LINE
  5
297
100
AcDbEntity
  8
0
100
AcDbLine
 62
7
  6
CONTINUOUS
 10
218.5154814268
 20
74.4757971279
 11
213.5154814268
 21
74.4757971279
  0
LINE
  5
298
100
AcDbEntity
  8
0
100
AcDbLine
 62
7
  6
CONTINUOUS
 10
193.5154814268
 20
74.4757971279
 11
188.5154814268
 21
74.4757971279
  0
LINE
  5
299
100
AcDbEntity
  8
0
100
AcDbLine
 62
7
  6
CONTINUOUS
 10
168.5154814268
 20
74.4757971279
 11
163.5154814268
 21
74.4757971279
  0
LINE
  5
29A
100
AcDbEntity
  8
0
100
AcDbLine
 62
7
  6
CONTINUOUS
 10
143.5154814268
 20
74.4757971279
 11
138.5154814268
 21
74.4757971279
  0
LINE
  5
29B
100
AcDbEntity
  8
0
100
AcDbLine
 62
7
  6
CONTINUOUS
 10
118.5154814268
 20
74.4757971279
 11
113.5154814268
 21
74.4757971279
  0
LINE
  5
29C
100
AcDbEntity
  8
0
100
AcDbLine
 62
7
  6
CONTINUOUS
 10
93.5154814268
 20
74.4757971279
 11
88.5154814268
 21
74.4757971279
  0
LINE
  5
29D
100
AcDbEntity
  8
0
100
AcDbLine
 62
7
  6
CONTINUOUS
 10
68.5154814268
 20
74.4757971279
 11
63.5154814268
 21
74.4757971279
  0
LINE
  5
29E
100
AcDbEntity
  8
0
100
AcDbLine
 62
7
  6
CONTINUOUS
 10
43.5154814268
 20
74.4757971279
 11
38.5154814268
 21
74.4757971279
  0
LINE
  5
29F
100
AcDbEntity
  8
0
100
AcDbLine
 62
7
  6
CONTINUOUS
 10
258.3126944226
 20
77.9757971279
 11
81.0154814268
 21
77.9757971279
  0
LINE
  5
2A0
100
AcDbEntity
  8
0
100
AcDbLine
 62
7
  6
CONTINUOUS
 10
23.0154814268
 20
79.9757971279
 11
69.0154814268
 21
79.9757971279
  0
LINE
  5
2A1
100
AcDbEntity
  8
0
100
AcDbLine
 62
7
  6
CONTINUOUS
 10
16.0154814268
 20
84.9757971279
 11
22.0154814268
 21
84.9757971279
  0
LINE
  5
2A2
100
AcDbEntity
  8
0
100
AcDbLine
 62
7
  6
CONTINUOUS
 10
163.5154814268
 20
74.4757971279
 11
163.5154814268
 21
69.4757971279
  0
LINE
  5
2A3
100
AcDbEntity
  8
0
100
AcDbLine
 62
7
  6
CONTINUOUS
 10
168.5154814268
 20
69.4757971279
 11
168.5154814268
 21
74.4757971279
  0
LINE
  5
2A4
100
AcDbEntity
  8
0
100
AcDbLine
 62
7
  6
CONTINUOUS
 10
188.5154814268
 20
74.4757971279
 11
188.5154814268
 21
69.4757971279
  0
LINE
  5
2A5
100
AcDbEntity
  8
0
100
AcDbLine
 62
7
  6
CONTINUOUS
 10
193.5154814268
 20
69.4757971279
 11
193.5154814268
 21
74.4757971279
  0
LINE
  5
2A6
100
AcDbEntity
  8
0
100
AcDbLine
 62
7
  6
CONTINUOUS
 10
213.5154814268
 20
74.4757971279
 11
213.5154814268
 21
69.4757971279
  0
LINE
  5
2A7
100
AcDbEntity
  8
0
100
AcDbLine
 62
7
  6
CONTINUOUS
 10
218.5154814268
 20
69.4757971279
 11
218.5154814268
 21
74.4757971279
  0
LINE
  5
2A8
100
AcDbEntity
  8
0
100
AcDbLine
 62
7
  6
CONTINUOUS
 10
238.5154814268
 20
74.4757971279
 11
238.5154814268
 21
69.4757971279
  0
LINE
  5
2A9
100
AcDbEntity
  8
0
100
AcDbLine
 62
7
  6
CONTINUOUS
 10
243.5154814268
 20
69.4757971279
 11
243.5154814268
 21
74.4757971279
  0
ARC
  5
2AA
100
AcDbEntity
  8
0
100
AcDbCircle
 62
7
  6
CONTINUOUS
 10
258.3102137984
 20
132.866633006
 40
6.0000002564
100
AcDbArc
 50
270.0236882158
 51
90.0
  0
CIRCLE
  5
2AB
100
AcDbEntity
  8
0
100
AcDbCircle
 62
4
  6
CONTINUOUS
 10
241.0154814268
 20
132.8666332624
 40
1.9939
  0
CIRCLE
  5
2AC
100
AcDbEntity
  8
0
100
AcDbCircle
 62
4
  6
CONTINUOUS
 10
216.0154814268
 20
132.8666332624
 40
1.9939
  0
CIRCLE
  5
2AD
100
AcDbEntity
  8
0
100
AcDbCircle
 62
4
  6
CONTINUOUS
 10
191.0154814268
 20
132.8666332624
 40
1.9939
  0
CIRCLE
  5
2AE
100
AcDbEntity
  8
0
100
AcDbCircle
 62
4
  6
CONTINUOUS
 10
116.0154814268
 20
132.8666332624
 40
1.9939
  0
CIRCLE
  5
2AF
100
AcDbEntity
  8
0
100
AcDbCircle
 62
4
  6
CONTINUOUS
 10
141.0154814268
 20
132.8666332624
 40
1.9939
  0
CIRCLE
  5
2B0
100
AcDbEntity
  8
0
100
AcDbCircle
 62
4
  6
CONTINUOUS
 10
166.0154814268
 20
132.8666332624
 40
1.9939
  0
CIRCLE
  5
2B1
100
AcDbEntity
  8
0
100
AcDbCircle
 62
4
  6
CONTINUOUS
 10
91.0154814268
 20
132.8666332624
 40
1.9939
  0
CIRCLE
  5
2B2
100
AcDbEntity
  8
0
100
AcDbCircle
 62
4
  6
CONTINUOUS
 10
66.0154814268
 20
132.8666332624
 40
1.9939
  0
CIRCLE
  5
2B3
100
AcDbEntity
  8
0
100
AcDbCircle
 62
4
  6
CONTINUOUS
 10
41.0154814268
 20
132.8666332624
 40
1.9939
  0
ARC
  5
2B4
100
AcDbEntity
  8
0
100
AcDbCircle
 62
7
  6
CONTINUOUS
 10
23.0154814268
 20
141.8666332624
 40
1.0
100
AcDbArc
 50
180.0
 51
270.0
  0
ARC
  5
2B5
100
AcDbEntity
  8
0
100
AcDbCircle
 62
7
  6
CONTINUOUS
 10
23.0154814268
 20
123.8666332624
 40
1.0
100
AcDbArc
 50
90.0
 51
180.0
  0
ARC
  5
2B6
100
AcDbEntity
  8
0
100
AcDbCircle
 62
7
  6
CONTINUOUS
 10
258.3102137984
 20
71.9757973843
 40
6.0000002564
100
AcDbArc
 50
270.0
 51
89.9763117842
  0
CIRCLE
  5
2B7
100
AcDbEntity
  8
0
100
AcDbCircle
 62
4
  6
CONTINUOUS
 10
241.0154814268
 20
71.9757971279
 40
1.9939
  0
CIRCLE
  5
2B8
100
AcDbEntity
  8
0
100
AcDbCircle
 62
4
  6
CONTINUOUS
 10
216.0154814268
 20
71.9757971279
 40
1.9939
  0
CIRCLE
  5
2B9
100
AcDbEntity
  8
0
100
AcDbCircle
 62
4
  6
CONTINUOUS
 10
191.0154814268
 20
71.9757971279
 40
1.9939
  0
CIRCLE
  5
2BA
100
AcDbEntity
  8
0
100
AcDbCircle
 62
4
  6
CONTINUOUS
 10
166.0154814268
 20
71.9757971279
 40
1.9939
  0
CIRCLE
  5
2BB
100
AcDbEntity
  8
0
100
AcDbCircle
 62
4
  6
CONTINUOUS
 10
141.0154814268
 20
71.9757971279
 40
1.9939
  0
CIRCLE
  5
2BC
100
AcDbEntity
  8
0
100
AcDbCircle
 62
4
  6
CONTINUOUS
 10
116.0154814268
 20
71.9757971279
 40
1.9939
  0
CIRCLE
  5
2BD
100
AcDbEntity
  8
0
100
AcDbCircle
 62
4
  6
CONTINUOUS
 10
91.0154814268
 20
71.9757971279
 40
1.9939
  0
CIRCLE
  5
2BE
100
AcDbEntity
  8
0
100
AcDbCircle
 62
4
  6
CONTINUOUS
 10
66.0154814268
 20
71.9757971279
 40
1.9939
  0
CIRCLE
  5
2BF
100
AcDbEntity
  8
0
100
AcDbCircle
 62
4
  6
CONTINUOUS
 10
41.0154814268
 20
71.9757971279
 40
1.9939
  0
ARC
  5
2C0
100
AcDbEntity
  8
0
100
AcDbCircle
 62
7
  6
CONTINUOUS
 10
23.0154814268
 20
62.9757971279
 40
1.0
100
AcDbArc
 50
90.0
 51
180.0
  0
ARC
  5
2C1
100
AcDbEntity
  8
0
100
AcDbCircle
 62
7
  6
CONTINUOUS
 10
23.0154814268
 20
80.9757971279
 40
1.0
100
AcDbArc
 50
180.0
 51
270.0
  0
ENDSEC
  0
SECTION
  2
OBJECTS
  0
DICTIONARY
  5
2C2
100
AcDbDictionary
  3
ACAD_GROUP
350
2C3
  3
ACAD_MLINESTYLE
350
2C4
  0
DICTIONARY
  5
2C3
102
{ACAD_REACTORS
330
2C2
102
}
100
AcDbDictionary
  0
DICTIONARY
  5
2C4
102
{ACAD_REACTORS
330
2C2
102
}
100
AcDbDictionary
  3
STANDARD
350
2C5
  0
MLINESTYLE
  5
2C5
102
{ACAD_REACTORS
330
2C4
102
}
100
AcDbMlineStyle
  2
STANDARD
 70
0
  3

 62
256
 51
90.0
 52
90.0
 71
2
 49
0.5
 62
256
  6
BYLAYER
 49
-0.5
 62
256
  6
BYLAYER
  0
ENDSEC
  0
EOF
