M48
;Layer_Color=6321
;FILE_FORMAT=4:4
METRIC,LZ
;TYPE=PLATED
T1F00S00C0.2000
T2F00S00C0.8000
;TYPE=NON_PLATED
T3F00S00C0.6500
T4F00S00C0.9700
T5F00S00C2.0000
T6F00S00C3.0000
%
T01
X00805037Y00616936
X00798037Y00647436
X00832037Y00652436
X00853037Y00647436
X00861037Y00651436
X00858037Y00628436
Y00611436
X00857837Y00569436
X00934037Y00569436
Y00589436
Y00612436
Y00628436
X00910037Y00628436
X00912037Y00647436
X00896037Y00651436
X00903037Y00663936
X00883037Y00665936
X00884037Y00679436
X00886037Y00689436
X00896037Y00708936
X00907037Y00734936
Y00752936
X00898037Y00756436
X00889037Y00753436
X00882037Y00756436
X00874931Y00752936
X00873037Y00760436
X00865537
X00870537Y00767436
X00847037Y00773436
Y00784436
X00858037
X00836037
X00794037Y00774936
X00800037Y00742436
X00802037Y00728436
X00815037
X00842037
X00856037
X00870037
X00854037Y00691436
X00832037Y00694436
Y00679436
X00867037Y00678436
X00921037Y00688436
X00947037Y00711436
X00953037Y00725436
X00971037
X00989037
X00991037Y00695436
X00974037Y00688436
X00972038Y00655936
X00958037Y00647436
X00959037Y00628436
X00986037Y00627936
X00985037Y00612436
Y00588436
Y00569436
X00959037Y00579436
X01036037Y00569436
X01037037Y00597436
X01061537Y00602436
X01062037Y00583436
X01086037Y00578436
Y00570436
X01124037Y00574436
X01132087Y00641936
X01140037Y00665936
X01111037Y00672936
X01079037Y00669436
X01061037Y00671436
X01066537Y00656436
X01033037Y00647436
X01023037Y00649936
X01026037Y00661436
X01025037Y00673936
X01006037Y00682436
X01029037Y00701436
X01026537Y00717936
X01024037Y00737436
X01006537Y00748436
X00999537
Y00755436
X01006537
X01035037Y00757436
X01035038Y00773936
X01058037Y00774436
X01087001Y00786936
X01088037Y00757436
X01100037
X01119037Y00770436
Y00791436
X01138037Y00749436
X01150037Y00739436
X01173037Y00744102
Y00772769
Y00715436
Y00686769
Y00658102
Y00629436
X01099037Y00642436
Y00704436
X01100037Y00722436
X01088037Y00722436
X01075037Y00718936
X01062037
X01075037Y00695436
X01049037Y00694436
X01081837Y00739936
X01139037Y00702436
X00991037Y00647436
X00952038Y00662936
X00936037Y00735936
Y00748936
X00941037Y00758936
X00931037
X00917037Y00783936
X00955037Y00783436
X00963037Y00787936
Y00778936
X00971037Y00783436
X00983538Y00790436
X01008037Y00790436
X00799037Y00692936
X00782037Y00716436
Y00729436
X00789037Y00738897
X00792037Y00752936
X00776537Y00745436
X00775537Y00774436
X00741037Y00750436
X00717037
Y00726436
X00705037Y00714936
X00737036Y00702435
X00741037Y00726436
X00729036Y00738435
X00694537Y00751936
X00674987Y00735436
X00661038Y00728936
X00654037Y00738436
X00646037Y00732436
X00638037Y00749436
X00654037Y00758936
X00652037Y00784936
X00644037
Y00791936
X00637037Y00779436
X00593037Y00781936
X00582037Y00783436
X00576037Y00778436
X00562037
X00548037
X00534037
X00541037Y00749936
X00553037
X00564037Y00730436
X00540037
X00541128Y00707526
X00552036Y00718435
X00564037Y00706436
X00571037Y00684936
X00556037
X00538248Y00686723
X00522037Y00686936
X00517337Y00661886
X00485037Y00661936
X00483037Y00679436
X00470037
X00470537Y00703436
X00489037Y00703936
X00481037Y00715436
X00471037Y00725436
X00464037Y00721436
X00452787
X00441537
X00432037Y00727936
X00424037Y00721436
X00414037Y00716436
X00430037Y00704436
X00432037Y00742436
X00440037Y00761436
X00430037Y00769436
X00420037Y00757436
X00418537Y00782436
Y00790436
X00425537
X00474037Y00739436
X00492037Y00742436
Y00727436
X00512207Y00710265
X00519037Y00742436
X00577037
X00587038Y00757936
X00608037Y00749436
X00595037Y00728936
X00587037Y00713936
X00620037Y00714936
X00614038Y00720936
X00620037Y00726936
X00657037Y00708436
X00668037Y00705936
X00646037Y00684936
X00635537Y00643436
X00616437Y00641936
X00653037Y00626936
X00680037Y00622436
X00679037Y00649936
X00664037Y00647436
X00704037Y00649936
X00724037Y00647436
X00742038Y00649936
X00754037Y00649436
X00756037Y00628436
X00731037Y00614436
Y00569436
X00756037Y00588436
X00783037Y00652436
X00729037Y00680436
X00718037Y00680936
X00712037Y00774436
X00681037Y00569436
X00655037Y00573936
X00630537Y00579686
X00629037Y00593436
X00601537Y00576936
X00586037Y00567436
X00542037
X00530037Y00586436
X00499037Y00589436
X00498037Y00567436
X00482537Y00577436
X00484037Y00601936
X00484037Y00617436
X00487037Y00632436
X00490037Y00644436
X00482037Y00644436
X00471037Y00631436
X00443037Y00623936
X00442537Y00603436
X00438037Y00585436
X00457037Y00588436
X00413037Y00578436
X00399317
X00398037Y00652436
X00428537Y00650936
X00439037
X00451037Y00650936
X00499037Y00622436
X00535537Y00621436
X00381037Y00620436
X00382037Y00604436
Y00590436
X00356037Y00591436
X00326037Y00586936
X00333037Y00621436
X00337037Y00640436
X00345037Y00637936
X00358704Y00638436
X00373037
X00380537Y00640936
X00388037Y00637936
X00395767Y00672166
X00384037Y00677936
X00380037Y00705936
X00392037Y00704436
X00394037Y00729436
X00363037Y00723436
X00346037Y00704436
X00310037Y00702436
X00294087Y00702236
X00297036Y00715436
X00294187Y00728386
X00310037Y00728436
X00320037Y00740436
X00317037Y00755436
X00338037Y00754436
X00347038Y00753936
X00357037Y00768436
X00369188Y00768586
X00384037Y00772436
X00389037Y00786436
X00349037Y00789436
X00329037Y00775436
X00307037
X00297037Y00748436
X00269537Y00780436
X00237037Y00780936
X00217537
X00198037Y00774436
X00214037Y00754436
X00201037Y00715936
X00195037Y00676436
X00222037Y00690436
X00233037Y00700936
X00260037Y00702436
X00256037Y00726436
X00244037
X00247037Y00735436
X00271037Y00648436
X00286037
X00305037Y00645436
X00308037Y00637436
X00297037Y00629436
X00275037
X00284037Y00609436
Y00598436
X00292037Y00568936
X00252037
X00212037
X00203037Y00589436
X00193037Y00594936
X00203037Y00617436
X00193037Y00629436
X00212037Y00639936
X00238037Y00629436
X00300037Y00676436
X00319037Y00680436
X00339537Y00656436
X00375037Y00566436
X00382037Y00794436
X00362037Y00812936
Y00845936
X00372037Y00866436
X00338037Y00838436
X00313037Y00808436
X00276537Y00806936
X00285337Y00823686
X00285037Y00835436
X00292037Y00864436
X00261704
X00215037Y00864936
X00203037Y00843436
X00193037Y00842936
X00203037Y00815436
X00194037Y00800436
X00240537Y00826936
X00421037Y00824936
X00430537Y00816436
X00442037Y00815936
X00445037Y00823936
X00448537Y00794436
X00465037Y00795936
X00502037Y00817436
X00510037
X00514037Y00826936
X00504037
X00511037Y00847436
X00536037Y00841936
X00531037Y00867436
X00527037Y00817436
X00617037Y00837436
X00607537Y00867436
X00695037Y00846436
X00731037
X00782037Y00829436
X00704037Y00801936
X00684037Y00798936
X00674037Y00801936
Y00793936
X00665037
Y00801936
X00401037Y00795436
X00794037Y00802436
X00820537Y00819436
X00844964Y00811862
X00847037Y00795436
X00848037Y00841436
X00833037
X00843037Y00866936
X00798037Y00846435
X00896037Y00845936
X00898037Y00807436
X00883037
X00920037Y00814436
X00944037Y00843436
X00956037Y00864436
X00993037
X00984037Y00834436
X00975037Y00805436
X01003037Y00813436
X01025415Y00804936
X01024372Y00793936
X01034037Y00824936
X01044037Y00841436
X01073037Y00849436
Y00865436
X01083037Y00840936
X01106037Y00812436
Y00796436
X01065037Y00804436
X01173037Y00801435
X01130037Y00864436
T02
X01118037Y00706436
Y00726436
T03
X00404238Y00815636
X00462038
T04
X00794237Y00589036
X00819637
X00845037
X00870437
X00895837
X00921237
X00946637
X00972037
X00997437
X01022837
X01048237
X01073637
X01099037
Y00614436
X01073637
X01048237
X01022837
X00997437
X00972037
X00946637
X00921237
X00895837
X00870437
X00845037
X00819637
X00794237
X00768837
Y00589036
X00743437
Y00614436
X00718037
Y00589036
X00692637
Y00614436
X00667237
Y00589036
X00641837
Y00614436
X00616437
Y00589036
T05
X00933037Y00656936
T06
X01148037Y00601936
X00568037
Y00831936
X01148037
M30
