G04*
G04 #@! TF.GenerationSoftware,Altium Limited,CircuitStudio,1.5.2 (30)*
G04*
G04 Layer_Color=7318015*
%FSLAX44Y44*%
%MOMM*%
G71*
G01*
G75*
%ADD10R,0.9300X0.7400*%
%ADD11R,1.8000X0.8000*%
%ADD12R,0.6000X0.7000*%
%ADD13R,0.7400X0.9300*%
%ADD15R,1.5000X0.9000*%
D10*
X611130Y998670D02*
D03*
Y986570D02*
D03*
X861130Y998670D02*
D03*
Y986570D02*
D03*
X1111130Y998670D02*
D03*
Y986570D02*
D03*
X1361130Y998670D02*
D03*
Y986570D02*
D03*
X1611130Y998670D02*
D03*
Y986570D02*
D03*
X1861130Y998670D02*
D03*
Y986570D02*
D03*
X2111130Y998670D02*
D03*
Y986570D02*
D03*
X2361130Y998670D02*
D03*
Y986570D02*
D03*
X2611130Y998670D02*
D03*
Y986570D02*
D03*
X2754130Y998670D02*
D03*
Y986570D02*
D03*
D11*
X2847507Y962180D02*
D03*
Y974880D02*
D03*
Y987580D02*
D03*
Y1000280D02*
D03*
D12*
X2747130Y954170D02*
D03*
X2737130D02*
D03*
D13*
X2748180Y940170D02*
D03*
X2736080D02*
D03*
X474930Y967170D02*
D03*
X462830D02*
D03*
D15*
X679630Y998670D02*
D03*
Y965670D02*
D03*
X630630D02*
D03*
Y998670D02*
D03*
X880630D02*
D03*
Y965670D02*
D03*
X929630D02*
D03*
Y998670D02*
D03*
X1179630D02*
D03*
Y965670D02*
D03*
X1130630D02*
D03*
Y998670D02*
D03*
X1380630D02*
D03*
Y965670D02*
D03*
X1429630D02*
D03*
Y998670D02*
D03*
X1679630D02*
D03*
Y965670D02*
D03*
X1630630D02*
D03*
Y998670D02*
D03*
X1880630D02*
D03*
Y965670D02*
D03*
X1929630D02*
D03*
Y998670D02*
D03*
X2179630D02*
D03*
Y965670D02*
D03*
X2130630D02*
D03*
Y998670D02*
D03*
X2380630D02*
D03*
Y965670D02*
D03*
X2429630D02*
D03*
Y998670D02*
D03*
X2679630D02*
D03*
Y965670D02*
D03*
X2630630D02*
D03*
Y998670D02*
D03*
X2774130Y998670D02*
D03*
Y965670D02*
D03*
X2823130D02*
D03*
Y998670D02*
D03*
M02*
