G04*
G04 #@! TF.GenerationSoftware,Altium Limited,CircuitStudio,1.5.2 (30)*
G04*
G04 Layer_Physical_Order=2*
G04 Layer_Color=12500520*
%FSLAX44Y44*%
%MOMM*%
G71*
G01*
G75*
%ADD10R,0.9300X0.7400*%
%ADD13R,0.7400X0.9300*%
%ADD14C,1.0000*%
%ADD15R,1.5000X0.9000*%
%ADD16C,0.3000*%
%ADD18C,0.7500*%
%ADD19C,0.4500*%
%ADD20C,0.6000*%
%ADD21C,0.2000*%
%ADD22C,0.2500*%
%ADD23C,0.5000*%
%ADD24R,0.8000X1.0000*%
%ADD25R,0.7000X0.6000*%
%ADD26R,2.8000X2.1000*%
%ADD27R,1.9000X0.6000*%
%ADD28R,2.4000X1.6000*%
%ADD29R,1.4000X0.9000*%
%ADD30R,4.4000X1.6000*%
G36*
X2799787Y990827D02*
X2804787Y985827D01*
X2805862Y985108D01*
X2806072Y985067D01*
X2807130Y984856D01*
X2836130D01*
Y977816D01*
X2834130Y976988D01*
X2832605Y978513D01*
X2831530Y979231D01*
X2831319Y979273D01*
X2830262Y979484D01*
X2806502D01*
X2797444Y988542D01*
Y990734D01*
X2799444Y991340D01*
X2799787Y990827D01*
D02*
G37*
G36*
X2836421Y1031758D02*
X2836421Y1031758D01*
X2837016Y1031360D01*
X2837414Y1031095D01*
X2838584Y1030862D01*
X2840112D01*
X2843706Y1027268D01*
X2842941Y1025420D01*
X2836130D01*
Y1005420D01*
X2864130D01*
Y1021781D01*
X2865952Y1022606D01*
X2867317Y1021409D01*
X2872103Y1015951D01*
X2876136Y1009916D01*
X2879346Y1003406D01*
X2881680Y996532D01*
X2883096Y989413D01*
X2883571Y982170D01*
X2883096Y974927D01*
X2881680Y967808D01*
X2879346Y960934D01*
X2876136Y954424D01*
X2872103Y948389D01*
X2867317Y942931D01*
X2861860Y938145D01*
X2859241Y936396D01*
X2857477Y937338D01*
Y947170D01*
X2839477D01*
Y943984D01*
X2799002D01*
X2790444Y952542D01*
Y983342D01*
X2792444Y984170D01*
X2802787Y973827D01*
X2803862Y973109D01*
X2805130Y972856D01*
X2811914D01*
X2813630Y972170D01*
Y967484D01*
X2801270D01*
X2799886Y968409D01*
X2798130Y968758D01*
X2796374Y968409D01*
X2794886Y967414D01*
X2793891Y965926D01*
X2793542Y964170D01*
X2793891Y962414D01*
X2794886Y960926D01*
X2796374Y959931D01*
X2798130Y959582D01*
X2799886Y959931D01*
X2801270Y960856D01*
X2813630D01*
Y959170D01*
X2832630D01*
Y966502D01*
X2834478Y967268D01*
X2836418Y965327D01*
X2837494Y964609D01*
X2837704Y964567D01*
X2838762Y964356D01*
X2839477D01*
Y961170D01*
X2857477D01*
Y974170D01*
X2839478D01*
X2839477Y974170D01*
Y974170D01*
X2837689Y973429D01*
X2836198Y974920D01*
X2837026Y976920D01*
X2864130D01*
Y996920D01*
X2836130D01*
Y992324D01*
X2834428Y991682D01*
X2832630Y992696D01*
Y1005170D01*
X2826699D01*
X2826427Y1006536D01*
X2825653Y1007693D01*
X2822653Y1010693D01*
X2821496Y1011467D01*
X2820780Y1011609D01*
Y1024820D01*
X2819413D01*
Y1025220D01*
X2819083Y1026878D01*
X2818144Y1028284D01*
X2816317Y1030111D01*
X2816362Y1030634D01*
X2816985Y1032111D01*
X2836068D01*
X2836421Y1031758D01*
D02*
G37*
G36*
X660940Y1010417D02*
X660942Y1010307D01*
X646967Y996333D01*
X646304Y995340D01*
X646071Y994170D01*
X646071Y994170D01*
Y965437D01*
X639863Y959229D01*
X564130D01*
Y972170D01*
X545130D01*
Y963140D01*
X543872Y962581D01*
X543130Y962413D01*
X541373Y963586D01*
X539130Y964033D01*
X538993D01*
Y966170D01*
Y1007742D01*
X543558Y1012307D01*
X568267D01*
Y1004532D01*
X564130D01*
Y1005170D01*
X545130D01*
Y992170D01*
X564130D01*
Y992807D01*
X574130D01*
X574948Y992970D01*
X580780D01*
Y1004370D01*
X579993D01*
Y1012307D01*
X605267D01*
Y1012170D01*
X605714Y1009926D01*
X606984Y1008024D01*
X608886Y1006754D01*
X611130Y1006307D01*
X613373Y1006754D01*
X615275Y1008024D01*
X616546Y1009926D01*
X616993Y1012170D01*
Y1012307D01*
X660322D01*
X660940Y1010417D01*
D02*
G37*
G36*
X460542Y1072170D02*
X460505D01*
X461003Y1068385D01*
X462464Y1064858D01*
X464789Y1061829D01*
X467817Y1059504D01*
X471345Y1058043D01*
X475130Y1057545D01*
Y1057582D01*
X934751D01*
X1054376Y1037644D01*
X1054757Y1037656D01*
X1055130Y1037582D01*
X2605388D01*
X2606216Y1035582D01*
X2601863Y1031229D01*
X534498D01*
X534374Y1031414D01*
X532886Y1032409D01*
X531130Y1032758D01*
X529374Y1032409D01*
X527886Y1031414D01*
X527762Y1031229D01*
X514343D01*
X513941Y1031726D01*
X513411Y1033125D01*
X516397Y1036111D01*
X539762D01*
X539886Y1035926D01*
X541374Y1034931D01*
X543130Y1034582D01*
X544886Y1034931D01*
X546374Y1035926D01*
X547369Y1037414D01*
X547718Y1039170D01*
X547369Y1040926D01*
X546374Y1042414D01*
X544886Y1043409D01*
X543130Y1043758D01*
X541374Y1043409D01*
X539886Y1042414D01*
X539762Y1042229D01*
X534435D01*
X533920Y1043052D01*
X533577Y1044229D01*
X534369Y1045414D01*
X534718Y1047170D01*
X534369Y1048926D01*
X533374Y1050414D01*
X531886Y1051409D01*
X530130Y1051758D01*
X528374Y1051409D01*
X526886Y1050414D01*
X526762Y1050229D01*
X512130D01*
X510959Y1049996D01*
X510562Y1049730D01*
X509967Y1049333D01*
X509967Y1049333D01*
X482380Y1021746D01*
X480380Y1022170D01*
Y1022170D01*
X457380D01*
Y1014170D01*
X457380Y1012170D01*
Y1012170D01*
D01*
X457380Y1010170D01*
Y1002170D01*
X480380D01*
Y1004111D01*
X483130D01*
X483130Y1004111D01*
X484301Y1004344D01*
X485293Y1005007D01*
X487175Y1006889D01*
X488574Y1006358D01*
X489071Y1005957D01*
Y996437D01*
X482863Y990229D01*
X480380D01*
Y992170D01*
X457380D01*
Y982170D01*
X480380D01*
Y984111D01*
X484130D01*
X484130Y984111D01*
X485301Y984344D01*
X486293Y985007D01*
X494130Y992844D01*
X494397Y992814D01*
X496130Y992170D01*
X496130Y992170D01*
X496130Y992170D01*
X496130Y992170D01*
X499985D01*
X501054Y990170D01*
X500891Y989926D01*
X500542Y988170D01*
X500751Y987117D01*
X489967Y976333D01*
X489304Y975340D01*
X489071Y974170D01*
X489071Y974170D01*
Y971475D01*
X488248Y970960D01*
X487071Y970617D01*
X485886Y971409D01*
X484130Y971758D01*
X482374Y971409D01*
X480380Y972170D01*
Y972170D01*
X457380D01*
Y962170D01*
X480380D01*
Y962170D01*
X482374Y962931D01*
X484130Y962582D01*
X485886Y962931D01*
X487071Y963723D01*
X488248Y963380D01*
X489071Y962866D01*
Y958437D01*
X482380Y951746D01*
X480380Y952170D01*
Y952170D01*
X457380D01*
Y942170D01*
X457380Y942170D01*
X457113Y940281D01*
X457091Y940170D01*
Y924363D01*
X456642Y923993D01*
X455200Y923426D01*
X443189Y935437D01*
Y1028403D01*
X448897Y1034111D01*
X457380D01*
Y1032170D01*
X480380D01*
Y1042170D01*
X457380D01*
Y1040229D01*
X447630D01*
X446460Y1039996D01*
X446062Y1039730D01*
X445467Y1039333D01*
X445467Y1039333D01*
X437967Y1031833D01*
X437304Y1030841D01*
X437071Y1029670D01*
X437071Y1029670D01*
Y934170D01*
X437071Y934170D01*
X437304Y932999D01*
X437967Y932007D01*
X452467Y917507D01*
X453459Y916844D01*
X454630Y916611D01*
X454630Y916611D01*
X527762D01*
X527886Y916426D01*
X529374Y915431D01*
X531130Y915082D01*
X532886Y915431D01*
X534374Y916426D01*
X534498Y916611D01*
X538630D01*
X538630Y916611D01*
X539800Y916844D01*
X540793Y917507D01*
X566397Y943111D01*
X2707130D01*
X2707130Y943111D01*
X2708300Y943344D01*
X2709293Y944007D01*
X2719793Y954507D01*
X2720456Y955499D01*
X2720689Y956670D01*
Y963170D01*
X2723630D01*
Y977170D01*
X2711630D01*
Y963170D01*
X2714571D01*
Y957937D01*
X2705863Y949229D01*
X565130D01*
X565130Y949229D01*
X563959Y948996D01*
X562967Y948333D01*
X562967Y948333D01*
X537363Y922729D01*
X534498D01*
X534374Y922914D01*
X532886Y923909D01*
X531130Y924258D01*
X529374Y923909D01*
X527886Y922914D01*
X527762Y922729D01*
X506795D01*
X505169Y924170D01*
Y927307D01*
X520130D01*
X522374Y927754D01*
X524276Y929024D01*
X537276Y942024D01*
X538546Y943926D01*
X538993Y946170D01*
Y952307D01*
X539130D01*
X541373Y952754D01*
X543275Y954025D01*
X544546Y955926D01*
X544819Y957299D01*
X544993Y958170D01*
X544993Y958170D01*
X546833Y959170D01*
X549683D01*
X551571Y958670D01*
X551804Y957499D01*
X552467Y956507D01*
X554967Y954007D01*
X554967Y954007D01*
X555959Y953344D01*
X557130Y953111D01*
X557130Y953111D01*
X641130D01*
X641130Y953111D01*
X642300Y953344D01*
X643293Y954007D01*
X651293Y962007D01*
X651956Y962999D01*
X652189Y964170D01*
Y992903D01*
X664397Y1005111D01*
X746130D01*
Y992170D01*
X765130D01*
Y1005170D01*
X758189D01*
Y1006170D01*
X757956Y1007340D01*
X757293Y1008333D01*
X755318Y1010307D01*
X755320Y1010417D01*
X755938Y1012307D01*
X818267D01*
Y1004532D01*
X814130D01*
Y1005170D01*
X795130D01*
Y992170D01*
X814130D01*
Y992807D01*
X824130D01*
X824948Y992970D01*
X830780D01*
Y1004370D01*
X829993D01*
Y1012307D01*
X855267D01*
Y1012170D01*
X855714Y1009926D01*
X856984Y1008024D01*
X858886Y1006754D01*
X861130Y1006307D01*
X863373Y1006754D01*
X865275Y1008024D01*
X866546Y1009926D01*
X866993Y1012170D01*
Y1012307D01*
X910322D01*
X910940Y1010417D01*
X910942Y1010307D01*
X896967Y996333D01*
X896304Y995340D01*
X896071Y994170D01*
X896071Y994170D01*
Y965437D01*
X889863Y959229D01*
X814130D01*
Y972170D01*
X795130D01*
Y959170D01*
X799683D01*
X801571Y958670D01*
X801804Y957499D01*
X802467Y956507D01*
X804967Y954007D01*
X804967Y954007D01*
X805959Y953344D01*
X807130Y953111D01*
X807130Y953111D01*
X891130D01*
X891130Y953111D01*
X892300Y953344D01*
X893293Y954007D01*
X901293Y962007D01*
X901956Y962999D01*
X902189Y964170D01*
Y992903D01*
X914397Y1005111D01*
X996130D01*
Y992170D01*
X1015130D01*
Y1005170D01*
X1008189D01*
Y1006170D01*
X1007956Y1007340D01*
X1007293Y1008333D01*
X1005318Y1010307D01*
X1005320Y1010417D01*
X1005938Y1012307D01*
X1068267D01*
Y1004532D01*
X1064130D01*
Y1005170D01*
X1045130D01*
Y992170D01*
X1064130D01*
Y992807D01*
X1074130D01*
X1074948Y992970D01*
X1080780D01*
Y1004370D01*
X1079993D01*
Y1012307D01*
X1105267D01*
Y1012170D01*
X1105714Y1009926D01*
X1106985Y1008024D01*
X1108886Y1006754D01*
X1111130Y1006307D01*
X1113374Y1006754D01*
X1115276Y1008024D01*
X1116546Y1009926D01*
X1116993Y1012170D01*
Y1012307D01*
X1160322D01*
X1160940Y1010417D01*
X1160942Y1010307D01*
X1146967Y996333D01*
X1146304Y995340D01*
X1146071Y994170D01*
X1146071Y994170D01*
Y965437D01*
X1139863Y959229D01*
X1064130D01*
Y972170D01*
X1045130D01*
Y959170D01*
X1049683D01*
X1051571Y958670D01*
X1051804Y957499D01*
X1052467Y956507D01*
X1054967Y954007D01*
X1054967Y954007D01*
X1055959Y953344D01*
X1057130Y953111D01*
X1057130Y953111D01*
X1141130D01*
X1141130Y953111D01*
X1142300Y953344D01*
X1143293Y954007D01*
X1151293Y962007D01*
X1151956Y962999D01*
X1152189Y964170D01*
Y992903D01*
X1164397Y1005111D01*
X1246130D01*
Y992170D01*
X1265130D01*
Y1005170D01*
X1258189D01*
Y1006170D01*
X1257956Y1007340D01*
X1257293Y1008333D01*
X1255318Y1010307D01*
X1255320Y1010417D01*
X1255938Y1012307D01*
X1318267D01*
Y1004532D01*
X1314130D01*
Y1005170D01*
X1295130D01*
Y992170D01*
X1314130D01*
Y992807D01*
X1324130D01*
X1324948Y992970D01*
X1330780D01*
Y1004370D01*
X1329993D01*
Y1012307D01*
X1355267D01*
Y1012170D01*
X1355714Y1009926D01*
X1356985Y1008024D01*
X1358886Y1006754D01*
X1361130Y1006307D01*
X1363374Y1006754D01*
X1365276Y1008024D01*
X1366546Y1009926D01*
X1366993Y1012170D01*
Y1012307D01*
X1410322D01*
X1410940Y1010417D01*
X1410942Y1010307D01*
X1396967Y996333D01*
X1396304Y995340D01*
X1396071Y994170D01*
X1396071Y994170D01*
Y965437D01*
X1389863Y959229D01*
X1314130D01*
Y972170D01*
X1295130D01*
Y959170D01*
X1299683D01*
X1301571Y958670D01*
X1301804Y957499D01*
X1302467Y956507D01*
X1304967Y954007D01*
X1304967Y954007D01*
X1305959Y953344D01*
X1307130Y953111D01*
X1307130Y953111D01*
X1391130D01*
X1391130Y953111D01*
X1392301Y953344D01*
X1393293Y954007D01*
X1401293Y962007D01*
X1401956Y962999D01*
X1402189Y964170D01*
Y992903D01*
X1414397Y1005111D01*
X1496130D01*
Y992170D01*
X1515130D01*
Y1005170D01*
X1508189D01*
Y1006170D01*
X1507956Y1007340D01*
X1507293Y1008333D01*
X1505318Y1010307D01*
X1505320Y1010417D01*
X1505938Y1012307D01*
X1568267D01*
Y1004532D01*
X1564130D01*
Y1005170D01*
X1545130D01*
Y992170D01*
X1564130D01*
Y992807D01*
X1574130D01*
X1574948Y992970D01*
X1580780D01*
Y1004370D01*
X1579993D01*
Y1012307D01*
X1605267D01*
Y1012170D01*
X1605714Y1009926D01*
X1606985Y1008024D01*
X1608887Y1006754D01*
X1611130Y1006307D01*
X1613374Y1006754D01*
X1615276Y1008024D01*
X1616546Y1009926D01*
X1616993Y1012170D01*
Y1012307D01*
X1660322D01*
X1660940Y1010417D01*
X1660942Y1010307D01*
X1646967Y996333D01*
X1646304Y995340D01*
X1646071Y994170D01*
X1646071Y994170D01*
Y965437D01*
X1639863Y959229D01*
X1564130D01*
Y972170D01*
X1545130D01*
Y959170D01*
X1549683D01*
X1551571Y958670D01*
X1551804Y957499D01*
X1552467Y956507D01*
X1554967Y954007D01*
X1554967Y954007D01*
X1555959Y953344D01*
X1557130Y953111D01*
X1557130Y953111D01*
X1641130D01*
X1641130Y953111D01*
X1642301Y953344D01*
X1643293Y954007D01*
X1651293Y962007D01*
X1651956Y962999D01*
X1652189Y964170D01*
Y992903D01*
X1664397Y1005111D01*
X1746130D01*
Y992170D01*
X1765130D01*
Y1005170D01*
X1758189D01*
Y1006170D01*
X1757956Y1007340D01*
X1757293Y1008333D01*
X1755318Y1010307D01*
X1755320Y1010417D01*
X1755938Y1012307D01*
X1818267D01*
Y1004532D01*
X1814130D01*
Y1005170D01*
X1795130D01*
Y992170D01*
X1814130D01*
Y992807D01*
X1824130D01*
X1824948Y992970D01*
X1830780D01*
Y1004370D01*
X1829993D01*
Y1012307D01*
X1855267D01*
Y1012170D01*
X1855714Y1009926D01*
X1856985Y1008024D01*
X1858887Y1006754D01*
X1861130Y1006307D01*
X1863374Y1006754D01*
X1865276Y1008024D01*
X1866546Y1009926D01*
X1866993Y1012170D01*
Y1012307D01*
X1910322D01*
X1910940Y1010417D01*
X1910942Y1010307D01*
X1896967Y996333D01*
X1896304Y995340D01*
X1896071Y994170D01*
X1896071Y994170D01*
Y965437D01*
X1889863Y959229D01*
X1814130D01*
Y972170D01*
X1795130D01*
Y959170D01*
X1799683D01*
X1801571Y958670D01*
X1801804Y957499D01*
X1802467Y956507D01*
X1804967Y954007D01*
X1804967Y954007D01*
X1805959Y953344D01*
X1807130Y953111D01*
X1807130Y953111D01*
X1891130D01*
X1891130Y953111D01*
X1892301Y953344D01*
X1893293Y954007D01*
X1901293Y962007D01*
X1901956Y962999D01*
X1902189Y964170D01*
Y992903D01*
X1914397Y1005111D01*
X1996130D01*
Y992170D01*
X2015130D01*
Y1005170D01*
X2008189D01*
Y1006170D01*
X2007956Y1007340D01*
X2007293Y1008333D01*
X2005318Y1010307D01*
X2005320Y1010417D01*
X2005938Y1012307D01*
X2068267D01*
Y1004532D01*
X2064130D01*
Y1005170D01*
X2045130D01*
Y992170D01*
X2064130D01*
Y992807D01*
X2074130D01*
X2074948Y992970D01*
X2080780D01*
Y1004370D01*
X2079993D01*
Y1012307D01*
X2105267D01*
Y1012170D01*
X2105714Y1009926D01*
X2106985Y1008024D01*
X2108886Y1006754D01*
X2111130Y1006307D01*
X2113374Y1006754D01*
X2115276Y1008024D01*
X2116546Y1009926D01*
X2116993Y1012170D01*
Y1012307D01*
X2160322D01*
X2160940Y1010417D01*
X2160942Y1010307D01*
X2146967Y996333D01*
X2146304Y995340D01*
X2146071Y994170D01*
X2146071Y994170D01*
Y965437D01*
X2139863Y959229D01*
X2064130D01*
Y972170D01*
X2045130D01*
Y959170D01*
X2049683D01*
X2051571Y958670D01*
X2051804Y957499D01*
X2052467Y956507D01*
X2054967Y954007D01*
X2054967Y954007D01*
X2055959Y953344D01*
X2057130Y953111D01*
X2057130Y953111D01*
X2141130D01*
X2141130Y953111D01*
X2142301Y953344D01*
X2143293Y954007D01*
X2151293Y962007D01*
X2151956Y962999D01*
X2152189Y964170D01*
Y992903D01*
X2164397Y1005111D01*
X2246130D01*
Y992170D01*
X2265130D01*
Y1005170D01*
X2258189D01*
Y1006170D01*
X2257956Y1007340D01*
X2257293Y1008333D01*
X2255318Y1010307D01*
X2255320Y1010417D01*
X2255938Y1012307D01*
X2318267D01*
Y1004532D01*
X2314130D01*
Y1005170D01*
X2295130D01*
Y992170D01*
X2314130D01*
Y992807D01*
X2324130D01*
X2324948Y992970D01*
X2330780D01*
Y1004370D01*
X2329993D01*
Y1012307D01*
X2355267D01*
Y1012170D01*
X2355714Y1009926D01*
X2356985Y1008024D01*
X2358886Y1006754D01*
X2361130Y1006307D01*
X2363374Y1006754D01*
X2365276Y1008024D01*
X2366546Y1009926D01*
X2366993Y1012170D01*
Y1012307D01*
X2410322D01*
X2410940Y1010417D01*
X2410942Y1010307D01*
X2396967Y996333D01*
X2396304Y995340D01*
X2396071Y994170D01*
X2396071Y994170D01*
Y965437D01*
X2389863Y959229D01*
X2314130D01*
Y972170D01*
X2295130D01*
Y959170D01*
X2299683D01*
X2301571Y958670D01*
X2301804Y957499D01*
X2302467Y956507D01*
X2304967Y954007D01*
X2304967Y954007D01*
X2305959Y953344D01*
X2307130Y953111D01*
X2307130Y953111D01*
X2391130D01*
X2391130Y953111D01*
X2392301Y953344D01*
X2393293Y954007D01*
X2401293Y962007D01*
X2401956Y962999D01*
X2402189Y964170D01*
Y992903D01*
X2414397Y1005111D01*
X2496130D01*
Y992170D01*
X2515130D01*
Y1005170D01*
X2508189D01*
Y1006170D01*
X2507956Y1007340D01*
X2507293Y1008333D01*
X2505318Y1010307D01*
X2505320Y1010417D01*
X2505938Y1012307D01*
X2568268D01*
Y1004532D01*
X2564130D01*
Y1005170D01*
X2545130D01*
Y992170D01*
X2564130D01*
Y992807D01*
X2574130D01*
X2574948Y992970D01*
X2580780D01*
Y1004370D01*
X2579993D01*
Y1012307D01*
X2605267D01*
Y1012170D01*
X2605714Y1009926D01*
X2606985Y1008024D01*
X2608886Y1006754D01*
X2611130Y1006307D01*
X2613373Y1006754D01*
X2615276Y1008024D01*
X2616546Y1009926D01*
X2616992Y1012170D01*
Y1017905D01*
X2621925Y1022837D01*
X2749797D01*
Y1019452D01*
X2749542Y1018170D01*
X2749891Y1016414D01*
X2750886Y1014926D01*
X2752374Y1013931D01*
X2754130Y1013582D01*
X2755886Y1013931D01*
X2757374Y1014926D01*
X2758369Y1016414D01*
X2758718Y1018170D01*
X2758463Y1019452D01*
Y1022837D01*
X2771906D01*
X2773630Y1022170D01*
Y1012170D01*
X2783816D01*
Y1007093D01*
X2783630Y1005170D01*
X2781816Y1005170D01*
X2764630D01*
Y1001729D01*
X2759897D01*
X2747293Y1014333D01*
X2746300Y1014996D01*
X2745130Y1015229D01*
X2745130Y1015229D01*
X2681130D01*
X2681130Y1015229D01*
X2679959Y1014996D01*
X2678967Y1014333D01*
X2633363Y968729D01*
X2564130D01*
Y972170D01*
X2545130D01*
Y959170D01*
X2564130D01*
Y962611D01*
X2634630D01*
X2634630Y962611D01*
X2635800Y962844D01*
X2636793Y963507D01*
X2682397Y1009111D01*
X2743863D01*
X2756467Y996507D01*
X2757459Y995844D01*
X2758630Y995611D01*
X2758630Y995611D01*
X2764630D01*
Y992170D01*
X2781816D01*
X2783630Y992170D01*
X2783816Y990247D01*
Y951170D01*
X2784027Y950112D01*
X2784069Y949902D01*
X2784787Y948827D01*
X2795287Y938327D01*
X2796362Y937609D01*
X2796572Y937567D01*
X2797630Y937356D01*
X2839477D01*
Y934170D01*
X2851419D01*
X2851885Y932170D01*
X2849314Y930902D01*
X2842441Y928569D01*
X2835322Y927153D01*
X2828400Y926699D01*
X2828103Y926758D01*
X1055130D01*
X1054757Y926684D01*
X1054376Y926696D01*
X934751Y906758D01*
X926635D01*
X925757Y908758D01*
X927333Y910680D01*
X928912Y913633D01*
X929884Y916837D01*
X930212Y920170D01*
X929884Y923503D01*
X928912Y926707D01*
X927333Y929660D01*
X925209Y932249D01*
X922620Y934373D01*
X919667Y935952D01*
X916462Y936924D01*
X913130Y937252D01*
X909797Y936924D01*
X906593Y935952D01*
X903640Y934373D01*
X901051Y932249D01*
X898927Y929660D01*
X897348Y926707D01*
X896376Y923503D01*
X896048Y920170D01*
X896376Y916837D01*
X897348Y913633D01*
X898927Y910680D01*
X900503Y908758D01*
X899625Y906758D01*
X475130D01*
Y906795D01*
X471345Y906297D01*
X467817Y904836D01*
X464789Y902512D01*
X462464Y899483D01*
X461003Y895955D01*
X460505Y892170D01*
X460542D01*
Y856758D01*
X436635D01*
X435756Y858758D01*
X437333Y860680D01*
X438912Y863633D01*
X439884Y866837D01*
X440212Y870170D01*
X439884Y873503D01*
X438912Y876707D01*
X437333Y879660D01*
X435209Y882249D01*
X432620Y884373D01*
X429667Y885952D01*
X426463Y886924D01*
X423130Y887252D01*
X419797Y886924D01*
X416593Y885952D01*
X413640Y884373D01*
X411718Y882796D01*
X409718Y883675D01*
Y1080665D01*
X411718Y1081544D01*
X413640Y1079967D01*
X416593Y1078388D01*
X419797Y1077416D01*
X423130Y1077088D01*
X426463Y1077416D01*
X429667Y1078388D01*
X432620Y1079967D01*
X435209Y1082091D01*
X437333Y1084680D01*
X438912Y1087633D01*
X439884Y1090837D01*
X440212Y1094170D01*
X439884Y1097503D01*
X438912Y1100707D01*
X437333Y1103660D01*
X435756Y1105582D01*
X436635Y1107582D01*
X460542D01*
Y1072170D01*
D02*
G37*
G36*
X538175Y1023111D02*
X536984Y1022316D01*
X528984Y1014315D01*
X527714Y1012413D01*
X527267Y1010170D01*
Y966170D01*
Y948598D01*
X517702Y939033D01*
X505169D01*
Y940170D01*
X505014Y940950D01*
X504572Y941612D01*
X503910Y942054D01*
X503130Y942209D01*
X482819D01*
X482622Y944209D01*
X483301Y944344D01*
X484293Y945007D01*
X494293Y955007D01*
X494293Y955007D01*
X494956Y955999D01*
X495189Y957170D01*
X495189Y957170D01*
Y972903D01*
X506051Y983765D01*
X506886Y983931D01*
X508374Y984926D01*
X509369Y986414D01*
X509718Y988170D01*
X509369Y989926D01*
X509206Y990170D01*
X510275Y992170D01*
X515130D01*
Y1005170D01*
X498284D01*
X497456Y1007170D01*
X515397Y1025111D01*
X527762D01*
X527886Y1024926D01*
X529374Y1023931D01*
X531130Y1023582D01*
X532886Y1023931D01*
X534374Y1024926D01*
X534498Y1025111D01*
X537569D01*
X538175Y1023111D01*
D02*
G37*
%LPC*%
G36*
X426130Y940230D02*
X424303Y939990D01*
X422600Y939285D01*
X421138Y938162D01*
X420015Y936700D01*
X419310Y934997D01*
X419070Y933170D01*
X419310Y931343D01*
X420015Y929640D01*
X421138Y928177D01*
X422600Y927056D01*
X424303Y926350D01*
X426130Y926110D01*
X427957Y926350D01*
X429660Y927056D01*
X431123Y928177D01*
X432244Y929640D01*
X432950Y931343D01*
X433190Y933170D01*
X432950Y934997D01*
X432244Y936700D01*
X431123Y938162D01*
X429660Y939285D01*
X427957Y939990D01*
X426130Y940230D01*
D02*
G37*
G36*
X2758780Y981820D02*
X2745480D01*
Y981182D01*
X2745130Y979229D01*
X2743959Y978996D01*
X2742967Y978333D01*
X2741967Y977333D01*
X2741858Y977170D01*
X2730630D01*
Y963170D01*
X2742630D01*
Y967211D01*
X2743300Y967344D01*
X2744293Y968007D01*
X2745706Y969420D01*
X2746428Y969336D01*
X2746789Y968988D01*
X2747768Y967307D01*
X2747542Y966170D01*
X2747891Y964414D01*
X2748885Y962926D01*
X2750374Y961931D01*
X2752130Y961582D01*
X2753886Y961931D01*
X2755374Y962926D01*
X2756369Y964414D01*
X2756718Y966170D01*
X2756369Y967926D01*
X2756039Y968420D01*
X2756793Y970420D01*
X2758780D01*
Y981820D01*
D02*
G37*
%LPD*%
D10*
X2752130Y976120D02*
D03*
Y988220D02*
D03*
X2574130Y998670D02*
D03*
Y986570D02*
D03*
X2324130Y998670D02*
D03*
Y986570D02*
D03*
X511130Y933120D02*
D03*
Y945220D02*
D03*
X574130Y998670D02*
D03*
Y986570D02*
D03*
X824130Y998670D02*
D03*
Y986570D02*
D03*
X1074130Y998670D02*
D03*
Y986570D02*
D03*
X1324130Y998670D02*
D03*
Y986570D02*
D03*
X1574130Y998670D02*
D03*
Y986570D02*
D03*
X1824130Y998670D02*
D03*
Y986570D02*
D03*
X2074130Y998670D02*
D03*
Y986570D02*
D03*
D13*
X2815080Y1018170D02*
D03*
X2827180D02*
D03*
D14*
X423130Y1094170D02*
D03*
Y870170D02*
D03*
X913130Y920170D02*
D03*
D15*
X2774130Y998670D02*
D03*
Y965670D02*
D03*
X2823130D02*
D03*
Y998670D02*
D03*
X2554630Y998670D02*
D03*
Y965670D02*
D03*
X2505630D02*
D03*
Y998670D02*
D03*
X2255630D02*
D03*
Y965670D02*
D03*
X2304630D02*
D03*
Y998670D02*
D03*
X2054630D02*
D03*
Y965670D02*
D03*
X2005630D02*
D03*
Y998670D02*
D03*
X1755630D02*
D03*
Y965670D02*
D03*
X1804630D02*
D03*
Y998670D02*
D03*
X1554630D02*
D03*
Y965670D02*
D03*
X1505630D02*
D03*
Y998670D02*
D03*
X1255630D02*
D03*
Y965670D02*
D03*
X1304630D02*
D03*
Y998670D02*
D03*
X1054630D02*
D03*
Y965670D02*
D03*
X1005630D02*
D03*
Y998670D02*
D03*
X755630D02*
D03*
Y965670D02*
D03*
X804630D02*
D03*
Y998670D02*
D03*
X554630D02*
D03*
Y965670D02*
D03*
X505630D02*
D03*
Y998670D02*
D03*
D16*
X2752130Y966170D02*
Y976120D01*
X468880Y967170D02*
X484130D01*
X2816130Y1008170D02*
X2820130D01*
X2815080Y1009220D02*
Y1017170D01*
X2823130Y998670D02*
Y1005170D01*
X2820130Y1008170D02*
X2823130Y1005170D01*
X2815080Y1009220D02*
X2816130Y1008170D01*
D18*
X2611130Y1012170D02*
Y1018170D01*
X2361130Y1012170D02*
Y1018170D01*
X2111130Y1012170D02*
Y1018170D01*
X1861130Y1012170D02*
Y1018170D01*
X1611130Y1012170D02*
Y1018170D01*
X1361130Y1012170D02*
Y1018170D01*
X611130Y1012170D02*
Y1018170D01*
X861130Y1012170D02*
Y1018170D01*
X2574130D02*
X2611130D01*
X2574130Y998670D02*
Y1018170D01*
X2361130D02*
X2574130D01*
X2074130D02*
X2111130D01*
X1824130D02*
X1861130D01*
X2324130D02*
X2361130D01*
X2111130D02*
X2324130D01*
X1861130D02*
X2074130D01*
X1804630Y998670D02*
X1824130D01*
X2324130D02*
Y1018170D01*
X2554630Y998670D02*
X2574130D01*
X2304630D02*
X2324130D01*
X2074130D02*
Y1018170D01*
X1824130Y998670D02*
Y1018170D01*
X2054630Y998670D02*
X2074130D01*
X1611130Y1018170D02*
X1824130D01*
X1574130D02*
X1611130D01*
X1574130Y998670D02*
Y1018170D01*
X1361130D02*
X1574130D01*
X1324130D02*
X1361130D01*
X1324130Y998670D02*
Y1018170D01*
X1111130D02*
X1324130D01*
X1554630Y998670D02*
X1574130D01*
X1304630D02*
X1324130D01*
X1074130Y1018170D02*
X1111130D01*
X861130D02*
X1074130D01*
X1111130Y1012170D02*
Y1018170D01*
X1074130Y998670D02*
Y1018170D01*
X824130D02*
X861130D01*
X824130Y998670D02*
Y1018170D01*
X1054630Y998670D02*
X1074130D01*
X533130Y1010170D02*
X541130Y1018170D01*
X804630Y998670D02*
X824130D01*
X574130D02*
Y1018170D01*
X554630Y998670D02*
X574130D01*
X520130Y933170D02*
X533130Y946170D01*
X498130Y933170D02*
X520130D01*
X541130Y1018170D02*
X574130D01*
X611130D01*
X824130D01*
X533130Y958170D02*
X539130D01*
X533130Y946170D02*
Y966170D01*
Y1010170D01*
D19*
X2813130Y1027170D02*
X2815080Y1025220D01*
Y1018170D02*
Y1025220D01*
X2754130Y1027170D02*
X2813130D01*
X2620130D02*
X2754130D01*
Y1018170D02*
Y1027170D01*
X2611130Y1018170D02*
X2620130Y1027170D01*
D20*
X2574130Y986570D02*
X2583730D01*
X2324130D02*
X2333730D01*
X2074130D02*
X2083730D01*
X1824130D02*
X1833730D01*
X1574130D02*
X1583730D01*
X1324130D02*
X1333730D01*
X1074130D02*
X1083730D01*
X824130D02*
X833730D01*
X574130D02*
X583730D01*
X454880Y957170D02*
X468880D01*
X454880Y977170D02*
X468880D01*
X454880Y997170D02*
X468880D01*
X454880Y1027170D02*
X468880D01*
X755630Y965670D02*
Y973670D01*
X1005630Y965670D02*
Y973670D01*
X1255630Y965670D02*
Y973670D01*
X1505630Y965670D02*
Y973670D01*
X1755630Y965670D02*
Y973670D01*
X2005630Y965670D02*
Y973670D01*
X2255630Y965670D02*
Y973670D01*
X2505630Y965670D02*
Y973670D01*
X2743130Y988170D02*
X2752080D01*
X2752130Y988220D01*
X2727130Y994170D02*
Y1004170D01*
X2727130Y1004170D02*
X2727130Y1004170D01*
X2775130Y956170D02*
Y964670D01*
X2774130Y965670D02*
X2775130Y964670D01*
X505630Y965670D02*
X516630D01*
X517130Y966170D01*
X2827180Y1018170D02*
Y1026120D01*
X2827130Y1026170D02*
X2827180Y1026120D01*
D21*
X2841379Y1033921D02*
X2850130Y1025170D01*
X2838584Y1033921D02*
X2841379D01*
X2837335Y1035170D02*
X2838584Y1033921D01*
X2610130Y1035170D02*
X2837335D01*
X2603130Y1028170D02*
X2610130Y1035170D01*
X2850130Y1015420D02*
Y1025170D01*
X2752080Y976170D02*
X2752130Y976120D01*
X2745130Y976170D02*
X2752080D01*
X2744130Y972170D02*
Y975170D01*
X2745130Y976170D01*
X2736630Y970170D02*
X2742130D01*
X2742130Y970170D02*
X2744130Y972170D01*
X2742130Y970170D02*
X2742130Y970170D01*
X2717630Y956670D02*
Y970170D01*
X468880Y1017170D02*
X482130D01*
X515130Y1039170D02*
X543130D01*
X483130Y1007170D02*
X515130Y1039170D01*
X468880Y1007170D02*
X483130D01*
X468880Y947170D02*
X482130D01*
X492130Y957170D01*
Y974170D01*
X505130Y987170D01*
X2634630Y965670D02*
X2681130Y1012170D01*
X2554630Y965670D02*
X2634630D01*
X492130Y1006170D02*
X514130Y1028170D01*
X492130Y995170D02*
Y1006170D01*
X484130Y987170D02*
X492130Y995170D01*
X468880Y987170D02*
X484130D01*
X2149130Y964170D02*
Y994170D01*
X2163130Y1008170D01*
X2253130D01*
X2255130Y1006170D01*
Y999170D02*
Y1006170D01*
X2054630Y958670D02*
Y965670D01*
Y958670D02*
X2057130Y956170D01*
X2141130D01*
X2149130Y964170D01*
X2391130Y956170D02*
X2399130Y964170D01*
X2307130Y956170D02*
X2391130D01*
X2304630Y958670D02*
X2307130Y956170D01*
X2304630Y958670D02*
Y965670D01*
X2505130Y999170D02*
Y1006170D01*
X2503130Y1008170D02*
X2505130Y1006170D01*
X2413130Y1008170D02*
X2503130D01*
X2399130Y994170D02*
X2413130Y1008170D01*
X2399130Y964170D02*
Y994170D01*
X1899130Y964170D02*
Y994170D01*
X1913130Y1008170D01*
X2003130D01*
X2005130Y1006170D01*
Y999170D02*
Y1006170D01*
X1804630Y958670D02*
Y965670D01*
Y958670D02*
X1807130Y956170D01*
X1891130D01*
X1899130Y964170D01*
X1649130D02*
Y994170D01*
X1663130Y1008170D01*
X1753130D01*
X1755130Y1006170D01*
Y999170D02*
Y1006170D01*
X1554630Y958670D02*
Y965670D01*
Y958670D02*
X1557130Y956170D01*
X1641130D01*
X1649130Y964170D01*
X1399130D02*
Y994170D01*
X1413130Y1008170D01*
X1503130D01*
X1505130Y1006170D01*
Y999170D02*
Y1006170D01*
X1304630Y958670D02*
Y965670D01*
Y958670D02*
X1307130Y956170D01*
X1391130D01*
X1399130Y964170D01*
X1149130D02*
Y994170D01*
X1163130Y1008170D01*
X1253130D01*
X1255130Y1006170D01*
Y999170D02*
Y1006170D01*
X1054630Y958670D02*
Y965670D01*
Y958670D02*
X1057130Y956170D01*
X1141130D01*
X1149130Y964170D01*
X899130D02*
Y994170D01*
X913130Y1008170D01*
X1003130D01*
X1005130Y1006170D01*
Y999170D02*
Y1006170D01*
X804630Y958670D02*
Y965670D01*
Y958670D02*
X807130Y956170D01*
X891130D01*
X899130Y964170D01*
X649130D02*
Y994170D01*
X663130Y1008170D01*
X753130D01*
X755130Y1006170D01*
Y999170D02*
Y1006170D01*
X554630Y958670D02*
Y965670D01*
Y958670D02*
X557130Y956170D01*
X641130D01*
X649130Y964170D01*
X2681130Y1012170D02*
X2745130D01*
X2758630Y998670D01*
X2774130D01*
X482130Y1017170D02*
X512130Y1047170D01*
X530130D01*
X440130Y934170D02*
X454630Y919670D01*
X440130Y934170D02*
Y1029670D01*
X447630Y1037170D01*
X468880D01*
X514130Y1028170D02*
X531130D01*
X505130Y988170D02*
Y999170D01*
X454630Y919670D02*
X531130D01*
X538630D01*
X531130Y1028170D02*
X2603130D01*
X538630Y919670D02*
X565130Y946170D01*
X2707130D01*
X2717630Y956670D01*
D22*
X505130Y999170D02*
X505630Y998670D01*
X2797630Y940670D02*
X2848477D01*
X2779130Y1017170D02*
X2785130D01*
X2802130Y993170D02*
Y1017170D01*
X2821630Y964170D02*
X2823130Y965670D01*
X2787130Y951170D02*
X2797630Y940670D01*
X2787130Y951170D02*
Y1015170D01*
X2785130Y1017170D02*
X2787130Y1015170D01*
X2798130Y964170D02*
X2821630D01*
X2802130Y993170D02*
X2807130Y988170D01*
X2848880D01*
X2850130Y986920D01*
X2838762Y967670D02*
X2848477D01*
X2830262Y976170D02*
X2838762Y967670D01*
X2805130Y976170D02*
X2830262D01*
X2794130Y987170D02*
X2805130Y976170D01*
X2794130Y987170D02*
Y1017170D01*
X2792130Y1019170D02*
X2794130Y1017170D01*
D23*
X2752130Y966170D02*
D03*
X484130Y967170D02*
D03*
X2611130Y1012170D02*
D03*
X2361130D02*
D03*
X2111130D02*
D03*
X1861130D02*
D03*
X1611130D02*
D03*
X1361130D02*
D03*
X611130D02*
D03*
X861130D02*
D03*
X2754130Y1018170D02*
D03*
X1111130Y1012170D02*
D03*
X561130Y930170D02*
D03*
X601130Y986570D02*
D03*
X851130D02*
D03*
X1101130D02*
D03*
X1351130D02*
D03*
X1601130D02*
D03*
X1851130D02*
D03*
X2101130D02*
D03*
X2351130D02*
D03*
X2601130D02*
D03*
X2584130D02*
D03*
X2334130D02*
D03*
X2084130D02*
D03*
X1834130D02*
D03*
X1584130D02*
D03*
X1334130D02*
D03*
X1084130D02*
D03*
X834130D02*
D03*
X584130D02*
D03*
X454880Y957170D02*
D03*
Y977170D02*
D03*
Y997170D02*
D03*
Y1027170D02*
D03*
X755630Y973670D02*
D03*
X1005630D02*
D03*
X1255630D02*
D03*
X1505630D02*
D03*
X1755630D02*
D03*
X2005630D02*
D03*
X2255630D02*
D03*
X2505630D02*
D03*
X2679630D02*
D03*
X2429630D02*
D03*
X2179630D02*
D03*
X1929630D02*
D03*
X1679630D02*
D03*
X1429630D02*
D03*
X1179630D02*
D03*
X929630D02*
D03*
X2729130Y940170D02*
D03*
X2766130Y986170D02*
D03*
X2835507Y1000170D02*
D03*
X2792130Y1019170D02*
D03*
X543130Y1039170D02*
D03*
X679630Y973670D02*
D03*
X925130Y1034170D02*
D03*
X2877130Y982170D02*
D03*
X2743130Y988170D02*
D03*
X2727130Y1004170D02*
D03*
X2775130Y956170D02*
D03*
X2798130Y964170D02*
D03*
X2809130Y1004170D02*
D03*
X2829130Y948170D02*
D03*
X2761130Y946170D02*
D03*
X2755130Y929670D02*
D03*
X2655130D02*
D03*
X2555130D02*
D03*
X2455130D02*
D03*
X2355130D02*
D03*
X2255130D02*
D03*
X2155130D02*
D03*
X2055130D02*
D03*
X1955130D02*
D03*
X1855130D02*
D03*
X1755130D02*
D03*
X1655130D02*
D03*
X1555130D02*
D03*
X1455130D02*
D03*
X1355130D02*
D03*
X1255130D02*
D03*
X1155130D02*
D03*
X1055130D02*
D03*
Y1034670D02*
D03*
X1155130D02*
D03*
X1255130D02*
D03*
X1355130D02*
D03*
X1455130D02*
D03*
X1555130D02*
D03*
X1655130D02*
D03*
X1755130D02*
D03*
X1855130D02*
D03*
X1955130D02*
D03*
X2055130D02*
D03*
X2155130D02*
D03*
X2255130D02*
D03*
X2355130D02*
D03*
X2455130D02*
D03*
X2595130D02*
D03*
X2831125Y930170D02*
D03*
X495130Y912170D02*
D03*
X595130D02*
D03*
X695130D02*
D03*
X795130D02*
D03*
X895130Y1054670D02*
D03*
X795130D02*
D03*
X695130D02*
D03*
X595130D02*
D03*
X493130Y1044170D02*
D03*
X530130Y1047170D02*
D03*
X417630Y1032170D02*
D03*
Y957170D02*
D03*
X455130Y1102170D02*
D03*
Y862170D02*
D03*
X2767630Y1014670D02*
D03*
X2836130Y962170D02*
D03*
X2813130Y982170D02*
D03*
X531130Y1028170D02*
D03*
X505130Y988170D02*
D03*
X539130Y958170D02*
D03*
X531130Y919670D02*
D03*
X2827130Y1026170D02*
D03*
X513130Y980170D02*
D03*
X521130Y1010170D02*
D03*
X493130Y948170D02*
D03*
X895130Y912170D02*
D03*
D24*
X2727130Y994170D02*
D03*
X2717630Y970170D02*
D03*
X2736630D02*
D03*
D25*
X2802130Y1027170D02*
D03*
Y1017170D02*
D03*
X2779130Y1027170D02*
D03*
Y1017170D02*
D03*
D26*
X445380Y1067170D02*
D03*
Y897170D02*
D03*
D27*
X468880Y1037170D02*
D03*
Y1027170D02*
D03*
Y1017170D02*
D03*
Y1007170D02*
D03*
Y997170D02*
D03*
Y987170D02*
D03*
Y977170D02*
D03*
Y967170D02*
D03*
Y957170D02*
D03*
Y947170D02*
D03*
Y937170D02*
D03*
Y927170D02*
D03*
D28*
X2850130Y986920D02*
D03*
Y1015420D02*
D03*
D29*
X2848477Y967670D02*
D03*
Y940670D02*
D03*
D30*
X481130Y932170D02*
D03*
M02*
