G04*
G04 #@! TF.GenerationSoftware,Altium Limited,CircuitStudio,1.5.2 (30)*
G04*
G04 Layer_Physical_Order=1*
G04 Layer_Color=3381759*
%FSLAX44Y44*%
%MOMM*%
G71*
G01*
G75*
%ADD10C,1.0000*%
%ADD11R,0.9000X1.5000*%
%ADD12R,0.7000X0.6000*%
%ADD13R,2.8000X1.3500*%
%ADD14R,1.3500X2.8000*%
%ADD15R,0.6000X0.7000*%
%ADD16R,0.5500X1.0500*%
%ADD17R,1.0500X0.5500*%
%ADD18R,1.0000X0.9700*%
%ADD19R,0.9700X1.0000*%
%ADD20R,0.7400X0.9300*%
%ADD21R,0.9300X0.7400*%
%ADD22R,1.8200X1.1400*%
%ADD23R,1.0000X3.1000*%
%ADD24R,0.3750X0.3500*%
%ADD25R,0.3500X0.3750*%
G04:AMPARAMS|DCode=26|XSize=1.03mm|YSize=1.42mm|CornerRadius=0.2524mm|HoleSize=0mm|Usage=FLASHONLY|Rotation=270.000|XOffset=0mm|YOffset=0mm|HoleType=Round|Shape=RoundedRectangle|*
%AMROUNDEDRECTD26*
21,1,1.0300,0.9153,0,0,270.0*
21,1,0.5253,1.4200,0,0,270.0*
1,1,0.5047,-0.4577,-0.2626*
1,1,0.5047,-0.4577,0.2626*
1,1,0.5047,0.4577,0.2626*
1,1,0.5047,0.4577,-0.2626*
%
%ADD26ROUNDEDRECTD26*%
G04:AMPARAMS|DCode=27|XSize=0.6mm|YSize=0.24mm|CornerRadius=0.03mm|HoleSize=0mm|Usage=FLASHONLY|Rotation=90.000|XOffset=0mm|YOffset=0mm|HoleType=Round|Shape=RoundedRectangle|*
%AMROUNDEDRECTD27*
21,1,0.6000,0.1800,0,0,90.0*
21,1,0.5400,0.2400,0,0,90.0*
1,1,0.0600,0.0900,0.2700*
1,1,0.0600,0.0900,-0.2700*
1,1,0.0600,-0.0900,-0.2700*
1,1,0.0600,-0.0900,0.2700*
%
%ADD27ROUNDEDRECTD27*%
G04:AMPARAMS|DCode=28|XSize=1.65mm|YSize=2.4mm|CornerRadius=0.0413mm|HoleSize=0mm|Usage=FLASHONLY|Rotation=90.000|XOffset=0mm|YOffset=0mm|HoleType=Round|Shape=RoundedRectangle|*
%AMROUNDEDRECTD28*
21,1,1.6500,2.3175,0,0,90.0*
21,1,1.5675,2.4000,0,0,90.0*
1,1,0.0825,1.1587,0.7837*
1,1,0.0825,1.1587,-0.7837*
1,1,0.0825,-1.1587,-0.7837*
1,1,0.0825,-1.1587,0.7837*
%
%ADD28ROUNDEDRECTD28*%
%ADD29R,3.2500X3.2500*%
%ADD30R,0.2700X0.9900*%
%ADD31R,0.9900X0.2700*%
%ADD32R,0.6000X1.1500*%
%ADD33R,0.3000X1.1500*%
%ADD34R,2.1800X2.0000*%
%ADD35R,0.6000X0.3500*%
%ADD36R,0.3500X0.6000*%
%ADD37R,0.7000X0.7500*%
%ADD38R,1.1000X0.9000*%
%ADD39C,0.7000*%
%ADD40R,0.6000X0.9000*%
%ADD41R,0.7500X2.2000*%
%ADD42R,0.9000X0.6000*%
%ADD43R,2.2000X0.7500*%
%ADD44R,2.2000X1.0500*%
%ADD45R,1.0500X1.0000*%
G04:AMPARAMS|DCode=46|XSize=0.99mm|YSize=1.3mm|CornerRadius=0.0743mm|HoleSize=0mm|Usage=FLASHONLY|Rotation=270.000|XOffset=0mm|YOffset=0mm|HoleType=Round|Shape=RoundedRectangle|*
%AMROUNDEDRECTD46*
21,1,0.9900,1.1515,0,0,270.0*
21,1,0.8415,1.3000,0,0,270.0*
1,1,0.1485,-0.5757,-0.4208*
1,1,0.1485,-0.5757,0.4208*
1,1,0.1485,0.5757,0.4208*
1,1,0.1485,0.5757,-0.4208*
%
%ADD46ROUNDEDRECTD46*%
G04:AMPARAMS|DCode=47|XSize=0.59mm|YSize=1.3mm|CornerRadius=0.0443mm|HoleSize=0mm|Usage=FLASHONLY|Rotation=270.000|XOffset=0mm|YOffset=0mm|HoleType=Round|Shape=RoundedRectangle|*
%AMROUNDEDRECTD47*
21,1,0.5900,1.2115,0,0,270.0*
21,1,0.5015,1.3000,0,0,270.0*
1,1,0.0885,-0.6058,-0.2507*
1,1,0.0885,-0.6058,0.2507*
1,1,0.0885,0.6058,0.2507*
1,1,0.0885,0.6058,-0.2507*
%
%ADD47ROUNDEDRECTD47*%
G04:AMPARAMS|DCode=48|XSize=1.21mm|YSize=0.62mm|CornerRadius=0.1612mm|HoleSize=0mm|Usage=FLASHONLY|Rotation=270.000|XOffset=0mm|YOffset=0mm|HoleType=Round|Shape=RoundedRectangle|*
%AMROUNDEDRECTD48*
21,1,1.2100,0.2976,0,0,270.0*
21,1,0.8876,0.6200,0,0,270.0*
1,1,0.3224,-0.1488,-0.4438*
1,1,0.3224,-0.1488,0.4438*
1,1,0.3224,0.1488,0.4438*
1,1,0.3224,0.1488,-0.4438*
%
%ADD48ROUNDEDRECTD48*%
G04:AMPARAMS|DCode=49|XSize=1.21mm|YSize=0.62mm|CornerRadius=0.1612mm|HoleSize=0mm|Usage=FLASHONLY|Rotation=0.000|XOffset=0mm|YOffset=0mm|HoleType=Round|Shape=RoundedRectangle|*
%AMROUNDEDRECTD49*
21,1,1.2100,0.2976,0,0,0.0*
21,1,0.8876,0.6200,0,0,0.0*
1,1,0.3224,0.4438,-0.1488*
1,1,0.3224,-0.4438,-0.1488*
1,1,0.3224,-0.4438,0.1488*
1,1,0.3224,0.4438,0.1488*
%
%ADD49ROUNDEDRECTD49*%
G04:AMPARAMS|DCode=50|XSize=0.58mm|YSize=0.24mm|CornerRadius=0.03mm|HoleSize=0mm|Usage=FLASHONLY|Rotation=90.000|XOffset=0mm|YOffset=0mm|HoleType=Round|Shape=RoundedRectangle|*
%AMROUNDEDRECTD50*
21,1,0.5800,0.1800,0,0,90.0*
21,1,0.5200,0.2400,0,0,90.0*
1,1,0.0600,0.0900,0.2600*
1,1,0.0600,0.0900,-0.2600*
1,1,0.0600,-0.0900,-0.2600*
1,1,0.0600,-0.0900,0.2600*
%
%ADD50ROUNDEDRECTD50*%
G04:AMPARAMS|DCode=51|XSize=0.58mm|YSize=0.24mm|CornerRadius=0.03mm|HoleSize=0mm|Usage=FLASHONLY|Rotation=0.000|XOffset=0mm|YOffset=0mm|HoleType=Round|Shape=RoundedRectangle|*
%AMROUNDEDRECTD51*
21,1,0.5800,0.1800,0,0,0.0*
21,1,0.5200,0.2400,0,0,0.0*
1,1,0.0600,0.2600,-0.0900*
1,1,0.0600,-0.2600,-0.0900*
1,1,0.0600,-0.2600,0.0900*
1,1,0.0600,0.2600,0.0900*
%
%ADD51ROUNDEDRECTD51*%
%ADD52R,2.7000X2.7000*%
%ADD53R,3.4000X3.4000*%
G04:AMPARAMS|DCode=54|XSize=0.26mm|YSize=0.69mm|CornerRadius=0.13mm|HoleSize=0mm|Usage=FLASHONLY|Rotation=0.000|XOffset=0mm|YOffset=0mm|HoleType=Round|Shape=RoundedRectangle|*
%AMROUNDEDRECTD54*
21,1,0.2600,0.4300,0,0,0.0*
21,1,0.0000,0.6900,0,0,0.0*
1,1,0.2600,0.0000,-0.2150*
1,1,0.2600,0.0000,-0.2150*
1,1,0.2600,0.0000,0.2150*
1,1,0.2600,0.0000,0.2150*
%
%ADD54ROUNDEDRECTD54*%
G04:AMPARAMS|DCode=55|XSize=0.69mm|YSize=0.26mm|CornerRadius=0.13mm|HoleSize=0mm|Usage=FLASHONLY|Rotation=0.000|XOffset=0mm|YOffset=0mm|HoleType=Round|Shape=RoundedRectangle|*
%AMROUNDEDRECTD55*
21,1,0.6900,0.0000,0,0,0.0*
21,1,0.4300,0.2600,0,0,0.0*
1,1,0.2600,0.2150,0.0000*
1,1,0.2600,-0.2150,0.0000*
1,1,0.2600,-0.2150,0.0000*
1,1,0.2600,0.2150,0.0000*
%
%ADD55ROUNDEDRECTD55*%
%ADD56O,0.6900X0.2600*%
%ADD57R,0.3000X0.8500*%
%ADD58R,0.8500X0.3000*%
%ADD59R,3.2500X3.2500*%
%ADD60C,0.1270*%
%ADD61C,0.2540*%
%ADD62C,0.2000*%
%ADD63C,0.4000*%
%ADD64C,0.6000*%
%ADD65C,0.2500*%
%ADD66C,0.5000*%
%ADD67C,0.1778*%
%ADD68C,0.3000*%
%ADD69C,0.3810*%
%ADD70C,0.2543*%
%ADD71C,0.5500*%
%ADD72C,0.8000*%
%ADD73C,0.1780*%
%ADD74R,1.5000X1.2000*%
%ADD75R,12.2000X2.5500*%
%ADD76R,2.3000X6.1000*%
%ADD77R,1.9000X1.1500*%
%ADD78R,3.5000X1.6000*%
%ADD79R,0.8000X1.7000*%
%ADD80R,1.6000X1.9000*%
%ADD81C,0.6500*%
%ADD82C,1.3080*%
%ADD83R,1.3080X1.3080*%
%ADD84C,0.5000*%
%ADD85C,0.6000*%
G36*
X764923Y720106D02*
X766045Y718643D01*
X767507Y717521D01*
X769210Y716816D01*
X771037Y716575D01*
X772865Y716816D01*
X774568Y717521D01*
X776030Y718643D01*
X777152Y720106D01*
X777410Y720728D01*
X777813Y720708D01*
X777851Y720668D01*
X778455Y719175D01*
X777798Y718191D01*
X777449Y716436D01*
X777798Y714680D01*
X778793Y713191D01*
X780281Y712197D01*
X782037Y711848D01*
X783793Y712197D01*
X785281Y713191D01*
X786120Y713274D01*
X789998Y709397D01*
X790704Y708925D01*
X791371Y708792D01*
X791537Y708759D01*
X793866D01*
Y704498D01*
X794147Y703088D01*
X794945Y701893D01*
X796140Y701095D01*
X797549Y700815D01*
X800525D01*
X801934Y701095D01*
X803129Y701893D01*
X803928Y703088D01*
X804208Y704498D01*
Y705065D01*
X805708Y705686D01*
X815298Y696097D01*
X815651Y695861D01*
X816004Y695625D01*
X816837Y695459D01*
X817537D01*
Y692436D01*
X817537D01*
X817537D01*
Y692436D01*
X817537D01*
X817537Y692436D01*
Y682436D01*
X820860D01*
X821026Y681603D01*
X821498Y680896D01*
X824498Y677896D01*
X824851Y677660D01*
X825204Y677424D01*
X826037Y677259D01*
X828080D01*
X828793Y676191D01*
X830281Y675197D01*
X832037Y674847D01*
X833793Y675197D01*
X835281Y676191D01*
X836276Y677680D01*
X836625Y679436D01*
X836571Y679707D01*
X837929Y680570D01*
X838640Y680095D01*
X839460Y679932D01*
X839526Y679603D01*
X839998Y678896D01*
X840498Y678396D01*
X840921Y678113D01*
X841204Y677924D01*
X842037Y677759D01*
X842037D01*
Y667936D01*
X842037Y667936D01*
X842037D01*
X841477Y666654D01*
X840936Y666113D01*
X776439D01*
X775038Y667513D01*
X775294Y669379D01*
X776030Y669943D01*
X777152Y671406D01*
X777857Y673109D01*
X778098Y674936D01*
X777857Y676763D01*
X777152Y678466D01*
X776030Y679928D01*
X774568Y681050D01*
X772865Y681756D01*
X771037Y681996D01*
X769210Y681756D01*
X767507Y681050D01*
X766045Y679928D01*
X764923Y678466D01*
X764362Y677113D01*
X762439D01*
X755714Y683837D01*
Y693436D01*
X755549Y694269D01*
X755077Y694975D01*
X743552Y706500D01*
X744126Y707886D01*
X747387D01*
Y710548D01*
X748773Y711122D01*
X761998Y697896D01*
X762705Y697424D01*
X763538Y697259D01*
X764300D01*
X764923Y695756D01*
X766045Y694293D01*
X767507Y693171D01*
X769210Y692466D01*
X771037Y692225D01*
X772865Y692466D01*
X774568Y693171D01*
X776030Y694293D01*
X777152Y695756D01*
X777775Y697259D01*
X784509D01*
X785560Y696141D01*
X785445Y694978D01*
X784647Y693783D01*
X784366Y692374D01*
Y683498D01*
X784647Y682088D01*
X785445Y680893D01*
X786640Y680095D01*
X787460Y679932D01*
X787526Y679603D01*
X787998Y678896D01*
X788498Y678396D01*
X789037Y678036D01*
Y667936D01*
X799037D01*
Y678936D01*
X796214D01*
X796048Y679769D01*
X795576Y680475D01*
X794576Y681475D01*
X794190Y681733D01*
X794427Y682088D01*
X794708Y683498D01*
Y692374D01*
X794427Y693783D01*
X793629Y694978D01*
X792434Y695776D01*
X791698Y695923D01*
X791649Y696169D01*
X791413Y696522D01*
X791177Y696875D01*
X787077Y700975D01*
X786371Y701447D01*
X785538Y701612D01*
X777650D01*
X777152Y702816D01*
X776030Y704278D01*
X774568Y705400D01*
X772865Y706106D01*
X771037Y706346D01*
X769210Y706106D01*
X767507Y705400D01*
X766045Y704278D01*
X765111Y703062D01*
X763442Y702610D01*
X749477Y716575D01*
X748771Y717047D01*
X747937Y717213D01*
X747387D01*
Y720086D01*
X759587D01*
Y721459D01*
X764362D01*
X764923Y720106D01*
D02*
G37*
G36*
X682423Y735471D02*
X681849Y734086D01*
X681387D01*
Y721744D01*
X681387Y720786D01*
X681387D01*
X681387Y720786D01*
X681387D01*
X681487Y720286D01*
Y720286D01*
X681488D01*
X681488Y720286D01*
Y706986D01*
X681487D01*
Y706286D01*
X681488D01*
Y692986D01*
X681487Y692986D01*
D01*
X681387Y692086D01*
X681387D01*
X681387Y691527D01*
Y678786D01*
X692787D01*
Y684611D01*
X701537D01*
Y683436D01*
X712537D01*
Y691936D01*
X712537Y693436D01*
X714037Y693436D01*
X722037D01*
X723537Y693436D01*
X723537Y691936D01*
Y683436D01*
X723963D01*
X724747Y681936D01*
X724449Y680436D01*
X724798Y678680D01*
X725793Y677191D01*
X725863Y675340D01*
X724635Y674112D01*
X676439D01*
X664349Y686202D01*
Y715669D01*
X668576Y719896D01*
X668859Y720320D01*
X669048Y720603D01*
X669214Y721436D01*
Y735034D01*
X672574Y738394D01*
X679500D01*
X682423Y735471D01*
D02*
G37*
G36*
X1116360Y822534D02*
Y800936D01*
X1116526Y800103D01*
X1116998Y799396D01*
X1153860Y762534D01*
Y674837D01*
X1132635Y653613D01*
X1101559D01*
X1100758Y655113D01*
X1100855Y655259D01*
X1121037D01*
X1121870Y655424D01*
X1122576Y655896D01*
X1146441Y679761D01*
X1146913Y680468D01*
X1147079Y681301D01*
Y754979D01*
X1146913Y755812D01*
X1146677Y756165D01*
X1146441Y756518D01*
X1114214Y788745D01*
Y820436D01*
X1114048Y821269D01*
X1113812Y821622D01*
X1113576Y821975D01*
X1106576Y828975D01*
X1105870Y829447D01*
X1105037Y829613D01*
X1091967D01*
X1091094Y831113D01*
X1091144Y831202D01*
X1091253Y831259D01*
X1107635D01*
X1116360Y822534D01*
D02*
G37*
G36*
X596498Y676896D02*
X597037Y676536D01*
Y672936D01*
X605537D01*
X607037Y672936D01*
X607037D01*
D01*
X608537Y672936D01*
X617037D01*
Y676259D01*
X618635D01*
X622590Y672304D01*
Y621500D01*
X621090Y620760D01*
X620396Y621293D01*
X618486Y622084D01*
X616437Y622353D01*
X614388Y622084D01*
X612478Y621293D01*
X611714Y620706D01*
X610214Y621446D01*
Y636436D01*
X610048Y637269D01*
X609859Y637551D01*
X609576Y637975D01*
X607178Y640373D01*
X607412Y641549D01*
X607692Y641980D01*
X609030Y643006D01*
X610152Y644469D01*
X610857Y646171D01*
X611098Y647999D01*
X610857Y649826D01*
X610152Y651529D01*
X609030Y652991D01*
X607568Y654113D01*
X606214Y654674D01*
Y662435D01*
X606049Y663268D01*
X605860Y663551D01*
X605577Y663975D01*
X601137Y668414D01*
X600431Y668886D01*
X599598Y669051D01*
X593598D01*
X592537Y670112D01*
Y670936D01*
X592537Y672436D01*
Y672436D01*
X592537Y673936D01*
Y678897D01*
X593923Y679471D01*
X596498Y676896D01*
D02*
G37*
G36*
X601861Y661534D02*
Y654674D01*
X600507Y654113D01*
X599045Y652991D01*
X597923Y651529D01*
X597849Y651351D01*
X596226D01*
X596152Y651529D01*
X595030Y652991D01*
X593568Y654113D01*
X591865Y654819D01*
X590037Y655059D01*
X588210Y654819D01*
X586857Y654258D01*
X580745Y660369D01*
X581051Y662141D01*
X581537Y662436D01*
X581537D01*
D01*
D01*
X581537Y662436D01*
X592537D01*
Y664698D01*
X598696D01*
X601861Y661534D01*
D02*
G37*
G36*
X1003861Y714059D02*
Y686394D01*
X1002793Y685680D01*
X1001798Y684191D01*
X1001449Y682436D01*
X1001798Y680680D01*
X1002317Y679904D01*
X1001045Y678928D01*
X999923Y677466D01*
X999318Y676005D01*
X998537Y675876D01*
X997757Y676005D01*
X997152Y677466D01*
X996030Y678928D01*
X994568Y680050D01*
X993214Y680611D01*
Y691478D01*
X994281Y692191D01*
X995276Y693680D01*
X995625Y695436D01*
X995276Y697191D01*
X994281Y698680D01*
X993214Y699393D01*
Y705534D01*
X1002361Y714681D01*
X1003861Y714059D01*
D02*
G37*
G36*
X839139Y754030D02*
X839861Y753559D01*
Y750436D01*
X836537D01*
Y740436D01*
X846861D01*
Y724936D01*
X847026Y724103D01*
X847498Y723397D01*
X849861Y721034D01*
Y717056D01*
X849549D01*
X848140Y716776D01*
X846945Y715978D01*
X846147Y714783D01*
X845866Y713374D01*
Y704498D01*
X846147Y703088D01*
X846945Y701893D01*
X848140Y701095D01*
X848860Y700952D01*
Y698837D01*
X846498Y696475D01*
X846026Y695769D01*
X844491Y695739D01*
X844434Y695776D01*
X843025Y696056D01*
X840049D01*
X838640Y695776D01*
X837976Y695333D01*
X836462Y695795D01*
X836334Y695902D01*
X836276Y696191D01*
X835281Y697680D01*
X834214Y698393D01*
Y725436D01*
X834048Y726269D01*
X833859Y726552D01*
X833576Y726975D01*
X831616Y728936D01*
X832184Y730436D01*
X834537D01*
Y738936D01*
X834537Y740436D01*
X834537Y740436D01*
Y740436D01*
X834537D01*
X834537Y740436D01*
Y750436D01*
X832737D01*
X832116Y751936D01*
X833939Y753759D01*
X837038D01*
X837870Y753925D01*
X838361Y754252D01*
X839139Y754030D01*
D02*
G37*
G36*
X818476Y716759D02*
X818045Y716428D01*
X816923Y714966D01*
X816217Y713263D01*
X815977Y711436D01*
X816217Y709608D01*
X816923Y707905D01*
X818045Y706443D01*
X819507Y705321D01*
X820860Y704761D01*
Y702436D01*
X817537D01*
Y701974D01*
X816151Y701400D01*
X806876Y710675D01*
X806170Y711147D01*
X805337Y711313D01*
X804208D01*
Y713374D01*
X803928Y714783D01*
X803129Y715978D01*
X801934Y716776D01*
X802169Y718259D01*
X817966D01*
X818476Y716759D01*
D02*
G37*
G36*
X1130213Y719266D02*
Y695605D01*
X1119867Y685260D01*
X1114932D01*
X1114784Y686760D01*
X1115118Y686826D01*
X1116034Y687439D01*
X1120034Y691439D01*
X1120034Y691439D01*
X1120646Y692355D01*
X1120861Y693436D01*
X1120861Y693436D01*
Y697280D01*
X1122848Y698102D01*
X1124841Y699632D01*
X1126370Y701625D01*
X1127331Y703945D01*
X1127659Y706436D01*
X1127331Y708926D01*
X1126370Y711247D01*
X1124841Y713240D01*
X1122848Y714769D01*
X1121335Y715396D01*
X1121633Y716896D01*
X1127577D01*
Y719942D01*
X1128963Y720516D01*
X1130213Y719266D01*
D02*
G37*
G36*
X1012860Y733413D02*
Y679007D01*
X1011360Y678498D01*
X1011030Y678928D01*
X1009758Y679904D01*
X1010276Y680680D01*
X1010625Y682436D01*
X1010276Y684191D01*
X1009281Y685680D01*
X1008214Y686393D01*
Y714534D01*
X1010576Y716896D01*
X1010812Y717250D01*
X1011048Y717603D01*
X1011214Y718436D01*
Y734117D01*
X1011360Y734215D01*
X1012860Y733413D01*
D02*
G37*
G36*
X866798Y696097D02*
X867505Y695625D01*
X868337Y695459D01*
X868476D01*
X869537Y694398D01*
Y693936D01*
X869537Y692436D01*
Y692436D01*
D01*
X869537Y690936D01*
Y683940D01*
X869444Y683780D01*
X868037Y682825D01*
X867037Y683024D01*
X865281Y682674D01*
X863793Y681680D01*
X862798Y680191D01*
X862785Y680126D01*
X862037Y678936D01*
X861019Y678936D01*
X858829D01*
X858815Y679002D01*
X858343Y679708D01*
X850214Y687838D01*
Y694034D01*
X852576Y696396D01*
X852859Y696820D01*
X853048Y697103D01*
X853214Y697936D01*
Y700952D01*
X853934Y701095D01*
X855129Y701893D01*
X855928Y703088D01*
X856208Y704498D01*
Y704727D01*
X857594Y705301D01*
X866798Y696097D01*
D02*
G37*
G36*
X572507Y641884D02*
X574210Y641179D01*
X576037Y640938D01*
X577865Y641179D01*
X579174Y641721D01*
X597360Y623535D01*
Y616813D01*
X595860Y616192D01*
X570577Y641475D01*
X571568Y642605D01*
X572507Y641884D01*
D02*
G37*
G36*
X787967Y593759D02*
X787380Y592994D01*
X786589Y591085D01*
X786319Y589036D01*
X786589Y586986D01*
X787380Y585077D01*
X788638Y583437D01*
X790278Y582179D01*
X791645Y581613D01*
X791347Y580112D01*
X771727D01*
X771429Y581613D01*
X772796Y582179D01*
X774436Y583437D01*
X775694Y585077D01*
X776485Y586986D01*
X776755Y589036D01*
X776485Y591085D01*
X775694Y592994D01*
X775107Y593759D01*
X775847Y595259D01*
X787227D01*
X787967Y593759D01*
D02*
G37*
G36*
X813366D02*
X812780Y592994D01*
X811989Y591085D01*
X811719Y589036D01*
X811989Y586986D01*
X812780Y585077D01*
X814038Y583437D01*
X815678Y582179D01*
X817045Y581613D01*
X816747Y580112D01*
X797127D01*
X796829Y581613D01*
X798196Y582179D01*
X799836Y583437D01*
X801094Y585077D01*
X801885Y586986D01*
X802155Y589036D01*
X801885Y591085D01*
X801094Y592994D01*
X800508Y593759D01*
X801247Y595259D01*
X812627D01*
X813366Y593759D01*
D02*
G37*
G36*
X762567D02*
X761980Y592994D01*
X761189Y591085D01*
X760919Y589036D01*
X761189Y586986D01*
X761980Y585077D01*
X763238Y583437D01*
X764878Y582179D01*
X766245Y581613D01*
X765947Y580112D01*
X746327D01*
X746029Y581613D01*
X747396Y582179D01*
X749036Y583437D01*
X750294Y585077D01*
X751085Y586986D01*
X751355Y589036D01*
X751085Y591085D01*
X750294Y592994D01*
X749707Y593759D01*
X750447Y595259D01*
X761827D01*
X762567Y593759D01*
D02*
G37*
G36*
X711767D02*
X711180Y592994D01*
X710389Y591085D01*
X710119Y589036D01*
X710389Y586986D01*
X711180Y585077D01*
X712438Y583437D01*
X714078Y582179D01*
X715445Y581613D01*
X715147Y580112D01*
X695527D01*
X695229Y581613D01*
X696596Y582179D01*
X698236Y583437D01*
X699494Y585077D01*
X700285Y586986D01*
X700555Y589036D01*
X700285Y591085D01*
X699494Y592994D01*
X698907Y593759D01*
X699647Y595259D01*
X711027D01*
X711767Y593759D01*
D02*
G37*
G36*
X737167D02*
X736580Y592994D01*
X735789Y591085D01*
X735519Y589036D01*
X735789Y586986D01*
X736580Y585077D01*
X737838Y583437D01*
X739478Y582179D01*
X740845Y581613D01*
X740547Y580112D01*
X720927D01*
X720629Y581613D01*
X721996Y582179D01*
X723636Y583437D01*
X724894Y585077D01*
X725685Y586986D01*
X725955Y589036D01*
X725685Y591085D01*
X724894Y592994D01*
X724307Y593759D01*
X725047Y595259D01*
X736427D01*
X737167Y593759D01*
D02*
G37*
G36*
X838766D02*
X838180Y592994D01*
X837389Y591085D01*
X837119Y589036D01*
X837389Y586986D01*
X838180Y585077D01*
X839438Y583437D01*
X841078Y582179D01*
X842445Y581613D01*
X842147Y580112D01*
X822527D01*
X822229Y581613D01*
X823596Y582179D01*
X825236Y583437D01*
X826494Y585077D01*
X827285Y586986D01*
X827555Y589036D01*
X827285Y591085D01*
X826494Y592994D01*
X825908Y593759D01*
X826647Y595259D01*
X838027D01*
X838766Y593759D01*
D02*
G37*
G36*
X940367D02*
X939780Y592994D01*
X938989Y591085D01*
X938719Y589036D01*
X938989Y586986D01*
X939780Y585077D01*
X941038Y583437D01*
X942678Y582179D01*
X944045Y581613D01*
X943747Y580112D01*
X924127D01*
X923829Y581613D01*
X925196Y582179D01*
X926836Y583437D01*
X928094Y585077D01*
X928885Y586986D01*
X929155Y589036D01*
X928885Y591085D01*
X928094Y592994D01*
X927507Y593759D01*
X928247Y595259D01*
X939627D01*
X940367Y593759D01*
D02*
G37*
G36*
X637633Y597262D02*
X637313Y595459D01*
X636238Y594634D01*
X634980Y592994D01*
X634189Y591085D01*
X633919Y589036D01*
X634189Y586986D01*
X634980Y585077D01*
X636238Y583437D01*
X637878Y582179D01*
X639788Y581388D01*
X641837Y581118D01*
X643886Y581388D01*
X645796Y582179D01*
X647436Y583437D01*
X648694Y585077D01*
X649485Y586986D01*
X649755Y589036D01*
X649485Y591085D01*
X648694Y592994D01*
X648108Y593759D01*
X648847Y595259D01*
X660227D01*
X660966Y593759D01*
X660380Y592994D01*
X659589Y591085D01*
X659319Y589036D01*
X659589Y586986D01*
X660380Y585077D01*
X661638Y583437D01*
X663278Y582179D01*
X665188Y581388D01*
X667237Y581118D01*
X669286Y581388D01*
X671196Y582179D01*
X672836Y583437D01*
X674094Y585077D01*
X674885Y586986D01*
X675155Y589036D01*
X674885Y591085D01*
X674094Y592994D01*
X673508Y593759D01*
X674247Y595259D01*
X685627D01*
X686367Y593759D01*
X685780Y592994D01*
X684989Y591085D01*
X684719Y589036D01*
X684989Y586986D01*
X685780Y585077D01*
X687038Y583437D01*
X688678Y582179D01*
X690045Y581613D01*
X689747Y580112D01*
X670537D01*
X669704Y579947D01*
X669421Y579758D01*
X668998Y579475D01*
X661373Y571850D01*
X660654Y571957D01*
X659550Y573559D01*
X659625Y573936D01*
X659276Y575691D01*
X658281Y577180D01*
X656793Y578175D01*
X655037Y578524D01*
X653281Y578175D01*
X651793Y577180D01*
X651079Y576113D01*
X635366D01*
X634564Y577612D01*
X634776Y577930D01*
X635125Y579686D01*
X634776Y581441D01*
X633781Y582930D01*
X632293Y583924D01*
X630537Y584274D01*
X628781Y583924D01*
X627293Y582930D01*
X626298Y581441D01*
X626233Y581113D01*
X621470D01*
X620961Y582612D01*
X622036Y583437D01*
X623294Y585077D01*
X624085Y586986D01*
X624355Y589036D01*
X624085Y591085D01*
X623294Y592994D01*
X622036Y594634D01*
X620396Y595893D01*
X618486Y596684D01*
X616437Y596953D01*
X614388Y596684D01*
X612478Y595893D01*
X611714Y595306D01*
X610214Y596046D01*
Y607425D01*
X611714Y608165D01*
X612478Y607579D01*
X614388Y606788D01*
X616437Y606518D01*
X618486Y606788D01*
X620396Y607579D01*
X622036Y608837D01*
X622861Y609912D01*
X624663Y610231D01*
X637633Y597262D01*
D02*
G37*
G36*
X914967Y593759D02*
X914380Y592994D01*
X913589Y591085D01*
X913319Y589036D01*
X913589Y586986D01*
X914380Y585077D01*
X915638Y583437D01*
X917278Y582179D01*
X918645Y581613D01*
X918347Y580112D01*
X898727D01*
X898429Y581613D01*
X899796Y582179D01*
X901436Y583437D01*
X902694Y585077D01*
X903485Y586986D01*
X903755Y589036D01*
X903485Y591085D01*
X902694Y592994D01*
X902107Y593759D01*
X902847Y595259D01*
X914227D01*
X914967Y593759D01*
D02*
G37*
G36*
X864166D02*
X863580Y592994D01*
X862789Y591085D01*
X862519Y589036D01*
X862789Y586986D01*
X863580Y585077D01*
X864838Y583437D01*
X866478Y582179D01*
X867845Y581613D01*
X867547Y580112D01*
X847927D01*
X847629Y581613D01*
X848996Y582179D01*
X850636Y583437D01*
X851894Y585077D01*
X852685Y586986D01*
X852955Y589036D01*
X852685Y591085D01*
X851894Y592994D01*
X851308Y593759D01*
X852047Y595259D01*
X863427D01*
X864166Y593759D01*
D02*
G37*
G36*
X889566D02*
X888980Y592994D01*
X888189Y591085D01*
X887919Y589036D01*
X888189Y586986D01*
X888980Y585077D01*
X890238Y583437D01*
X891878Y582179D01*
X893245Y581613D01*
X892947Y580112D01*
X873327D01*
X873029Y581613D01*
X874396Y582179D01*
X876036Y583437D01*
X877294Y585077D01*
X878085Y586986D01*
X878355Y589036D01*
X878085Y591085D01*
X877294Y592994D01*
X876708Y593759D01*
X877447Y595259D01*
X888827D01*
X889566Y593759D01*
D02*
G37*
G36*
X428037Y792038D02*
Y789000D01*
X427611Y788362D01*
X426659Y787726D01*
X425537Y787503D01*
X424415Y787726D01*
X424175Y787886D01*
X423934Y787934D01*
X423744Y788090D01*
X423347Y788051D01*
X422956Y788129D01*
X422752Y787992D01*
X422508Y787968D01*
X422309Y787862D01*
X422280Y787827D01*
X422235Y787820D01*
X421984Y787479D01*
X421923Y787438D01*
X421911Y787381D01*
X421890Y787352D01*
X421521Y786902D01*
X421525Y786857D01*
X421498Y786820D01*
X421013Y784860D01*
X421020Y784820D01*
X420997Y784787D01*
X421112Y784212D01*
X421199Y783632D01*
X421232Y783608D01*
X421240Y783568D01*
X421246Y783558D01*
X421470Y782436D01*
X421247Y781313D01*
X420611Y780362D01*
X419973Y779936D01*
X416037D01*
X414037Y781936D01*
X405037D01*
Y790936D01*
X415037D01*
X417037Y792936D01*
X427139Y792936D01*
X428037Y792038D01*
D02*
G37*
G36*
X918037Y822436D02*
X952037D01*
X954037Y820436D01*
Y795436D01*
X938037D01*
Y788436D01*
X917480D01*
X917037Y788524D01*
X916594Y788436D01*
X911037D01*
Y784334D01*
X910139Y783436D01*
X878837Y783436D01*
X873588Y781050D01*
X864941Y780947D01*
X864037Y781839D01*
Y787538D01*
X864936Y788436D01*
X872037Y788436D01*
X876537Y791436D01*
X900037Y791436D01*
X902387Y793786D01*
X904687D01*
Y796086D01*
X910037Y801436D01*
Y802436D01*
Y815436D01*
X901037D01*
Y825436D01*
X915037D01*
X918037Y822436D01*
D02*
G37*
G36*
X907966Y781906D02*
X908037Y780436D01*
X908037Y780436D01*
X908037Y780436D01*
Y762936D01*
X910391D01*
X910537Y762906D01*
X926292D01*
X926293Y762906D01*
X927088Y761581D01*
X927102Y761406D01*
X927047Y761130D01*
X927028Y761035D01*
X926798Y760691D01*
X926449Y758936D01*
X926462Y758871D01*
X925101Y758025D01*
X925068Y758050D01*
X923365Y758756D01*
X921537Y758996D01*
X919710Y758756D01*
X918007Y758050D01*
X916545Y756928D01*
X915423Y755466D01*
X914718Y753763D01*
X914477Y751936D01*
X914585Y751113D01*
X913165Y750413D01*
X911462Y752115D01*
X911625Y752936D01*
X911276Y754691D01*
X910281Y756180D01*
X908793Y757175D01*
X907037Y757524D01*
X905281Y757175D01*
X903793Y756180D01*
X902798Y754691D01*
X902449Y752936D01*
X902658Y751886D01*
X901697Y750532D01*
X901533Y750436D01*
X894111D01*
X893327Y751936D01*
X893625Y753436D01*
X893276Y755191D01*
X892281Y756680D01*
X890793Y757674D01*
X889037Y758024D01*
X887281Y757674D01*
X885793Y756680D01*
X884798Y755191D01*
X884449Y753436D01*
X884747Y751936D01*
X883963Y750436D01*
X880339D01*
X879320Y751936D01*
X879519Y752936D01*
X879169Y754691D01*
X878175Y756180D01*
X877689Y756505D01*
X877598Y756567D01*
X877156Y758482D01*
X877169Y758519D01*
X877276Y758680D01*
X877626Y760436D01*
X877276Y762192D01*
X876566Y763254D01*
Y769302D01*
X877050Y769786D01*
X889687D01*
Y770406D01*
X891387D01*
Y769786D01*
X904687D01*
Y780406D01*
X905889Y781906D01*
X907966Y781906D01*
D02*
G37*
G36*
X778322Y793147D02*
X779002Y791568D01*
X778923Y791466D01*
X778218Y789763D01*
X777977Y787936D01*
X778218Y786108D01*
X778923Y784406D01*
X780045Y782943D01*
X781507Y781821D01*
X783210Y781116D01*
X785037Y780875D01*
X786865Y781116D01*
X787713Y781467D01*
X789213Y780507D01*
Y777365D01*
X788297Y776570D01*
X787796Y776370D01*
X786865Y776756D01*
X785037Y776996D01*
X783210Y776756D01*
X781507Y776050D01*
X780045Y774928D01*
X778923Y773466D01*
X778218Y771763D01*
X777977Y769936D01*
X778218Y768109D01*
X778923Y766406D01*
X780045Y764943D01*
X781507Y763821D01*
X783210Y763116D01*
X785037Y762875D01*
X786865Y763116D01*
X788568Y763821D01*
X789420Y764475D01*
X789498Y764397D01*
X789921Y764114D01*
X790204Y763925D01*
X791037Y763759D01*
X807038D01*
X807870Y763925D01*
X808577Y764397D01*
X812514Y768334D01*
X813150Y768248D01*
X813684Y766661D01*
X799737Y752713D01*
X799659Y752597D01*
X790296Y743234D01*
X789037Y743485D01*
X787281Y743136D01*
X785793Y742141D01*
X784798Y740653D01*
X784449Y738897D01*
X784798Y737141D01*
X785793Y735652D01*
X787281Y734658D01*
X789037Y734309D01*
X790793Y734658D01*
X792281Y735652D01*
X793276Y737141D01*
X793625Y738897D01*
X793375Y740153D01*
X794391Y741129D01*
X795515Y740788D01*
X795887Y740547D01*
X796793Y739191D01*
X798281Y738197D01*
X800037Y737848D01*
X801008Y738041D01*
X802587Y737213D01*
X802739Y737025D01*
X802790Y736767D01*
X800498Y734475D01*
X800026Y733769D01*
X799860Y732936D01*
Y732393D01*
X798793Y731680D01*
X797798Y730191D01*
X797449Y728436D01*
X797798Y726680D01*
X798793Y725191D01*
X800281Y724197D01*
X800705Y724112D01*
X800557Y722613D01*
X797939D01*
X795376Y725175D01*
X794670Y725647D01*
X793837Y725813D01*
X786832D01*
X786031Y727313D01*
X786276Y727680D01*
X786625Y729436D01*
X786276Y731191D01*
X785281Y732680D01*
X783793Y733674D01*
X782037Y734024D01*
X781612Y733939D01*
X772214Y743337D01*
Y788034D01*
X777436Y793256D01*
X778322Y793147D01*
D02*
G37*
G36*
X823037Y820936D02*
Y809936D01*
X824037Y808936D01*
X835037D01*
X836037Y807936D01*
X836037Y800834D01*
X835139Y799936D01*
X832807Y799936D01*
X832807Y799936D01*
X832538Y799936D01*
X831537Y799936D01*
Y799285D01*
X831537Y799285D01*
X831537D01*
Y795936D01*
X823537Y795936D01*
X821537Y797936D01*
X816887Y797936D01*
X816870Y797947D01*
X816038Y798113D01*
X810936D01*
X810037Y799011D01*
X810037Y807436D01*
Y820936D01*
X811037Y821936D01*
X822037D01*
X823037Y820936D01*
D02*
G37*
G36*
X1011360Y818442D02*
Y759854D01*
X1010810Y759483D01*
X1009860Y759190D01*
X1009622Y759349D01*
X1009037Y759465D01*
X1008607D01*
X1008293Y759675D01*
X1006537Y760024D01*
X1004877Y759694D01*
X1004737Y759696D01*
X1003377Y760326D01*
Y762936D01*
X1006037D01*
Y773936D01*
X1006037Y773936D01*
X1006037D01*
Y784936D01*
X997537D01*
X997122Y784936D01*
X996037Y784936D01*
X996037Y786436D01*
Y795936D01*
X986037D01*
Y795845D01*
X984537Y794825D01*
X983538Y795024D01*
X981782Y794675D01*
X980294Y793680D01*
X979299Y792192D01*
X978950Y790436D01*
X979299Y788680D01*
X980294Y787192D01*
X981782Y786197D01*
X983538Y785848D01*
X984537Y786047D01*
X984896Y785803D01*
X986037Y784936D01*
X986037Y783532D01*
Y775436D01*
X986037Y775051D01*
X986037Y773936D01*
Y773890D01*
X986037Y772436D01*
Y770113D01*
X980439D01*
X979218Y771334D01*
X978512Y771806D01*
X977679Y771971D01*
X976282D01*
Y772136D01*
X976104Y773033D01*
X975595Y773794D01*
X974834Y774302D01*
X973937Y774481D01*
X972137D01*
X971240Y774302D01*
X970537Y773833D01*
X969834Y774302D01*
X969772Y774315D01*
X969721Y774349D01*
X969500Y774393D01*
X969285Y774458D01*
X969210Y774450D01*
X969135Y774465D01*
X969015D01*
X968937Y774481D01*
X967137D01*
X967059Y774465D01*
X964015D01*
X963937Y774481D01*
X962137D01*
X962059Y774465D01*
X962037D01*
X961452Y774349D01*
X961443Y774343D01*
X961240Y774302D01*
X960679Y773928D01*
X960619Y774017D01*
X960123Y774349D01*
X959538Y774465D01*
X959015D01*
X958937Y774481D01*
X957137D01*
X957059Y774465D01*
X954015D01*
X953937Y774481D01*
X952137D01*
X952059Y774465D01*
X944671D01*
X940037Y779099D01*
Y780436D01*
X910434D01*
X910287Y781936D01*
X910724Y782023D01*
X911220Y782354D01*
X912119Y783252D01*
X912450Y783748D01*
X912566Y784334D01*
Y786436D01*
X940037D01*
Y793906D01*
X949957D01*
X949970Y793838D01*
X950479Y793077D01*
X951240Y792569D01*
X952137Y792391D01*
X953937D01*
X954834Y792569D01*
X955537Y793038D01*
X956240Y792569D01*
X957137Y792391D01*
X958937D01*
X959835Y792569D01*
X960537Y793038D01*
X961240Y792569D01*
X962137Y792391D01*
X963937D01*
X964834Y792569D01*
X965537Y793038D01*
X966240Y792569D01*
X967137Y792391D01*
X968937D01*
X969834Y792569D01*
X970537Y793038D01*
X971240Y792569D01*
X972137Y792391D01*
X973937D01*
X974834Y792569D01*
X975595Y793077D01*
X976104Y793838D01*
X976282Y794736D01*
Y794970D01*
X978396D01*
X978396Y794970D01*
X979477Y795185D01*
X980393Y795797D01*
X983901Y799305D01*
X985287Y798731D01*
Y797786D01*
X996687D01*
Y811086D01*
X989899D01*
X989537Y812436D01*
X989537Y812436D01*
X989537D01*
X989537Y812436D01*
Y822436D01*
X979037D01*
X978537Y822436D01*
X977537Y823521D01*
Y832436D01*
X966537D01*
Y832436D01*
X965537Y832436D01*
Y832436D01*
X954537D01*
Y824220D01*
X953371Y823642D01*
X953037Y823571D01*
X952622Y823849D01*
X952037Y823965D01*
X948660D01*
X948614Y823974D01*
X939461D01*
X939414Y823965D01*
X918671D01*
X916537Y826098D01*
Y835259D01*
X919362D01*
X919923Y833905D01*
X921045Y832443D01*
X922507Y831321D01*
X924210Y830616D01*
X926037Y830375D01*
X927864Y830616D01*
X929567Y831321D01*
X931030Y832443D01*
X932151Y833905D01*
X932857Y835608D01*
X933097Y837436D01*
X932857Y839263D01*
X932151Y840966D01*
X931030Y842428D01*
X929567Y843550D01*
X927864Y844255D01*
X926037Y844496D01*
X924210Y844255D01*
X922507Y843550D01*
X921045Y842428D01*
X919923Y840966D01*
X919362Y839613D01*
X916537D01*
Y845436D01*
X899037D01*
Y813436D01*
X908508D01*
Y803936D01*
X908037D01*
Y801599D01*
X903606Y797167D01*
X903274Y796671D01*
X903158Y796086D01*
Y795315D01*
X902387D01*
X901802Y795199D01*
X901306Y794867D01*
X899524Y793086D01*
X891387D01*
Y793086D01*
X891267Y792965D01*
X889687D01*
Y793086D01*
X876387D01*
Y793082D01*
X876241Y792936D01*
X876101Y792878D01*
X875952Y792849D01*
X875828Y792766D01*
X875689Y792708D01*
X871574Y789965D01*
X869715D01*
X869659Y790002D01*
X868762Y790181D01*
X863562D01*
X862665Y790002D01*
X861904Y789494D01*
X861395Y788733D01*
X861217Y787836D01*
Y786036D01*
X861395Y785138D01*
X861865Y784436D01*
X861395Y783733D01*
X861217Y782836D01*
Y781036D01*
X861395Y780138D01*
X861701Y779681D01*
X861456Y779517D01*
X861124Y779021D01*
X861008Y778436D01*
Y770724D01*
X860437Y770256D01*
X858637D01*
X857740Y770077D01*
X857037Y769608D01*
X856335Y770077D01*
X855437Y770256D01*
X853637D01*
X852740Y770077D01*
X852037Y769608D01*
X851334Y770077D01*
X850437Y770256D01*
X848637D01*
X847740Y770077D01*
X847037Y769608D01*
X846335Y770077D01*
X845437Y770256D01*
X843637D01*
X842740Y770077D01*
X842037Y769608D01*
X841334Y770077D01*
X840437Y770256D01*
X838637D01*
X837740Y770077D01*
X837037Y769608D01*
X836334Y770077D01*
X835437Y770256D01*
X834231D01*
X833355Y770753D01*
X832857Y771630D01*
Y772836D01*
X832679Y773733D01*
X832209Y774436D01*
X832679Y775138D01*
X832857Y776036D01*
Y777836D01*
X832679Y778733D01*
X832209Y779436D01*
X832679Y780138D01*
X832857Y781036D01*
Y782836D01*
X832679Y783733D01*
X832209Y784436D01*
X832679Y785138D01*
X832857Y786036D01*
Y787836D01*
X832679Y788733D01*
X832209Y789436D01*
X832679Y790138D01*
X832857Y791036D01*
Y792836D01*
X832679Y793733D01*
X832209Y794436D01*
X832384Y794698D01*
X832618Y794854D01*
X832950Y795351D01*
X833066Y795936D01*
Y797346D01*
X834127Y798406D01*
X835139D01*
X835139D01*
X835725Y798523D01*
X836044Y798736D01*
X836334Y798794D01*
X837037Y799264D01*
X837740Y798794D01*
X838637Y798616D01*
X840437D01*
X841334Y798794D01*
X842037Y799264D01*
X842740Y798794D01*
X843637Y798616D01*
X845437D01*
X846335Y798794D01*
X847037Y799264D01*
X847740Y798794D01*
X848637Y798616D01*
X850437D01*
X851334Y798794D01*
X852037Y799264D01*
X852740Y798794D01*
X853637Y798616D01*
X855437D01*
X856335Y798794D01*
X857037Y799264D01*
X857740Y798794D01*
X858637Y798616D01*
X860437D01*
X861334Y798794D01*
X862095Y799302D01*
X862604Y800063D01*
X862672Y800407D01*
X869109Y806844D01*
X869276Y807094D01*
X869439Y807338D01*
X869440Y807339D01*
X869440Y807340D01*
X869498Y807632D01*
X869557Y807923D01*
X869570Y815686D01*
X871687D01*
Y815906D01*
X874476Y815906D01*
X875537Y814846D01*
Y813436D01*
X893037D01*
Y845436D01*
X875537D01*
Y825965D01*
X872604D01*
X871687Y827086D01*
Y827786D01*
X871687D01*
Y839186D01*
X858387D01*
Y836199D01*
X857951Y836113D01*
X857584Y835867D01*
X857034Y835500D01*
X857034Y835500D01*
X855040Y833506D01*
X854428Y832590D01*
X854213Y831509D01*
X854213Y831509D01*
Y827086D01*
X841387D01*
Y815686D01*
X841387Y815686D01*
X841387D01*
X841166Y814277D01*
X840901Y813881D01*
X839476Y813456D01*
X838657Y814301D01*
X839233Y815686D01*
X839687D01*
Y827086D01*
X826387D01*
Y820783D01*
X824887Y820635D01*
X824776Y821192D01*
X823782Y822680D01*
X822293Y823675D01*
X820537Y824024D01*
X818782Y823675D01*
X818468Y823465D01*
X811037D01*
X810452Y823349D01*
X809956Y823017D01*
X808956Y822017D01*
X808624Y821521D01*
X808508Y820936D01*
Y810086D01*
X808387D01*
Y798113D01*
X777037D01*
X776204Y797947D01*
X775498Y797475D01*
X768498Y790475D01*
X768026Y789769D01*
X767860Y788936D01*
Y742436D01*
X768026Y741603D01*
X768498Y740896D01*
X777960Y731434D01*
X777798Y731191D01*
X777449Y729436D01*
X777501Y729176D01*
X776098Y728540D01*
X776030Y728628D01*
X774568Y729750D01*
X772865Y730456D01*
X771037Y730696D01*
X769210Y730456D01*
X767507Y729750D01*
X766045Y728628D01*
X764923Y727166D01*
X764362Y725813D01*
X759587D01*
Y730086D01*
Y735086D01*
Y740086D01*
Y745086D01*
Y750086D01*
Y756786D01*
X748448D01*
X747387Y757846D01*
Y768986D01*
X748493Y769936D01*
X753037D01*
Y773858D01*
X753370Y773925D01*
X754077Y774397D01*
X757576Y777896D01*
X757812Y778250D01*
X758048Y778603D01*
X758214Y779436D01*
Y793534D01*
X766439Y801759D01*
X783537D01*
X784370Y801925D01*
X785076Y802396D01*
X808399Y825719D01*
X815497D01*
X816330Y825884D01*
X817036Y826356D01*
X825576Y834896D01*
X825859Y835320D01*
X826048Y835603D01*
X826214Y836436D01*
Y847034D01*
X829439Y850259D01*
X979543D01*
X1011360Y818442D01*
D02*
G37*
G36*
X1151282Y870197D02*
X1153037Y869848D01*
Y869848D01*
X1153104Y869909D01*
X1157023Y869601D01*
X1160911Y868668D01*
X1164604Y867138D01*
X1168013Y865049D01*
X1171053Y862452D01*
X1173650Y859412D01*
X1175739Y856003D01*
X1177269Y852309D01*
X1178202Y848422D01*
X1178511Y844502D01*
X1178449Y844436D01*
X1178449D01*
X1178799Y842680D01*
X1178959Y842440D01*
Y591432D01*
X1178799Y591192D01*
X1178449Y589436D01*
X1178449D01*
X1178511Y589369D01*
X1178202Y585450D01*
X1177269Y581562D01*
X1175739Y577869D01*
X1173650Y574460D01*
X1171053Y571420D01*
X1168013Y568823D01*
X1164604Y566734D01*
X1160911Y565204D01*
X1157023Y564271D01*
X1153104Y563963D01*
X1153037Y564024D01*
Y564024D01*
X1151282Y563675D01*
X1151041Y563514D01*
X1105727D01*
X1105579Y565014D01*
X1105622Y565023D01*
X1106118Y565354D01*
X1106450Y565850D01*
X1106566Y566436D01*
Y567786D01*
X1106687D01*
Y581086D01*
X1106566D01*
Y582436D01*
X1106450Y583021D01*
X1106118Y583517D01*
X1105906Y584992D01*
X1105977Y585278D01*
X1106685Y586986D01*
X1106955Y589036D01*
X1106685Y591085D01*
X1105894Y592994D01*
X1104636Y594634D01*
X1102996Y595893D01*
X1101086Y596684D01*
X1099037Y596953D01*
X1096988Y596684D01*
X1095078Y595893D01*
X1093438Y594634D01*
X1092180Y592994D01*
X1091389Y591085D01*
X1091119Y589036D01*
X1091389Y586986D01*
X1092019Y585465D01*
X1091332Y583965D01*
X1081342D01*
X1080655Y585465D01*
X1081285Y586986D01*
X1081555Y589036D01*
X1081285Y591085D01*
X1080494Y592994D01*
X1079236Y594634D01*
X1077596Y595893D01*
X1075686Y596684D01*
X1073637Y596953D01*
X1071588Y596684D01*
X1069678Y595893D01*
X1068038Y594634D01*
X1066780Y592994D01*
X1065989Y591085D01*
X1065719Y589036D01*
X1065989Y586986D01*
X1066780Y585077D01*
X1068038Y583437D01*
X1068618Y582992D01*
X1068508Y582436D01*
Y581086D01*
X1068387D01*
Y567786D01*
X1068508D01*
Y566436D01*
X1068624Y565850D01*
X1068956Y565354D01*
X1069452Y565023D01*
X1069495Y565014D01*
X1069347Y563514D01*
X367115D01*
Y573440D01*
X367276Y573680D01*
X367625Y575436D01*
X367610D01*
X367318Y577655D01*
X366462Y579722D01*
X365099Y581498D01*
X363324Y582860D01*
X361256Y583717D01*
X359037Y584009D01*
Y584024D01*
X357281Y583675D01*
X357041Y583514D01*
X342239D01*
X341687Y584786D01*
X341687Y585014D01*
Y598086D01*
X339546D01*
X338925Y599586D01*
X341887D01*
X342687Y599586D01*
X343037D01*
X343387D01*
X344187Y599586D01*
X357387D01*
Y604459D01*
X359387D01*
Y600686D01*
X372360D01*
X372687Y600686D01*
X373860Y599897D01*
Y586936D01*
X374026Y586103D01*
X374498Y585397D01*
X389998Y569896D01*
X390705Y569425D01*
X391538Y569259D01*
X486037D01*
X486870Y569425D01*
X487576Y569896D01*
X492576Y574896D01*
X492859Y575320D01*
X493048Y575603D01*
X493214Y576436D01*
Y618665D01*
X493048Y619498D01*
X492859Y619781D01*
X492576Y620205D01*
X478849Y633932D01*
Y700669D01*
X491841Y713661D01*
X507260D01*
X508062Y712161D01*
X507969Y712021D01*
X507619Y710265D01*
X507623Y710245D01*
X506672Y709086D01*
X506387D01*
Y695786D01*
X508129D01*
Y694086D01*
X506387D01*
Y680786D01*
X517787D01*
Y694086D01*
X516286D01*
Y695786D01*
X517787D01*
Y697139D01*
X518099Y697457D01*
X519287Y698142D01*
X519938Y698012D01*
X519939Y698012D01*
X525171D01*
X525449Y697827D01*
X526737Y697570D01*
X531037D01*
X532325Y697827D01*
X533416Y698556D01*
X534146Y699647D01*
X534402Y700935D01*
X534146Y702223D01*
X533416Y703314D01*
Y703557D01*
X534146Y704649D01*
X534402Y705936D01*
X534146Y707224D01*
X534139Y707234D01*
X533482Y708436D01*
X534139Y709637D01*
X534146Y709647D01*
X534402Y710935D01*
X534146Y712223D01*
X533416Y713314D01*
Y713557D01*
X534146Y714649D01*
X534402Y715936D01*
X534146Y717224D01*
X534139Y717234D01*
X533482Y718436D01*
X534139Y719637D01*
X534146Y719647D01*
X534402Y720935D01*
X534146Y722223D01*
X533416Y723314D01*
Y723557D01*
X534146Y724649D01*
X534402Y725936D01*
X534146Y727224D01*
X534139Y727234D01*
X533482Y728436D01*
X534139Y729637D01*
X534146Y729647D01*
X534402Y730935D01*
X534146Y732223D01*
X533416Y733314D01*
Y733557D01*
X534146Y734649D01*
X534161Y734726D01*
X534537Y736181D01*
X535824Y736437D01*
X535836Y736445D01*
X537037Y737100D01*
X538238Y736445D01*
X538250Y736437D01*
X539538Y736181D01*
X540825Y736437D01*
X540836Y736444D01*
X542037Y737101D01*
X543238Y736444D01*
X543249Y736437D01*
X544536Y736181D01*
X545824Y736437D01*
X545836Y736445D01*
X547037Y737100D01*
X548238Y736445D01*
X548250Y736437D01*
X549538Y736181D01*
X550825Y736437D01*
X551917Y737167D01*
X552646Y738258D01*
X552902Y739546D01*
Y743846D01*
X552646Y745133D01*
X551917Y746225D01*
X550825Y746954D01*
X549538Y747210D01*
X548250Y746954D01*
X548238Y746946D01*
X547037Y746291D01*
X545836Y746946D01*
X545824Y746954D01*
X544536Y747210D01*
X543249Y746954D01*
X543238Y746947D01*
X542037Y746291D01*
X540836Y746947D01*
X540825Y746954D01*
X539538Y747210D01*
X539095Y747122D01*
X537595Y748183D01*
Y752686D01*
X540687D01*
Y752686D01*
X540687Y752686D01*
X541387D01*
Y752686D01*
X541387Y752686D01*
X553887D01*
X554687Y752686D01*
X555037D01*
X555387D01*
X556187Y752686D01*
X556956D01*
X557399Y751186D01*
X556947Y750509D01*
X556734Y749436D01*
Y745589D01*
X556429Y745133D01*
X556173Y743846D01*
Y739546D01*
X556429Y738258D01*
X557159Y737167D01*
X558250Y736437D01*
X559538Y736181D01*
X560825Y736437D01*
X560836Y736444D01*
X562037Y737101D01*
X563238Y736444D01*
X563249Y736437D01*
X564536Y736181D01*
X565824Y736437D01*
X566916Y737167D01*
X567159D01*
X568250Y736437D01*
X569538Y736181D01*
X570825Y736437D01*
X571917Y737167D01*
X572646Y738258D01*
X572902Y739546D01*
Y743846D01*
X572646Y745133D01*
X572327Y745612D01*
X573037Y747111D01*
X573037Y747112D01*
X574118Y747327D01*
X575034Y747939D01*
X577155Y750059D01*
X577155Y750059D01*
X577522Y750608D01*
X577767Y750975D01*
X577982Y752056D01*
Y752686D01*
X582687D01*
Y754367D01*
X584278D01*
X585282Y753697D01*
X587038Y753348D01*
X588793Y753697D01*
X590282Y754691D01*
X591276Y756180D01*
X591626Y757936D01*
X591276Y759692D01*
X590282Y761180D01*
X588793Y762175D01*
X587038Y762524D01*
X585282Y762175D01*
X584278Y761504D01*
X582687D01*
Y764086D01*
X569387D01*
Y764086D01*
X569387Y764086D01*
X568687D01*
Y764086D01*
X568687Y764086D01*
X556187D01*
X555387Y764086D01*
X555037D01*
X554687D01*
X553887Y764086D01*
X541387D01*
Y764086D01*
X540687D01*
Y764086D01*
X529096D01*
Y769436D01*
X528863Y770606D01*
X528200Y771599D01*
X526200Y773598D01*
X525208Y774262D01*
X524037Y774494D01*
X523887Y775937D01*
Y778786D01*
X517056D01*
X516482Y780171D01*
X521146Y784835D01*
X521230Y784818D01*
X533344D01*
X534688Y785085D01*
X535826Y785846D01*
X536587Y786985D01*
X536855Y788328D01*
Y793343D01*
X537039Y793568D01*
X588195D01*
X593939Y787824D01*
Y771581D01*
X594170Y770418D01*
X592788Y769679D01*
X589861Y772606D01*
Y778436D01*
X589646Y779516D01*
X589401Y779883D01*
X589034Y780433D01*
X589034Y780433D01*
X586527Y782940D01*
X586625Y783436D01*
X586276Y785191D01*
X585281Y786680D01*
X583793Y787674D01*
X582037Y788024D01*
X580281Y787674D01*
X578793Y786680D01*
X577798Y785191D01*
X577449Y783436D01*
X577798Y781680D01*
X578793Y780191D01*
X580281Y779197D01*
X582037Y778848D01*
X582533Y778946D01*
X584213Y777266D01*
Y771436D01*
X584213Y771436D01*
X584428Y770355D01*
X585040Y769438D01*
X601040Y753439D01*
X601040Y753438D01*
X601956Y752826D01*
X603037Y752611D01*
X603037Y752611D01*
X645867D01*
X651213Y747266D01*
Y741961D01*
X650793Y741680D01*
X649798Y740191D01*
X649449Y738436D01*
X649798Y736680D01*
X650793Y735191D01*
X652281Y734197D01*
X654037Y733848D01*
X655793Y734197D01*
X657281Y735191D01*
X658276Y736680D01*
X658625Y738436D01*
X658276Y740191D01*
X657281Y741680D01*
X656861Y741961D01*
Y748436D01*
X656646Y749517D01*
X656034Y750433D01*
X649034Y757433D01*
X648118Y758045D01*
X647037Y758260D01*
X647037Y758260D01*
X604207D01*
X603050Y759417D01*
X603789Y760799D01*
X604953Y760568D01*
X660571D01*
X677005Y744133D01*
X676431Y742747D01*
X671672D01*
X670839Y742582D01*
X670133Y742110D01*
X665498Y737475D01*
X665026Y736769D01*
X664860Y735936D01*
Y733598D01*
X663360Y732796D01*
X662793Y733175D01*
X661038Y733524D01*
X659282Y733175D01*
X657793Y732180D01*
X656799Y730692D01*
X656449Y728936D01*
X656700Y727677D01*
X649498Y720475D01*
X649026Y719769D01*
X648860Y718936D01*
Y702936D01*
X649026Y702103D01*
X649498Y701396D01*
X650860Y700034D01*
Y668436D01*
X651026Y667603D01*
X651498Y666896D01*
X669998Y648396D01*
X670351Y648160D01*
X670704Y647924D01*
X671537Y647759D01*
X675079D01*
X675793Y646691D01*
X677281Y645697D01*
X679037Y645348D01*
X680793Y645697D01*
X682281Y646691D01*
X683276Y648180D01*
X683625Y649936D01*
X683276Y651691D01*
X682281Y653180D01*
X680793Y654174D01*
X679037Y654524D01*
X677281Y654174D01*
X675793Y653180D01*
X675079Y652113D01*
X672439D01*
X655214Y669337D01*
Y676059D01*
X656714Y676680D01*
X672498Y660896D01*
X673204Y660424D01*
X674037Y660259D01*
X687192D01*
X688151Y658759D01*
X687977Y657436D01*
X688217Y655608D01*
X688923Y653905D01*
X690045Y652443D01*
X691507Y651321D01*
X693210Y650616D01*
X695037Y650375D01*
X696864Y650616D01*
X698218Y651176D01*
X699451Y649944D01*
X699449Y649936D01*
X699798Y648180D01*
X700793Y646691D01*
X702281Y645697D01*
X704037Y645348D01*
X705793Y645697D01*
X707281Y646691D01*
X708276Y648180D01*
X708625Y649936D01*
X708276Y651691D01*
X707281Y653180D01*
X705793Y654174D01*
X704037Y654524D01*
X702941Y654306D01*
X701828Y655538D01*
X701857Y655608D01*
X702097Y657436D01*
X701857Y659263D01*
X701152Y660966D01*
X700030Y662428D01*
X698567Y663550D01*
X696864Y664255D01*
X695037Y664496D01*
X693210Y664255D01*
X691856Y663695D01*
X691576Y663975D01*
X690870Y664447D01*
X690037Y664613D01*
X674939D01*
X659214Y680337D01*
Y683185D01*
X660368Y683654D01*
X660714Y683680D01*
X673998Y670396D01*
X674351Y670160D01*
X674704Y669924D01*
X675537Y669759D01*
X725537D01*
X726370Y669924D01*
X727076Y670396D01*
X730576Y673896D01*
X731048Y674603D01*
X731214Y675436D01*
Y676478D01*
X732281Y677191D01*
X733276Y678680D01*
X733359Y679098D01*
X734859Y678950D01*
Y654937D01*
X735025Y654104D01*
X735497Y653398D01*
X737700Y651195D01*
X737449Y649936D01*
X737799Y648180D01*
X738793Y646691D01*
X740282Y645697D01*
X742038Y645348D01*
X743793Y645697D01*
X745282Y646691D01*
X746277Y648180D01*
X746626Y649936D01*
X746277Y651691D01*
X745282Y653180D01*
X743793Y654174D01*
X742038Y654524D01*
X740779Y654273D01*
X739213Y655839D01*
Y698478D01*
X740280Y699191D01*
X741202Y700571D01*
X741495Y700801D01*
X742722Y701173D01*
X751361Y692534D01*
Y682935D01*
X751526Y682102D01*
X751998Y681396D01*
X759997Y673397D01*
X760704Y672925D01*
X761537Y672759D01*
X764362D01*
X764923Y671406D01*
X766045Y669943D01*
X767507Y668821D01*
X768898Y668245D01*
X769026Y667602D01*
X769498Y666896D01*
X773998Y662396D01*
X774704Y661925D01*
X775537Y661759D01*
X841837D01*
X842670Y661925D01*
X843376Y662396D01*
X848343Y667363D01*
X848626Y667787D01*
X848726Y667936D01*
X850537D01*
X852037Y667936D01*
X852037Y667936D01*
X852037D01*
Y667936D01*
X852037Y667936D01*
X861337D01*
X861959Y666436D01*
X850135Y654613D01*
X835995D01*
X835281Y655680D01*
X833793Y656674D01*
X832037Y657024D01*
X830281Y656674D01*
X828793Y655680D01*
X827798Y654191D01*
X827449Y652436D01*
X827798Y650680D01*
X828793Y649191D01*
X830281Y648197D01*
X832037Y647848D01*
X833793Y648197D01*
X835281Y649191D01*
X835995Y650259D01*
X851037D01*
X851870Y650424D01*
X852576Y650896D01*
X868037Y666357D01*
X869537Y665736D01*
Y661436D01*
X880537D01*
X880537Y661436D01*
X882037Y661547D01*
X883037Y661348D01*
X884793Y661697D01*
X886282Y662691D01*
X887276Y664180D01*
X887626Y665936D01*
X887276Y667692D01*
X886282Y669180D01*
X884793Y670175D01*
X883037Y670524D01*
X882037Y670325D01*
X880537Y671344D01*
Y671436D01*
Y671436D01*
Y672279D01*
X881037Y673611D01*
X882118Y673826D01*
X883034Y674439D01*
X883542Y674946D01*
X884037Y674847D01*
X885793Y675197D01*
X887281Y676191D01*
X888276Y677680D01*
X888625Y679436D01*
X888276Y681191D01*
X887281Y682680D01*
X886238Y683377D01*
X886493Y684757D01*
X887674Y685173D01*
X887793Y685197D01*
X887850Y685235D01*
X887872Y685243D01*
X889366Y684444D01*
Y683498D01*
X889647Y682088D01*
X890445Y680893D01*
X891640Y680095D01*
X892460Y679932D01*
X892526Y679603D01*
X892998Y678896D01*
X893498Y678396D01*
X893921Y678113D01*
X894037Y678036D01*
Y667936D01*
X897861D01*
Y666936D01*
X898026Y666103D01*
X898498Y665397D01*
X898700Y665195D01*
X898449Y663936D01*
X898799Y662180D01*
X899793Y660692D01*
X901282Y659697D01*
X903037Y659348D01*
X904793Y659697D01*
X906282Y660692D01*
X907276Y662180D01*
X907626Y663936D01*
X907276Y665692D01*
X906282Y667180D01*
X904793Y668175D01*
X904037Y668325D01*
Y678936D01*
X901214D01*
X901048Y679769D01*
X900576Y680475D01*
X899576Y681475D01*
X899190Y681733D01*
X899427Y682088D01*
X899708Y683498D01*
Y692374D01*
X899427Y693783D01*
X898629Y694978D01*
X897434Y695776D01*
X896025Y696056D01*
X893049D01*
X891640Y695776D01*
X890445Y694978D01*
X889647Y693783D01*
X888060Y693496D01*
X887793Y693674D01*
X886037Y694024D01*
X884281Y693674D01*
X882793Y692680D01*
X882725Y692579D01*
X882478Y692448D01*
X880869Y692501D01*
X880537Y692943D01*
X880537Y693936D01*
Y702436D01*
X877314D01*
Y704761D01*
X878668Y705321D01*
X880130Y706443D01*
X881252Y707905D01*
X881957Y709608D01*
X882198Y711436D01*
X881957Y713263D01*
X881252Y714966D01*
X880130Y716428D01*
X878668Y717550D01*
X876965Y718255D01*
X875137Y718496D01*
X873310Y718255D01*
X871607Y717550D01*
X870145Y716428D01*
X869023Y714966D01*
X868318Y713263D01*
X868077Y711436D01*
X868318Y709608D01*
X869023Y707905D01*
X870145Y706443D01*
X871607Y705321D01*
X872961Y704761D01*
Y702436D01*
X869537D01*
Y701636D01*
X868037Y701015D01*
X858577Y710475D01*
X857871Y710947D01*
X857038Y711112D01*
X856208D01*
Y713374D01*
X855928Y714783D01*
X855129Y715978D01*
X854214Y716589D01*
Y721936D01*
X854049Y722769D01*
X853813Y723122D01*
X853577Y723475D01*
X851214Y725837D01*
Y740436D01*
X861537D01*
Y749719D01*
X864537D01*
Y740436D01*
X875537D01*
Y743276D01*
X877153D01*
X877537Y741776D01*
X877537Y740436D01*
X877537Y740436D01*
Y740436D01*
X877537D01*
X877537Y740435D01*
Y730436D01*
X880488D01*
Y726936D01*
X880682Y725960D01*
X881235Y725133D01*
X882235Y724133D01*
X883062Y723581D01*
X884037Y723387D01*
X910938D01*
X911914Y723581D01*
X912740Y724133D01*
X917839Y729232D01*
X918392Y730059D01*
X918586Y731035D01*
Y743936D01*
X918581Y743960D01*
X919358Y744755D01*
X919837Y745082D01*
X919885Y745093D01*
X921537Y744875D01*
X923365Y745116D01*
X925068Y745821D01*
X925599Y746229D01*
X926112Y746235D01*
X927449Y745763D01*
X927456Y745752D01*
X928354Y744854D01*
X928685Y744633D01*
X928850Y744523D01*
X929318Y744429D01*
X929435Y744406D01*
X929435D01*
X935742D01*
X936037Y744348D01*
X936332Y744406D01*
X947538Y744406D01*
X996537D01*
X997123Y744523D01*
X997208Y744580D01*
X997782Y744197D01*
X999537Y743848D01*
X1001293Y744197D01*
X1002355Y744906D01*
X1003720D01*
X1004782Y744197D01*
X1005463Y744061D01*
X1005957Y742434D01*
X1001498Y737975D01*
X1001026Y737269D01*
X1000860Y736436D01*
Y719337D01*
X989498Y707975D01*
X989026Y707269D01*
X988861Y706436D01*
Y699393D01*
X987793Y698680D01*
X986798Y697191D01*
X986449Y695436D01*
X986798Y693680D01*
X987793Y692191D01*
X988861Y691478D01*
Y680611D01*
X987507Y680050D01*
X986045Y678928D01*
X984923Y677466D01*
X984218Y675763D01*
X983977Y673936D01*
X984218Y672109D01*
X984923Y670406D01*
X986045Y668943D01*
X987507Y667821D01*
X989210Y667116D01*
X991038Y666875D01*
X992865Y667116D01*
X994568Y667821D01*
X996030Y668943D01*
X997152Y670406D01*
X997757Y671867D01*
X998538Y671996D01*
X999318Y671867D01*
X999923Y670406D01*
X1001045Y668943D01*
X1002507Y667821D01*
X1004210Y667116D01*
X1006038Y666875D01*
X1007865Y667116D01*
X1009568Y667821D01*
X1011030Y668943D01*
X1011360Y669374D01*
X1012860Y668865D01*
Y661837D01*
X1010135Y659113D01*
X975327D01*
X975282Y659180D01*
X973793Y660175D01*
X972038Y660524D01*
X970282Y660175D01*
X968793Y659180D01*
X967798Y657692D01*
X967449Y655936D01*
X967798Y654180D01*
X968793Y652691D01*
X970282Y651697D01*
X972038Y651348D01*
X973793Y651697D01*
X975282Y652691D01*
X976276Y654180D01*
X976392Y654759D01*
X1011037D01*
X1011870Y654925D01*
X1012576Y655397D01*
X1016576Y659397D01*
X1016859Y659820D01*
X1017048Y660103D01*
X1017214Y660936D01*
Y687918D01*
X1018714Y688539D01*
X1025357Y681896D01*
X1026063Y681424D01*
X1026896Y681259D01*
X1029036D01*
X1030045Y679943D01*
X1031507Y678821D01*
X1032861Y678261D01*
Y676436D01*
X1029537D01*
X1029537Y676436D01*
Y676436D01*
X1029537Y676436D01*
X1028321Y677121D01*
X1028281Y677180D01*
X1026793Y678175D01*
X1025037Y678524D01*
X1023281Y678175D01*
X1021793Y677180D01*
X1020798Y675691D01*
X1020449Y673936D01*
X1020798Y672180D01*
X1021793Y670691D01*
X1023281Y669697D01*
X1025037Y669348D01*
X1026793Y669697D01*
X1028037Y670528D01*
X1028954Y670252D01*
X1029537Y669871D01*
Y667936D01*
X1029537Y666437D01*
Y666436D01*
X1029522Y666305D01*
X1028037Y665511D01*
X1027793Y665675D01*
X1026037Y666024D01*
X1024281Y665675D01*
X1022793Y664680D01*
X1021798Y663191D01*
X1021449Y661436D01*
X1021798Y659680D01*
X1022793Y658191D01*
X1024281Y657197D01*
X1026037Y656848D01*
X1027793Y657197D01*
X1028037Y657360D01*
X1029537Y656558D01*
Y656436D01*
X1040537D01*
Y657867D01*
X1044537D01*
Y656436D01*
X1051399D01*
X1052200Y654936D01*
X1052075Y654747D01*
X1024672D01*
X1023839Y654582D01*
X1023588Y654414D01*
X1023037Y654524D01*
X1021281Y654174D01*
X1019793Y653180D01*
X1018798Y651691D01*
X1018449Y649936D01*
X1018798Y648180D01*
X1019793Y646691D01*
X1021281Y645697D01*
X1023037Y645348D01*
X1024793Y645697D01*
X1026281Y646691D01*
X1027276Y648180D01*
X1027625Y649936D01*
X1028001Y650394D01*
X1054172D01*
X1055005Y650559D01*
X1055712Y651031D01*
X1072576Y667896D01*
X1073048Y668603D01*
X1073214Y669436D01*
Y682034D01*
X1075439Y684259D01*
X1077362D01*
X1077923Y682906D01*
X1079045Y681443D01*
X1080507Y680321D01*
X1082210Y679616D01*
X1084037Y679376D01*
X1085865Y679616D01*
X1087568Y680321D01*
X1089030Y681443D01*
X1090152Y682906D01*
X1090857Y684609D01*
X1091098Y686436D01*
X1090857Y688263D01*
X1090152Y689966D01*
X1089030Y691428D01*
X1088294Y691993D01*
X1088039Y693859D01*
X1089576Y695396D01*
X1089859Y695820D01*
X1090048Y696103D01*
X1090114Y696436D01*
X1093537D01*
Y704936D01*
X1093537Y706436D01*
Y706436D01*
X1093537Y707936D01*
Y716436D01*
X1090874D01*
X1090446Y716965D01*
X1090820Y718883D01*
X1091281Y719191D01*
X1092276Y720680D01*
X1092625Y722436D01*
X1092456Y723286D01*
X1093546Y724786D01*
X1093687D01*
Y738086D01*
X1082287D01*
Y735902D01*
X1080987Y735303D01*
X1080787Y735265D01*
X1079918Y735845D01*
X1079137Y736001D01*
Y737186D01*
X1069137D01*
Y731836D01*
X1060937D01*
Y734686D01*
Y739686D01*
Y745036D01*
X1076287D01*
Y747011D01*
X1077968D01*
X1078740Y746239D01*
X1079657Y745627D01*
X1080738Y745412D01*
X1082287D01*
Y741786D01*
X1093687D01*
Y755086D01*
X1093546D01*
X1092456Y756586D01*
X1092625Y757436D01*
X1092276Y759191D01*
X1091281Y760680D01*
X1089793Y761674D01*
X1088037Y762024D01*
X1086281Y761674D01*
X1084793Y760680D01*
X1083798Y759191D01*
X1083449Y757436D01*
X1083618Y756586D01*
X1082528Y755086D01*
X1082287D01*
Y752802D01*
X1081874Y752454D01*
X1080787Y752065D01*
X1080218Y752445D01*
X1079137Y752660D01*
X1079137Y752660D01*
X1076287D01*
Y755036D01*
X1072233D01*
X1071537Y756536D01*
X1071648Y756703D01*
X1071814Y757536D01*
Y757936D01*
X1074037D01*
Y768936D01*
X1064037D01*
Y768936D01*
Y768936D01*
X1064037D01*
Y768936D01*
X1064037Y768936D01*
X1054037D01*
Y764413D01*
X1052213D01*
X1051652Y765766D01*
X1050530Y767228D01*
X1049068Y768350D01*
X1047365Y769056D01*
X1045537Y769296D01*
X1043710Y769056D01*
X1042007Y768350D01*
X1040545Y767228D01*
X1039423Y765766D01*
X1039359Y765612D01*
X1030037D01*
X1029204Y765447D01*
X1028851Y765211D01*
X1028498Y764975D01*
X1021714Y758191D01*
X1020852Y758367D01*
X1020214Y758753D01*
Y789565D01*
X1021714Y790300D01*
X1022616Y789697D01*
X1024372Y789348D01*
X1026128Y789697D01*
X1027537Y790638D01*
X1027977Y790546D01*
X1029037Y790117D01*
Y788436D01*
X1029037Y787936D01*
Y787436D01*
X1029037Y786936D01*
X1029037Y786436D01*
Y775936D01*
X1029318D01*
X1030549Y774436D01*
X1030449Y773936D01*
X1030798Y772180D01*
X1031793Y770692D01*
X1033282Y769697D01*
X1035038Y769348D01*
X1036793Y769697D01*
X1038282Y770692D01*
X1039276Y772180D01*
X1039626Y773936D01*
X1039526Y774436D01*
X1040757Y775936D01*
X1049037D01*
Y786936D01*
X1049037D01*
X1049037Y787936D01*
X1049037D01*
Y790861D01*
X1050140D01*
X1050973Y791027D01*
X1051679Y791499D01*
X1052648Y792468D01*
X1053887Y793111D01*
Y793111D01*
X1053887Y793111D01*
X1061387D01*
Y800861D01*
X1053887D01*
Y799123D01*
X1053254Y798997D01*
X1052548Y798525D01*
X1050537Y796514D01*
X1049037Y797135D01*
Y798436D01*
X1049037Y798936D01*
Y799436D01*
Y799936D01*
X1049037Y800436D01*
Y804934D01*
X1053637D01*
Y803361D01*
X1061387D01*
Y808361D01*
X1068887D01*
Y803361D01*
Y798361D01*
X1068887D01*
Y793111D01*
X1069584D01*
X1069718Y791611D01*
X1068104Y789997D01*
X1067495Y789086D01*
X1064387D01*
Y775786D01*
X1075787D01*
Y789086D01*
X1075787Y789086D01*
X1075787D01*
X1075462Y790536D01*
Y793111D01*
X1076387D01*
Y796470D01*
X1077887Y797092D01*
X1079938Y795041D01*
X1080854Y794429D01*
X1081287Y794343D01*
Y789786D01*
X1081706D01*
X1082001Y789481D01*
X1082682Y788286D01*
X1082413Y786936D01*
X1082763Y785180D01*
X1083757Y783691D01*
X1085246Y782697D01*
X1087001Y782348D01*
X1088757Y782697D01*
X1090246Y783691D01*
X1091240Y785180D01*
X1091590Y786936D01*
X1091321Y788286D01*
X1092002Y789481D01*
X1092297Y789786D01*
X1092687D01*
Y803086D01*
X1091065D01*
Y805786D01*
X1092687D01*
Y819086D01*
X1086725D01*
X1086151Y820471D01*
X1090939Y825259D01*
X1104135D01*
X1109860Y819534D01*
Y787844D01*
X1110026Y787010D01*
X1110498Y786304D01*
X1142725Y754077D01*
Y682202D01*
X1120135Y659613D01*
X1098537D01*
X1097704Y659447D01*
X1097421Y659258D01*
X1096998Y658975D01*
X1062635Y624613D01*
X683995D01*
X683281Y625680D01*
X681793Y626674D01*
X680037Y627024D01*
X678281Y626674D01*
X676793Y625680D01*
X675798Y624191D01*
X675449Y622436D01*
X675798Y620680D01*
X676793Y619191D01*
X678281Y618197D01*
X680037Y617848D01*
X681793Y618197D01*
X683281Y619191D01*
X683937Y620172D01*
X685382Y620132D01*
X686060Y618759D01*
X685780Y618395D01*
X684989Y616485D01*
X684719Y614436D01*
X684989Y612386D01*
X685780Y610477D01*
X687038Y608837D01*
X688678Y607579D01*
X690588Y606788D01*
X692637Y606518D01*
X694686Y606788D01*
X696596Y607579D01*
X698236Y608837D01*
X699494Y610477D01*
X700285Y612386D01*
X700555Y614436D01*
X700285Y616485D01*
X699494Y618395D01*
X699214Y618759D01*
X699954Y620259D01*
X710720D01*
X711460Y618759D01*
X711180Y618395D01*
X710389Y616485D01*
X710119Y614436D01*
X710389Y612386D01*
X711180Y610477D01*
X712438Y608837D01*
X714078Y607579D01*
X715988Y606788D01*
X718037Y606518D01*
X720086Y606788D01*
X721996Y607579D01*
X723636Y608837D01*
X724894Y610477D01*
X725522Y611993D01*
X726758Y612215D01*
X727150Y612153D01*
X727793Y611191D01*
X728860Y610478D01*
Y609436D01*
X729026Y608603D01*
X729498Y607896D01*
X732282Y605112D01*
X731660Y603613D01*
X643439D01*
X642016Y605035D01*
X642560Y606613D01*
X643886Y606788D01*
X645796Y607579D01*
X647436Y608837D01*
X648694Y610477D01*
X649485Y612386D01*
X649755Y614436D01*
X649485Y616485D01*
X648694Y618395D01*
X647436Y620034D01*
X645796Y621293D01*
X643886Y622084D01*
X641837Y622353D01*
X639788Y622084D01*
X637878Y621293D01*
X636238Y620034D01*
X634980Y618395D01*
X634189Y616485D01*
X634014Y615158D01*
X632437Y614614D01*
X630214Y616837D01*
Y679936D01*
X630048Y680769D01*
X629812Y681122D01*
X629576Y681475D01*
X619076Y691975D01*
X618370Y692447D01*
X617537Y692613D01*
X617037D01*
Y695936D01*
X608537D01*
X607037Y695936D01*
X607037D01*
X605537Y695936D01*
X597037D01*
Y692613D01*
X592939D01*
X588309Y697242D01*
X589087Y698586D01*
X601887D01*
X602687Y698586D01*
X603037D01*
X603387D01*
X604187Y698586D01*
X617387D01*
Y699295D01*
X618867Y700110D01*
X620037Y699877D01*
X620038Y699877D01*
X622387D01*
Y696686D01*
X626213D01*
Y689436D01*
X626213Y689436D01*
X626428Y688355D01*
X627040Y687439D01*
X632213Y682266D01*
Y653936D01*
X632213Y653936D01*
X632428Y652855D01*
X633040Y651938D01*
X652540Y632439D01*
X652540Y632439D01*
X653456Y631826D01*
X654537Y631611D01*
X1062037D01*
X1062037Y631611D01*
X1063118Y631826D01*
X1064034Y632439D01*
X1111207Y679611D01*
X1121037D01*
X1121037Y679611D01*
X1122118Y679826D01*
X1123034Y680439D01*
X1135034Y692439D01*
X1135646Y693355D01*
X1135861Y694436D01*
X1135861Y694436D01*
Y720435D01*
X1135861Y720436D01*
X1135646Y721516D01*
X1135034Y722433D01*
X1129034Y728433D01*
X1128118Y729045D01*
X1127577Y729153D01*
Y735976D01*
X1108497D01*
Y716896D01*
X1114441D01*
X1114739Y715396D01*
X1113226Y714769D01*
X1111233Y713240D01*
X1109704Y711247D01*
X1108743Y708926D01*
X1108415Y706436D01*
X1108743Y703945D01*
X1109704Y701625D01*
X1111233Y699632D01*
X1113226Y698102D01*
X1115213Y697280D01*
Y694605D01*
X1112867Y692260D01*
X1108037D01*
X1106956Y692045D01*
X1106040Y691433D01*
X1106040Y691433D01*
X1056407Y641800D01*
X659667D01*
X642901Y658566D01*
Y736395D01*
X642901Y736396D01*
X642686Y737476D01*
X642074Y738393D01*
X642074Y738393D01*
X638984Y741483D01*
X638068Y742095D01*
X636987Y742310D01*
X635687Y742879D01*
Y745186D01*
X622387D01*
Y742995D01*
X618387D01*
Y746286D01*
X605187D01*
X604387Y746286D01*
X604037D01*
X603687D01*
X602887Y746286D01*
X589687D01*
Y742240D01*
X586537D01*
X585464Y742026D01*
X584555Y741418D01*
X583055Y739919D01*
X582447Y739009D01*
X582234Y737936D01*
Y730402D01*
X582118Y730368D01*
X581795Y730498D01*
X580591Y731489D01*
X580446Y732223D01*
X579716Y733314D01*
X578625Y734044D01*
X577337Y734300D01*
X573037D01*
X571749Y734044D01*
X570658Y733314D01*
X569929Y732223D01*
X569672Y730935D01*
X569929Y729647D01*
X569935Y729637D01*
X570592Y728436D01*
X569935Y727234D01*
X569929Y727224D01*
X569672Y725936D01*
X569929Y724649D01*
X570658Y723557D01*
Y723314D01*
X569929Y722223D01*
X569672Y720935D01*
X569929Y719647D01*
X570658Y718556D01*
X571749Y717827D01*
X573037Y717570D01*
X577337D01*
X578625Y717827D01*
X579081Y718131D01*
X589287D01*
Y714786D01*
X600687D01*
Y728086D01*
X600323D01*
X599625Y728936D01*
X599276Y730691D01*
X599012Y731086D01*
X599814Y732586D01*
X602887D01*
X603687Y732586D01*
X604037D01*
X604387D01*
X605187Y732586D01*
X618387D01*
Y736877D01*
X622387D01*
Y733786D01*
X635687D01*
Y733786D01*
X637172Y733749D01*
X637253Y733695D01*
Y687335D01*
X635753Y686714D01*
X631861Y690605D01*
Y696686D01*
X635687D01*
Y708086D01*
X622387D01*
Y707002D01*
X620887Y706412D01*
X619092Y708207D01*
X618099Y708870D01*
X617387Y709012D01*
Y712286D01*
X604187D01*
X603387Y712286D01*
X603037D01*
X602687D01*
X601887Y712286D01*
X588687D01*
Y708767D01*
X587187Y708751D01*
X583020Y712918D01*
X582111Y713525D01*
X581038Y713739D01*
X579081D01*
X578625Y714044D01*
X577337Y714300D01*
X573037D01*
X571749Y714044D01*
X570658Y713314D01*
X569929Y712223D01*
X569672Y710935D01*
X569929Y709647D01*
X569935Y709637D01*
X570592Y708436D01*
X569935Y707234D01*
X569929Y707224D01*
X569672Y705936D01*
X569929Y704649D01*
X570658Y703557D01*
Y703402D01*
X569929Y702223D01*
Y702223D01*
X569490Y700983D01*
X568250Y700544D01*
Y700544D01*
X567071Y699815D01*
X566916D01*
X565824Y700544D01*
X564536Y700800D01*
X563249Y700544D01*
X563238Y700537D01*
X562037Y699881D01*
X560836Y700537D01*
X560825Y700544D01*
X559538Y700800D01*
X558250Y700544D01*
X557159Y699815D01*
X556916D01*
X555824Y700544D01*
X554536Y700800D01*
X553249Y700544D01*
X553238Y700537D01*
X552037Y699881D01*
X550836Y700537D01*
X550825Y700544D01*
X549538Y700800D01*
X548250Y700544D01*
X548238Y700536D01*
X547037Y699881D01*
X545836Y700536D01*
X545824Y700544D01*
X544536Y700800D01*
X543249Y700544D01*
X543238Y700537D01*
X542037Y699881D01*
X540836Y700537D01*
X540825Y700544D01*
X539538Y700800D01*
X538250Y700544D01*
X537159Y699815D01*
X536429Y698723D01*
X536173Y697436D01*
Y693136D01*
X536429Y691848D01*
X535700Y690433D01*
X535003Y689968D01*
X534865Y689760D01*
X532037D01*
X530956Y689545D01*
X530040Y688933D01*
X530040Y688933D01*
X528040Y686933D01*
X527428Y686016D01*
X527213Y684936D01*
X526047Y684186D01*
X523387D01*
Y672786D01*
X536182D01*
X536806Y672624D01*
X537537Y671638D01*
X537537Y671638D01*
X537537Y670936D01*
Y662436D01*
X540860D01*
Y660436D01*
X541026Y659603D01*
X541353Y659112D01*
X541131Y658334D01*
X540660Y657613D01*
X526037D01*
X525204Y657447D01*
X524498Y656975D01*
X523498Y655975D01*
X523026Y655269D01*
X522860Y654436D01*
Y653436D01*
X521530Y652436D01*
X511037D01*
Y647510D01*
X505687D01*
Y650186D01*
X492387D01*
Y649944D01*
X490887Y648855D01*
X490037Y649024D01*
X488281Y648674D01*
X486793Y647680D01*
X485798Y646191D01*
X485449Y644436D01*
X485798Y642680D01*
X486793Y641191D01*
X488281Y640197D01*
X490037Y639847D01*
X490887Y640017D01*
X492387Y638927D01*
Y638786D01*
X505687D01*
Y641862D01*
X509921D01*
X511037Y640361D01*
X511037Y639436D01*
X511037Y639436D01*
Y639436D01*
X511037D01*
X511037Y639436D01*
Y626436D01*
X526037D01*
Y637936D01*
X526037Y639436D01*
X526037Y639436D01*
Y639436D01*
X526037D01*
X526037Y639436D01*
Y650259D01*
X528037D01*
Y639436D01*
X543037D01*
Y652436D01*
X544196Y653259D01*
X548037D01*
X548870Y653425D01*
X549576Y653896D01*
X550576Y654896D01*
X550775Y655194D01*
X552342Y655005D01*
X552396Y654733D01*
X552868Y654026D01*
X555760Y651135D01*
X555218Y649826D01*
X554977Y647999D01*
X555218Y646171D01*
X555923Y644469D01*
X557045Y643006D01*
X558507Y641884D01*
X560210Y641179D01*
X562038Y640938D01*
X563865Y641179D01*
X564467Y641428D01*
X576738Y629157D01*
X575976Y627797D01*
X572274Y628686D01*
X568037Y629019D01*
X563801Y628686D01*
X559668Y627694D01*
X555742Y626067D01*
X552118Y623847D01*
X548886Y621087D01*
X546126Y617855D01*
X543906Y614231D01*
X542280Y610305D01*
X541287Y606173D01*
X540954Y601936D01*
X541287Y597699D01*
X542280Y593567D01*
X543906Y589640D01*
X546126Y586017D01*
X548886Y582785D01*
X552118Y580025D01*
X555742Y577804D01*
X559668Y576178D01*
X563801Y575186D01*
X568037Y574852D01*
X572274Y575186D01*
X576407Y576178D01*
X580333Y577804D01*
X583957Y580025D01*
X587188Y582785D01*
X589949Y586017D01*
X591360Y588320D01*
X592860Y587897D01*
Y573936D01*
X593026Y573103D01*
X593498Y572397D01*
X598633Y567261D01*
X599340Y566790D01*
X600173Y566624D01*
X661402D01*
X662235Y566790D01*
X662941Y567261D01*
X671439Y575759D01*
X956440D01*
X957281Y575197D01*
X959037Y574847D01*
X960793Y575197D01*
X962281Y576191D01*
X963276Y577680D01*
X963625Y579436D01*
X963276Y581191D01*
X962281Y582680D01*
X960793Y583675D01*
X959037Y584024D01*
X957281Y583675D01*
X955793Y582680D01*
X954798Y581191D01*
X954584Y580112D01*
X949527D01*
X949229Y581613D01*
X950596Y582179D01*
X952236Y583437D01*
X953494Y585077D01*
X954285Y586986D01*
X954555Y589036D01*
X954285Y591085D01*
X953494Y592994D01*
X952907Y593759D01*
X953647Y595259D01*
X965027D01*
X965767Y593759D01*
X965180Y592994D01*
X964389Y591085D01*
X964119Y589036D01*
X964389Y586986D01*
X965180Y585077D01*
X966438Y583437D01*
X968078Y582179D01*
X969988Y581388D01*
X972037Y581118D01*
X974086Y581388D01*
X975996Y582179D01*
X977636Y583437D01*
X978894Y585077D01*
X979685Y586986D01*
X979955Y589036D01*
X979685Y591085D01*
X978894Y592994D01*
X978307Y593759D01*
X979047Y595259D01*
X990427D01*
X991167Y593759D01*
X990580Y592994D01*
X989789Y591085D01*
X989519Y589036D01*
X989789Y586986D01*
X990580Y585077D01*
X991838Y583437D01*
X993478Y582179D01*
X995388Y581388D01*
X997437Y581118D01*
X999486Y581388D01*
X1001396Y582179D01*
X1003036Y583437D01*
X1004294Y585077D01*
X1005085Y586986D01*
X1005355Y589036D01*
X1005085Y591085D01*
X1004294Y592994D01*
X1003708Y593759D01*
X1004447Y595259D01*
X1015827D01*
X1016566Y593759D01*
X1015980Y592994D01*
X1015189Y591085D01*
X1014919Y589036D01*
X1015189Y586986D01*
X1015980Y585077D01*
X1017238Y583437D01*
X1018878Y582179D01*
X1020788Y581388D01*
X1022837Y581118D01*
X1024886Y581388D01*
X1026796Y582179D01*
X1028436Y583437D01*
X1029694Y585077D01*
X1030485Y586986D01*
X1030755Y589036D01*
X1030485Y591085D01*
X1029694Y592994D01*
X1029108Y593759D01*
X1029847Y595259D01*
X1033080D01*
X1033793Y594191D01*
X1035281Y593197D01*
X1037037Y592848D01*
X1038793Y593197D01*
X1040281Y594191D01*
X1041276Y595680D01*
X1041625Y597436D01*
X1041335Y598894D01*
X1042139Y600394D01*
X1057489D01*
X1058293Y599191D01*
X1059781Y598197D01*
X1061537Y597848D01*
X1063293Y598197D01*
X1064781Y599191D01*
X1065776Y600680D01*
X1066125Y602436D01*
X1065776Y604191D01*
X1064781Y605680D01*
X1063293Y606674D01*
X1061537Y607024D01*
X1059781Y606674D01*
X1058861Y606059D01*
X1057904Y607225D01*
X1064312Y613632D01*
X1065896Y613095D01*
X1065989Y612386D01*
X1066780Y610477D01*
X1068038Y608837D01*
X1069678Y607579D01*
X1071588Y606788D01*
X1073637Y606518D01*
X1075686Y606788D01*
X1077596Y607579D01*
X1079236Y608837D01*
X1080494Y610477D01*
X1081285Y612386D01*
X1081555Y614436D01*
X1081285Y616485D01*
X1080494Y618395D01*
X1079236Y620034D01*
X1077596Y621293D01*
X1075686Y622084D01*
X1074978Y622177D01*
X1074440Y623761D01*
X1093016Y642336D01*
X1094580Y641778D01*
X1094798Y640680D01*
X1095793Y639191D01*
X1097281Y638197D01*
X1099037Y637848D01*
X1105287D01*
Y635286D01*
X1116687D01*
Y648586D01*
X1117909Y649259D01*
X1133537D01*
X1134370Y649425D01*
X1135076Y649896D01*
X1157576Y672396D01*
X1158048Y673103D01*
X1158214Y673936D01*
Y763436D01*
X1158048Y764269D01*
X1157812Y764622D01*
X1157576Y764975D01*
X1120714Y801837D01*
Y823436D01*
X1120548Y824269D01*
X1120076Y824975D01*
X1110076Y834975D01*
X1109370Y835447D01*
X1108537Y835612D01*
X1089037D01*
X1088204Y835447D01*
X1087498Y834975D01*
X1082923Y830400D01*
X1081537Y830974D01*
Y834936D01*
Y835117D01*
X1083037Y836348D01*
X1084793Y836697D01*
X1086281Y837691D01*
X1087276Y839180D01*
X1087625Y840936D01*
X1087276Y842691D01*
X1086281Y844180D01*
X1084793Y845174D01*
X1083037Y845524D01*
X1082697Y845456D01*
X1081537Y846408D01*
Y846436D01*
X1070537D01*
Y837936D01*
X1070537Y837521D01*
X1069537Y836436D01*
X1069037Y836436D01*
X1069037D01*
X1059037D01*
X1058537Y836436D01*
X1057537Y837521D01*
X1057537Y837936D01*
Y846436D01*
X1046537D01*
X1046537Y846436D01*
Y846436D01*
X1045037Y845825D01*
X1044037Y846024D01*
X1042281Y845675D01*
X1040793Y844680D01*
X1039798Y843192D01*
X1039449Y841436D01*
X1039798Y839680D01*
X1040793Y838191D01*
X1042281Y837197D01*
X1044037Y836848D01*
X1045037Y837046D01*
X1045668Y836789D01*
X1046421Y836129D01*
X1046537Y835932D01*
X1046537Y834936D01*
Y826436D01*
X1049861D01*
Y824094D01*
X1049619Y823754D01*
X1048530Y822936D01*
X1040537D01*
X1039757Y822936D01*
X1038668Y824018D01*
X1038526Y824436D01*
X1038626Y824936D01*
X1038276Y826692D01*
X1037282Y828180D01*
X1035793Y829175D01*
X1034037Y829524D01*
X1032282Y829175D01*
X1030793Y828180D01*
X1029799Y826692D01*
X1029449Y824936D01*
X1029549Y824436D01*
X1029037Y822936D01*
X1029037D01*
X1029037Y822936D01*
Y812436D01*
X1029037Y811936D01*
X1029037Y811436D01*
Y810936D01*
X1029037Y810436D01*
Y809732D01*
X1027537Y808930D01*
X1027171Y809174D01*
X1025415Y809524D01*
X1023660Y809174D01*
X1022171Y808180D01*
X1021714Y807496D01*
X1020214Y807951D01*
Y821436D01*
X1020048Y822269D01*
X1019576Y822975D01*
X984576Y857975D01*
X983870Y858447D01*
X983037Y858613D01*
X827149D01*
X826316Y858447D01*
X825610Y857975D01*
X818958Y851323D01*
X818486Y850617D01*
X818320Y849783D01*
Y838797D01*
X816923Y837400D01*
X815537Y837974D01*
Y845436D01*
X804537D01*
Y841013D01*
X804204Y840947D01*
X803851Y840711D01*
X803498Y840475D01*
X802262Y839239D01*
X801384Y839826D01*
X799975Y840106D01*
X797314D01*
Y840335D01*
X797149Y841168D01*
X796960Y841451D01*
X796677Y841874D01*
X784214Y854337D01*
Y861436D01*
X784048Y862269D01*
X783576Y862975D01*
X781076Y865475D01*
X780370Y865947D01*
X779537Y866113D01*
X716037D01*
X715204Y865947D01*
X714921Y865758D01*
X714498Y865475D01*
X711498Y862475D01*
X711026Y861769D01*
X710860Y860936D01*
Y836337D01*
X708136Y833613D01*
X698037D01*
X697204Y833447D01*
X696851Y833211D01*
X696498Y832975D01*
X692998Y829475D01*
X692526Y828769D01*
X692360Y827936D01*
Y755893D01*
X691293Y755180D01*
X690298Y753691D01*
X690018Y752285D01*
X689020Y751782D01*
X688488Y751694D01*
X667642Y772540D01*
X665988Y773645D01*
X664037Y774034D01*
X608419D01*
X607405Y775047D01*
Y791290D01*
X607017Y793241D01*
X605912Y794895D01*
X595266Y805540D01*
X593612Y806646D01*
X591661Y807034D01*
X581946D01*
X581523Y808534D01*
X583957Y810025D01*
X587188Y812785D01*
X589949Y816017D01*
X592169Y819640D01*
X593795Y823567D01*
X594787Y827699D01*
X595121Y831936D01*
X594787Y836173D01*
X593795Y840305D01*
X592169Y844231D01*
X589949Y847855D01*
X587188Y851087D01*
X583957Y853847D01*
X580333Y856067D01*
X576407Y857694D01*
X572274Y858686D01*
X568037Y859019D01*
X563801Y858686D01*
X559668Y857694D01*
X555742Y856067D01*
X552118Y853847D01*
X548886Y851087D01*
X546126Y847855D01*
X543906Y844231D01*
X542280Y840305D01*
X541287Y836173D01*
X540954Y831936D01*
X541287Y827699D01*
X542280Y823567D01*
X543906Y819640D01*
X546126Y816017D01*
X548886Y812785D01*
X552118Y810025D01*
X554552Y808534D01*
X554128Y807034D01*
X536241D01*
X535835Y807528D01*
Y812543D01*
X535645Y813496D01*
X535106Y814304D01*
X534297Y814844D01*
X533344Y815033D01*
X532584D01*
Y817436D01*
Y824186D01*
X533687D01*
Y835586D01*
X520387D01*
Y824186D01*
X521490D01*
Y817436D01*
Y815033D01*
X521230D01*
X520276Y814844D01*
X519469Y814304D01*
X518929Y813496D01*
X518739Y812543D01*
Y807528D01*
X518929Y806575D01*
X519469Y805767D01*
X520276Y805227D01*
X521230Y805038D01*
X521475D01*
X522226Y803538D01*
X521848Y803034D01*
X509037D01*
X507086Y802645D01*
X505432Y801540D01*
X503182Y799290D01*
X502077Y797636D01*
X501921Y796853D01*
X500730D01*
X499386Y796586D01*
X498248Y795825D01*
X497487Y794686D01*
X497220Y793343D01*
Y790304D01*
X452947D01*
X452191Y791804D01*
X452776Y792680D01*
X453125Y794436D01*
X452887Y795636D01*
X453812Y797136D01*
X462137D01*
Y809345D01*
X463669Y809547D01*
X465189Y810176D01*
X466495Y811178D01*
X467497Y812484D01*
X468127Y814004D01*
X468341Y815636D01*
X468127Y817267D01*
X467497Y818788D01*
X466495Y820093D01*
X465189Y821095D01*
X463669Y821725D01*
X462038Y821940D01*
X460406Y821725D01*
X458885Y821095D01*
X458596Y820873D01*
X457096Y821613D01*
Y826936D01*
X456863Y828106D01*
X456597Y828504D01*
X456200Y829099D01*
X456200Y829099D01*
X453392Y831906D01*
X454013Y833406D01*
X471708D01*
Y822636D01*
X471338D01*
Y798636D01*
X471967D01*
X472156Y798354D01*
X472652Y798023D01*
X473237Y797906D01*
X496237D01*
X496822Y798023D01*
X497318Y798354D01*
X497650Y798850D01*
X497766Y799436D01*
Y829114D01*
X498081Y829318D01*
X499524Y828907D01*
X499747Y828436D01*
X499449Y826936D01*
X499798Y825180D01*
X500793Y823691D01*
X502281Y822697D01*
X504037Y822347D01*
X505793Y822697D01*
X507281Y823691D01*
X508276Y825180D01*
X508625Y826936D01*
X508327Y828436D01*
X509037Y829936D01*
X509037D01*
X509037Y829936D01*
Y840936D01*
X499267D01*
X499037Y840936D01*
X497766Y841489D01*
Y851255D01*
X498537Y852436D01*
X509537D01*
Y862436D01*
X498537D01*
Y862024D01*
X491737D01*
X491442Y861965D01*
X371037D01*
X370890Y861936D01*
X369137D01*
Y837936D01*
X369508D01*
Y834936D01*
Y822636D01*
X369137D01*
Y798636D01*
X369767D01*
X369956Y798354D01*
X370452Y798023D01*
X371037Y797906D01*
X394037D01*
X394622Y798023D01*
X395118Y798354D01*
X395450Y798850D01*
X395566Y799436D01*
Y833406D01*
X411061D01*
X411682Y831906D01*
X409325Y829549D01*
X408662Y828557D01*
X408429Y827386D01*
X408429Y827386D01*
Y822016D01*
X406929Y821286D01*
X405869Y821725D01*
X404238Y821940D01*
X402606Y821725D01*
X401086Y821095D01*
X399780Y820093D01*
X398778Y818788D01*
X398148Y817267D01*
X397934Y815636D01*
X398148Y814004D01*
X398778Y812484D01*
X399780Y811178D01*
X401086Y810176D01*
X402606Y809547D01*
X404137Y809345D01*
Y797136D01*
X404549D01*
Y793086D01*
X403387D01*
Y779786D01*
X403387D01*
X404038Y778936D01*
Y743936D01*
X418037D01*
Y751716D01*
X419538Y752947D01*
X420037Y752848D01*
X421793Y753197D01*
X423281Y754191D01*
X424276Y755680D01*
X424625Y757436D01*
X424276Y759191D01*
X423281Y760680D01*
X421793Y761674D01*
X420037Y762024D01*
X419352Y761888D01*
X418037Y762945D01*
Y777438D01*
X418537Y777848D01*
X420293Y778197D01*
X421781Y779191D01*
X422776Y780680D01*
X423125Y782436D01*
X422776Y784191D01*
X422590Y784470D01*
X423074Y786430D01*
X423273Y786536D01*
X423781Y786197D01*
X425537Y785847D01*
X427293Y786197D01*
X428781Y787191D01*
X429776Y788680D01*
X429940Y789503D01*
X431567Y789996D01*
X443233Y778331D01*
X444038Y777793D01*
Y765979D01*
X442537Y765177D01*
X441793Y765675D01*
X440037Y766024D01*
X438281Y765675D01*
X436793Y764680D01*
X435798Y763191D01*
X435449Y761436D01*
X435798Y759680D01*
X436793Y758191D01*
X438281Y757197D01*
X440037Y756848D01*
X441793Y757197D01*
X442537Y757694D01*
X444038Y756892D01*
Y743936D01*
X458037D01*
Y776838D01*
X509003D01*
X509151Y775338D01*
X508476Y775204D01*
X507153Y774320D01*
X507153Y774319D01*
X501203Y768370D01*
X500319Y767046D01*
X500268Y766787D01*
X500009Y765486D01*
X500009Y765486D01*
Y763086D01*
X498387D01*
Y751612D01*
X482712D01*
X482151Y752966D01*
X481030Y754428D01*
X479567Y755550D01*
X477864Y756255D01*
X476037Y756496D01*
X474210Y756255D01*
X472507Y755550D01*
X471045Y754428D01*
X469923Y752966D01*
X469217Y751263D01*
X468977Y749436D01*
X469217Y747608D01*
X469923Y745905D01*
X471045Y744443D01*
X472507Y743321D01*
X474210Y742616D01*
X476037Y742375D01*
X477864Y742616D01*
X479567Y743321D01*
X481030Y744443D01*
X482151Y745905D01*
X482712Y747259D01*
X502647D01*
X503480Y747424D01*
X504186Y747896D01*
X504887Y748597D01*
X506387Y747976D01*
Y735786D01*
X506387D01*
Y735086D01*
X506387D01*
Y723014D01*
X484538D01*
X470076Y737475D01*
X469370Y737947D01*
X468537Y738113D01*
X402938D01*
X400214Y740837D01*
Y766435D01*
X400049Y767268D01*
X399577Y767974D01*
X375076Y792475D01*
X374370Y792947D01*
X373537Y793112D01*
X360939D01*
X349214Y804837D01*
Y806686D01*
X354687D01*
Y817286D01*
X354687Y818086D01*
Y818436D01*
Y818786D01*
X354687Y819586D01*
Y830186D01*
X341387D01*
Y826813D01*
X339387D01*
Y830286D01*
X326187D01*
X325387Y830286D01*
X325037D01*
X324687D01*
X323887Y830286D01*
X319964D01*
Y831786D01*
X323687D01*
Y845086D01*
X312287D01*
Y831786D01*
X315611D01*
Y830286D01*
X310687D01*
Y826813D01*
X303738D01*
X302904Y826647D01*
X302551Y826411D01*
X302198Y826175D01*
X291136Y815113D01*
X253939D01*
X252173Y816879D01*
Y818742D01*
X252511Y818882D01*
X253660Y819763D01*
X254541Y820912D01*
X255096Y822250D01*
X255285Y823686D01*
X255096Y825122D01*
X254541Y826460D01*
X253660Y827608D01*
X252511Y828490D01*
X252187Y828624D01*
Y830248D01*
X252511Y830382D01*
X253660Y831263D01*
X254541Y832412D01*
X255096Y833750D01*
X255285Y835186D01*
X255096Y836622D01*
X254541Y837960D01*
X253660Y839108D01*
X252511Y839990D01*
X251173Y840544D01*
X249737Y840733D01*
X248301Y840544D01*
X246963Y839990D01*
X245814Y839108D01*
X245159Y838254D01*
X209687D01*
Y841186D01*
X208612D01*
X207476Y842686D01*
X207625Y843436D01*
X207276Y845191D01*
X206281Y846680D01*
X204793Y847674D01*
X203037Y848024D01*
X201281Y847674D01*
X199793Y846680D01*
X198798Y845191D01*
X198449Y843436D01*
X198598Y842686D01*
X197462Y841186D01*
X196387D01*
Y829786D01*
X209687D01*
Y831117D01*
X246005D01*
X246963Y830382D01*
X247287Y830248D01*
Y828624D01*
X246963Y828490D01*
X245814Y827608D01*
X244933Y826460D01*
X244379Y825122D01*
X244190Y823686D01*
X244379Y822250D01*
X244933Y820912D01*
X245814Y819763D01*
X246963Y818882D01*
X247301Y818742D01*
Y816236D01*
X247487Y815304D01*
X248015Y814514D01*
X248805Y813986D01*
X248935Y813960D01*
X251498Y811397D01*
X251851Y811161D01*
X252204Y810925D01*
X253037Y810759D01*
X292038D01*
X292871Y810925D01*
X293577Y811397D01*
X304639Y822459D01*
X310687D01*
Y816586D01*
X323887D01*
X324687Y816586D01*
X325037D01*
X325387D01*
X326187Y816586D01*
X330311D01*
Y815086D01*
X328387D01*
Y801786D01*
X339787D01*
Y815086D01*
X334664D01*
Y816586D01*
X339387D01*
Y821277D01*
X340887Y821898D01*
X341387Y821398D01*
Y819586D01*
X341387Y818786D01*
Y818436D01*
Y818086D01*
X341387Y817286D01*
Y806686D01*
X344861D01*
Y803936D01*
X345026Y803103D01*
X345498Y802397D01*
X358498Y789396D01*
X359205Y788924D01*
X360038Y788759D01*
X372635D01*
X395861Y765534D01*
Y739935D01*
X396026Y739102D01*
X396498Y738396D01*
X400498Y734397D01*
X401204Y733925D01*
X402037Y733759D01*
X467635D01*
X482097Y719297D01*
X482450Y719062D01*
X482803Y718826D01*
X483636Y718660D01*
X488620D01*
X489006Y718026D01*
X489183Y717160D01*
X475133Y703110D01*
X474661Y702403D01*
X474495Y701570D01*
Y633030D01*
X474661Y632197D01*
X475133Y631491D01*
X488860Y617764D01*
Y577337D01*
X485135Y573613D01*
X392439D01*
X378214Y587838D01*
Y615936D01*
X378048Y616769D01*
X377859Y617052D01*
X377576Y617476D01*
X374527Y620525D01*
X373820Y620997D01*
X372987Y621163D01*
X372687D01*
Y624186D01*
X359387D01*
Y613586D01*
X359387Y612786D01*
Y612436D01*
Y612086D01*
X359387Y611286D01*
Y608813D01*
X357387D01*
Y613286D01*
X354214D01*
Y614786D01*
X357787D01*
Y628086D01*
X346387D01*
Y614786D01*
X348179D01*
X348800Y613286D01*
X344187D01*
X343387Y613286D01*
X343037D01*
X342687D01*
X341887Y613286D01*
X328687D01*
Y599586D01*
X333510D01*
Y598086D01*
X330287D01*
Y594613D01*
X255435D01*
X254905Y595383D01*
X254624Y596112D01*
X255096Y597250D01*
X255285Y598686D01*
X255096Y600121D01*
X254541Y601459D01*
X253660Y602608D01*
X252511Y603490D01*
X252187Y603624D01*
Y605247D01*
X252511Y605381D01*
X253660Y606263D01*
X254541Y607412D01*
X255096Y608750D01*
X255285Y610186D01*
X255096Y611622D01*
X254541Y612959D01*
X253660Y614108D01*
X252511Y614990D01*
X251173Y615544D01*
X249737Y615733D01*
X248301Y615544D01*
X246963Y614990D01*
X245814Y614108D01*
X245159Y613254D01*
X209788D01*
Y615386D01*
X208746D01*
X207516Y616886D01*
X207625Y617436D01*
X207276Y619191D01*
X206281Y620680D01*
X204793Y621675D01*
X203037Y622024D01*
X201281Y621675D01*
X199793Y620680D01*
X198798Y619191D01*
X198449Y617436D01*
X198558Y616886D01*
X197328Y615386D01*
X196488D01*
Y603986D01*
X209788D01*
Y606117D01*
X246004D01*
X246963Y605381D01*
X247287Y605247D01*
Y603624D01*
X246963Y603490D01*
X245814Y602608D01*
X244933Y601459D01*
X244379Y600121D01*
X244190Y598686D01*
X244379Y597250D01*
X244933Y595912D01*
X245814Y594763D01*
X246963Y593881D01*
X247691Y593580D01*
X247726Y593402D01*
X248198Y592696D01*
X249998Y590896D01*
X250351Y590660D01*
X250704Y590424D01*
X251537Y590259D01*
X329226D01*
X330287Y589198D01*
Y585014D01*
X330287Y584786D01*
X329735Y583514D01*
X309033D01*
X308793Y583675D01*
X307037Y584024D01*
Y584009D01*
X304818Y583717D01*
X302750Y582860D01*
X300975Y581498D01*
X299612Y579722D01*
X298756Y577655D01*
X298464Y575436D01*
X298449D01*
X298798Y573680D01*
X298959Y573440D01*
Y563514D01*
X245596D01*
X245478Y563843D01*
X245245Y565014D01*
X247240Y567445D01*
X248819Y570398D01*
X249791Y573603D01*
X250119Y576936D01*
X249791Y580268D01*
X248819Y583473D01*
X247240Y586426D01*
X245116Y589015D01*
X242527Y591139D01*
X239574Y592718D01*
X236370Y593690D01*
X233037Y594018D01*
X229704Y593690D01*
X226500Y592718D01*
X223547Y591139D01*
X220958Y589015D01*
X218834Y586426D01*
X217255Y583473D01*
X216283Y580268D01*
X215955Y576936D01*
X216283Y573603D01*
X217255Y570398D01*
X218834Y567445D01*
X220829Y565014D01*
X220596Y563843D01*
X220478Y563514D01*
X215033D01*
X214793Y563675D01*
X213037Y564024D01*
Y564024D01*
X212970Y563963D01*
X209051Y564271D01*
X205164Y565204D01*
X201470Y566734D01*
X198061Y568823D01*
X195021Y571420D01*
X192424Y574460D01*
X190335Y577869D01*
X188805Y581562D01*
X187872Y585450D01*
X187564Y589369D01*
X187625Y589436D01*
X187625D01*
X187276Y591192D01*
X187115Y591432D01*
Y643936D01*
X232037D01*
X243037Y632936D01*
X292037Y633190D01*
Y634441D01*
X296034Y638438D01*
X296034Y638439D01*
X296401Y638988D01*
X296646Y639355D01*
X296861Y640436D01*
Y673436D01*
X296861Y673436D01*
X296646Y674516D01*
X296034Y675433D01*
X296034Y675433D01*
X292037Y679430D01*
Y684686D01*
X297461D01*
Y684335D01*
X297626Y683502D01*
X298098Y682796D01*
X303860Y677034D01*
Y673186D01*
X298387D01*
Y661786D01*
X311687D01*
X312537Y660638D01*
Y658436D01*
X331861D01*
Y656436D01*
X312537D01*
Y644936D01*
X321239D01*
X322387Y644086D01*
Y630786D01*
X333787D01*
Y643539D01*
X333787Y644086D01*
X333787D01*
X333787D01*
X333540Y644925D01*
X333540Y644926D01*
X333537Y644936D01*
X333537Y646421D01*
Y647818D01*
X333820Y647875D01*
X334527Y648347D01*
X335577Y649397D01*
X336049Y650103D01*
X336214Y650936D01*
Y667058D01*
X337714Y667680D01*
X342861Y662533D01*
Y654111D01*
X341507Y653550D01*
X340045Y652428D01*
X338923Y650966D01*
X338217Y649263D01*
X337977Y647436D01*
X338217Y645608D01*
X338923Y643905D01*
X340045Y642443D01*
X340656Y641974D01*
X341507Y641321D01*
X340955Y639926D01*
X340798Y639692D01*
X340449Y637936D01*
X340798Y636180D01*
X341793Y634692D01*
X343281Y633697D01*
X345037Y633348D01*
X346793Y633697D01*
X348281Y634692D01*
X349276Y636180D01*
X349625Y637936D01*
X349276Y639692D01*
X349119Y639926D01*
X348567Y641321D01*
X349418Y641974D01*
X350029Y642443D01*
X351152Y643905D01*
X351225Y644083D01*
X352849D01*
X352923Y643905D01*
X354045Y642443D01*
X355317Y641467D01*
X354465Y640191D01*
X354115Y638436D01*
X354465Y636680D01*
X355459Y635191D01*
X356948Y634197D01*
X358704Y633848D01*
X360460Y634197D01*
X361948Y635191D01*
X362943Y636680D01*
X363292Y638436D01*
X362943Y640191D01*
X362449Y640930D01*
X362567Y641321D01*
X364030Y642443D01*
X365151Y643905D01*
X365225Y644083D01*
X366849D01*
X366923Y643905D01*
X368045Y642443D01*
X369507Y641321D01*
X369521Y641274D01*
X368798Y640191D01*
X368449Y638436D01*
X368798Y636680D01*
X369793Y635191D01*
X371281Y634197D01*
X373037Y633848D01*
X374793Y634197D01*
X376281Y635191D01*
X377276Y636680D01*
X377625Y638436D01*
X377276Y640191D01*
X376553Y641274D01*
X376567Y641321D01*
X378030Y642443D01*
X379151Y643905D01*
X379757Y645366D01*
X380537Y645496D01*
X381317Y645366D01*
X381923Y643905D01*
X383045Y642443D01*
X383656Y641974D01*
X384507Y641321D01*
X383955Y639926D01*
X383798Y639692D01*
X383449Y637936D01*
X383798Y636180D01*
X384793Y634692D01*
X386281Y633697D01*
X388037Y633348D01*
X389793Y633697D01*
X391281Y634692D01*
X392276Y636180D01*
X392625Y637936D01*
X392276Y639692D01*
X392119Y639926D01*
X391567Y641321D01*
X392418Y641974D01*
X393030Y642443D01*
X394151Y643905D01*
X394857Y645608D01*
X395097Y647436D01*
X394857Y649263D01*
X394151Y650966D01*
X393030Y652428D01*
X391567Y653550D01*
X390067Y654171D01*
X390048Y654269D01*
X389576Y654975D01*
X389537Y655014D01*
Y662936D01*
X389537Y664436D01*
Y664436D01*
X389537Y665936D01*
Y674436D01*
X380416D01*
X373416Y681436D01*
X373421Y681565D01*
X373422Y681603D01*
X373422Y681605D01*
X373562Y682002D01*
X373751Y682539D01*
X373806Y682696D01*
X373807Y682698D01*
X373858Y682843D01*
X373891Y682936D01*
X373927D01*
X374354Y682936D01*
X374354Y682936D01*
X374358Y682936D01*
X386037D01*
Y701936D01*
X384581D01*
X383779Y703436D01*
X384276Y704180D01*
X384626Y705936D01*
X384276Y707692D01*
X383282Y709180D01*
X381793Y710175D01*
X380037Y710524D01*
X378282Y710175D01*
X376793Y709180D01*
X375799Y707692D01*
X375449Y705936D01*
X375799Y704180D01*
X376296Y703436D01*
X375494Y701936D01*
X373037D01*
X373037Y684082D01*
Y684060D01*
Y684060D01*
Y683624D01*
X373037Y683527D01*
Y683369D01*
X373018Y683347D01*
X373016Y683345D01*
X372985Y683311D01*
X372974Y683299D01*
X372485Y682764D01*
X372428Y682702D01*
X372375Y682644D01*
X372373Y682642D01*
X372105Y682348D01*
X372087Y682328D01*
X370671Y682113D01*
X344939D01*
X338695Y688356D01*
Y723954D01*
X338530Y724787D01*
X338058Y725493D01*
X334076Y729475D01*
X333370Y729947D01*
X332537Y730113D01*
X330829D01*
X330208Y731612D01*
X331034Y732439D01*
X331034Y732439D01*
X331646Y733355D01*
X331861Y734436D01*
X331861Y734436D01*
Y748686D01*
X335687D01*
Y748902D01*
X335704Y748940D01*
X337187Y750016D01*
X338037Y749847D01*
X338537Y749947D01*
X340037Y748716D01*
Y731936D01*
X353037D01*
Y750936D01*
X352112D01*
X351327Y752436D01*
X351626Y753936D01*
X351276Y755692D01*
X350282Y757180D01*
X348793Y758175D01*
X347038Y758524D01*
X345282Y758175D01*
X343793Y757180D01*
X343561Y756833D01*
X341802Y756900D01*
X341281Y757680D01*
X339793Y758674D01*
X338037Y759024D01*
X337187Y758855D01*
X335704Y759932D01*
X335687Y759969D01*
Y760086D01*
X322387D01*
Y758229D01*
X320887Y757774D01*
X320281Y758680D01*
X318793Y759675D01*
X317037Y760024D01*
X315281Y759675D01*
X315187Y759612D01*
X313687Y760044D01*
Y761086D01*
X300387D01*
Y749686D01*
X301508D01*
Y746186D01*
X301037D01*
Y733686D01*
X313037D01*
Y746186D01*
X312566D01*
Y749686D01*
X313687D01*
Y750951D01*
X315187Y751260D01*
X315281Y751197D01*
X317037Y750847D01*
X318793Y751197D01*
X320281Y752191D01*
X320887Y753098D01*
X322387Y752643D01*
Y748686D01*
X326213D01*
Y736436D01*
X315287D01*
Y729436D01*
Y724436D01*
Y719436D01*
Y714436D01*
Y709436D01*
Y704436D01*
Y699436D01*
Y697186D01*
X292037D01*
Y733686D01*
X293037D01*
Y746186D01*
X292037D01*
Y752857D01*
X295576Y756396D01*
X295812Y756749D01*
X296048Y757102D01*
X296214Y757935D01*
Y775534D01*
X299939Y779259D01*
X365135D01*
X369815Y774579D01*
X369319Y773469D01*
X369113Y773159D01*
X367432Y772825D01*
X365943Y771830D01*
X364949Y770342D01*
X364599Y768586D01*
X364798Y767586D01*
X363843Y766180D01*
X363684Y766086D01*
X363387D01*
Y752786D01*
X366213D01*
Y744435D01*
X366213Y744435D01*
X366428Y743354D01*
X367040Y742438D01*
X370040Y739439D01*
X370956Y738827D01*
X372037Y738612D01*
X373037D01*
Y731936D01*
X385860D01*
Y717936D01*
X386026Y717103D01*
X386498Y716397D01*
X397860Y705035D01*
Y677613D01*
X396677Y676573D01*
X395767Y676754D01*
X394011Y676404D01*
X392523Y675410D01*
X391528Y673921D01*
X391179Y672166D01*
X391528Y670410D01*
X392523Y668921D01*
X394011Y667927D01*
X395767Y667578D01*
X397523Y667927D01*
X399011Y668921D01*
X400006Y670410D01*
X400355Y672166D01*
X400105Y673425D01*
X401576Y674896D01*
X402048Y675603D01*
X402214Y676436D01*
Y705936D01*
X402048Y706769D01*
X401576Y707476D01*
X390214Y718838D01*
Y759436D01*
X390048Y760269D01*
X389576Y760975D01*
X367576Y782975D01*
X366870Y783447D01*
X366037Y783613D01*
X299037D01*
X298204Y783447D01*
X297921Y783258D01*
X297498Y782975D01*
X293221Y778698D01*
X292037Y777936D01*
Y777936D01*
X192537D01*
X188501Y773900D01*
X187115Y774474D01*
Y842440D01*
X187276Y842680D01*
X187625Y844436D01*
X187625D01*
X187564Y844502D01*
X187872Y848422D01*
X188805Y852309D01*
X190335Y856003D01*
X192424Y859412D01*
X195021Y862452D01*
X198061Y865049D01*
X201470Y867138D01*
X205164Y868668D01*
X209051Y869601D01*
X212970Y869909D01*
X213037Y869848D01*
Y869848D01*
X214793Y870197D01*
X215033Y870358D01*
X220478D01*
X220598Y870022D01*
X220829Y868858D01*
X218834Y866426D01*
X217255Y863473D01*
X216283Y860268D01*
X215955Y856936D01*
X216283Y853603D01*
X217255Y850398D01*
X218834Y847445D01*
X220958Y844857D01*
X223547Y842732D01*
X226500Y841154D01*
X229704Y840182D01*
X233037Y839853D01*
X236370Y840182D01*
X239574Y841154D01*
X242527Y842732D01*
X245116Y844857D01*
X247240Y847445D01*
X248819Y850398D01*
X249791Y853603D01*
X250119Y856936D01*
X249791Y860268D01*
X248819Y863473D01*
X247240Y866426D01*
X245245Y868858D01*
X245476Y870022D01*
X245597Y870358D01*
X298959D01*
Y860432D01*
X298798Y860192D01*
X298449Y858436D01*
X298464D01*
X298756Y856217D01*
X299612Y854149D01*
X300975Y852374D01*
X302750Y851011D01*
X304818Y850155D01*
X307037Y849863D01*
Y849848D01*
X308793Y850197D01*
X309033Y850358D01*
X357041D01*
X357281Y850197D01*
X359037Y849848D01*
Y849863D01*
X361256Y850155D01*
X363324Y851011D01*
X365099Y852374D01*
X366462Y854149D01*
X367318Y856217D01*
X367610Y858436D01*
X367625D01*
X367276Y860192D01*
X367115Y860432D01*
Y870358D01*
X998959D01*
Y860432D01*
X998799Y860192D01*
X998449Y858436D01*
X998464D01*
X998756Y856217D01*
X999613Y854149D01*
X1000975Y852374D01*
X1002751Y851011D01*
X1004818Y850155D01*
X1007037Y849863D01*
Y849848D01*
X1008793Y850197D01*
X1009033Y850358D01*
X1057041D01*
X1057282Y850197D01*
X1059037Y849848D01*
Y849863D01*
X1061256Y850155D01*
X1063324Y851011D01*
X1065100Y852374D01*
X1066462Y854149D01*
X1067319Y856217D01*
X1067611Y858436D01*
X1067626D01*
X1067276Y860192D01*
X1067116Y860432D01*
Y870358D01*
X1090478D01*
X1090598Y870022D01*
X1090829Y868858D01*
X1088834Y866426D01*
X1087255Y863473D01*
X1086283Y860268D01*
X1085955Y856936D01*
X1086283Y853603D01*
X1087255Y850398D01*
X1088834Y847445D01*
X1090958Y844857D01*
X1093547Y842732D01*
X1096500Y841154D01*
X1099705Y840182D01*
X1103037Y839853D01*
X1106370Y840182D01*
X1109574Y841154D01*
X1112527Y842732D01*
X1115116Y844857D01*
X1117240Y847445D01*
X1118819Y850398D01*
X1119791Y853603D01*
X1120119Y856936D01*
X1119791Y860268D01*
X1118819Y863473D01*
X1117240Y866426D01*
X1115245Y868858D01*
X1115477Y870022D01*
X1115596Y870358D01*
X1151041D01*
X1151282Y870197D01*
D02*
G37*
G36*
X891038Y817436D02*
X868043Y817436D01*
X868027Y807926D01*
X861038Y800936D01*
X854936Y800936D01*
X854037Y801834D01*
Y807038D01*
X854936Y807936D01*
X859037Y807936D01*
X861037Y809936D01*
Y824436D01*
X878538D01*
Y825936D01*
X878537Y827436D01*
Y838436D01*
X891038D01*
Y817436D01*
D02*
G37*
G36*
X779860Y860534D02*
Y853436D01*
X780026Y852603D01*
X780498Y851896D01*
X790819Y841575D01*
X790321Y839952D01*
X789690Y839826D01*
X788495Y839028D01*
X787697Y837833D01*
X787416Y836424D01*
Y833448D01*
X787697Y832038D01*
X788495Y830844D01*
X789690Y830045D01*
X791099Y829765D01*
X799166D01*
X799788Y828265D01*
X788423Y816900D01*
X787037Y817474D01*
Y825936D01*
X786115D01*
Y827440D01*
X786276Y827680D01*
X786625Y829436D01*
X786276Y831191D01*
X785281Y832680D01*
X783793Y833674D01*
X782037Y834024D01*
X780281Y833674D01*
X778793Y832680D01*
X777798Y831191D01*
X777449Y829436D01*
X777798Y827680D01*
X777959Y827439D01*
Y827054D01*
X777037Y825936D01*
Y825936D01*
X767037D01*
Y822845D01*
X764599Y820407D01*
X760787D01*
Y823686D01*
X751287D01*
Y820407D01*
X749037D01*
X747709Y820143D01*
X746583Y819391D01*
X734599Y807408D01*
X718920D01*
X718691Y807704D01*
X718037Y808936D01*
X718037D01*
X718037Y808936D01*
Y821936D01*
X708037D01*
Y808936D01*
X709666D01*
Y807836D01*
X709930Y806507D01*
X710683Y805381D01*
X714583Y801481D01*
X715709Y800728D01*
X717038Y800464D01*
X736038D01*
X737366Y800728D01*
X738492Y801481D01*
X749787Y812776D01*
X751287Y812154D01*
Y809186D01*
X758749D01*
X759323Y807800D01*
X746198Y794675D01*
X745726Y793969D01*
X745561Y793136D01*
Y791936D01*
X743037D01*
Y791936D01*
Y791936D01*
X743037D01*
Y791936D01*
X743037Y791936D01*
X733037D01*
Y788613D01*
X730537D01*
X729704Y788447D01*
X729421Y788258D01*
X728998Y787975D01*
X722498Y781475D01*
X722026Y780769D01*
X721860Y779936D01*
Y768986D01*
X710687D01*
Y756786D01*
X698487D01*
Y756786D01*
X697092Y757039D01*
X696714Y757265D01*
Y808936D01*
X705037D01*
Y821936D01*
X696714D01*
Y827034D01*
X698939Y829259D01*
X709037D01*
X709871Y829425D01*
X710577Y829897D01*
X714576Y833896D01*
X714812Y834249D01*
X715048Y834603D01*
X715214Y835436D01*
Y860034D01*
X716939Y861759D01*
X778635D01*
X779860Y860534D01*
D02*
G37*
G36*
X944037Y772936D02*
X959538D01*
Y766936D01*
X951037D01*
X948537Y764436D01*
X910537D01*
Y778436D01*
X938538D01*
X944037Y772936D01*
D02*
G37*
G36*
X901537Y771936D02*
X877038D01*
X875037Y769935D01*
Y757936D01*
X862538D01*
Y761714D01*
X862604Y761813D01*
X862782Y762711D01*
Y767911D01*
X862604Y768808D01*
X862538Y768907D01*
Y778436D01*
X876537D01*
Y779936D01*
X901537D01*
Y771936D01*
D02*
G37*
G36*
X969792Y772136D02*
Y766736D01*
X969970Y765838D01*
X970038Y765738D01*
Y761936D01*
X978037Y757936D01*
X995639D01*
X996537Y757038D01*
X996537Y745936D01*
X947538D01*
X929435Y745936D01*
X928537Y746834D01*
X928537Y760936D01*
X961264Y760936D01*
X962037Y762150D01*
Y772936D01*
X969135D01*
X969792Y772136D01*
D02*
G37*
G36*
X905281Y748697D02*
X907037Y748347D01*
X907857Y748511D01*
X913488Y742880D01*
Y732091D01*
X909882Y728485D01*
X885586D01*
Y730436D01*
X888537D01*
Y740436D01*
X888537D01*
X888537D01*
Y740436D01*
X888537D01*
X888537Y740436D01*
Y741885D01*
X889037Y743259D01*
X891537D01*
Y740436D01*
X902537D01*
Y748871D01*
X903120Y749252D01*
X904037Y749528D01*
X905281Y748697D01*
D02*
G37*
G36*
X745687Y750086D02*
Y745086D01*
Y740086D01*
Y735086D01*
Y730086D01*
Y725086D01*
Y721786D01*
X712387D01*
Y725086D01*
Y729086D01*
X713387D01*
Y734086D01*
Y742786D01*
X708127D01*
X707445Y743241D01*
X705713Y743586D01*
X705861Y745086D01*
X712387D01*
Y750086D01*
Y755086D01*
X745687D01*
Y750086D01*
D02*
G37*
G36*
X1057728Y720336D02*
X1057449Y718936D01*
X1057648Y717936D01*
X1056629Y716436D01*
X1056537D01*
Y707936D01*
X1056537Y706436D01*
Y706436D01*
D01*
X1056537Y704936D01*
Y696436D01*
X1067537D01*
Y697357D01*
X1069537D01*
Y696436D01*
X1069628D01*
X1070449Y695436D01*
X1070798Y693680D01*
X1071793Y692191D01*
X1073281Y691197D01*
X1075037Y690847D01*
X1076793Y691197D01*
X1077170Y691449D01*
X1078209Y690339D01*
X1077923Y689966D01*
X1077362Y688613D01*
X1074537D01*
X1073704Y688447D01*
X1073351Y688211D01*
X1072998Y687975D01*
X1069498Y684475D01*
X1069026Y683769D01*
X1068860Y682936D01*
Y670337D01*
X1056923Y658400D01*
X1055537Y658974D01*
Y664936D01*
X1055537Y666436D01*
Y666436D01*
X1055537Y667759D01*
X1055789Y668644D01*
X1057391Y668793D01*
X1057793Y668191D01*
X1059281Y667197D01*
X1061037Y666848D01*
X1062793Y667197D01*
X1064281Y668191D01*
X1065276Y669680D01*
X1065625Y671436D01*
X1065276Y673191D01*
X1064281Y674680D01*
X1062793Y675675D01*
X1061037Y676024D01*
X1059281Y675675D01*
X1057793Y674680D01*
X1057079Y673613D01*
X1055537D01*
Y676436D01*
X1052214D01*
Y678261D01*
X1053567Y678821D01*
X1055030Y679943D01*
X1056152Y681406D01*
X1056857Y683109D01*
X1057097Y684936D01*
X1056857Y686763D01*
X1056152Y688466D01*
X1055030Y689928D01*
X1053567Y691050D01*
X1051864Y691756D01*
X1050037Y691996D01*
X1048210Y691756D01*
X1046507Y691050D01*
X1045938Y690613D01*
X1041592Y694959D01*
X1041537Y696436D01*
X1041537Y696436D01*
X1041537Y696436D01*
Y706436D01*
X1041537D01*
X1041537D01*
Y706436D01*
X1041537D01*
X1041537Y706436D01*
Y709059D01*
X1043537D01*
Y706436D01*
X1054537D01*
Y716436D01*
X1051564D01*
Y720384D01*
X1052477Y721297D01*
X1053787Y721836D01*
Y721836D01*
X1053787Y721836D01*
X1056896D01*
X1057728Y720336D01*
D02*
G37*
%LPC*%
G36*
X958525Y717056D02*
X955549D01*
X954140Y716776D01*
X952945Y715978D01*
X952147Y714783D01*
X952117Y714633D01*
X950524Y714316D01*
X950281Y714680D01*
X948793Y715675D01*
X947037Y716024D01*
X945281Y715675D01*
X943793Y714680D01*
X942798Y713191D01*
X942449Y711436D01*
X942798Y709680D01*
X943793Y708191D01*
X945281Y707197D01*
X947037Y706848D01*
X948793Y707197D01*
X950281Y708191D01*
X950366Y708318D01*
X951866Y707863D01*
Y704498D01*
X952147Y703088D01*
X952945Y701893D01*
X954140Y701095D01*
X955549Y700815D01*
X958525D01*
X959934Y701095D01*
X961129Y701893D01*
X961927Y703088D01*
X962208Y704498D01*
Y713374D01*
X961927Y714783D01*
X961129Y715978D01*
X959934Y716776D01*
X958525Y717056D01*
D02*
G37*
G36*
X647037Y822465D02*
X646889Y822436D01*
X645537D01*
Y821084D01*
X645508Y820936D01*
X645508Y814834D01*
X645537Y814686D01*
Y812436D01*
X647787D01*
X647935Y812406D01*
X659404Y812406D01*
X660508Y811302D01*
X660508Y808787D01*
X659008Y807866D01*
X658537Y808105D01*
Y809436D01*
X645537D01*
Y799436D01*
X656860D01*
Y789936D01*
X657026Y789103D01*
X657498Y788396D01*
X662498Y783396D01*
X663204Y782924D01*
X664037Y782759D01*
X682037D01*
X682870Y782924D01*
X683576Y783396D01*
X685576Y785396D01*
X685812Y785750D01*
X686048Y786103D01*
X686214Y786936D01*
Y794978D01*
X687281Y795691D01*
X688276Y797180D01*
X688625Y798936D01*
X688276Y800691D01*
X687281Y802180D01*
X685793Y803175D01*
X684037Y803524D01*
X682281Y803175D01*
X680793Y802180D01*
X680066Y801093D01*
X678566Y801548D01*
Y801640D01*
X678625Y801936D01*
X678566Y802231D01*
X678566Y809588D01*
X679029Y809943D01*
X680152Y811405D01*
X680857Y813108D01*
X681097Y814936D01*
X680857Y816763D01*
X680152Y818466D01*
X679029Y819928D01*
X678509Y820328D01*
X678450Y820623D01*
X678119Y821119D01*
X677220Y822017D01*
X676724Y822349D01*
X676139Y822465D01*
X647037Y822465D01*
D02*
G37*
G36*
X1148037Y859019D02*
X1143801Y858686D01*
X1139668Y857694D01*
X1135742Y856067D01*
X1132118Y853847D01*
X1128886Y851087D01*
X1126126Y847855D01*
X1123906Y844231D01*
X1122280Y840305D01*
X1121287Y836173D01*
X1120954Y831936D01*
X1121287Y827699D01*
X1122280Y823567D01*
X1123906Y819640D01*
X1126126Y816017D01*
X1128886Y812785D01*
X1132118Y810025D01*
X1135742Y807804D01*
X1139668Y806178D01*
X1143801Y805186D01*
X1148037Y804852D01*
X1152274Y805186D01*
X1156407Y806178D01*
X1160333Y807804D01*
X1163957Y810025D01*
X1167188Y812785D01*
X1169949Y816017D01*
X1172169Y819640D01*
X1173795Y823567D01*
X1174788Y827699D01*
X1175121Y831936D01*
X1174788Y836173D01*
X1173795Y840305D01*
X1172169Y844231D01*
X1169949Y847855D01*
X1167188Y851087D01*
X1163957Y853847D01*
X1160333Y856067D01*
X1156407Y857694D01*
X1152274Y858686D01*
X1148037Y859019D01*
D02*
G37*
G36*
X760787Y851686D02*
X751287D01*
Y848408D01*
X750038D01*
X748709Y848143D01*
X747583Y847391D01*
X744583Y844391D01*
X743830Y843264D01*
X743566Y841936D01*
Y830374D01*
X732537Y819345D01*
X731037Y819681D01*
Y821936D01*
X721037D01*
Y808936D01*
X731037D01*
Y812164D01*
X733737D01*
X735066Y812428D01*
X736192Y813181D01*
X749492Y826481D01*
X750245Y827607D01*
X750509Y828936D01*
Y836008D01*
X751287Y837186D01*
X760787D01*
Y841464D01*
X766746D01*
X767495Y840343D01*
X768690Y839545D01*
X770099Y839265D01*
X778975D01*
X780384Y839545D01*
X781579Y840343D01*
X782377Y841538D01*
X782658Y842948D01*
Y845924D01*
X782377Y847333D01*
X781579Y848528D01*
X780384Y849326D01*
X778975Y849606D01*
X770099D01*
X768690Y849326D01*
X767495Y848528D01*
X767415Y848408D01*
X760787D01*
Y851686D01*
D02*
G37*
G36*
X1148037Y629019D02*
X1143801Y628686D01*
X1139668Y627694D01*
X1135742Y626067D01*
X1132118Y623847D01*
X1128886Y621087D01*
X1126126Y617855D01*
X1123906Y614231D01*
X1122280Y610305D01*
X1121287Y606173D01*
X1120954Y601936D01*
X1121287Y597699D01*
X1122280Y593567D01*
X1123906Y589640D01*
X1126126Y586017D01*
X1128886Y582785D01*
X1132118Y580025D01*
X1135742Y577804D01*
X1139668Y576178D01*
X1143801Y575186D01*
X1148037Y574852D01*
X1152274Y575186D01*
X1156407Y576178D01*
X1160333Y577804D01*
X1163957Y580025D01*
X1167188Y582785D01*
X1169949Y586017D01*
X1172169Y589640D01*
X1173795Y593567D01*
X1174788Y597699D01*
X1175121Y601936D01*
X1174788Y606173D01*
X1173795Y610305D01*
X1172169Y614231D01*
X1169949Y617855D01*
X1167188Y621087D01*
X1163957Y623847D01*
X1160333Y626067D01*
X1156407Y627694D01*
X1152274Y628686D01*
X1148037Y629019D01*
D02*
G37*
G36*
X464037Y726024D02*
X462281Y725675D01*
X460793Y724680D01*
X459798Y723191D01*
X459449Y721436D01*
X459798Y719680D01*
X460793Y718191D01*
X461860Y717478D01*
Y713754D01*
X461224Y713367D01*
X460360Y713191D01*
X455971Y717580D01*
X456031Y718191D01*
X457026Y719680D01*
X457375Y721436D01*
X457026Y723191D01*
X456031Y724680D01*
X454543Y725675D01*
X452787Y726024D01*
X451031Y725675D01*
X449543Y724680D01*
X448548Y723191D01*
X448199Y721436D01*
X448548Y719680D01*
X449543Y718191D01*
X450658Y717446D01*
X450776Y716853D01*
X451248Y716146D01*
X456861Y710534D01*
Y689936D01*
X453214D01*
Y708435D01*
X453049Y709268D01*
X452813Y709621D01*
X452577Y709975D01*
X444744Y717808D01*
X444781Y718191D01*
X445776Y719680D01*
X446125Y721436D01*
X445776Y723191D01*
X444781Y724680D01*
X443293Y725675D01*
X441537Y726024D01*
X439781Y725675D01*
X438293Y724680D01*
X437298Y723191D01*
X436949Y721436D01*
X437298Y719680D01*
X438293Y718191D01*
X439465Y717408D01*
X439526Y717103D01*
X439998Y716396D01*
X448861Y707534D01*
Y689936D01*
X444038D01*
Y654936D01*
X446494D01*
X447296Y653436D01*
X446799Y652692D01*
X446449Y650936D01*
X446799Y649180D01*
X447793Y647691D01*
X449282Y646697D01*
X451037Y646348D01*
X452793Y646697D01*
X454282Y647691D01*
X455276Y649180D01*
X455361Y649604D01*
X456861Y649456D01*
Y646837D01*
X451136Y641113D01*
X437401D01*
X437364Y641205D01*
X437151Y642613D01*
X437576Y642896D01*
X440576Y645896D01*
X440859Y646320D01*
X441048Y646603D01*
X441109Y646908D01*
X442281Y647691D01*
X443276Y649180D01*
X443625Y650936D01*
X443276Y652691D01*
X442281Y654180D01*
X441214Y654893D01*
Y706436D01*
X441048Y707269D01*
X440812Y707622D01*
X440576Y707975D01*
X428375Y720176D01*
X428625Y721436D01*
X428276Y723191D01*
X427281Y724680D01*
X425793Y725675D01*
X424037Y726024D01*
X422281Y725675D01*
X420793Y724680D01*
X419798Y723191D01*
X419449Y721436D01*
X419798Y719680D01*
X420793Y718191D01*
X422281Y717197D01*
X424037Y716848D01*
X425296Y717098D01*
X436860Y705534D01*
Y654893D01*
X435793Y654180D01*
X434798Y652691D01*
X434449Y650936D01*
X434798Y649180D01*
X435655Y647897D01*
X435041Y646833D01*
X434847Y646612D01*
X418406D01*
X413214Y651805D01*
Y654936D01*
X418037D01*
Y689936D01*
X404038D01*
Y654936D01*
X408861D01*
Y650903D01*
X409026Y650070D01*
X409498Y649364D01*
X415965Y642896D01*
X416390Y642613D01*
X416178Y641205D01*
X416141Y641113D01*
X404537D01*
X403704Y640947D01*
X403351Y640711D01*
X402998Y640475D01*
X389872Y627350D01*
X389401Y626643D01*
X389235Y625810D01*
Y623186D01*
X384787D01*
Y613686D01*
X399287D01*
Y623186D01*
X393588D01*
Y624909D01*
X405439Y636759D01*
X409719D01*
X410106Y636121D01*
X410282Y635259D01*
X401498Y626475D01*
X401026Y625769D01*
X400861Y624936D01*
Y600525D01*
X399287D01*
Y603186D01*
X384787D01*
Y593686D01*
X399287D01*
Y596171D01*
X402450D01*
X403283Y596337D01*
X403989Y596809D01*
X404577Y597397D01*
X405049Y598103D01*
X405214Y598936D01*
Y624034D01*
X412939Y631759D01*
X456537D01*
X457370Y631925D01*
X458076Y632396D01*
X465576Y639896D01*
X466048Y640603D01*
X466214Y641436D01*
Y717478D01*
X467281Y718191D01*
X468276Y719680D01*
X468625Y721436D01*
X468276Y723191D01*
X467281Y724680D01*
X465793Y725675D01*
X464037Y726024D01*
D02*
G37*
G36*
X367537Y832436D02*
X356537D01*
Y822436D01*
X359860D01*
Y816893D01*
X358793Y816180D01*
X357798Y814691D01*
X357449Y812936D01*
X357798Y811180D01*
X358793Y809691D01*
X360281Y808697D01*
X362037Y808347D01*
X363793Y808697D01*
X365281Y809691D01*
X366276Y811180D01*
X366625Y812936D01*
X366276Y814691D01*
X365281Y816180D01*
X364214Y816893D01*
Y822436D01*
X367537D01*
Y832436D01*
D02*
G37*
G36*
X905525Y717056D02*
X902549D01*
X901140Y716776D01*
X899945Y715978D01*
X899147Y714783D01*
X899022Y714157D01*
X897955Y713304D01*
X897366Y713259D01*
X896037Y713524D01*
X894281Y713175D01*
X892793Y712180D01*
X891798Y710691D01*
X891449Y708936D01*
X891798Y707180D01*
X892793Y705691D01*
X894281Y704697D01*
X896037Y704348D01*
X897366Y704612D01*
X897955Y704567D01*
X899022Y703714D01*
X899147Y703088D01*
X899945Y701893D01*
X901140Y701095D01*
X902549Y700815D01*
X905525D01*
X906934Y701095D01*
X908129Y701893D01*
X908928Y703088D01*
X909208Y704498D01*
Y713374D01*
X908928Y714783D01*
X908129Y715978D01*
X906934Y716776D01*
X905525Y717056D01*
D02*
G37*
G36*
X890787Y658086D02*
X879387D01*
Y644786D01*
X890787D01*
Y646848D01*
X895037D01*
X895537Y646947D01*
X896037Y646848D01*
X897793Y647197D01*
X899281Y648191D01*
X900276Y649680D01*
X900625Y651436D01*
X900276Y653191D01*
X899281Y654680D01*
X897793Y655675D01*
X896037Y656024D01*
X895537Y655924D01*
X895037Y656024D01*
X890787D01*
Y658086D01*
D02*
G37*
G36*
X933037Y669999D02*
X930489Y669748D01*
X928038Y669004D01*
X925780Y667797D01*
X923801Y666173D01*
X922176Y664193D01*
X920969Y661935D01*
X920226Y659484D01*
X919975Y656936D01*
X920226Y654387D01*
X920969Y651937D01*
X922176Y649678D01*
X923801Y647699D01*
X925780Y646074D01*
X928038Y644867D01*
X930489Y644124D01*
X933037Y643873D01*
X935586Y644124D01*
X938036Y644867D01*
X940295Y646074D01*
X942274Y647699D01*
X943899Y649678D01*
X945106Y651937D01*
X945849Y654387D01*
X946100Y656936D01*
X945849Y659484D01*
X945106Y661935D01*
X943899Y664193D01*
X942274Y666173D01*
X940295Y667797D01*
X938036Y669004D01*
X935586Y669748D01*
X933037Y669999D01*
D02*
G37*
G36*
X949025Y696056D02*
X946049D01*
X944640Y695776D01*
X943445Y694978D01*
X942647Y693783D01*
X942366Y692374D01*
Y683498D01*
X942647Y682088D01*
X943445Y680893D01*
X944640Y680095D01*
X946049Y679815D01*
X946086D01*
X946098Y679796D01*
X947037Y678857D01*
Y667936D01*
X948720D01*
X949175Y666436D01*
X948793Y666180D01*
X947799Y664692D01*
X947449Y662936D01*
X947799Y661180D01*
X948793Y659691D01*
X950282Y658697D01*
X952038Y658348D01*
X953793Y658697D01*
X955282Y659691D01*
X956276Y661180D01*
X956626Y662936D01*
X956276Y664692D01*
X955282Y666180D01*
X954899Y666436D01*
X955354Y667936D01*
X957037D01*
Y678936D01*
X953937D01*
X953576Y679475D01*
X951841Y681210D01*
X952428Y682088D01*
X952708Y683498D01*
Y692374D01*
X952428Y693783D01*
X951629Y694978D01*
X950434Y695776D01*
X949025Y696056D01*
D02*
G37*
G36*
X769037Y658936D02*
X769037D01*
X767537Y658936D01*
X759037D01*
Y657113D01*
X756037D01*
X755204Y656947D01*
X754498Y656475D01*
X752498Y654475D01*
X752026Y653769D01*
X751965Y653463D01*
X750793Y652680D01*
X749798Y651191D01*
X749449Y649436D01*
X749798Y647680D01*
X750793Y646191D01*
X752281Y645197D01*
X754037Y644847D01*
X755793Y645197D01*
X757281Y646191D01*
X757885Y647095D01*
X759037Y647936D01*
Y647936D01*
X767537D01*
X769037Y647936D01*
X769037D01*
D01*
X770537Y647936D01*
X779037D01*
X779037Y647936D01*
Y647936D01*
X780537Y648694D01*
X781281Y648197D01*
X783037Y647848D01*
X784793Y648197D01*
X786281Y649191D01*
X787276Y650680D01*
X787625Y652436D01*
X787276Y654191D01*
X786281Y655680D01*
X784793Y656674D01*
X783037Y657024D01*
X781281Y656674D01*
X780537Y656177D01*
X779037Y656979D01*
Y658936D01*
X770537D01*
X769037Y658936D01*
D02*
G37*
G36*
X1099037Y622353D02*
X1096988Y622084D01*
X1095078Y621293D01*
X1093438Y620034D01*
X1092180Y618395D01*
X1091389Y616485D01*
X1091119Y614436D01*
X1091389Y612386D01*
X1092180Y610477D01*
X1093438Y608837D01*
X1095078Y607579D01*
X1096988Y606788D01*
X1099037Y606518D01*
X1101086Y606788D01*
X1102996Y607579D01*
X1104636Y608837D01*
X1105894Y610477D01*
X1106685Y612386D01*
X1106955Y614436D01*
X1106685Y616485D01*
X1105894Y618395D01*
X1104636Y620034D01*
X1102996Y621293D01*
X1101086Y622084D01*
X1099037Y622353D01*
D02*
G37*
G36*
X443037Y628524D02*
X441281Y628175D01*
X439793Y627180D01*
X438798Y625691D01*
X438449Y623936D01*
X438667Y622840D01*
X438554Y622274D01*
Y619436D01*
X429537D01*
Y609436D01*
X429537D01*
X429537Y609436D01*
Y608436D01*
X429537D01*
X429537Y608436D01*
Y599936D01*
X429537Y598436D01*
Y598436D01*
D01*
X429537Y596936D01*
Y594613D01*
X427287D01*
Y603186D01*
X421589D01*
Y613686D01*
X427287D01*
Y623186D01*
X412787D01*
Y613686D01*
X417235D01*
Y603186D01*
X412787D01*
Y593686D01*
X417410D01*
X417526Y593103D01*
X417998Y592397D01*
X419498Y590897D01*
X420204Y590425D01*
X421037Y590259D01*
X429537D01*
Y588436D01*
X432963D01*
X433747Y586936D01*
X433449Y585436D01*
X433798Y583680D01*
X434793Y582191D01*
X436281Y581197D01*
X438037Y580848D01*
X439037Y581046D01*
X440537Y580436D01*
Y580436D01*
X440537Y580436D01*
X451537D01*
Y588936D01*
X451537Y590436D01*
Y590436D01*
X451537Y591936D01*
Y600436D01*
X450214D01*
Y609265D01*
X454975D01*
X456384Y609545D01*
X457579Y610344D01*
X458377Y611538D01*
X458658Y612948D01*
Y615924D01*
X458377Y617333D01*
X457579Y618528D01*
X456384Y619326D01*
X454975Y619606D01*
X448210D01*
X447414Y621106D01*
X447856Y621759D01*
X457635D01*
X467902Y611492D01*
X467328Y610106D01*
X467099D01*
X465690Y609826D01*
X464495Y609028D01*
X463697Y607833D01*
X463416Y606424D01*
Y603448D01*
X463697Y602038D01*
X464495Y600844D01*
X465690Y600045D01*
X467099Y599765D01*
X469494D01*
X469526Y599603D01*
X469998Y598897D01*
X472423Y596471D01*
X471849Y595086D01*
X471387D01*
Y581786D01*
X482787D01*
Y595086D01*
X479305D01*
X479199Y595619D01*
X478963Y595972D01*
X478727Y596325D01*
X476677Y598375D01*
X477170Y600003D01*
X477384Y600045D01*
X478579Y600844D01*
X479378Y602038D01*
X479658Y603448D01*
Y606424D01*
X479378Y607833D01*
X478579Y609028D01*
X477384Y609826D01*
X475975Y610106D01*
X473714D01*
Y610935D01*
X473549Y611768D01*
X473313Y612121D01*
X473077Y612475D01*
X460076Y625475D01*
X459370Y625947D01*
X458537Y626113D01*
X446995D01*
X446281Y627180D01*
X444793Y628175D01*
X443037Y628524D01*
D02*
G37*
G36*
X1048237Y596953D02*
X1046188Y596684D01*
X1044278Y595893D01*
X1042638Y594634D01*
X1041380Y592994D01*
X1040589Y591085D01*
X1040319Y589036D01*
X1040589Y586986D01*
X1041380Y585077D01*
X1042638Y583437D01*
X1044278Y582179D01*
X1046188Y581388D01*
X1048237Y581118D01*
X1050286Y581388D01*
X1052196Y582179D01*
X1053836Y583437D01*
X1055094Y585077D01*
X1055885Y586986D01*
X1056155Y589036D01*
X1055885Y591085D01*
X1055094Y592994D01*
X1053836Y594634D01*
X1052196Y595893D01*
X1050286Y596684D01*
X1048237Y596953D01*
D02*
G37*
G36*
X667237Y622353D02*
X665188Y622084D01*
X663278Y621293D01*
X661638Y620034D01*
X660380Y618395D01*
X659589Y616485D01*
X659319Y614436D01*
X659589Y612386D01*
X660380Y610477D01*
X661638Y608837D01*
X663278Y607579D01*
X665188Y606788D01*
X667237Y606518D01*
X669286Y606788D01*
X671196Y607579D01*
X672836Y608837D01*
X674094Y610477D01*
X674885Y612386D01*
X675155Y614436D01*
X674885Y616485D01*
X674094Y618395D01*
X672836Y620034D01*
X671196Y621293D01*
X669286Y622084D01*
X667237Y622353D01*
D02*
G37*
%LPD*%
G36*
X676139Y820936D02*
X677037Y820038D01*
X677037Y790936D01*
X662037Y790936D01*
X662037Y811936D01*
X660037Y813936D01*
X647935Y813936D01*
X647037Y814834D01*
X647037Y820936D01*
X676139Y820936D01*
D02*
G37*
D10*
X674037Y814936D02*
D03*
Y832936D02*
D03*
X1103037Y856936D02*
D03*
X233037Y576936D02*
D03*
Y856936D02*
D03*
X476037Y749436D02*
D03*
X1050037Y684936D02*
D03*
X771037Y699286D02*
D03*
Y674936D02*
D03*
X823037Y711436D02*
D03*
X875137D02*
D03*
X771037Y723636D02*
D03*
X921537Y751936D02*
D03*
X785037Y769936D02*
D03*
Y787936D02*
D03*
X926037Y837436D02*
D03*
X373037Y647436D02*
D03*
X388037D02*
D03*
X359037D02*
D03*
X345037D02*
D03*
X1006038Y673936D02*
D03*
X991038D02*
D03*
X1045537Y762236D02*
D03*
X1084037Y686436D02*
D03*
X1035038Y684936D02*
D03*
X562038Y647999D02*
D03*
X576037D02*
D03*
X604038D02*
D03*
X590037D02*
D03*
X922037Y716936D02*
D03*
X516662Y591139D02*
D03*
X695037Y657436D02*
D03*
D11*
X379537Y741436D02*
D03*
X346537D02*
D03*
Y692436D02*
D03*
X379537D02*
D03*
D12*
X897037Y735436D02*
D03*
Y745436D02*
D03*
X1050037Y661436D02*
D03*
Y671436D02*
D03*
X1035037Y661436D02*
D03*
Y671436D02*
D03*
X842037Y745436D02*
D03*
Y735436D02*
D03*
X810037Y840436D02*
D03*
Y850436D02*
D03*
X446037Y595436D02*
D03*
Y585436D02*
D03*
X856037Y745436D02*
D03*
Y735436D02*
D03*
X435037Y593436D02*
D03*
Y603436D02*
D03*
Y614436D02*
D03*
Y624436D02*
D03*
X829037Y735436D02*
D03*
Y745436D02*
D03*
X815037Y735436D02*
D03*
Y745436D02*
D03*
X883037Y735436D02*
D03*
Y745436D02*
D03*
X870037Y745436D02*
D03*
Y735436D02*
D03*
X960037Y817436D02*
D03*
Y827436D02*
D03*
X362037Y827436D02*
D03*
Y837436D02*
D03*
X972037Y827436D02*
D03*
Y817436D02*
D03*
X984037Y817436D02*
D03*
Y827436D02*
D03*
X1052037Y841436D02*
D03*
Y831436D02*
D03*
X1036037Y711436D02*
D03*
Y701436D02*
D03*
X1049037Y711436D02*
D03*
Y701436D02*
D03*
X1076037Y831436D02*
D03*
Y841436D02*
D03*
X1064037Y831436D02*
D03*
Y841436D02*
D03*
X1088037Y711436D02*
D03*
Y701436D02*
D03*
X1062037Y711436D02*
D03*
Y701436D02*
D03*
X1075037Y711436D02*
D03*
Y701436D02*
D03*
X543037Y677436D02*
D03*
Y667436D02*
D03*
X554037Y677436D02*
D03*
Y667436D02*
D03*
X565037Y677436D02*
D03*
Y667436D02*
D03*
X587037Y677436D02*
D03*
Y667436D02*
D03*
X576037Y677436D02*
D03*
Y667436D02*
D03*
X707037Y688436D02*
D03*
Y698436D02*
D03*
X718037Y698436D02*
D03*
Y688436D02*
D03*
X875037Y687436D02*
D03*
Y697436D02*
D03*
X729037Y698436D02*
D03*
Y688436D02*
D03*
X823037Y687436D02*
D03*
Y697436D02*
D03*
X384037Y669436D02*
D03*
Y659436D02*
D03*
X372037Y669436D02*
D03*
Y659436D02*
D03*
X360037Y669436D02*
D03*
Y659436D02*
D03*
X875037Y666436D02*
D03*
Y676436D02*
D03*
X504037Y847436D02*
D03*
Y857436D02*
D03*
D13*
X924037Y771686D02*
D03*
Y795186D02*
D03*
D14*
X907787Y829436D02*
D03*
X884287D02*
D03*
D15*
X748037Y775436D02*
D03*
X738037D02*
D03*
X748037Y786436D02*
D03*
X738037D02*
D03*
X952037Y673436D02*
D03*
X962037D02*
D03*
X899037D02*
D03*
X909037D02*
D03*
X782037Y820436D02*
D03*
X772037D02*
D03*
X801037Y786436D02*
D03*
X811037D02*
D03*
X801037Y774436D02*
D03*
X811037D02*
D03*
X1001037Y779436D02*
D03*
X991037D02*
D03*
X504037Y835436D02*
D03*
X514037D02*
D03*
X991037Y790436D02*
D03*
X1001037D02*
D03*
X991037Y768436D02*
D03*
X1001037D02*
D03*
X1032037Y749436D02*
D03*
X1042037D02*
D03*
X1044037Y805436D02*
D03*
X1034037D02*
D03*
X1044037Y793436D02*
D03*
X1034037D02*
D03*
X1042037Y737436D02*
D03*
X1032037D02*
D03*
X1042037Y725436D02*
D03*
X1032037D02*
D03*
X1034037Y781436D02*
D03*
X1044037D02*
D03*
X1034037Y817436D02*
D03*
X1044037D02*
D03*
X1069037Y763436D02*
D03*
X1059037D02*
D03*
X602037Y678436D02*
D03*
X612037D02*
D03*
X602037Y690436D02*
D03*
X612037D02*
D03*
X857037Y673436D02*
D03*
X847037D02*
D03*
X794037D02*
D03*
X804037D02*
D03*
X226037Y654436D02*
D03*
X236037D02*
D03*
X247037D02*
D03*
X257037D02*
D03*
X209037Y746436D02*
D03*
X199037D02*
D03*
X201037Y683436D02*
D03*
X211037D02*
D03*
X764037Y653436D02*
D03*
X774037D02*
D03*
D16*
X756037Y844436D02*
D03*
Y816436D02*
D03*
D17*
X392037Y618436D02*
D03*
X420037D02*
D03*
X392037Y598436D02*
D03*
X420037D02*
D03*
D18*
X335687Y606436D02*
D03*
X350387D02*
D03*
X317687Y823436D02*
D03*
X332387D02*
D03*
X596687Y739436D02*
D03*
X611387D02*
D03*
X595687Y705436D02*
D03*
X610387D02*
D03*
D19*
X517037Y757086D02*
D03*
Y771786D02*
D03*
D20*
X369087Y759436D02*
D03*
X356987D02*
D03*
X814087Y803436D02*
D03*
X801987D02*
D03*
X477087Y588436D02*
D03*
X464987D02*
D03*
X409087Y786436D02*
D03*
X396987D02*
D03*
X990987Y804436D02*
D03*
X1003087D02*
D03*
X1086987Y796436D02*
D03*
X1099087D02*
D03*
X1086987Y812436D02*
D03*
X1099087D02*
D03*
X1087987Y731436D02*
D03*
X1100087D02*
D03*
X1087987Y748436D02*
D03*
X1100087D02*
D03*
X1070087Y782436D02*
D03*
X1057987D02*
D03*
X512087Y742436D02*
D03*
X499987D02*
D03*
X504087Y756436D02*
D03*
X491987D02*
D03*
X499987Y728436D02*
D03*
X512087D02*
D03*
Y702436D02*
D03*
X499987D02*
D03*
Y687436D02*
D03*
X512087D02*
D03*
X607087Y721436D02*
D03*
X594987D02*
D03*
X330087Y838436D02*
D03*
X317987D02*
D03*
X321987Y808436D02*
D03*
X334087D02*
D03*
X348087Y591436D02*
D03*
X335987D02*
D03*
X339987Y621436D02*
D03*
X352087D02*
D03*
X687188Y699636D02*
D03*
X675088D02*
D03*
X687087Y727436D02*
D03*
X674987D02*
D03*
X687188Y713636D02*
D03*
X675088D02*
D03*
X687087Y685436D02*
D03*
X674987D02*
D03*
X256087Y717436D02*
D03*
X243987D02*
D03*
X214087Y654436D02*
D03*
X201987D02*
D03*
X234087Y764436D02*
D03*
X221987D02*
D03*
X234087Y749436D02*
D03*
X221987D02*
D03*
X210087Y764436D02*
D03*
X197987D02*
D03*
X221987Y682436D02*
D03*
X234087D02*
D03*
X197987Y668436D02*
D03*
X210087D02*
D03*
X234087D02*
D03*
X221987D02*
D03*
X328087Y637436D02*
D03*
X315987D02*
D03*
X1110987Y641936D02*
D03*
X1123087D02*
D03*
X885087Y651436D02*
D03*
X872987D02*
D03*
X1100987Y574436D02*
D03*
X1113087D02*
D03*
X1074087D02*
D03*
X1061987D02*
D03*
D21*
X883037Y787386D02*
D03*
Y799486D02*
D03*
X898037Y787386D02*
D03*
Y799486D02*
D03*
X865037Y821386D02*
D03*
Y833486D02*
D03*
X833037D02*
D03*
Y821386D02*
D03*
X883037Y775486D02*
D03*
Y763386D02*
D03*
X898037Y775486D02*
D03*
Y763386D02*
D03*
X848037Y833486D02*
D03*
Y821386D02*
D03*
X527037Y829886D02*
D03*
Y841986D02*
D03*
X562037Y770486D02*
D03*
Y758386D02*
D03*
X534037D02*
D03*
Y770486D02*
D03*
X530037Y678486D02*
D03*
Y666386D02*
D03*
X548037Y770486D02*
D03*
Y758386D02*
D03*
X576037Y770486D02*
D03*
Y758386D02*
D03*
X629037Y739486D02*
D03*
Y727386D02*
D03*
Y702386D02*
D03*
Y714486D02*
D03*
X499037Y644486D02*
D03*
Y632386D02*
D03*
X348037Y824486D02*
D03*
Y812386D02*
D03*
X366037Y606386D02*
D03*
Y618486D02*
D03*
X203037Y835486D02*
D03*
Y823386D02*
D03*
X203137Y609686D02*
D03*
Y597586D02*
D03*
X271037Y668486D02*
D03*
Y656386D02*
D03*
X307037Y755386D02*
D03*
Y767486D02*
D03*
X329037Y754386D02*
D03*
Y766486D02*
D03*
X286037Y668486D02*
D03*
Y656386D02*
D03*
X305037Y667486D02*
D03*
Y655386D02*
D03*
D22*
X252037Y750536D02*
D03*
Y768336D02*
D03*
Y689336D02*
D03*
Y671536D02*
D03*
D23*
X411037Y761436D02*
D03*
X451037D02*
D03*
X411037Y672436D02*
D03*
X451037D02*
D03*
D24*
X1057512Y802111D02*
D03*
Y807111D02*
D03*
X1072762D02*
D03*
Y802111D02*
D03*
D25*
X1057637Y812236D02*
D03*
X1062637D02*
D03*
X1067637D02*
D03*
X1072637D02*
D03*
Y796986D02*
D03*
X1067637D02*
D03*
X1062637D02*
D03*
X1057637D02*
D03*
D26*
X944037Y816736D02*
D03*
Y834136D02*
D03*
X971037Y752136D02*
D03*
Y734736D02*
D03*
X989037Y752136D02*
D03*
Y734736D02*
D03*
X953037Y752136D02*
D03*
Y734736D02*
D03*
D27*
X953037Y769436D02*
D03*
X958037D02*
D03*
X963037D02*
D03*
X968037D02*
D03*
X973037D02*
D03*
Y797436D02*
D03*
X968037D02*
D03*
X963037D02*
D03*
X958037D02*
D03*
X953037D02*
D03*
D28*
X963037Y783436D02*
D03*
D29*
X729037Y738436D02*
D03*
D30*
X714037Y762036D02*
D03*
X719037D02*
D03*
X724037D02*
D03*
X729037D02*
D03*
X734037D02*
D03*
X739037D02*
D03*
X744037D02*
D03*
Y714836D02*
D03*
X739037D02*
D03*
X734037D02*
D03*
X729037D02*
D03*
X724037D02*
D03*
X719037D02*
D03*
X714037D02*
D03*
D31*
X752637Y753436D02*
D03*
Y748436D02*
D03*
Y743436D02*
D03*
Y738436D02*
D03*
Y733436D02*
D03*
Y728436D02*
D03*
Y723436D02*
D03*
X705437D02*
D03*
Y728436D02*
D03*
Y733436D02*
D03*
Y738436D02*
D03*
Y743436D02*
D03*
Y748436D02*
D03*
Y753436D02*
D03*
D32*
X465137Y804886D02*
D03*
X457137D02*
D03*
X409137D02*
D03*
X401138D02*
D03*
D33*
X450638D02*
D03*
X415638D02*
D03*
X445638D02*
D03*
X420638D02*
D03*
X440638D02*
D03*
X425638D02*
D03*
X435638D02*
D03*
X430638D02*
D03*
D34*
X484238Y810636D02*
D03*
X382038D02*
D03*
X484238Y849936D02*
D03*
X382038D02*
D03*
D35*
X1074137Y743436D02*
D03*
Y738436D02*
D03*
Y733436D02*
D03*
X1055937Y743436D02*
D03*
Y738436D02*
D03*
Y733436D02*
D03*
D36*
X1072537Y750036D02*
D03*
X1057537D02*
D03*
X1067537D02*
D03*
X1062537D02*
D03*
X1072537Y726836D02*
D03*
X1057537D02*
D03*
X1067537D02*
D03*
X1062537D02*
D03*
D37*
X318037Y664186D02*
D03*
Y650686D02*
D03*
X328037D02*
D03*
Y664186D02*
D03*
D38*
X518537Y645936D02*
D03*
X535537D02*
D03*
Y632936D02*
D03*
X518537D02*
D03*
D39*
X249737Y823686D02*
D03*
X276337D02*
D03*
Y835186D02*
D03*
X249737D02*
D03*
Y598686D02*
D03*
X276337D02*
D03*
Y610186D02*
D03*
X249737D02*
D03*
D40*
X700037Y815436D02*
D03*
X713037D02*
D03*
X726037D02*
D03*
D41*
X687787Y849436D02*
D03*
X738287D02*
D03*
D42*
X652037Y791436D02*
D03*
Y804436D02*
D03*
Y817436D02*
D03*
D43*
X618037Y779186D02*
D03*
Y829686D02*
D03*
D44*
X212138Y700886D02*
D03*
Y730386D02*
D03*
D45*
X227388Y715636D02*
D03*
D46*
X506787Y808036D02*
D03*
D47*
X527287Y810036D02*
D03*
Y790836D02*
D03*
X506787D02*
D03*
D48*
X947537Y687936D02*
D03*
X966537D02*
D03*
X957037Y708936D02*
D03*
X904037D02*
D03*
X913537Y687936D02*
D03*
X894537D02*
D03*
X841537D02*
D03*
X860537D02*
D03*
X851037Y708936D02*
D03*
X799037D02*
D03*
X808537Y687936D02*
D03*
X789537D02*
D03*
D49*
X795537Y834936D02*
D03*
Y853936D02*
D03*
X774537Y844436D02*
D03*
X450537Y614436D02*
D03*
X471537Y623936D02*
D03*
Y604936D02*
D03*
D50*
X834537Y765311D02*
D03*
X839537D02*
D03*
X844537D02*
D03*
X849537D02*
D03*
X854537D02*
D03*
X859537D02*
D03*
Y803561D02*
D03*
X854537D02*
D03*
X849537D02*
D03*
X844537D02*
D03*
X839537D02*
D03*
X834537D02*
D03*
D51*
X827912Y796936D02*
D03*
Y791936D02*
D03*
Y786936D02*
D03*
Y781936D02*
D03*
Y776936D02*
D03*
Y771936D02*
D03*
X866162D02*
D03*
Y776936D02*
D03*
Y781936D02*
D03*
Y786936D02*
D03*
Y791936D02*
D03*
Y796936D02*
D03*
D52*
X847037Y784436D02*
D03*
D53*
X552037Y718436D02*
D03*
D54*
X534536Y741696D02*
D03*
X539538D02*
D03*
X544536D02*
D03*
X549538D02*
D03*
X554536D02*
D03*
X559538D02*
D03*
X564536D02*
D03*
X569538D02*
D03*
Y695286D02*
D03*
X564536D02*
D03*
X559538D02*
D03*
X554536D02*
D03*
X549538D02*
D03*
X544536D02*
D03*
X539538D02*
D03*
X534536D02*
D03*
D55*
X575187Y735936D02*
D03*
Y730935D02*
D03*
Y725936D02*
D03*
Y720935D02*
D03*
Y715936D02*
D03*
Y710935D02*
D03*
Y705936D02*
D03*
Y700935D02*
D03*
X528887D02*
D03*
Y705936D02*
D03*
Y710935D02*
D03*
Y715936D02*
D03*
Y720935D02*
D03*
Y725936D02*
D03*
Y730935D02*
D03*
D56*
Y735936D02*
D03*
D57*
X314537Y739936D02*
D03*
X309537D02*
D03*
X304537D02*
D03*
X299537D02*
D03*
X294537D02*
D03*
X289537D02*
D03*
X284537D02*
D03*
X279537D02*
D03*
Y690936D02*
D03*
X284537D02*
D03*
X289537D02*
D03*
X294537D02*
D03*
X299537D02*
D03*
X304537D02*
D03*
X309537D02*
D03*
X314537D02*
D03*
D58*
X272537Y732936D02*
D03*
Y727936D02*
D03*
Y722936D02*
D03*
Y717936D02*
D03*
Y712936D02*
D03*
Y707936D02*
D03*
Y702936D02*
D03*
Y697936D02*
D03*
X321537D02*
D03*
Y702936D02*
D03*
Y707936D02*
D03*
Y712936D02*
D03*
Y717936D02*
D03*
Y722936D02*
D03*
Y727936D02*
D03*
Y732936D02*
D03*
D59*
X297037Y715436D02*
D03*
D60*
X684037Y786936D02*
Y798936D01*
X682037Y784936D02*
X684037Y786936D01*
X664037Y784936D02*
X682037D01*
X659037Y789936D02*
X664037Y784936D01*
X652037Y804436D02*
X659037D01*
Y789936D02*
Y804436D01*
X889037Y745436D02*
Y753436D01*
Y745436D02*
X897037D01*
X869555Y745453D02*
X890037D01*
X897037Y745436D02*
X897037Y745436D01*
X391412Y618348D02*
Y625810D01*
X376037Y586936D02*
X391538Y571436D01*
X771037Y668435D02*
Y674936D01*
X785538Y699436D02*
X789638Y695336D01*
X763538Y699436D02*
X785538D01*
X747937Y715036D02*
X763538Y699436D01*
X543037Y660436D02*
Y667436D01*
Y660436D02*
X544037Y659436D01*
X548037D01*
X549037Y658436D01*
Y656436D02*
Y658436D01*
X525037Y653436D02*
Y654436D01*
Y653436D02*
X526037Y652436D01*
X535037D01*
X535537Y651936D01*
Y645936D02*
Y651936D01*
X438037Y585436D02*
X446037D01*
X388037Y717936D02*
Y759436D01*
X827149Y856436D02*
X983037D01*
X828537Y852436D02*
X980445D01*
X824037Y847935D02*
X828537Y852436D01*
X824037Y836436D02*
Y847935D01*
X815497Y827896D02*
X824037Y836436D01*
X820497Y837896D02*
Y849783D01*
X814037Y831436D02*
X820497Y837896D01*
X806037Y831436D02*
X814037D01*
X783037Y808436D02*
X806037Y831436D01*
X807497Y827896D02*
X815497D01*
X763037Y808436D02*
X783037D01*
X820497Y849783D02*
X827149Y856436D01*
X908037Y837436D02*
X926037D01*
X795137Y835136D02*
Y840335D01*
X604038Y640435D02*
Y646936D01*
X1090037Y827436D02*
X1105037D01*
X1082037Y819436D02*
X1090037Y827436D01*
X1105037D02*
X1112037Y820436D01*
X1076037Y819436D02*
X1082037D01*
X1073037Y816436D02*
X1076037Y819436D01*
X1073037Y812635D02*
Y816436D01*
X1112037Y787844D02*
Y820436D01*
X1072637Y812236D02*
X1073037Y812635D01*
X1079037Y823436D02*
X1089037Y833436D01*
X1072037Y823436D02*
X1079037D01*
X1067637Y812236D02*
Y819036D01*
X1072037Y823436D01*
X1064037Y831436D02*
X1076037D01*
X1058001Y782450D02*
Y790325D01*
X1009037Y718436D02*
Y736436D01*
X875137Y697636D02*
Y711436D01*
X823037Y697436D02*
Y711436D01*
X304638Y690036D02*
X305037Y690436D01*
X317537Y690936D02*
X345037Y663435D01*
X314537Y690936D02*
X317537D01*
X358704Y638102D02*
Y638436D01*
X822037Y727436D02*
Y743936D01*
X822037Y723436D02*
Y727436D01*
X797037Y720436D02*
X819037D01*
X822037Y723436D01*
X1024037Y737236D02*
X1032297D01*
X822055Y776953D02*
X828014D01*
X800037Y742436D02*
Y743935D01*
X817038Y771936D02*
X822055Y776953D01*
X739137Y707836D02*
Y715036D01*
X575037Y705936D02*
X578037D01*
X592037Y690436D02*
X602037D01*
X587407Y677505D02*
Y682065D01*
X574537Y694936D02*
X587407Y682065D01*
X569358Y694936D02*
X574537D01*
X564536Y690437D02*
Y694925D01*
X559538Y689436D02*
X565037Y683936D01*
X559538Y689436D02*
Y694925D01*
X554248Y694637D02*
X554536Y694925D01*
X1006038Y673936D02*
Y715436D01*
X991038Y673936D02*
Y706436D01*
X869037Y747936D02*
Y749936D01*
X867078Y751896D02*
X869037Y749936D01*
X859078Y751896D02*
X867078D01*
X842038Y746545D02*
X842647Y745936D01*
X842038Y746545D02*
Y754436D01*
X947037Y711436D02*
X954537D01*
X388037Y637936D02*
Y646436D01*
X345037Y639436D02*
Y646936D01*
X900037Y666936D02*
X903037Y663936D01*
X900037Y666936D02*
Y670936D01*
X335788Y606436D02*
Y606636D01*
X335687Y591736D02*
Y606436D01*
X1023037Y744436D02*
Y756436D01*
X1015037Y660936D02*
Y736436D01*
X973037Y656936D02*
X1011037D01*
X1015037Y660936D01*
X1006038Y715436D02*
X1009037Y718436D01*
X991037Y779436D02*
X991037Y779436D01*
X991037Y779436D02*
Y790436D01*
X944037Y816736D02*
X959337D01*
X960037Y827436D02*
X972037D01*
X966038Y813436D02*
Y826935D01*
X963037Y804935D02*
X975537Y817436D01*
X963037Y797436D02*
Y804935D01*
X958037Y805436D02*
X966038Y813436D01*
X958037Y797436D02*
Y805436D01*
X971037Y805436D02*
X975037D01*
X968037Y802436D02*
X971037Y805436D01*
X968037Y797436D02*
Y802436D01*
X859537Y756936D02*
Y764986D01*
X854537Y756436D02*
X859078Y751896D01*
X854537Y756436D02*
Y764986D01*
X844537Y756936D02*
Y764986D01*
X842038Y754436D02*
X844537Y756936D01*
X839537Y758435D02*
Y764986D01*
X837038Y755936D02*
X839537Y758435D01*
X812038Y786936D02*
X827587D01*
X279037Y647436D02*
Y667436D01*
X274882Y643281D02*
X279037Y647436D01*
X260192Y643281D02*
X274882D01*
X257037Y646435D02*
X260192Y643281D01*
X283312Y671711D02*
X286287Y668736D01*
X285117Y667906D02*
X286037D01*
X279037Y667436D02*
X280087Y668486D01*
X286037D01*
X747738Y793136D02*
X763037Y808436D01*
X604038Y647999D02*
Y662435D01*
X599598Y666875D02*
X604038Y662435D01*
X588037Y666875D02*
X599598D01*
X587476Y667436D02*
X588037Y666875D01*
X587407Y667505D02*
X587476Y667436D01*
X587037D02*
X587476D01*
X451037Y672436D02*
Y708435D01*
Y650936D02*
Y672436D01*
X345037Y648936D02*
Y663435D01*
X336519Y687455D02*
X344037Y679936D01*
X591037Y645936D02*
Y646936D01*
X816837Y697636D02*
X822138D01*
X805337Y709136D02*
X816837Y697636D01*
X799137Y709136D02*
X805337D01*
X791537Y710936D02*
X799037D01*
X786037Y716436D02*
X791537Y710936D01*
X793837Y723636D02*
X797037Y720436D01*
X379537Y705435D02*
X380037Y705936D01*
X289637Y740136D02*
Y753536D01*
X1034037Y780936D02*
X1035038Y779936D01*
X1034037Y816936D02*
X1034037Y816936D01*
Y824936D01*
X411037Y650903D02*
Y672436D01*
X391412Y598348D02*
X402450D01*
X379537Y692436D02*
Y705435D01*
X346537Y741436D02*
X347038Y741936D01*
Y753936D01*
Y812486D02*
X348138Y813586D01*
X332487Y824636D02*
X347088D01*
X332487Y811486D02*
Y824636D01*
X317787D02*
Y838736D01*
X303738Y824636D02*
X317787D01*
X292038Y812936D02*
X303738Y824636D01*
X253037Y812936D02*
X292038D01*
X249737Y816236D02*
X253037Y812936D01*
X434412Y603348D02*
X442625D01*
X440731Y615629D02*
Y622274D01*
X439450Y614348D02*
X440731Y615629D01*
X434412Y614348D02*
X439450D01*
X562038Y646936D02*
X595037Y613936D01*
X791037Y765936D02*
X807038D01*
X786037Y770936D02*
X791037Y765936D01*
X817038Y781936D02*
X828037D01*
X811464Y776362D02*
X817038Y781936D01*
X811464Y774453D02*
Y776362D01*
Y770362D02*
Y774453D01*
X807038Y765936D02*
X811464Y770362D01*
X831105Y765003D02*
X834964D01*
X815038Y748936D02*
X831105Y765003D01*
X972038Y655936D02*
X973037Y656936D01*
X952038Y662936D02*
Y671936D01*
X733037Y775936D02*
X738037D01*
X729137Y772036D02*
X733037Y775936D01*
X729137Y762236D02*
Y772036D01*
X805038Y838936D02*
X807038D01*
X802038Y835936D02*
X805038Y838936D01*
X795938Y835936D02*
X802038D01*
X795137Y835136D02*
X795938Y835936D01*
X820020Y791953D02*
X828014D01*
X785037Y787936D02*
Y788936D01*
X812038Y786936D02*
Y791936D01*
X829037Y744936D02*
Y751936D01*
X824037Y745936D02*
X828037D01*
X822037Y743936D02*
X824037Y745936D01*
X842647D02*
X847037D01*
X849037Y743936D01*
Y724936D02*
Y743936D01*
Y724936D02*
X852038Y721936D01*
Y710936D02*
Y721936D01*
X829037Y751936D02*
X833037Y755936D01*
X837038D01*
X1067038Y751936D02*
Y754936D01*
X1069637Y757536D01*
Y762236D01*
X1045537D02*
X1057837D01*
X983538Y790436D02*
X989537D01*
X989538Y767936D02*
X990038Y768436D01*
X979538Y767936D02*
X989538D01*
X977679Y769794D02*
X979538Y767936D01*
X973551Y769794D02*
X977679D01*
X576037Y678936D02*
Y682936D01*
X574038Y684936D02*
X576037Y682936D01*
Y661999D02*
Y667936D01*
Y661999D02*
X590037Y647999D01*
X576037Y678936D02*
X577038Y677936D01*
X561974Y647999D02*
X562038D01*
X350488Y606636D02*
X364337D01*
X352037Y606936D02*
Y621486D01*
X352188Y621636D01*
X364337Y606636D02*
X365037Y605936D01*
X490940Y715838D02*
X528238D01*
X483636Y720837D02*
X528238D01*
X421037Y592436D02*
X433537D01*
X419538Y593936D02*
X421037Y592436D01*
X419538Y593936D02*
Y598436D01*
X419412Y598348D02*
Y618348D01*
Y598310D02*
Y598348D01*
Y598310D02*
X419538Y598436D01*
X471538Y600436D02*
Y603936D01*
Y600436D02*
X477188Y594786D01*
Y588636D02*
Y594786D01*
X369038Y675936D02*
X371138Y673836D01*
Y668636D02*
Y673836D01*
X371838Y679936D02*
X383137Y668636D01*
X344037Y679936D02*
X371838D01*
X325137Y649886D02*
X332987D01*
X334038Y650936D01*
X1062637Y812236D02*
Y829131D01*
X1063544Y830038D01*
X1057637Y812236D02*
Y818336D01*
X1052037Y823936D02*
X1057637Y818336D01*
X1052037Y823936D02*
Y830038D01*
X1044037Y805052D02*
Y816936D01*
X1054088Y796986D02*
X1057637D01*
X1050140Y793038D02*
X1054088Y796986D01*
X1044052Y793038D02*
X1050140D01*
X1044037Y780936D02*
Y793024D01*
X1044052Y793038D01*
X1042297Y749236D02*
X1046157D01*
X1052157Y743236D01*
X1055537D01*
X1043297Y738236D02*
X1055537D01*
X1050337Y733236D02*
X1055537D01*
X1058001Y790325D02*
X1059037Y791361D01*
X1049137Y732036D02*
X1050337Y733236D01*
X1042297Y725236D02*
X1047337D01*
X1049137Y727036D01*
Y732036D01*
X1049387Y713286D02*
Y721286D01*
X1054737Y726636D01*
X1057137D01*
X1036637Y711236D02*
X1049387D01*
X1072137Y726636D02*
X1076338D01*
X1087637Y715336D01*
Y711236D02*
Y715336D01*
X856804Y673636D02*
Y678169D01*
X822037Y713936D02*
X822138Y713836D01*
X744137Y715036D02*
X747937D01*
X719137Y707036D02*
Y715036D01*
Y707036D02*
X720237Y705936D01*
X727038D01*
X729137Y703836D01*
Y698636D02*
Y703836D01*
X714137Y706836D02*
Y715036D01*
Y706836D02*
X718138Y702836D01*
Y698636D02*
Y702836D01*
X707137Y698636D02*
X718137D01*
X718138Y698636D01*
X875137Y666636D02*
X882337D01*
X883037Y665936D01*
X554408Y655566D02*
Y669505D01*
Y655566D02*
X561974Y647999D01*
X565407Y659566D02*
Y669505D01*
Y659566D02*
X576037Y648936D01*
X366037Y618986D02*
X372987D01*
X272638Y686336D02*
Y698136D01*
X569249Y694827D02*
X569358Y694936D01*
X869037Y745971D02*
X869555Y745453D01*
X417037Y760436D02*
X420037Y757436D01*
X411037Y760436D02*
X417037D01*
X867037Y668436D02*
Y678436D01*
X440037Y761436D02*
X451037D01*
X451037Y761436D01*
X709037Y831436D02*
X713037Y835436D01*
X698037Y831436D02*
X709037D01*
X747738Y775936D02*
X752537D01*
X756037Y779436D01*
X747738Y788936D02*
Y793136D01*
X272638Y686336D02*
X283312Y675661D01*
Y671711D02*
Y675661D01*
X332038Y686435D02*
X342537Y675936D01*
X369038D01*
X328465Y685007D02*
X344837Y668636D01*
X359137D01*
X330537Y671936D02*
X334038Y668435D01*
Y650936D02*
Y668435D01*
X257037Y646435D02*
Y653936D01*
X289637Y753536D02*
X294037Y757935D01*
Y776436D01*
X347038Y803936D02*
Y812486D01*
X402450Y598348D02*
X403037Y598936D01*
X376037Y586936D02*
Y615936D01*
X372987Y618986D02*
X376037Y615936D01*
X328037Y640935D02*
Y646986D01*
X325137Y649886D02*
X328037Y646986D01*
X815038Y744936D02*
Y748936D01*
X806037Y743436D02*
X808037Y745436D01*
X815037D01*
X770037Y742436D02*
X782037Y730436D01*
X321537Y727936D02*
X332537D01*
X336519Y723954D01*
Y687455D02*
Y723954D01*
X321537Y722936D02*
X330537D01*
X332038Y721435D01*
Y686435D02*
Y721435D01*
X321537Y717936D02*
X327037D01*
X328465Y716507D01*
Y685007D02*
Y716507D01*
X1026896Y683436D02*
X1035037D01*
X1035038Y673436D02*
Y682936D01*
X1050037Y672436D02*
Y683936D01*
X1029037Y693436D02*
X1040037D01*
X1048037Y685436D01*
X1050037Y671436D02*
X1061037D01*
X294037Y776436D02*
X299037Y781436D01*
X366037D01*
X337538Y591436D02*
X339037Y589936D01*
X335987Y591436D02*
X337538D01*
X1062137Y711236D02*
Y726636D01*
X464037Y641436D02*
Y721436D01*
X459038Y645936D02*
Y711435D01*
X395767Y672166D02*
X400037Y676436D01*
Y705936D01*
X388037Y717936D02*
X400037Y705936D01*
X471538Y605436D02*
Y610935D01*
X789037Y738897D02*
X801295Y751155D01*
X801276Y751174D02*
X817038Y766936D01*
Y771936D01*
X657037Y679436D02*
Y708436D01*
X782037Y716436D02*
X786037D01*
X752738Y723636D02*
X793837D01*
X782037Y729436D02*
Y730436D01*
X829037Y728436D02*
Y735436D01*
X832037Y694436D02*
Y725436D01*
X829037Y728436D02*
X832037Y725436D01*
X823037Y682436D02*
X826037Y679436D01*
X823037Y682436D02*
Y686436D01*
Y687436D02*
X830037D01*
X832037Y689436D01*
Y694436D01*
X372037Y654436D02*
X373037Y653436D01*
Y650436D02*
Y653436D01*
X372037Y654436D02*
Y659436D01*
X384037Y655436D02*
Y659436D01*
Y655436D02*
X385037Y654436D01*
X387037D01*
X388037Y653436D01*
Y650436D02*
Y653436D01*
X360037Y655436D02*
Y659436D01*
X359037Y650436D02*
Y654436D01*
X358037Y649436D02*
X359037Y650436D01*
Y654436D02*
X360037Y655436D01*
X358704Y638436D02*
Y647436D01*
X373037Y639436D02*
Y647436D01*
X479037Y749436D02*
X502647D01*
X504087Y750876D01*
Y756436D01*
X347038Y803936D02*
X360038Y790936D01*
X373537D01*
X398037Y766435D01*
X402037Y735936D02*
X468537D01*
X398037Y739935D02*
X402037Y735936D01*
X398037Y739935D02*
Y766435D01*
X612037Y690436D02*
X617537D01*
X957537Y577936D02*
X959037Y579436D01*
X670537Y577936D02*
X957537D01*
X1059037Y791361D02*
X1062500D01*
X1032037Y719437D02*
Y725436D01*
X411037Y650903D02*
X417505Y644436D01*
X753538Y682935D02*
X761537Y674936D01*
X771037D01*
X841837Y663936D02*
X846804Y668903D01*
X771037Y668435D02*
X775537Y663936D01*
X841837D01*
X713037Y835436D02*
Y860936D01*
X716037Y863936D01*
X779537D01*
X782037Y861436D01*
Y853436D02*
X795137Y840335D01*
X782037Y853436D02*
Y861436D01*
X601038Y576936D02*
X601537D01*
X617537Y690436D02*
X628037Y679936D01*
X724037Y762036D02*
Y779936D01*
X730537Y786436D01*
X738037D01*
X756037Y779436D02*
Y794436D01*
X765537Y803936D01*
X783537D01*
X807497Y827896D01*
X1033537Y793936D02*
X1034037Y793436D01*
X1035038Y773936D02*
Y779936D01*
X1015037Y736436D02*
X1023037Y744436D01*
X1024872Y793436D02*
X1034037D01*
X1023949Y794359D02*
X1024372Y793936D01*
X1024872Y793436D01*
X1025415Y804936D02*
X1033537D01*
X1034037Y805436D01*
X657037Y679436D02*
X674037Y662436D01*
X690037D01*
X704037Y648436D01*
X675537Y671936D02*
X725537D01*
X729037Y675436D01*
X1044037Y805052D02*
X1046096Y807111D01*
X729037Y675436D02*
Y680436D01*
Y688436D01*
X826037Y679436D02*
X832037D01*
X334987Y592436D02*
X335987Y591436D01*
X491037Y576436D02*
Y618665D01*
X391538Y571436D02*
X486037D01*
X491037Y576436D01*
X446037Y595436D02*
X448037Y597436D01*
Y613936D01*
X442538Y603436D02*
X442625Y603348D01*
X442537Y603436D02*
X442538D01*
X440731Y622274D02*
X442393Y623936D01*
X443037D01*
X445638Y804886D02*
Y812274D01*
X447172Y813809D01*
X445037Y820198D02*
X447172Y818063D01*
X445037Y820198D02*
Y823936D01*
X447172Y813809D02*
Y818063D01*
X504037Y826936D02*
Y835436D01*
X362037Y812936D02*
Y827436D01*
X896037Y708936D02*
X904037D01*
X559538Y689435D02*
Y689436D01*
Y689435D02*
X565037Y683935D01*
Y678936D02*
Y683935D01*
X574037Y684936D02*
X574038Y684936D01*
X571037Y684936D02*
X574037D01*
X570038D02*
X571037D01*
X554037Y677936D02*
Y679801D01*
X554248Y686725D02*
X556037Y684936D01*
X564536Y690437D02*
X570038Y684936D01*
X554248Y686725D02*
Y694637D01*
X598037Y678436D02*
X602037D01*
X580038Y700935D02*
X581497Y699476D01*
Y694976D02*
Y699476D01*
Y694976D02*
X598037Y678436D01*
X575187Y700935D02*
X580038D01*
X585037Y697436D02*
X592037Y690436D01*
X575547Y705936D02*
X580036D01*
X585037Y700936D01*
Y697436D02*
Y700936D01*
X651037Y702936D02*
X653037Y700936D01*
Y668436D02*
Y700936D01*
X628037Y615936D02*
Y679936D01*
X640537Y597436D02*
X1037037D01*
X628037Y615936D02*
X642537Y601436D01*
X1029537D01*
X1030672Y602571D01*
X734537Y605936D02*
X1053537D01*
X731037Y609436D02*
X734537Y605936D01*
X731037Y609436D02*
Y614436D01*
X1061402Y602571D02*
X1061537Y602436D01*
X1030672Y602571D02*
X1061402D01*
X1133537Y651436D02*
X1156037Y673936D01*
Y763436D01*
X1144902Y681301D02*
Y754979D01*
X1030536Y717936D02*
X1032037Y719437D01*
X1026537Y717936D02*
X1030536D01*
X1026537Y712936D02*
Y717936D01*
X1019537Y690794D02*
X1026896Y683436D01*
X1019537Y690794D02*
Y732936D01*
X1023837Y737236D01*
X1023902Y698571D02*
Y710301D01*
Y698571D02*
X1029037Y693436D01*
X1023902Y710301D02*
X1026537Y712936D01*
X1009037Y736436D02*
X1018037Y745436D01*
Y821436D01*
X983037Y856436D02*
X1018037Y821436D01*
X1013537Y746936D02*
Y819344D01*
X980445Y852436D02*
X1013537Y819344D01*
X1046096Y807111D02*
X1057512D01*
X1023037Y756436D02*
X1030037Y763436D01*
X1044538D01*
X1046038Y761936D01*
X1071037Y669436D02*
Y682936D01*
X1074537Y686436D01*
X1084037D01*
X1086038Y684436D02*
X1088037Y686436D01*
X1084037D02*
Y692936D01*
X1088037Y696936D01*
Y701436D01*
X604038Y640435D02*
X608037Y636436D01*
X604037Y582936D02*
Y632936D01*
X591037Y645936D02*
X604037Y632936D01*
X599537Y578436D02*
X601038Y576936D01*
X599537Y578436D02*
Y624436D01*
X576037Y647936D02*
X599537Y624436D01*
X595037Y573936D02*
Y613936D01*
X694537Y827936D02*
X698037Y831436D01*
X848037Y686936D02*
X856804Y678169D01*
X848037Y686936D02*
Y694936D01*
X851037Y697936D01*
Y706936D01*
X851037Y708936D02*
X851037Y708936D01*
X868337Y697636D02*
X875137D01*
X851037Y708936D02*
X857038D01*
X868337Y697636D01*
X468537Y735936D02*
X483636Y720837D01*
X832037Y652436D02*
X851037D01*
X867037Y668436D01*
X802037Y728436D02*
Y732936D01*
X806037Y736936D01*
Y743436D01*
X600173Y568801D02*
X661402D01*
X595037Y573936D02*
X600173Y568801D01*
X661402D02*
X670537Y577936D01*
X604037Y582936D02*
X613038Y573936D01*
X655037D01*
X1118537Y800936D02*
X1156037Y763436D01*
X1089037Y833436D02*
X1108537D01*
X1118537Y823436D01*
Y800936D02*
Y823436D01*
X849537Y755436D02*
X856037Y748936D01*
Y745436D02*
Y748936D01*
X849537Y755436D02*
Y765311D01*
X859537Y756936D02*
X861307Y755166D01*
X868432D01*
X870662Y752936D01*
X874931D01*
X800037Y743935D02*
X820571Y764469D01*
X824037Y771936D02*
X827912D01*
X820571Y768469D02*
X824037Y771936D01*
X827912Y771953D02*
X828014D01*
X820571Y764469D02*
Y768469D01*
X816038Y795936D02*
X820020Y791953D01*
X777037Y795936D02*
X816038D01*
X785037Y788936D02*
X788727Y792626D01*
X789444D01*
X789484Y792666D01*
X811307D01*
X812038Y791936D01*
X770037Y742436D02*
Y788936D01*
X777037Y795936D01*
X415622Y813521D02*
X421037Y818936D01*
Y824936D01*
X415622Y804901D02*
X415638Y804886D01*
X415622Y804901D02*
Y813521D01*
X612037Y678436D02*
X619537D01*
X624767Y673206D01*
Y613206D02*
X640537Y597436D01*
X624767Y613206D02*
Y673206D01*
X476672Y633030D02*
X491037Y618665D01*
X476672Y633030D02*
Y701570D01*
X490940Y715838D01*
X309537Y685436D02*
Y690936D01*
Y685436D02*
X314537Y680436D01*
X319037D01*
X306037Y665986D02*
X315537D01*
X304638Y684335D02*
Y690036D01*
Y684335D02*
X317037Y671936D01*
X330537D01*
X299637Y689036D02*
X300037Y689436D01*
X299637Y684335D02*
Y689036D01*
X306037Y665986D02*
Y677936D01*
X299637Y684335D02*
X306037Y677936D01*
X680037Y622436D02*
X1063537D01*
X1098537Y657436D01*
X1121037D01*
X1053537Y605936D02*
X1099037Y651436D01*
X1133537D01*
X372204Y638436D02*
X372371Y638269D01*
X372204Y638436D02*
X373037D01*
X1031537Y673936D02*
X1034037Y671436D01*
X1025037Y673936D02*
X1031537D01*
X1023037Y650936D02*
X1024672Y652571D01*
X1054172D01*
X1071037Y669436D01*
X1067537Y720436D02*
X1069037Y718936D01*
X1067537Y720436D02*
Y726836D01*
X1075037Y711436D02*
Y718936D01*
X1069037D02*
X1075037D01*
X753538Y682935D02*
Y693436D01*
X739137Y707836D02*
X753538Y693436D01*
X737036Y654937D02*
Y702435D01*
Y654937D02*
X742038Y649936D01*
X439037Y647436D02*
Y650936D01*
X436037Y644436D02*
X439037Y647436D01*
X417505Y644436D02*
X436037D01*
X424037Y721436D02*
X439037Y706436D01*
Y650936D02*
Y706436D01*
X441537Y717936D02*
Y721436D01*
Y717936D02*
X451037Y708435D01*
X452787Y717686D02*
Y721436D01*
Y717686D02*
X459038Y711435D01*
X366037Y781436D02*
X388037Y759436D01*
X950062Y679911D02*
X952037Y677936D01*
X949062Y679911D02*
X950062D01*
X947637Y681335D02*
X949062Y679911D01*
X952037Y673436D02*
Y677936D01*
X947637Y681335D02*
Y688136D01*
X894537Y680436D02*
Y687936D01*
Y680436D02*
X895037Y679936D01*
X898037D02*
X899037Y678936D01*
X894971Y687936D02*
Y688136D01*
X895037Y679936D02*
X898037D01*
X899037Y673936D02*
Y678936D01*
X899471Y673636D02*
Y673936D01*
X875037Y687436D02*
X879537D01*
X881537Y689436D01*
X886037D01*
X841537Y680436D02*
Y687936D01*
Y680436D02*
X842037Y679936D01*
X846037D02*
X847037Y678936D01*
Y673936D02*
Y678936D01*
X842304Y687936D02*
Y688136D01*
X842037Y679936D02*
X846037D01*
X846804Y668903D02*
Y673436D01*
X789537Y680436D02*
Y687936D01*
Y680436D02*
X790037Y679936D01*
X793037D02*
X794037Y678936D01*
X789638Y687936D02*
Y695336D01*
X790037Y679936D02*
X793037D01*
X794037Y673936D02*
Y678936D01*
X794137Y673636D02*
Y673936D01*
X754037Y649436D02*
Y652936D01*
X756037Y654936D01*
X764037D01*
X774037D02*
X776038Y652936D01*
X782537D01*
X783037Y652436D01*
X651037Y702936D02*
Y718936D01*
X543037Y679936D02*
Y681936D01*
X544536Y683435D01*
Y694925D01*
X552037Y679436D02*
X554037Y677436D01*
X549942Y679436D02*
X552037D01*
X548442Y680936D02*
X549942Y679436D01*
X553910Y679801D02*
X554037D01*
X548442Y683840D02*
X549538Y684936D01*
X548442Y680936D02*
Y683840D01*
X549538Y684936D02*
Y695286D01*
X458537Y623936D02*
X471538Y610935D01*
X443037Y623936D02*
X458537D01*
X403037Y598936D02*
Y624936D01*
X412037Y633936D01*
X456537D01*
X464037Y641436D01*
X391412Y625810D02*
X404537Y638936D01*
X452037D01*
X459038Y645936D01*
X629787Y578936D02*
X630537Y579686D01*
X608037Y583936D02*
Y636436D01*
Y583936D02*
X613037Y578936D01*
X629787D01*
X548037Y655436D02*
X549037Y656436D01*
X525037Y654436D02*
X526037Y655436D01*
X548037D01*
X662172Y685301D02*
X675537Y671936D01*
X662172Y685301D02*
Y716571D01*
X991038Y706436D02*
X1003037Y718436D01*
Y736436D01*
X1013537Y746936D01*
X1112037Y787844D02*
X1144902Y754979D01*
X1121037Y657436D02*
X1144902Y681301D01*
X249737Y594236D02*
Y598686D01*
Y594236D02*
X251537Y592436D01*
X334987D01*
X694537Y751936D02*
Y827936D01*
X687087Y727436D02*
Y733886D01*
X680402Y740571D02*
X687087Y733886D01*
X671537Y649936D02*
X679037D01*
X653037Y668436D02*
X671537Y649936D01*
X667037Y735936D02*
X671672Y740571D01*
X680402D01*
X662172Y716571D02*
X667037Y721436D01*
X651037Y718936D02*
X661037Y728936D01*
X661038D01*
X667037Y721436D02*
Y735936D01*
X425638Y804886D02*
Y811835D01*
X425037Y812436D02*
Y819936D01*
Y812436D02*
X425638Y811835D01*
X425037Y819936D02*
X427037Y821936D01*
X434037D01*
X435638Y813036D02*
X436037Y813436D01*
X435638Y804886D02*
Y813036D01*
X434037Y821936D02*
X436037Y819936D01*
Y813436D02*
Y819936D01*
D61*
X906537Y735436D02*
X907037Y734936D01*
X897037Y735436D02*
X906537D01*
X499267Y567436D02*
Y589436D01*
X499137Y624536D02*
Y632586D01*
X399317Y578436D02*
X413037D01*
X236037Y654436D02*
X246538D01*
X587037Y771436D02*
X603037Y755436D01*
X1108037Y689436D02*
X1114037D01*
X1118037Y693436D02*
Y706436D01*
X1114037Y689436D02*
X1118037Y693436D01*
Y726436D02*
X1127037D01*
X1133037Y720436D01*
X687188Y685536D02*
Y699636D01*
X694237D01*
X705437Y743436D02*
X718037D01*
X797037Y854436D02*
X802037D01*
X797037D02*
X798037Y853436D01*
X802037Y854436D02*
X806037Y850436D01*
X810037D01*
X1081935Y797038D02*
X1087001D01*
X854037Y691436D02*
X859037D01*
X808037Y683436D02*
X809037Y682436D01*
X582037Y783436D02*
X587037Y778436D01*
Y771436D02*
Y778436D01*
X705937Y687436D02*
X707137Y688636D01*
X690388Y687436D02*
X705937D01*
X329037Y754386D02*
Y754436D01*
Y734436D02*
Y754386D01*
X327537Y732936D02*
X329037Y734436D01*
X321537Y732936D02*
X327537D01*
X284638Y703136D02*
X289437Y707936D01*
X346037Y692936D02*
Y704436D01*
X815037Y728436D02*
Y735436D01*
X538037Y686936D02*
X539538Y688436D01*
Y694925D01*
X256087Y717436D02*
Y726386D01*
X252037Y741436D02*
Y750536D01*
Y741436D02*
X263037Y730436D01*
Y725436D02*
Y730436D01*
Y725436D02*
X265537Y722936D01*
X272537D01*
X256587Y717936D02*
X272537D01*
X208037Y762386D02*
X210087Y764436D01*
X208037Y756436D02*
Y762386D01*
X207037Y755436D02*
X208037Y756436D01*
X202537Y755436D02*
X207037D01*
X200138Y753036D02*
X202537Y755436D01*
X204037Y691936D02*
Y698436D01*
X201037Y688936D02*
X204037Y691936D01*
X201037Y683436D02*
Y688936D01*
X210087Y668436D02*
X221987D01*
X211037Y669386D02*
Y683436D01*
X234087Y668436D02*
Y682436D01*
Y668436D02*
X248937D01*
X285137Y680436D02*
X287037D01*
X279537Y686036D02*
X285137Y680436D01*
X279537Y686036D02*
Y690936D01*
X978396Y797794D02*
X985037Y804436D01*
X990987D01*
X975537Y817436D02*
X982538D01*
X844537Y803886D02*
Y811435D01*
X849537Y803886D02*
Y807936D01*
X833464Y821386D02*
Y821403D01*
X227037Y739436D02*
X229037Y737435D01*
X211037Y739436D02*
X227037D01*
X209037Y741436D02*
X211037Y739436D01*
X209037Y741436D02*
Y746436D01*
X229037Y717286D02*
Y737435D01*
X193738Y746636D02*
X200138D01*
Y753036D01*
X214037Y754436D02*
X216537Y751936D01*
X219487D01*
X221987Y749436D01*
X197987Y764436D02*
Y774386D01*
X210087Y764436D02*
X221987D01*
X234087Y749436D02*
Y764436D01*
X248137D01*
X290037Y636436D02*
X294037Y640436D01*
X308037Y637436D02*
X315987D01*
X305037Y645436D02*
Y652386D01*
X254037Y636436D02*
X290037D01*
X271037Y648436D02*
Y656386D01*
X286037Y648436D02*
Y656386D01*
X214087Y654436D02*
X226037D01*
X484238Y810636D02*
X484438Y810436D01*
X276337Y598686D02*
X284787D01*
X276337Y610186D02*
X283287D01*
X297037Y629436D02*
X375037D01*
X1099087Y796436D02*
X1106037D01*
X1099087Y812436D02*
X1106037D01*
X1082037D02*
X1086987D01*
X1076712Y807111D02*
X1082037Y812436D01*
X1072762Y807111D02*
X1076712D01*
X1067037Y849436D02*
X1073037D01*
X1064037Y846436D02*
X1067037Y849436D01*
X1064037Y841436D02*
Y846436D01*
X1044037Y841436D02*
X1052037D01*
X1034037Y757436D02*
X1035037D01*
X1032037Y755436D02*
X1034037Y757436D01*
X1032037Y749436D02*
Y755436D01*
X1029037Y701436D02*
X1029037Y701436D01*
X792038Y776936D02*
X794037Y774936D01*
Y775083D01*
X794464Y775509D01*
X369038Y759486D02*
X369188Y759636D01*
X575158Y752056D02*
Y757995D01*
X573037Y749936D02*
X575158Y752056D01*
X620037Y726936D02*
X620096Y726994D01*
X628408D01*
X613929Y721044D02*
X614038Y720936D01*
X606457Y721044D02*
X613929D01*
X517731Y703045D02*
X519938Y700837D01*
X512207Y703045D02*
X517731D01*
X519938Y700837D02*
X528238D01*
X687188Y715636D02*
Y726636D01*
X792038Y776936D02*
Y783936D01*
X794555Y786453D01*
X801464D01*
X794464Y775509D02*
X801464D01*
X973551Y797794D02*
X978396D01*
X1000551Y769949D02*
Y779545D01*
X857038Y831509D02*
X859031Y833503D01*
X848037Y814936D02*
Y818936D01*
X844964Y811862D02*
X848037Y814936D01*
X859031Y833503D02*
X865464D01*
X249237Y609686D02*
X249737Y610186D01*
X227388Y715636D02*
X229037Y717286D01*
X1072762Y802111D02*
X1076862D01*
X1081935Y797038D01*
X1073737Y733236D02*
X1078837D01*
X1080837Y731236D01*
X1086587D01*
X1072137Y749836D02*
X1079137D01*
X1080738Y748236D01*
X1086587D01*
X1073737Y743236D02*
X1078937D01*
X1081837Y740336D01*
Y739936D02*
Y740336D01*
X1073737Y738236D02*
X1080137D01*
X1081837Y739936D01*
X499137Y644686D02*
X517188D01*
X518638Y633136D02*
Y646136D01*
X212138Y700886D02*
Y730386D01*
X575259Y715838D02*
X586135D01*
X249237Y834686D02*
X249737Y835186D01*
X849537Y807936D02*
X857038Y815436D01*
Y831509D01*
X194537Y653936D02*
X201987D01*
X265037Y685435D02*
X271037Y679436D01*
X247037Y643435D02*
Y653936D01*
X271037Y669086D02*
X272218Y667906D01*
X271037Y669086D02*
Y679436D01*
X247037Y643435D02*
X254037Y636436D01*
X369038Y744435D02*
Y759486D01*
Y744435D02*
X372037Y741436D01*
X379537D01*
X382037Y590436D02*
X394037Y578436D01*
X399317D01*
X575259Y735838D02*
Y740658D01*
X620037Y714936D02*
X628249D01*
X913971Y681369D02*
Y688136D01*
X909471Y676869D02*
X913971Y681369D01*
X909471Y673636D02*
Y676869D01*
X962137Y673636D02*
Y678536D01*
X966637Y683036D01*
Y688136D01*
X534037Y758386D02*
X534428Y757995D01*
X534536Y757886D01*
X875037Y676436D02*
X881037D01*
X884037Y679436D01*
X1075037Y695436D02*
Y701436D01*
X305037Y767486D02*
X307037Y769486D01*
X531037Y757995D02*
X533158D01*
X534248Y756904D01*
X533158Y757995D02*
X534428D01*
X203137Y834686D02*
Y835486D01*
X375037Y566436D02*
X375077Y566396D01*
X498037D01*
X512087Y742436D02*
Y748486D01*
X514037Y750436D01*
Y754086D01*
X517037Y757086D01*
X1133037Y694436D02*
Y720436D01*
X243987Y717436D02*
Y726436D01*
X255847Y710246D02*
X262847D01*
X265537Y712936D01*
X272537D01*
X250037Y694436D02*
X253037Y691436D01*
X250037Y694436D02*
Y704436D01*
X255847Y710246D01*
X260037Y702436D02*
X260537Y702936D01*
X266537D02*
X272537D01*
X275037Y629436D02*
X297037D01*
X193037D02*
X238037D01*
X275037D01*
X646037Y660436D02*
X661037Y645436D01*
X1076037Y841436D02*
X1076537Y840936D01*
X1083037D01*
X629037Y739486D02*
X636987D01*
X1110037Y682436D02*
X1121037D01*
X1133037Y694436D01*
X564536Y741696D02*
Y745858D01*
X568614Y749936D01*
X573037D01*
X530037Y684936D02*
X532037Y686936D01*
X530037Y678486D02*
Y684936D01*
X532037Y686936D02*
X538037D01*
X526887Y695286D02*
X534536D01*
Y697935D01*
X490037Y644436D02*
X499037D01*
X381037Y591436D02*
X382037Y590436D01*
X381037Y591436D02*
Y620436D01*
X375037Y629436D02*
X381037Y623436D01*
Y620436D02*
Y623436D01*
X504037Y847436D02*
X510037D01*
X687188Y726636D02*
X688987Y728436D01*
X705437D01*
X705037Y710436D02*
Y714936D01*
Y722836D01*
X694237Y699636D02*
X705037Y710436D01*
X661037Y645436D02*
X664037D01*
X629037Y689436D02*
Y702386D01*
X798037Y853435D02*
X798037Y853436D01*
X798037Y846435D02*
Y853435D01*
X839537Y803886D02*
Y809129D01*
X833037Y815630D02*
X839537Y809129D01*
X833037Y815630D02*
Y821386D01*
X522037Y686936D02*
Y690436D01*
X526887Y695286D01*
X189037Y659436D02*
X194537Y653936D01*
X189037Y659436D02*
Y741935D01*
X193738Y746636D01*
X559538Y755886D02*
X562037Y758386D01*
X1062037Y634436D02*
X1110037Y682436D01*
X640077Y657396D02*
Y736396D01*
X636987Y739486D02*
X640077Y736396D01*
X629037Y689436D02*
X635037Y683436D01*
Y653936D02*
Y683436D01*
Y653936D02*
X654537Y634436D01*
X586135Y715838D02*
X587037Y714936D01*
Y713936D02*
Y714936D01*
X294037Y640436D02*
Y673436D01*
X287037Y680436D02*
X294037Y673436D01*
X654537Y634436D02*
X1062037D01*
X1070101Y783038D02*
Y788000D01*
X1072637Y790536D01*
Y796986D01*
X413037Y578436D02*
X428537D01*
X430037Y576936D01*
X482037D02*
X482537Y577436D01*
X430037Y576936D02*
X482037D01*
X260537Y702936D02*
X266537D01*
X265037Y685435D02*
Y702936D01*
X512087Y728436D02*
X517537D01*
X520037Y730935D01*
Y733436D01*
X522538Y735936D01*
X528887D01*
X804037Y677436D02*
X809037Y682436D01*
X804037Y673436D02*
Y677436D01*
X636787Y779186D02*
X637037Y779436D01*
X640077Y657396D02*
X658497Y638976D01*
X1057577D01*
X1108037Y689436D01*
X646037Y660436D02*
Y732436D01*
X654037Y738436D02*
Y748436D01*
X603037Y755436D02*
X647037D01*
X654037Y748436D01*
D62*
X884037Y725936D02*
X910938D01*
X916037Y731035D02*
Y743936D01*
X910938Y725936D02*
X916037Y731035D01*
X907037Y752936D02*
X916037Y743936D01*
X883037Y726936D02*
X884037Y725936D01*
X883037Y726936D02*
Y735436D01*
X297037Y748436D02*
X299537Y745936D01*
Y739936D02*
Y745936D01*
X294537D02*
X297037Y748436D01*
X294537Y739936D02*
Y745936D01*
X272537Y727936D02*
X284537D01*
X289437Y707936D02*
X289537D01*
X272537D02*
X289437D01*
X284537Y690936D02*
Y702936D01*
X1062637Y791498D02*
Y796986D01*
X1062500Y791361D02*
X1062637Y791498D01*
X1067637Y793036D02*
Y796986D01*
X1065962Y791361D02*
X1067637Y793036D01*
X1062500Y791361D02*
X1065962D01*
X1057512Y802111D02*
X1062712D01*
X1065037Y804436D01*
X554536Y741696D02*
Y748437D01*
X553037Y749936D02*
X554536Y748437D01*
X530037Y798666D02*
X590307D01*
X528683Y801936D02*
X591661D01*
X590307Y798666D02*
X599037Y789936D01*
Y771581D02*
Y789936D01*
X591661Y801936D02*
X602307Y791290D01*
Y772936D02*
Y791290D01*
Y772936D02*
X606307Y768936D01*
X599037Y771581D02*
X604953Y765666D01*
X435638Y797760D02*
Y804886D01*
X448192Y785206D02*
X505307D01*
X435638Y797760D02*
X448192Y785206D01*
X505307D02*
X506787Y786686D01*
Y790836D01*
Y795686D02*
X509037Y797936D01*
X506787Y790836D02*
Y795686D01*
X509037Y797936D02*
X524683D01*
X528683Y801936D01*
X694537Y738436D02*
X705337D01*
X705437D01*
X430638Y798136D02*
Y804886D01*
Y798136D02*
X446838Y781936D01*
X511037D01*
X519937Y790836D01*
X527287D01*
X527037Y791086D02*
Y795666D01*
Y791086D02*
X527287Y790836D01*
X527037Y795666D02*
X530037Y798666D01*
X694913Y733436D02*
X705437D01*
X606307Y768936D02*
X664037D01*
X604953Y765666D02*
X662683D01*
X664037Y768936D02*
X694537Y738436D01*
X662683Y765666D02*
X694913Y733436D01*
D63*
X499537Y590436D02*
Y622436D01*
X203137Y609686D02*
X249237D01*
X575158Y757995D02*
X575216Y757936D01*
X203137Y834686D02*
X249237D01*
X1087987Y748436D02*
Y757386D01*
X1026037Y661436D02*
X1035037D01*
X1050037D01*
X203037Y835486D02*
Y843436D01*
X203137Y609686D02*
Y617335D01*
X203037Y617436D02*
X203137Y617335D01*
X674987Y727436D02*
Y735436D01*
X718037Y681436D02*
Y688436D01*
X595037Y721486D02*
Y728936D01*
X594987Y721436D02*
X595037Y721486D01*
X1087987Y722486D02*
Y731436D01*
Y722486D02*
X1088037Y722436D01*
X575216Y757936D02*
X587038D01*
D64*
X457037Y588436D02*
X464987D01*
X1100087Y722486D02*
Y731436D01*
Y748436D02*
Y757386D01*
X675088Y685536D02*
Y699636D01*
X521987Y666386D02*
X530037D01*
X848037Y833486D02*
Y840436D01*
X833037Y833486D02*
Y840436D01*
X794037Y803436D02*
X801987D01*
X870037Y728436D02*
Y735436D01*
X856037Y728436D02*
Y735436D01*
X842037Y728436D02*
Y735436D01*
X861037Y651436D02*
X872987D01*
X885087D02*
X895037D01*
X491737Y857436D02*
X504037D01*
X313037Y808436D02*
X321987D01*
X276337Y835186D02*
X284787D01*
X330087Y838436D02*
X338037D01*
X203137Y589536D02*
Y597586D01*
X333037Y621436D02*
X339987D01*
X535638D02*
Y633136D01*
X913971Y688136D02*
X920737D01*
X966637D02*
X973737D01*
X1061987Y574436D02*
Y583436D01*
X1113087Y574436D02*
X1124037D01*
X1123087Y641936D02*
X1132087D01*
X1049037Y694436D02*
Y701436D01*
X356987Y759436D02*
Y768386D01*
X357037Y768436D01*
X348087Y591436D02*
X356037D01*
X361037D01*
X376037Y576436D01*
Y567436D02*
Y576436D01*
X618037Y779186D02*
X636787D01*
X617037Y829436D02*
Y837436D01*
X731037Y846436D02*
X735037D01*
X736037Y847436D01*
X689037Y846436D02*
X695037D01*
X471037Y625436D02*
Y631436D01*
Y625436D02*
X472037Y624436D01*
X492037Y742436D02*
X499037D01*
X492037Y727436D02*
X498037D01*
X512087Y742436D02*
X519037D01*
X276337Y823686D02*
X285337D01*
X517487Y661886D02*
X521987Y666386D01*
X517337Y661886D02*
X517487D01*
X805537Y692936D02*
X807037Y691436D01*
X799037Y692936D02*
X805537D01*
X1099037Y642436D02*
X1110488D01*
X409137Y788986D02*
Y804886D01*
D65*
X314537Y739936D02*
X319537D01*
X562037Y751936D02*
Y758386D01*
X559538Y749436D02*
X562037Y751936D01*
X559538Y741696D02*
Y749436D01*
X575187Y720935D02*
X594486D01*
X594987Y721436D01*
X583038Y725936D02*
X585037Y727936D01*
Y737936D01*
X586537Y739436D01*
X596687D01*
X575187Y725936D02*
X583038D01*
X575187Y710935D02*
X581038D01*
X586037Y705936D01*
X595187D01*
X595687Y705436D01*
D66*
X307037Y755386D02*
X317037D01*
X1087001Y786936D02*
Y797038D01*
X1086987Y797053D02*
Y812436D01*
X1057987Y774486D02*
Y782436D01*
X989037Y725436D02*
Y734736D01*
X971037Y725436D02*
Y734736D01*
X953037Y725436D02*
Y734736D01*
X1001037Y790436D02*
X1007037D01*
X984037Y827436D02*
Y834436D01*
X944037Y834136D02*
Y843436D01*
X898037Y799486D02*
Y807436D01*
X883037Y799486D02*
Y807436D01*
X898037Y756436D02*
Y763386D01*
X882037Y756436D02*
Y763386D01*
X401138Y795436D02*
Y804886D01*
X389037Y786436D02*
X396987D01*
X534037Y770486D02*
Y778436D01*
X548037Y770486D02*
Y778436D01*
X562037Y770486D02*
Y778436D01*
X329037Y754386D02*
X337987D01*
X338037Y754436D01*
X329037Y766486D02*
Y775436D01*
X221987Y682436D02*
Y690436D01*
X1003087Y804436D02*
Y813386D01*
X782037Y829436D02*
X782037Y829436D01*
Y820436D02*
Y829436D01*
X1062037Y701436D02*
X1075037D01*
X1029037D02*
X1036037D01*
X512207Y689044D02*
Y703045D01*
Y710265D01*
X369188Y759636D02*
Y768586D01*
X534428Y757995D02*
X547158D01*
X307037Y769486D02*
Y775436D01*
X504087Y765486D02*
X510037Y771436D01*
X516037D01*
X504087Y756436D02*
Y765486D01*
X203037Y815436D02*
Y823386D01*
X499987Y687436D02*
Y702436D01*
X498487Y703936D02*
X499987Y702436D01*
X489037Y703936D02*
X498487D01*
X514037Y826936D02*
Y835436D01*
X527037Y841986D02*
X535987D01*
X465137Y796036D02*
Y805886D01*
X669737Y713636D02*
X675088D01*
X668037Y711936D02*
X669737Y713636D01*
X668037Y705936D02*
Y711936D01*
X669337Y699636D02*
X675088D01*
X668037Y700936D02*
X669337Y699636D01*
X668037Y700936D02*
Y705936D01*
X668037Y705936D01*
X195037Y671386D02*
Y676436D01*
Y671386D02*
X197987Y668436D01*
X576037Y770486D02*
Y778436D01*
X362037Y837436D02*
Y845936D01*
X535987Y841986D02*
X536037Y841936D01*
D67*
X249737Y816236D02*
Y823686D01*
X705337Y738436D02*
X705537Y738636D01*
D68*
X620037Y702936D02*
X627038D01*
X616929Y706044D02*
X620037Y702936D01*
X610757Y706044D02*
X616929D01*
X534536Y741946D02*
Y757886D01*
X517037Y771786D02*
X517387Y771436D01*
X524037D01*
X526037Y760436D02*
Y769436D01*
Y760436D02*
X527037Y759436D01*
X531037D01*
X524037Y771436D02*
X526037Y769436D01*
X611387Y739936D02*
X629038D01*
X415037Y830936D02*
X450037D01*
X454037Y826936D01*
X457137Y804886D02*
Y809576D01*
X454037Y812676D02*
X457137Y809576D01*
X454037Y812676D02*
Y826936D01*
X409137Y804886D02*
Y810283D01*
X411488Y812633D01*
Y827386D01*
X415037Y830936D01*
D69*
X749037Y816936D02*
X766038D01*
X771037Y821936D01*
X736038Y803936D02*
X749037Y816936D01*
X717038Y803936D02*
X736038D01*
X713138Y807836D02*
X717038Y803936D01*
X713138Y807836D02*
Y815636D01*
X747037Y841936D02*
X750038Y844936D01*
X747037Y828936D02*
Y841936D01*
X733737Y815636D02*
X747037Y828936D01*
X750038Y844936D02*
X775038D01*
X726137Y815636D02*
X733737D01*
D70*
X1000551Y755449D02*
Y769949D01*
X1000037Y754936D02*
X1000551Y755449D01*
D71*
X924037Y752495D02*
X953037D01*
D72*
X527037Y817436D02*
Y828936D01*
Y811936D02*
Y817436D01*
D73*
X430537Y804986D02*
X430638Y804886D01*
X430537Y804986D02*
Y816436D01*
X440638Y804886D02*
Y814536D01*
X442037Y815936D01*
D74*
X649537Y788936D02*
D03*
D75*
X432037Y847686D02*
D03*
D76*
X484737Y829936D02*
D03*
X382537D02*
D03*
D77*
X999537Y752186D02*
D03*
D78*
X1087537Y574436D02*
D03*
D79*
X307037Y743936D02*
D03*
D80*
X506037Y811936D02*
D03*
D81*
X462038Y815636D02*
D03*
X404238D02*
D03*
D82*
X1118037Y706436D02*
D03*
D83*
Y726436D02*
D03*
D84*
X941037Y758936D02*
D03*
X931037D02*
D03*
X652037Y784936D02*
D03*
X644037D02*
D03*
Y791936D02*
D03*
X684037Y798936D02*
D03*
X674037Y793936D02*
D03*
X665037D02*
D03*
Y801936D02*
D03*
X674037D02*
D03*
X889037Y753436D02*
D03*
X498037Y567436D02*
D03*
X413037Y578436D02*
D03*
X798037Y647436D02*
D03*
X724037D02*
D03*
X541037Y749936D02*
D03*
X414037Y716436D02*
D03*
X430037Y704436D02*
D03*
X485037Y661936D02*
D03*
X392037Y704436D02*
D03*
X857837Y569436D02*
D03*
X959037Y579436D02*
D03*
X985037Y569436D02*
D03*
X326037Y586936D02*
D03*
X337037Y640436D02*
D03*
X380537Y640936D02*
D03*
X438037Y585436D02*
D03*
X457037Y588436D02*
D03*
X375037Y566436D02*
D03*
X372037Y866436D02*
D03*
X432037Y727936D02*
D03*
X394037Y729436D02*
D03*
X629037Y593436D02*
D03*
X756037Y588436D02*
D03*
X934037Y589436D02*
D03*
X985037Y588436D02*
D03*
Y612436D02*
D03*
X934037D02*
D03*
X858037Y611436D02*
D03*
X617037Y837436D02*
D03*
X608037Y749436D02*
D03*
X1099037Y704436D02*
D03*
X1100037Y722436D02*
D03*
Y757436D02*
D03*
X1119037Y770436D02*
D03*
X1139037Y702436D02*
D03*
X1111037Y672936D02*
D03*
X991037Y647436D02*
D03*
X958037D02*
D03*
X912037D02*
D03*
X853037D02*
D03*
X1033037D02*
D03*
X1066537Y656436D02*
D03*
X681037Y569436D02*
D03*
X680037Y622436D02*
D03*
X1037037Y597436D02*
D03*
X320037Y740436D02*
D03*
X317037Y755436D02*
D03*
X848037Y841436D02*
D03*
X833037D02*
D03*
X794037Y802436D02*
D03*
X1138037Y749436D02*
D03*
X1119037Y791436D02*
D03*
X1140037Y665936D02*
D03*
X1132087Y641936D02*
D03*
X1058037Y774436D02*
D03*
X989037Y725436D02*
D03*
X971037D02*
D03*
X953037D02*
D03*
X999537Y748436D02*
D03*
X1006537D02*
D03*
Y755436D02*
D03*
X1008037Y790436D02*
D03*
X984037Y834436D02*
D03*
X944037Y843436D02*
D03*
X898037Y807436D02*
D03*
X883037D02*
D03*
X882037Y756436D02*
D03*
X870037Y728436D02*
D03*
X856037D02*
D03*
X842037D02*
D03*
X861037Y651436D02*
D03*
X896037D02*
D03*
X854037Y691436D02*
D03*
X582037Y783436D02*
D03*
X401037Y795436D02*
D03*
X389037Y786436D02*
D03*
X534037Y778436D02*
D03*
X548037D02*
D03*
X562037D02*
D03*
X338037Y754436D02*
D03*
X319037Y680436D02*
D03*
X754037Y649436D02*
D03*
X346037Y704436D02*
D03*
X802037Y728436D02*
D03*
X815037D02*
D03*
X800037Y742436D02*
D03*
X512207Y710265D02*
D03*
X947037Y711436D02*
D03*
X388037Y637936D02*
D03*
X373037Y638436D02*
D03*
X358704D02*
D03*
X345037Y637936D02*
D03*
X256037Y726436D02*
D03*
X244037D02*
D03*
X484037Y601936D02*
D03*
X484037Y617436D02*
D03*
X471037Y631436D02*
D03*
X482037Y644436D02*
D03*
X1003037Y813436D02*
D03*
X214037Y754436D02*
D03*
X198037Y774436D02*
D03*
X222037Y690436D02*
D03*
X339537Y656436D02*
D03*
X308037Y637436D02*
D03*
X305037Y645436D02*
D03*
X313037Y808436D02*
D03*
X285037Y835436D02*
D03*
X338037Y838436D02*
D03*
X284037Y598436D02*
D03*
Y609436D02*
D03*
X203037Y589436D02*
D03*
X333037Y621436D02*
D03*
X782037Y829436D02*
D03*
X903037Y663936D02*
D03*
X1106037Y796436D02*
D03*
Y812436D02*
D03*
X1073037Y849436D02*
D03*
X1044037Y841436D02*
D03*
X1035037Y757436D02*
D03*
X1029037Y701436D02*
D03*
X704037Y649936D02*
D03*
X395767Y672166D02*
D03*
X380037Y705936D02*
D03*
X535537Y621436D02*
D03*
X499037Y622436D02*
D03*
X783037Y652436D02*
D03*
X794037Y774936D02*
D03*
X553037Y749936D02*
D03*
X620037Y714936D02*
D03*
Y726936D02*
D03*
X614038Y720936D02*
D03*
X1034037Y824936D02*
D03*
X1062037Y718936D02*
D03*
X347038Y753936D02*
D03*
X820537Y819436D02*
D03*
X451037Y650936D02*
D03*
X972038Y655936D02*
D03*
X952038Y662936D02*
D03*
X873037Y760436D02*
D03*
X983538Y790436D02*
D03*
X975037Y805436D02*
D03*
X1087001Y786936D02*
D03*
X1081837Y739936D02*
D03*
X883037Y665936D02*
D03*
X420037Y757436D02*
D03*
X424037Y721436D02*
D03*
X867037Y678436D02*
D03*
X832037Y652436D02*
D03*
X440037Y761436D02*
D03*
X844964Y811862D02*
D03*
X271037Y648436D02*
D03*
X286037D02*
D03*
X297037Y748436D02*
D03*
X329037Y775436D02*
D03*
X369188Y768586D02*
D03*
X297037Y629436D02*
D03*
X193037D02*
D03*
X212037Y568936D02*
D03*
X252037D02*
D03*
X292037D02*
D03*
X399317Y578436D02*
D03*
X382037Y590436D02*
D03*
Y604436D02*
D03*
X492037Y742436D02*
D03*
X577037D02*
D03*
X921037Y688436D02*
D03*
X974037D02*
D03*
X898037Y756436D02*
D03*
X731037Y569436D02*
D03*
X934037D02*
D03*
X1036037D02*
D03*
X1086037Y578436D02*
D03*
Y570436D02*
D03*
X1062037Y583436D02*
D03*
X1124037Y574436D02*
D03*
X884037Y679436D02*
D03*
X1088037Y757436D02*
D03*
X1075037Y695436D02*
D03*
X1049037Y694436D02*
D03*
X1026037Y661436D02*
D03*
X1061037Y671436D02*
D03*
X363037Y723436D02*
D03*
X307037Y775436D02*
D03*
X357037Y768436D02*
D03*
X1150037Y739436D02*
D03*
X653037Y626936D02*
D03*
X382037Y794436D02*
D03*
X432037Y742436D02*
D03*
X430037Y769436D02*
D03*
X502037Y817436D02*
D03*
X510037D02*
D03*
X991037Y695436D02*
D03*
X1006037Y682436D02*
D03*
X203037Y815436D02*
D03*
Y843436D02*
D03*
Y617436D02*
D03*
X356037Y591436D02*
D03*
X499037Y589436D02*
D03*
X487037Y632436D02*
D03*
X514037Y826936D02*
D03*
X695037Y846436D02*
D03*
X731037D02*
D03*
X993037Y864436D02*
D03*
X956037D02*
D03*
X616437Y641936D02*
D03*
X464037Y721436D02*
D03*
X349037Y789436D02*
D03*
X470537Y703436D02*
D03*
X481037Y715436D02*
D03*
X471037Y725436D02*
D03*
X474037Y739436D02*
D03*
X492037Y727436D02*
D03*
X519037Y742436D02*
D03*
X635537Y643436D02*
D03*
X955037Y783436D02*
D03*
X963037Y787936D02*
D03*
Y778936D02*
D03*
X971037Y783436D02*
D03*
X717037Y750436D02*
D03*
X741037D02*
D03*
Y726436D02*
D03*
X717037D02*
D03*
X729036Y738435D02*
D03*
X260037Y702436D02*
D03*
X247037Y735436D02*
D03*
X275037Y629436D02*
D03*
X238037D02*
D03*
X285337Y823686D02*
D03*
X657037Y708436D02*
D03*
X674987Y735436D02*
D03*
X782037Y716436D02*
D03*
Y729436D02*
D03*
X886037Y689436D02*
D03*
X832037Y694436D02*
D03*
X398037Y652436D02*
D03*
X217537Y780936D02*
D03*
X237037D02*
D03*
X269537Y780436D02*
D03*
X194037Y800436D02*
D03*
X193037Y842936D02*
D03*
X292037Y864436D02*
D03*
X261704D02*
D03*
X1130037D02*
D03*
X1073037Y865436D02*
D03*
X1173037Y801435D02*
D03*
Y772769D02*
D03*
Y744102D02*
D03*
Y715436D02*
D03*
Y686769D02*
D03*
Y658102D02*
D03*
Y629436D02*
D03*
X586037Y567436D02*
D03*
X542037D02*
D03*
X530037Y586436D02*
D03*
X193037Y594936D02*
D03*
X233037Y700936D02*
D03*
X1083037Y840936D02*
D03*
X452787Y721436D02*
D03*
X917037Y783936D02*
D03*
X896037Y845936D02*
D03*
X936037Y735936D02*
D03*
X907037Y734936D02*
D03*
X792037Y752936D02*
D03*
X212037Y639936D02*
D03*
X201037Y715936D02*
D03*
X712037Y774436D02*
D03*
X704037Y801936D02*
D03*
X775537Y774436D02*
D03*
X776537Y745436D02*
D03*
X428537Y650936D02*
D03*
X240537Y826936D02*
D03*
X276537Y806936D02*
D03*
X531037Y867436D02*
D03*
X607537D02*
D03*
X601537Y576936D02*
D03*
X630537Y579686D02*
D03*
X1035038Y773936D02*
D03*
X1024037Y737436D02*
D03*
X1024372Y793936D02*
D03*
X1025415Y804936D02*
D03*
X847037Y773436D02*
D03*
X858037Y784436D02*
D03*
X836037D02*
D03*
X847037D02*
D03*
Y795436D02*
D03*
X538248Y686723D02*
D03*
X297036Y715436D02*
D03*
X310037Y702436D02*
D03*
Y728436D02*
D03*
X294187Y728386D02*
D03*
X294087Y702236D02*
D03*
X517337Y661886D02*
D03*
X470037Y679436D02*
D03*
X490037Y644436D02*
D03*
X483037Y679436D02*
D03*
X718037Y680936D02*
D03*
X729037Y680436D02*
D03*
X832037Y679436D02*
D03*
X489037Y703936D02*
D03*
X381037Y620436D02*
D03*
X482537Y577436D02*
D03*
X442537Y603436D02*
D03*
X443037Y623936D02*
D03*
X441537Y721436D02*
D03*
X920037Y814436D02*
D03*
X445037Y823936D02*
D03*
X421037Y824936D02*
D03*
X511037Y847436D02*
D03*
X504037Y826936D02*
D03*
X362037Y812936D02*
D03*
X705037Y714936D02*
D03*
X896037Y708936D02*
D03*
X799037Y692936D02*
D03*
X571037Y684936D02*
D03*
X556037D02*
D03*
X595037Y728936D02*
D03*
X668037Y705936D02*
D03*
X664037Y647436D02*
D03*
X756037Y628436D02*
D03*
X805037Y616936D02*
D03*
X858037Y628436D02*
D03*
X959037D02*
D03*
X934037D02*
D03*
X1099037Y642436D02*
D03*
X731037Y614436D02*
D03*
X1061537Y602436D02*
D03*
X1088037Y722436D02*
D03*
X1026537Y717936D02*
D03*
X1065037Y804436D02*
D03*
X1079037Y669436D02*
D03*
X910037Y628436D02*
D03*
X798037Y846435D02*
D03*
X874931Y752936D02*
D03*
X907037Y752936D02*
D03*
X522037Y686936D02*
D03*
X646037Y684936D02*
D03*
X195037Y676436D02*
D03*
X986037Y627936D02*
D03*
X655037Y573936D02*
D03*
X865537Y760436D02*
D03*
X870537Y767436D02*
D03*
X999537Y755436D02*
D03*
X936037Y748936D02*
D03*
X448537Y794436D02*
D03*
X587037Y713936D02*
D03*
X300037Y676436D02*
D03*
X1025037Y673936D02*
D03*
X1023037Y649936D02*
D03*
X1075037Y718936D02*
D03*
X789037Y738897D02*
D03*
X737036Y702435D02*
D03*
X742038Y649936D02*
D03*
X439037Y650936D02*
D03*
X576037Y778436D02*
D03*
X215037Y864936D02*
D03*
X362037Y845936D02*
D03*
X843037Y866936D02*
D03*
X593037Y781936D02*
D03*
X587038Y757936D02*
D03*
X384037Y772436D02*
D03*
X384037Y677936D02*
D03*
X694537Y751936D02*
D03*
X527037Y817436D02*
D03*
X465037Y795936D02*
D03*
X637037Y779436D02*
D03*
X536037Y841936D02*
D03*
X418537Y790436D02*
D03*
Y782436D02*
D03*
X425537Y790436D02*
D03*
X679037Y649936D02*
D03*
X646037Y732436D02*
D03*
X654037Y738436D02*
D03*
Y758936D02*
D03*
X638037Y749436D02*
D03*
X661038Y728936D02*
D03*
X430537Y816436D02*
D03*
X442037Y815936D02*
D03*
D85*
X540037Y730436D02*
D03*
X564037D02*
D03*
X541128Y707526D02*
D03*
X552036Y718435D02*
D03*
X564037Y706436D02*
D03*
M02*
