G04*
G04 #@! TF.GenerationSoftware,Altium Limited,CircuitStudio,1.5.2 (30)*
G04*
G04 Layer_Physical_Order=4*
G04 Layer_Color=12500520*
%FSLAX44Y44*%
%MOMM*%
G71*
G01*
G75*
%ADD10C,1.0000*%
%ADD60C,0.1270*%
%ADD61C,0.2540*%
%ADD63C,0.4000*%
%ADD64C,0.6000*%
%ADD66C,0.5000*%
%ADD72C,0.8000*%
%ADD73C,0.1780*%
%ADD81C,0.6500*%
%ADD82C,1.3080*%
%ADD83R,1.3080X1.3080*%
%ADD84C,0.5000*%
%ADD85C,0.6000*%
%ADD86R,1.9000X0.6000*%
%ADD87R,2.8000X2.1000*%
%ADD88R,1.2700X1.6000*%
%ADD89C,1.3000*%
%ADD90C,1.0000*%
%ADD91C,1.2000*%
%ADD92R,2.0000X1.6000*%
%ADD93R,1.2000X1.1000*%
%ADD94R,1.4000X1.5000*%
%ADD95R,1.2677X1.3744*%
%ADD96R,1.5000X1.3500*%
%ADD97R,2.7000X1.4000*%
%ADD98R,1.2000X1.3000*%
%ADD99R,1.6500X1.5000*%
G36*
X725331Y682989D02*
X724798Y682191D01*
X724449Y680436D01*
X724798Y678680D01*
X725665Y677383D01*
X725448Y676638D01*
X725121Y676113D01*
X673784D01*
X673659Y677383D01*
X673870Y677424D01*
X674576Y677896D01*
X680939Y684259D01*
X724652D01*
X725331Y682989D01*
D02*
G37*
G36*
X534206Y688774D02*
X534009Y688479D01*
X533660Y686723D01*
X534009Y684968D01*
X535003Y683479D01*
X535896Y682883D01*
X535511Y681612D01*
X500439D01*
X496966Y685086D01*
X497452Y686259D01*
X512037D01*
X512870Y686424D01*
X513576Y686896D01*
X516574Y689894D01*
X533607D01*
X534206Y688774D01*
D02*
G37*
G36*
X869498Y687896D02*
X869921Y687614D01*
X870204Y687424D01*
X871037Y687259D01*
X882079D01*
X882793Y686191D01*
X884281Y685197D01*
X884037Y684024D01*
X882281Y683674D01*
X880793Y682680D01*
X879798Y681191D01*
X879449Y679436D01*
X879798Y677680D01*
X880665Y676383D01*
X880448Y675638D01*
X880121Y675113D01*
X871756D01*
X871077Y676383D01*
X871276Y676680D01*
X871625Y678436D01*
X871276Y680191D01*
X870281Y681680D01*
X868793Y682674D01*
X867037Y683024D01*
X865281Y682674D01*
X863793Y681680D01*
X863080Y680612D01*
X860677D01*
X850814Y690475D01*
X850108Y690947D01*
X849275Y691113D01*
X836756D01*
X836077Y692383D01*
X836276Y692680D01*
X836625Y694436D01*
X836890Y694759D01*
X862635D01*
X869498Y687896D01*
D02*
G37*
G36*
X779267Y654894D02*
X778798Y654191D01*
X778449Y652436D01*
X778798Y650680D01*
X779049Y650304D01*
X779026Y650269D01*
X778860Y649436D01*
Y574436D01*
X779026Y573603D01*
X779498Y572896D01*
X783298Y569097D01*
X783721Y568814D01*
X784004Y568625D01*
X784837Y568459D01*
X784989D01*
X785887Y567561D01*
Y564784D01*
X785887Y564136D01*
X784874Y563514D01*
X784874Y563514D01*
X778200D01*
X777187Y564136D01*
X777187Y564784D01*
Y584136D01*
X776412D01*
X775830Y585406D01*
X776485Y586986D01*
X776755Y589036D01*
X776485Y591085D01*
X775694Y592994D01*
X774436Y594634D01*
X772796Y595893D01*
X770886Y596684D01*
X768837Y596953D01*
X766788Y596684D01*
X764878Y595893D01*
X763238Y594634D01*
X761980Y592994D01*
X761189Y591085D01*
X760919Y589036D01*
X761189Y586986D01*
X761844Y585406D01*
X761262Y584136D01*
X760487D01*
Y564784D01*
X760487Y564136D01*
X759474Y563514D01*
X759474Y563514D01*
X727400D01*
X726387Y564136D01*
X726387Y564784D01*
Y584136D01*
X725612D01*
X725030Y585406D01*
X725685Y586986D01*
X725955Y589036D01*
X725685Y591085D01*
X724894Y592994D01*
X723636Y594634D01*
X721996Y595893D01*
X720086Y596684D01*
X718037Y596953D01*
X715988Y596684D01*
X714078Y595893D01*
X712438Y594634D01*
X711180Y592994D01*
X710389Y591085D01*
X710119Y589036D01*
X710389Y586986D01*
X711044Y585406D01*
X710462Y584136D01*
X709687D01*
Y575024D01*
X708514Y574538D01*
X706214Y576838D01*
Y645978D01*
X707281Y646691D01*
X708276Y648180D01*
X708625Y649936D01*
X708289Y651624D01*
X708282Y651847D01*
X708932Y652894D01*
X737142D01*
X737793Y651847D01*
X737785Y651624D01*
X737449Y649936D01*
X737799Y648180D01*
X738793Y646691D01*
X739861Y645978D01*
Y639336D01*
X735087D01*
Y619336D01*
X735562D01*
X736173Y618194D01*
X735793Y617463D01*
X734492Y617365D01*
X734281Y617680D01*
X733214Y618393D01*
Y626936D01*
X733048Y627769D01*
X732812Y628122D01*
X732576Y628475D01*
X730576Y630475D01*
X729870Y630947D01*
X729037Y631113D01*
X726387D01*
Y639336D01*
X709687D01*
Y619336D01*
X710462D01*
X711044Y618066D01*
X710389Y616485D01*
X710119Y614436D01*
X710389Y612386D01*
X711180Y610477D01*
X712438Y608837D01*
X714078Y607579D01*
X715988Y606788D01*
X718037Y606518D01*
X720086Y606788D01*
X721996Y607579D01*
X723636Y608837D01*
X724894Y610477D01*
X725646Y612292D01*
X725947Y612393D01*
X726971Y612422D01*
X727793Y611191D01*
X729281Y610197D01*
X731037Y609847D01*
X732793Y610197D01*
X734281Y611191D01*
X734669Y611772D01*
X736102Y611631D01*
X736580Y610477D01*
X737838Y608837D01*
X739478Y607579D01*
X741388Y606788D01*
X743437Y606518D01*
X745486Y606788D01*
X747396Y607579D01*
X749036Y608837D01*
X750294Y610477D01*
X751085Y612386D01*
X751355Y614436D01*
X751085Y616485D01*
X750430Y618066D01*
X751012Y619336D01*
X751787D01*
Y639336D01*
X744214D01*
Y645978D01*
X745282Y646691D01*
X746277Y648180D01*
X746626Y649936D01*
X746393Y651104D01*
X747213Y652355D01*
X747954Y652440D01*
X749699Y650695D01*
X749449Y649436D01*
X749798Y647680D01*
X750793Y646191D01*
X752281Y645197D01*
X754037Y644847D01*
X755793Y645197D01*
X757281Y646191D01*
X758276Y647680D01*
X758625Y649436D01*
X758276Y651191D01*
X757281Y652680D01*
X755793Y653674D01*
X754037Y654024D01*
X752778Y653773D01*
X751561Y654990D01*
X752047Y656164D01*
X778589D01*
X779267Y654894D01*
D02*
G37*
G36*
X572706Y667336D02*
X573132Y666109D01*
X565950Y658928D01*
X479124D01*
X471846Y666206D01*
X472332Y667379D01*
X572672D01*
X572706Y667336D01*
D02*
G37*
G36*
X708413Y693517D02*
X707734Y692247D01*
X576659D01*
X576498Y692489D01*
X577177Y693759D01*
X708251D01*
X708413Y693517D01*
D02*
G37*
G36*
X891792Y710847D02*
X891785Y710624D01*
X891449Y708936D01*
X891699Y707676D01*
X886635Y702613D01*
X842088D01*
X841562Y703883D01*
X849574Y711894D01*
X891142D01*
X891792Y710847D01*
D02*
G37*
G36*
X828331Y696989D02*
X827798Y696191D01*
X827449Y694436D01*
X827798Y692680D01*
X827997Y692383D01*
X827318Y691113D01*
X807997D01*
X807164Y690947D01*
X806811Y690711D01*
X806458Y690475D01*
X805960Y689977D01*
X794574D01*
X792941Y691610D01*
X792235Y692082D01*
X791402Y692247D01*
X781723D01*
X781197Y693517D01*
X785939Y698259D01*
X827652D01*
X828331Y696989D01*
D02*
G37*
G36*
X677243Y686720D02*
X672135Y681612D01*
X575756D01*
X575077Y682883D01*
X575276Y683180D01*
X575625Y684936D01*
X575290Y686624D01*
X575287Y686709D01*
X576000Y687894D01*
X676757D01*
X677243Y686720D01*
D02*
G37*
G36*
X325012Y689489D02*
X320296Y684773D01*
X319037Y685024D01*
X317281Y684675D01*
X315793Y683680D01*
X314798Y682191D01*
X314526Y680822D01*
X313287Y680265D01*
X310376Y683175D01*
X309670Y683647D01*
X308837Y683813D01*
X291387D01*
Y686636D01*
Y689459D01*
X305737D01*
X306570Y689625D01*
X307276Y690097D01*
X307939Y690759D01*
X324486D01*
X325012Y689489D01*
D02*
G37*
G36*
X597513Y654990D02*
X588135Y645612D01*
X529037D01*
X528204Y645447D01*
X527851Y645211D01*
X527498Y644975D01*
X513498Y630975D01*
X513026Y630269D01*
X512860Y629436D01*
Y599337D01*
X512135Y598613D01*
X445704D01*
X445319Y599883D01*
X445781Y600191D01*
X446776Y601680D01*
X447125Y603436D01*
X446875Y604695D01*
X452576Y610396D01*
X452859Y610820D01*
X453048Y611103D01*
X453214Y611936D01*
Y646978D01*
X454282Y647691D01*
X455276Y649180D01*
X455626Y650936D01*
X455276Y652692D01*
X455078Y652989D01*
X455757Y654259D01*
X461135D01*
X466998Y648396D01*
X467421Y648113D01*
X467704Y647924D01*
X468537Y647759D01*
X485318D01*
X485997Y646489D01*
X485798Y646191D01*
X485449Y644436D01*
X485798Y642680D01*
X486793Y641191D01*
X488281Y640197D01*
X490037Y639847D01*
X491793Y640197D01*
X493281Y641191D01*
X494276Y642680D01*
X494625Y644436D01*
X494276Y646191D01*
X494077Y646489D01*
X494756Y647759D01*
X580537D01*
X581370Y647924D01*
X582076Y648396D01*
X589844Y656164D01*
X597027D01*
X597513Y654990D01*
D02*
G37*
G36*
X868261Y648633D02*
Y639336D01*
X862087D01*
Y619336D01*
X862862D01*
X863444Y618066D01*
X862789Y616485D01*
X862519Y614436D01*
X862789Y612386D01*
X863580Y610477D01*
X864838Y608837D01*
X866478Y607579D01*
X868388Y606788D01*
X870437Y606518D01*
X872486Y606788D01*
X874396Y607579D01*
X876036Y608837D01*
X877294Y610477D01*
X878085Y612386D01*
X878355Y614436D01*
X878085Y616485D01*
X877430Y618066D01*
X878012Y619336D01*
X878787D01*
Y639336D01*
X872614D01*
Y649535D01*
X872449Y650368D01*
X871977Y651074D01*
X860562Y662489D01*
X861088Y663759D01*
X879080D01*
X879793Y662691D01*
X880861Y661978D01*
Y574435D01*
X881026Y573602D01*
X881498Y572896D01*
X885298Y569097D01*
X886004Y568625D01*
X886837Y568459D01*
X887487Y567809D01*
Y564784D01*
X887487Y564136D01*
X886475Y563514D01*
X886475Y563514D01*
X854400D01*
X853387Y564136D01*
X853387Y564784D01*
Y584136D01*
X852612D01*
X852030Y585406D01*
X852685Y586986D01*
X852955Y589036D01*
X852685Y591085D01*
X851894Y592994D01*
X850636Y594634D01*
X848996Y595893D01*
X847086Y596684D01*
X845037Y596953D01*
X842988Y596684D01*
X841078Y595893D01*
X839438Y594634D01*
X838180Y592994D01*
X837389Y591085D01*
X837119Y589036D01*
X837389Y586986D01*
X838044Y585406D01*
X837462Y584136D01*
X836687D01*
Y574524D01*
X835514Y574038D01*
X834214Y575337D01*
Y648478D01*
X835281Y649191D01*
X836276Y650680D01*
X836625Y652436D01*
X836276Y654191D01*
X835281Y655680D01*
X833793Y656674D01*
X832037Y657024D01*
X830281Y656674D01*
X828793Y655680D01*
X827798Y654191D01*
X827449Y652436D01*
X827798Y650680D01*
X828793Y649191D01*
X829860Y648478D01*
Y574436D01*
X830026Y573603D01*
X830498Y572896D01*
X834298Y569097D01*
X834721Y568814D01*
X835004Y568625D01*
X835837Y568459D01*
X836687Y567609D01*
Y564784D01*
X836687Y564136D01*
X835675Y563514D01*
X835675Y563514D01*
X829000D01*
X827987Y564136D01*
X827987Y564784D01*
Y584136D01*
X827212D01*
X826630Y585406D01*
X827285Y586986D01*
X827555Y589036D01*
X827285Y591085D01*
X826494Y592994D01*
X825236Y594634D01*
X823596Y595893D01*
X821686Y596684D01*
X819637Y596953D01*
X817588Y596684D01*
X815678Y595893D01*
X814038Y594634D01*
X812780Y592994D01*
X811989Y591085D01*
X811719Y589036D01*
X811989Y586986D01*
X812644Y585406D01*
X812322Y584703D01*
X811287Y584136D01*
X810214Y584623D01*
Y607034D01*
X811711Y608531D01*
X811994Y608955D01*
X812183Y609238D01*
X813530Y609499D01*
X814038Y608837D01*
X815678Y607579D01*
X817588Y606788D01*
X819637Y606518D01*
X821686Y606788D01*
X823596Y607579D01*
X825236Y608837D01*
X826494Y610477D01*
X827285Y612386D01*
X827555Y614436D01*
X827285Y616485D01*
X826630Y618066D01*
X827212Y619336D01*
X827987D01*
Y639336D01*
X821814D01*
Y653835D01*
X821649Y654668D01*
X821413Y655021D01*
X821177Y655375D01*
X815021Y661531D01*
X815507Y662704D01*
X833690D01*
X842861Y653533D01*
Y639336D01*
X836687D01*
Y619336D01*
X837462D01*
X838044Y618066D01*
X837389Y616485D01*
X837119Y614436D01*
X837389Y612386D01*
X838180Y610477D01*
X839438Y608837D01*
X841078Y607579D01*
X842988Y606788D01*
X845037Y606518D01*
X847086Y606788D01*
X848996Y607579D01*
X850636Y608837D01*
X851894Y610477D01*
X852685Y612386D01*
X852955Y614436D01*
X852685Y616485D01*
X852030Y618066D01*
X852612Y619336D01*
X853387D01*
Y639336D01*
X847214D01*
Y654435D01*
X847049Y655268D01*
X846577Y655975D01*
X836442Y666109D01*
X836868Y667336D01*
X836902Y667379D01*
X849515D01*
X868261Y648633D01*
D02*
G37*
G36*
X913210Y656684D02*
Y653586D01*
X913376Y652753D01*
X913848Y652046D01*
X919061Y646833D01*
Y639336D01*
X912887D01*
Y620799D01*
X911617Y620414D01*
X911576Y620475D01*
X907078Y624973D01*
Y654072D01*
X906913Y654905D01*
X906677Y655258D01*
X906441Y655611D01*
X903839Y658212D01*
X904258Y659590D01*
X904793Y659697D01*
X906282Y660692D01*
X906915Y661639D01*
X908182Y661712D01*
X913210Y656684D01*
D02*
G37*
G36*
X676793Y619191D02*
X677860Y618478D01*
Y580337D01*
X676760Y579238D01*
X675587Y579724D01*
Y584136D01*
X674812D01*
X674230Y585406D01*
X674885Y586986D01*
X675155Y589036D01*
X674885Y591085D01*
X674094Y592994D01*
X672836Y594634D01*
X671196Y595893D01*
X669286Y596684D01*
X667237Y596953D01*
X665188Y596684D01*
X663278Y595893D01*
X661638Y594634D01*
X661619Y594609D01*
X660349Y595040D01*
Y608431D01*
X661619Y608862D01*
X661638Y608837D01*
X663278Y607579D01*
X665188Y606788D01*
X667237Y606518D01*
X669286Y606788D01*
X671196Y607579D01*
X672836Y608837D01*
X674094Y610477D01*
X674885Y612386D01*
X675155Y614436D01*
X674885Y616485D01*
X674230Y618066D01*
X674552Y618768D01*
X675587Y619336D01*
D01*
X676793Y619191D01*
D02*
G37*
G36*
X684287Y619336D02*
X685322Y618768D01*
X685644Y618066D01*
X684989Y616485D01*
X684719Y614436D01*
X684989Y612386D01*
X685780Y610477D01*
X687038Y608837D01*
X688678Y607579D01*
X690588Y606788D01*
X692637Y606518D01*
X694686Y606788D01*
X696596Y607579D01*
X698236Y608837D01*
X699494Y610477D01*
X700285Y612386D01*
X700555Y614436D01*
X700285Y616485D01*
X699832Y617579D01*
X700522Y618833D01*
X700771Y618863D01*
X701860Y617864D01*
Y575936D01*
X702026Y575103D01*
X702498Y574397D01*
X707798Y569097D01*
X708504Y568625D01*
X709337Y568459D01*
X709687Y568109D01*
Y564784D01*
X709687Y564136D01*
X708674Y563514D01*
X708674Y563514D01*
X676600D01*
X675587Y564136D01*
X675587Y564784D01*
Y572448D01*
X675970Y572524D01*
X676676Y572996D01*
X681576Y577896D01*
X682048Y578603D01*
X682214Y579436D01*
Y618478D01*
X683121Y619084D01*
X684287Y619336D01*
X684287Y619336D01*
D02*
G37*
G36*
X804860Y651035D02*
Y631444D01*
X805026Y630611D01*
X805498Y629904D01*
X807995Y627407D01*
Y610972D01*
X806498Y609475D01*
X806026Y608769D01*
X805860Y607936D01*
Y573436D01*
X806026Y572603D01*
X806498Y571896D01*
X809298Y569097D01*
X810004Y568625D01*
X810837Y568459D01*
X811287Y568009D01*
Y564784D01*
X811287Y564136D01*
X810275Y563514D01*
X810275Y563514D01*
X803600D01*
X802587Y564136D01*
X802587Y564784D01*
Y584136D01*
X801812D01*
X801230Y585406D01*
X801885Y586986D01*
X802155Y589036D01*
X801885Y591085D01*
X801094Y592994D01*
X799836Y594634D01*
X798196Y595893D01*
X796286Y596684D01*
X794237Y596953D01*
X792188Y596684D01*
X790278Y595893D01*
X788638Y594634D01*
X787380Y592994D01*
X786589Y591085D01*
X786319Y589036D01*
X786589Y586986D01*
X787244Y585406D01*
X786662Y584136D01*
X785887D01*
Y574460D01*
X784617Y573934D01*
X783214Y575337D01*
Y647883D01*
X784793Y648197D01*
X786281Y649191D01*
X787276Y650680D01*
X787625Y652436D01*
X787276Y654191D01*
X786807Y654894D01*
X787486Y656164D01*
X799731D01*
X804860Y651035D01*
D02*
G37*
G36*
X417362Y662839D02*
X393550Y639027D01*
X392335Y639396D01*
X392276Y639692D01*
X391281Y641180D01*
X390214Y641893D01*
Y653534D01*
X396744Y660064D01*
X407882D01*
X408715Y660230D01*
X409421Y660702D01*
X412828Y664109D01*
X416836D01*
X417362Y662839D01*
D02*
G37*
G36*
X902725Y653170D02*
Y639336D01*
X900426D01*
Y650432D01*
X900625Y651436D01*
X900276Y653191D01*
X899281Y654680D01*
X897793Y655675D01*
X896037Y656024D01*
X894281Y655675D01*
X892793Y654680D01*
X891798Y653191D01*
X891656Y652477D01*
X891599Y652391D01*
X891249Y650635D01*
Y639336D01*
X887487D01*
Y619336D01*
X888262D01*
X888844Y618066D01*
X888189Y616485D01*
X887919Y614436D01*
X888189Y612386D01*
X888980Y610477D01*
X890238Y608837D01*
X891878Y607579D01*
X893788Y606788D01*
X895837Y606518D01*
X897886Y606788D01*
X899796Y607579D01*
X901436Y608837D01*
X902694Y610477D01*
X903485Y612386D01*
X903755Y614436D01*
X903485Y616485D01*
X902830Y618066D01*
X903412Y619336D01*
X904187D01*
Y620048D01*
X905360Y620534D01*
X907860Y618034D01*
Y571436D01*
X908026Y570603D01*
X908498Y569896D01*
X909298Y569097D01*
X909651Y568861D01*
X910004Y568625D01*
X910837Y568459D01*
X911989D01*
X912887Y567561D01*
Y564784D01*
X912887Y564136D01*
X911874Y563514D01*
X911874Y563514D01*
X905200D01*
X904187Y564136D01*
X904187Y564784D01*
Y584136D01*
X903412D01*
X902830Y585406D01*
X903485Y586986D01*
X903755Y589036D01*
X903485Y591085D01*
X902694Y592994D01*
X901436Y594634D01*
X899796Y595893D01*
X897886Y596684D01*
X895837Y596953D01*
X893788Y596684D01*
X891878Y595893D01*
X890238Y594634D01*
X888980Y592994D01*
X888189Y591085D01*
X887919Y589036D01*
X888189Y586986D01*
X888844Y585406D01*
X888262Y584136D01*
X887487D01*
Y574724D01*
X886314Y574238D01*
X885214Y575337D01*
Y661978D01*
X886282Y662691D01*
X887276Y664180D01*
X887626Y665936D01*
X887492Y666607D01*
X888663Y667232D01*
X902725Y653170D01*
D02*
G37*
G36*
X393639Y664639D02*
X394012Y663489D01*
X386498Y655975D01*
X386026Y655269D01*
X385860Y654436D01*
Y641893D01*
X384793Y641180D01*
X383798Y639692D01*
X383449Y637936D01*
X383798Y636180D01*
X383997Y635882D01*
X383318Y634613D01*
X377422D01*
X376743Y635882D01*
X377276Y636680D01*
X377625Y638436D01*
X377276Y640191D01*
X376281Y641680D01*
X375214Y642393D01*
Y656534D01*
X383439Y664759D01*
X393546D01*
X393639Y664639D01*
D02*
G37*
G36*
X425214Y658449D02*
X425204Y658447D01*
X424498Y657975D01*
X396135Y629613D01*
X391941D01*
X391555Y630882D01*
X391576Y630896D01*
X420399Y659719D01*
X425089D01*
X425214Y658449D01*
D02*
G37*
G36*
X817461Y652934D02*
Y639336D01*
X811287D01*
Y631931D01*
X810114Y631446D01*
X809214Y632345D01*
Y651936D01*
X809048Y652769D01*
X808812Y653122D01*
X808576Y653475D01*
X803791Y658260D01*
X804277Y659434D01*
X810960D01*
X817461Y652934D01*
D02*
G37*
G36*
X1022171Y801691D02*
X1023660Y800697D01*
X1025415Y800348D01*
X1026040Y800472D01*
X1027030Y799600D01*
X1026985Y798982D01*
X1025842Y798231D01*
X1024372Y798524D01*
X1022616Y798175D01*
X1021128Y797180D01*
X1020415Y796113D01*
X1020216D01*
X1019383Y795947D01*
X1018677Y795475D01*
X1002815Y779613D01*
X996037D01*
X995204Y779447D01*
X994498Y778975D01*
X936635Y721113D01*
X935088D01*
X934562Y722383D01*
X1014439Y802259D01*
X1021792D01*
X1022171Y801691D01*
D02*
G37*
G36*
X1151282Y870197D02*
X1153037Y869848D01*
Y869848D01*
X1153121Y869923D01*
X1158011Y869442D01*
X1162794Y867991D01*
X1167202Y865635D01*
X1171066Y862464D01*
X1174236Y858601D01*
X1176592Y854193D01*
X1178043Y849410D01*
X1178525Y844520D01*
X1178449Y844436D01*
X1178449D01*
X1178799Y842680D01*
X1178959Y842440D01*
Y591432D01*
X1178799Y591192D01*
X1178449Y589436D01*
X1178449D01*
X1178525Y589352D01*
X1178043Y584462D01*
X1176592Y579679D01*
X1174236Y575271D01*
X1171066Y571408D01*
X1167202Y568237D01*
X1162794Y565881D01*
X1158011Y564430D01*
X1153121Y563948D01*
X1153037Y564024D01*
Y564024D01*
X1151282Y563675D01*
X1151041Y563514D01*
X1108400D01*
X1107387Y564136D01*
X1107387Y564784D01*
Y569828D01*
X1112037D01*
X1114183Y570255D01*
X1116002Y571470D01*
X1119002Y574470D01*
X1120218Y576290D01*
X1120645Y578436D01*
Y594935D01*
X1121915Y595086D01*
X1122280Y593567D01*
X1123906Y589640D01*
X1126126Y586017D01*
X1128886Y582785D01*
X1132118Y580025D01*
X1135742Y577804D01*
X1139668Y576178D01*
X1143801Y575186D01*
X1148037Y574852D01*
X1152274Y575186D01*
X1156407Y576178D01*
X1160333Y577804D01*
X1163957Y580025D01*
X1167188Y582785D01*
X1169949Y586017D01*
X1172169Y589640D01*
X1173795Y593567D01*
X1174788Y597699D01*
X1175121Y601936D01*
X1174788Y606173D01*
X1173795Y610305D01*
X1172169Y614231D01*
X1169949Y617855D01*
X1167188Y621087D01*
X1163957Y623847D01*
X1160333Y626067D01*
X1156407Y627694D01*
X1152274Y628686D01*
X1148037Y629019D01*
X1143801Y628686D01*
X1139668Y627694D01*
X1135742Y626067D01*
X1132118Y623847D01*
X1128886Y621087D01*
X1126126Y617855D01*
X1123906Y614231D01*
X1122280Y610305D01*
X1121915Y608786D01*
X1120645Y608936D01*
Y650066D01*
X1120715Y650158D01*
X1121370Y651739D01*
X1121593Y653436D01*
X1121370Y655133D01*
X1120715Y656714D01*
X1119673Y658072D01*
X1090673Y687072D01*
X1089315Y688113D01*
X1088524Y688441D01*
X1087734Y688768D01*
X1086037Y688992D01*
X1075933D01*
X1075113Y689765D01*
X1075530Y690946D01*
X1076793Y691197D01*
X1078281Y692191D01*
X1079276Y693680D01*
X1079625Y695436D01*
X1079276Y697191D01*
X1078281Y698680D01*
X1076793Y699675D01*
X1075037Y700024D01*
X1073281Y699675D01*
X1071793Y698680D01*
X1070798Y697191D01*
X1070449Y695436D01*
X1070798Y693680D01*
X1071793Y692191D01*
X1071826Y692169D01*
X1071367Y690948D01*
X1071037Y690992D01*
X1032753D01*
X1027982Y695762D01*
X1028607Y696933D01*
X1029037Y696848D01*
X1030793Y697197D01*
X1032281Y698191D01*
X1033276Y699680D01*
X1033625Y701436D01*
X1033276Y703191D01*
X1032281Y704680D01*
X1030793Y705675D01*
X1029037Y706024D01*
X1027281Y705675D01*
X1025793Y704680D01*
X1024798Y703191D01*
X1024449Y701436D01*
X1024534Y701006D01*
X1023364Y700380D01*
X1009593Y714151D01*
Y745065D01*
X1009782Y745191D01*
X1010178Y745785D01*
X1010185Y745788D01*
X1010193Y745807D01*
X1010776Y746680D01*
X1011126Y748436D01*
X1010776Y750192D01*
X1010661Y750365D01*
Y753507D01*
X1010776Y753680D01*
X1011126Y755436D01*
X1010776Y757192D01*
X1010661Y757365D01*
Y757936D01*
X1010185Y759084D01*
X1009037Y759559D01*
X1008466D01*
X1008293Y759675D01*
X1006537Y760024D01*
X1004782Y759675D01*
X1004609Y759559D01*
X1001466D01*
X1001293Y759675D01*
X999537Y760024D01*
X997782Y759675D01*
X997609Y759559D01*
X997038D01*
X995889Y759084D01*
X995414Y757936D01*
Y757364D01*
X995298Y757192D01*
X994949Y755436D01*
X995298Y753680D01*
X995414Y753507D01*
Y750364D01*
X995298Y750192D01*
X994949Y748436D01*
X995298Y746680D01*
X995881Y745809D01*
X995889Y745788D01*
X995897Y745785D01*
X996293Y745191D01*
X996481Y745066D01*
Y711436D01*
X996704Y709739D01*
X997032Y708948D01*
X997359Y708158D01*
X998401Y706800D01*
X1025401Y679800D01*
X1025495Y679727D01*
X1025100Y678690D01*
X1024990Y678514D01*
X1023281Y678175D01*
X1021793Y677180D01*
X1020798Y675691D01*
X1020449Y673936D01*
X1020798Y672180D01*
X1021793Y670691D01*
X1023281Y669697D01*
X1024426Y669469D01*
X1026710Y667185D01*
X1026084Y666014D01*
X1026037Y666024D01*
X1024281Y665675D01*
X1022793Y664680D01*
X1021798Y663191D01*
X1021449Y661436D01*
X1021798Y659680D01*
X1022793Y658191D01*
X1024281Y657197D01*
X1026037Y656848D01*
X1027793Y657197D01*
X1029281Y658191D01*
X1030276Y659680D01*
X1030625Y661436D01*
X1030616Y661483D01*
X1031786Y662109D01*
X1045860Y648035D01*
Y639336D01*
X1039887D01*
Y633583D01*
X1039204Y633447D01*
X1038921Y633258D01*
X1038498Y632975D01*
X1035498Y629975D01*
X1035026Y629269D01*
X1034860Y628436D01*
Y601393D01*
X1033793Y600680D01*
X1032798Y599191D01*
X1032449Y597436D01*
X1032798Y595680D01*
X1033793Y594191D01*
X1035281Y593197D01*
X1037037Y592848D01*
X1038793Y593197D01*
X1040281Y594191D01*
X1041276Y595680D01*
X1041625Y597436D01*
X1041276Y599191D01*
X1040281Y600680D01*
X1039214Y601393D01*
Y613102D01*
X1040484Y613186D01*
X1040589Y612386D01*
X1041380Y610477D01*
X1042638Y608837D01*
X1044278Y607579D01*
X1046188Y606788D01*
X1048237Y606518D01*
X1050286Y606788D01*
X1052196Y607579D01*
X1053836Y608837D01*
X1055094Y610477D01*
X1055885Y612386D01*
X1056155Y614436D01*
X1055885Y616485D01*
X1055230Y618066D01*
X1055812Y619336D01*
X1056587D01*
Y639336D01*
X1050214D01*
Y648936D01*
X1050048Y649769D01*
X1049576Y650475D01*
X1028714Y671338D01*
X1029276Y672180D01*
X1029625Y673936D01*
X1029276Y675691D01*
X1028538Y676796D01*
X1029177Y677993D01*
X1030037Y677880D01*
X1068321D01*
X1068401Y677800D01*
X1069759Y676758D01*
X1070343Y676516D01*
X1071340Y676103D01*
X1073037Y675880D01*
X1083322D01*
X1109429Y649772D01*
Y581043D01*
X1107387D01*
Y584136D01*
X1106612D01*
X1106030Y585406D01*
X1106685Y586986D01*
X1106955Y589036D01*
X1106685Y591085D01*
X1105894Y592994D01*
X1104636Y594634D01*
X1102996Y595893D01*
X1101086Y596684D01*
X1099037Y596953D01*
X1096988Y596684D01*
X1095078Y595893D01*
X1093438Y594634D01*
X1092180Y592994D01*
X1091389Y591085D01*
X1091119Y589036D01*
X1091389Y586986D01*
X1092044Y585406D01*
X1091462Y584136D01*
X1090687D01*
Y583059D01*
X1081987D01*
Y584136D01*
X1081212D01*
X1080630Y585406D01*
X1081285Y586986D01*
X1081555Y589036D01*
X1081285Y591085D01*
X1080494Y592994D01*
X1079236Y594634D01*
X1077596Y595893D01*
X1075686Y596684D01*
X1073637Y596953D01*
X1071588Y596684D01*
X1069678Y595893D01*
X1068038Y594634D01*
X1066780Y592994D01*
X1065989Y591085D01*
X1065719Y589036D01*
X1065989Y586986D01*
X1066644Y585406D01*
X1066062Y584136D01*
X1065287D01*
Y564784D01*
X1065287Y564136D01*
X1064275Y563514D01*
X1064275Y563514D01*
X1032200D01*
X1031187Y564136D01*
X1031187Y564784D01*
Y584136D01*
X1030412D01*
X1029830Y585406D01*
X1030485Y586986D01*
X1030755Y589036D01*
X1030485Y591085D01*
X1029694Y592994D01*
X1028436Y594634D01*
X1026796Y595893D01*
X1024886Y596684D01*
X1022837Y596953D01*
X1020788Y596684D01*
X1018878Y595893D01*
X1017238Y594634D01*
X1016484Y593652D01*
X1015214Y594083D01*
Y609389D01*
X1016484Y609820D01*
X1017238Y608837D01*
X1018878Y607579D01*
X1020788Y606788D01*
X1022837Y606518D01*
X1024886Y606788D01*
X1026796Y607579D01*
X1028436Y608837D01*
X1029694Y610477D01*
X1030485Y612386D01*
X1030755Y614436D01*
X1030485Y616485D01*
X1029830Y618066D01*
X1030412Y619336D01*
X1031187D01*
Y639336D01*
X1025214D01*
Y645978D01*
X1026281Y646691D01*
X1027276Y648180D01*
X1027625Y649936D01*
X1027276Y651691D01*
X1026281Y653180D01*
X1024793Y654174D01*
X1023037Y654524D01*
X1021281Y654174D01*
X1019793Y653180D01*
X1018798Y651691D01*
X1018449Y649936D01*
X1018798Y648180D01*
X1019793Y646691D01*
X1020860Y645978D01*
Y639336D01*
X1015214D01*
Y685435D01*
X1015049Y686268D01*
X1014860Y686551D01*
X1014577Y686974D01*
X1004576Y696975D01*
X1003870Y697447D01*
X1003037Y697613D01*
X994995D01*
X994281Y698680D01*
X992793Y699675D01*
X991037Y700024D01*
X989281Y699675D01*
X987793Y698680D01*
X986798Y697191D01*
X986449Y695436D01*
X986798Y693680D01*
X987793Y692191D01*
X989281Y691197D01*
X991037Y690847D01*
X992793Y691197D01*
X994281Y692191D01*
X994995Y693259D01*
X1002135D01*
X1007333Y688061D01*
X1006708Y686890D01*
X1006037Y687024D01*
X1004281Y686674D01*
X1002793Y685680D01*
X1001798Y684191D01*
X1001449Y682436D01*
X1001798Y680680D01*
X1002793Y679191D01*
X1003860Y678478D01*
Y676436D01*
X1004026Y675603D01*
X1004498Y674896D01*
X1005861Y673534D01*
Y617931D01*
X1004591Y617678D01*
X1004294Y618395D01*
X1003036Y620034D01*
X1001396Y621293D01*
X999486Y622084D01*
X997437Y622353D01*
X995388Y622084D01*
X993478Y621293D01*
X991838Y620034D01*
X990580Y618395D01*
X989789Y616485D01*
X989519Y614436D01*
X989789Y612386D01*
X990580Y610477D01*
X991838Y608837D01*
X993478Y607579D01*
X995388Y606788D01*
X997437Y606518D01*
X999486Y606788D01*
X1001396Y607579D01*
X1003036Y608837D01*
X1004294Y610477D01*
X1004591Y611193D01*
X1005861Y610940D01*
Y592531D01*
X1004591Y592278D01*
X1004294Y592994D01*
X1003036Y594634D01*
X1001396Y595893D01*
X999486Y596684D01*
X997437Y596953D01*
X995388Y596684D01*
X993478Y595893D01*
X991838Y594634D01*
X990580Y592994D01*
X989789Y591085D01*
X989519Y589036D01*
X989789Y586986D01*
X990444Y585406D01*
X989862Y584136D01*
X989087D01*
Y564784D01*
X989087Y564136D01*
X988074Y563514D01*
X988074Y563514D01*
X981400D01*
X980387Y564136D01*
X980387Y564784D01*
Y584136D01*
X979612D01*
X979030Y585406D01*
X979685Y586986D01*
X979955Y589036D01*
X979685Y591085D01*
X978894Y592994D01*
X977636Y594634D01*
X975996Y595893D01*
X974086Y596684D01*
X972037Y596953D01*
X969988Y596684D01*
X968078Y595893D01*
X966438Y594634D01*
X965180Y592994D01*
X964389Y591085D01*
X964119Y589036D01*
X964389Y586986D01*
X965044Y585406D01*
X964462Y584136D01*
X963687D01*
Y582862D01*
X962417Y582477D01*
X962281Y582680D01*
X960793Y583675D01*
X959037Y584024D01*
X957281Y583675D01*
X955793Y582680D01*
X954798Y581191D01*
X954449Y579436D01*
X954798Y577680D01*
X955793Y576191D01*
X956860Y575478D01*
Y574436D01*
X957026Y573603D01*
X957498Y572896D01*
X961298Y569097D01*
X961721Y568814D01*
X962004Y568625D01*
X962837Y568459D01*
X963687Y567609D01*
Y564784D01*
X963687Y564136D01*
X962674Y563514D01*
X962674Y563514D01*
X930600D01*
X929587Y564136D01*
X929587Y564784D01*
Y584136D01*
X928812D01*
X928230Y585406D01*
X928885Y586986D01*
X929155Y589036D01*
X928885Y591085D01*
X928094Y592994D01*
X926836Y594634D01*
X925196Y595893D01*
X923286Y596684D01*
X921237Y596953D01*
X919188Y596684D01*
X917278Y595893D01*
X915638Y594634D01*
X914380Y592994D01*
X913589Y591085D01*
X913484Y590286D01*
X912214Y590369D01*
Y613102D01*
X913484Y613186D01*
X913589Y612386D01*
X914380Y610477D01*
X915638Y608837D01*
X917278Y607579D01*
X919188Y606788D01*
X921237Y606518D01*
X923286Y606788D01*
X925196Y607579D01*
X926836Y608837D01*
X928094Y610477D01*
X928885Y612386D01*
X929155Y614436D01*
X928885Y616485D01*
X928230Y618066D01*
X928812Y619336D01*
X929587D01*
Y639336D01*
X923414D01*
Y646333D01*
X924684Y646959D01*
X926481Y645580D01*
X929644Y644270D01*
X933037Y643824D01*
X936431Y644270D01*
X939594Y645580D01*
X942309Y647664D01*
X944393Y650380D01*
X945703Y653542D01*
X946150Y656936D01*
X945703Y660330D01*
X944393Y663492D01*
X942309Y666208D01*
X939594Y668291D01*
X936431Y669601D01*
X933037Y670048D01*
X929644Y669601D01*
X926481Y668291D01*
X923766Y666208D01*
X921682Y663492D01*
X920372Y660330D01*
X919925Y656936D01*
X920372Y653542D01*
X920419Y653428D01*
X919343Y652708D01*
X917564Y654487D01*
Y657586D01*
X917398Y658419D01*
X917209Y658701D01*
X916926Y659125D01*
X910576Y665475D01*
X909870Y665947D01*
X909037Y666113D01*
X906995D01*
X906282Y667180D01*
X904793Y668175D01*
X903037Y668524D01*
X901282Y668175D01*
X899793Y667180D01*
X898799Y665692D01*
X898692Y665156D01*
X897314Y664738D01*
X887577Y674475D01*
X887288Y674668D01*
X887148Y675946D01*
X887201Y676137D01*
X887281Y676191D01*
X888276Y677680D01*
X888625Y679436D01*
X888276Y681191D01*
X887281Y682680D01*
X885793Y683674D01*
X886037Y684847D01*
X887793Y685197D01*
X889281Y686191D01*
X890276Y687680D01*
X890625Y689436D01*
X890276Y691191D01*
X889281Y692680D01*
X887793Y693674D01*
X886037Y694024D01*
X884281Y693674D01*
X882793Y692680D01*
X882079Y691612D01*
X871939D01*
X866466Y697085D01*
X866952Y698259D01*
X887537D01*
X888370Y698425D01*
X889076Y698896D01*
X894778Y704598D01*
X896037Y704348D01*
X897793Y704697D01*
X899281Y705691D01*
X900276Y707180D01*
X900625Y708936D01*
X900316Y710489D01*
X900924Y711759D01*
X942184D01*
X942449Y711436D01*
X942798Y709680D01*
X943793Y708191D01*
X945281Y707197D01*
X947037Y706848D01*
X948793Y707197D01*
X950281Y708191D01*
X951276Y709680D01*
X951625Y711436D01*
X951276Y713191D01*
X950281Y714680D01*
X948793Y715675D01*
X947037Y716024D01*
X945664Y715751D01*
X945370Y715947D01*
X944537Y716113D01*
X944536Y716113D01*
X939441D01*
X939055Y717383D01*
X939076Y717396D01*
X996939Y775259D01*
X1003716D01*
X1004549Y775424D01*
X1005256Y775896D01*
X1020147Y790788D01*
X1021128Y790691D01*
X1022195Y789978D01*
Y741617D01*
X1020793Y740680D01*
X1019798Y739191D01*
X1019449Y737436D01*
X1019798Y735680D01*
X1020793Y734191D01*
X1022281Y733197D01*
X1023136Y733027D01*
X1024060Y732760D01*
X1024360Y731617D01*
Y721893D01*
X1023293Y721180D01*
X1022298Y719691D01*
X1021949Y717936D01*
X1022298Y716180D01*
X1023293Y714691D01*
X1024781Y713697D01*
X1026537Y713347D01*
X1028293Y713697D01*
X1029781Y714691D01*
X1030776Y716180D01*
X1031125Y717936D01*
X1030776Y719691D01*
X1029781Y721180D01*
X1028714Y721893D01*
Y731772D01*
X1031047Y734105D01*
X1031329Y734528D01*
X1031518Y734811D01*
X1031684Y735644D01*
Y752737D01*
X1032954Y753415D01*
X1033281Y753197D01*
X1035037Y752848D01*
X1036793Y753197D01*
X1038281Y754191D01*
X1039276Y755680D01*
X1039625Y757436D01*
X1039276Y759191D01*
X1038281Y760680D01*
X1036793Y761674D01*
X1035037Y762024D01*
X1033281Y761674D01*
X1032954Y761456D01*
X1031684Y762135D01*
Y769237D01*
X1032954Y769916D01*
X1033282Y769697D01*
X1035038Y769348D01*
X1036713Y769681D01*
X1048861Y757534D01*
Y714435D01*
X1049026Y713602D01*
X1049498Y712896D01*
X1053498Y708896D01*
X1053851Y708661D01*
X1054204Y708425D01*
X1055037Y708259D01*
X1067037D01*
X1067870Y708425D01*
X1068576Y708896D01*
X1074195Y714515D01*
X1075037Y714348D01*
X1076793Y714697D01*
X1078281Y715692D01*
X1079276Y717180D01*
X1079625Y718936D01*
X1079276Y720692D01*
X1078281Y722180D01*
X1076793Y723175D01*
X1075037Y723524D01*
X1073281Y723175D01*
X1071793Y722180D01*
X1070798Y720692D01*
X1070449Y718936D01*
X1070782Y717259D01*
X1066135Y712613D01*
X1055939D01*
X1053214Y715337D01*
Y758435D01*
X1053049Y759268D01*
X1052577Y759975D01*
X1039458Y773093D01*
X1039626Y773936D01*
X1039276Y775692D01*
X1038282Y777180D01*
X1036793Y778175D01*
X1035038Y778524D01*
X1033282Y778175D01*
X1032954Y777956D01*
X1031684Y778635D01*
Y800844D01*
X1031518Y801677D01*
X1031282Y802030D01*
X1031047Y802383D01*
X1029753Y803676D01*
X1030004Y804936D01*
X1029654Y806691D01*
X1028660Y808180D01*
X1027171Y809174D01*
X1025415Y809524D01*
X1023660Y809174D01*
X1022171Y808180D01*
X1021177Y806691D01*
X1021161Y806612D01*
X1013537D01*
X1012704Y806447D01*
X1011998Y805975D01*
X931135Y725112D01*
X836439D01*
X817576Y743975D01*
X816870Y744447D01*
X816037Y744613D01*
X803995D01*
X803281Y745680D01*
X801793Y746674D01*
X800037Y747024D01*
X798281Y746674D01*
X796793Y745680D01*
X795798Y744191D01*
X795449Y742436D01*
X795785Y740748D01*
X795792Y740525D01*
X795142Y739477D01*
X793510D01*
X793276Y740653D01*
X792281Y742141D01*
X790793Y743136D01*
X789037Y743485D01*
X787281Y743136D01*
X785793Y742141D01*
X784798Y740653D01*
X784449Y738897D01*
X784798Y737141D01*
X785793Y735652D01*
X787281Y734658D01*
X789037Y734309D01*
X790793Y734658D01*
X791490Y735124D01*
X814770D01*
X815709Y734185D01*
X815084Y733015D01*
X815037Y733024D01*
X813281Y732674D01*
X811793Y731680D01*
X810798Y730191D01*
X810449Y728436D01*
X810798Y726680D01*
X811793Y725191D01*
X813281Y724197D01*
X815037Y723848D01*
X816793Y724197D01*
X818281Y725191D01*
X819276Y726680D01*
X819625Y728436D01*
X819616Y728482D01*
X820786Y729108D01*
X832498Y717396D01*
X833204Y716925D01*
X834037Y716759D01*
X846566D01*
X846944Y715993D01*
X847012Y715489D01*
X838135Y706612D01*
X769037D01*
X768204Y706447D01*
X767851Y706211D01*
X767498Y705975D01*
X761000Y699477D01*
X741931D01*
X741281Y700524D01*
X741288Y700747D01*
X741624Y702435D01*
X741374Y703695D01*
X745938Y708259D01*
X792037D01*
X792870Y708425D01*
X793576Y708896D01*
X803576Y718896D01*
X804048Y719603D01*
X804214Y720436D01*
Y724478D01*
X805281Y725191D01*
X806276Y726680D01*
X806625Y728436D01*
X806276Y730191D01*
X805281Y731680D01*
X803793Y732674D01*
X802037Y733024D01*
X800281Y732674D01*
X798793Y731680D01*
X797798Y730191D01*
X797449Y728436D01*
X797798Y726680D01*
X798793Y725191D01*
X799860Y724478D01*
Y721337D01*
X791135Y712613D01*
X786422D01*
X785743Y713883D01*
X786276Y714680D01*
X786625Y716436D01*
X786276Y718191D01*
X785281Y719680D01*
X784214Y720393D01*
Y725478D01*
X785281Y726191D01*
X786276Y727680D01*
X786625Y729436D01*
X786276Y731191D01*
X785281Y732680D01*
X783793Y733674D01*
X782037Y734024D01*
X780281Y733674D01*
X778793Y732680D01*
X777798Y731191D01*
X777449Y729436D01*
X777798Y727680D01*
X778793Y726191D01*
X779860Y725478D01*
Y720393D01*
X778793Y719680D01*
X777798Y718191D01*
X777449Y716436D01*
X777798Y714680D01*
X778331Y713883D01*
X777652Y712613D01*
X745036D01*
X744203Y712447D01*
X743497Y711975D01*
X738295Y706773D01*
X737036Y707023D01*
X735280Y706674D01*
X733792Y705680D01*
X732797Y704191D01*
X732448Y702435D01*
X732680Y701268D01*
X731861Y700017D01*
X731119Y699932D01*
X729576Y701475D01*
X728870Y701947D01*
X728037Y702113D01*
X508037D01*
X507204Y701947D01*
X506921Y701758D01*
X506498Y701475D01*
X505500Y700478D01*
X382502D01*
X381855Y701654D01*
X381869Y701748D01*
X383282Y702691D01*
X384276Y704180D01*
X384626Y705936D01*
X384478Y706680D01*
X385410Y707759D01*
X493537D01*
X494370Y707924D01*
X495076Y708396D01*
X508939Y722259D01*
X587135D01*
X602498Y706896D01*
X602921Y706613D01*
X603204Y706424D01*
X604037Y706259D01*
X653080D01*
X653793Y705191D01*
X655281Y704197D01*
X657037Y703848D01*
X658793Y704197D01*
X660281Y705191D01*
X661276Y706680D01*
X661625Y708436D01*
X661276Y710191D01*
X660281Y711680D01*
X658793Y712674D01*
X657037Y713024D01*
X655281Y712674D01*
X653793Y711680D01*
X653080Y710612D01*
X604939D01*
X589576Y725975D01*
X588870Y726447D01*
X588037Y726612D01*
X508037D01*
X507204Y726447D01*
X506921Y726258D01*
X506498Y725975D01*
X492635Y712112D01*
X384037D01*
X383204Y711947D01*
X382498Y711475D01*
X381297Y710274D01*
X380037Y710524D01*
X378282Y710175D01*
X376793Y709180D01*
X375799Y707692D01*
X375449Y705936D01*
X375799Y704180D01*
X376793Y702691D01*
X378206Y701748D01*
X378220Y701654D01*
X377573Y700478D01*
X374074D01*
X362710Y711841D01*
X362004Y712313D01*
X361171Y712478D01*
X294073D01*
X293376Y713175D01*
X292670Y713647D01*
X291837Y713813D01*
X291387D01*
Y716636D01*
X268387D01*
Y706636D01*
X291387D01*
Y707398D01*
X291695Y707687D01*
X292657Y708227D01*
X293171Y708125D01*
X360270D01*
X371633Y696761D01*
X371499Y695421D01*
X371461Y695349D01*
X371276Y695113D01*
X307037D01*
X306204Y694947D01*
X305498Y694475D01*
X304836Y693813D01*
X291387D01*
Y696636D01*
X268387D01*
Y686636D01*
Y676636D01*
X291387D01*
Y679459D01*
X307935D01*
X315498Y671896D01*
X315921Y671613D01*
X316204Y671424D01*
X317037Y671259D01*
X326037D01*
X326870Y671424D01*
X327576Y671896D01*
X338439Y682759D01*
X493135D01*
X497998Y677896D01*
X498421Y677614D01*
X498704Y677424D01*
X498915Y677383D01*
X498790Y676113D01*
X397960D01*
X397523Y676404D01*
X395767Y676754D01*
X394011Y676404D01*
X392523Y675410D01*
X391528Y673921D01*
X391179Y672166D01*
X391528Y670410D01*
X391647Y670232D01*
X391048Y669112D01*
X382537D01*
X381704Y668947D01*
X381351Y668711D01*
X380998Y668475D01*
X371498Y658975D01*
X371026Y658269D01*
X370860Y657436D01*
Y642393D01*
X369793Y641680D01*
X368798Y640191D01*
X368449Y638436D01*
X368798Y636680D01*
X369331Y635882D01*
X368652Y634613D01*
X363089D01*
X362410Y635882D01*
X362943Y636680D01*
X363292Y638436D01*
X362943Y640191D01*
X361948Y641680D01*
X360460Y642674D01*
X358704Y643024D01*
X356948Y642674D01*
X355459Y641680D01*
X354465Y640191D01*
X354115Y638436D01*
X354465Y636680D01*
X355459Y635191D01*
X356527Y634478D01*
Y633769D01*
X356693Y632936D01*
X357165Y632229D01*
X358498Y630896D01*
X358519Y630882D01*
X358133Y629613D01*
X353439D01*
X348313Y634739D01*
X349276Y636180D01*
X349625Y637936D01*
X349276Y639692D01*
X348281Y641180D01*
X346793Y642175D01*
X345037Y642524D01*
X343281Y642175D01*
X341793Y641180D01*
X340798Y639692D01*
X340449Y637936D01*
X340798Y636180D01*
X341793Y634692D01*
X343281Y633697D01*
X343300Y633693D01*
X343498Y633397D01*
X350998Y625896D01*
X351705Y625424D01*
X352538Y625259D01*
X397037D01*
X397870Y625424D01*
X398576Y625896D01*
X426939Y654259D01*
X434318D01*
X434997Y652989D01*
X434798Y652691D01*
X434449Y650936D01*
X434798Y649180D01*
X435793Y647691D01*
X436860Y646978D01*
Y641436D01*
X437026Y640603D01*
X437498Y639896D01*
X441360Y636034D01*
Y628190D01*
X441281Y628175D01*
X439793Y627180D01*
X438798Y625691D01*
X438449Y623936D01*
X438798Y622180D01*
X439793Y620691D01*
X441281Y619697D01*
X443037Y619347D01*
X444793Y619697D01*
X446281Y620691D01*
X447276Y622180D01*
X447590Y623760D01*
X448860Y623635D01*
Y612837D01*
X443796Y607773D01*
X442537Y608024D01*
X440781Y607674D01*
X439293Y606680D01*
X438298Y605191D01*
X437949Y603436D01*
X438298Y601680D01*
X439293Y600191D01*
X439755Y599883D01*
X439370Y598613D01*
X425939D01*
X424576Y599975D01*
X423870Y600447D01*
X423037Y600612D01*
X331939D01*
X324214Y608337D01*
Y648436D01*
X324048Y649269D01*
X323859Y649551D01*
X323576Y649975D01*
X310376Y663175D01*
X309670Y663647D01*
X308837Y663813D01*
X291387D01*
Y666636D01*
X268387D01*
Y656636D01*
X291387D01*
Y659459D01*
X307935D01*
X319860Y647534D01*
Y607436D01*
X320026Y606603D01*
X320498Y605896D01*
X329498Y596896D01*
X329921Y596614D01*
X330204Y596424D01*
X331037Y596259D01*
X422135D01*
X423498Y594896D01*
X423851Y594660D01*
X424204Y594425D01*
X425037Y594259D01*
X513037D01*
X513870Y594425D01*
X514576Y594896D01*
X516576Y596896D01*
X516859Y597320D01*
X517048Y597603D01*
X517214Y598436D01*
Y628534D01*
X529939Y641259D01*
X589037D01*
X589870Y641424D01*
X590576Y641896D01*
X601574Y652894D01*
X674142D01*
X674792Y651847D01*
X674785Y651624D01*
X674449Y649936D01*
X674798Y648180D01*
X675793Y646691D01*
X677281Y645697D01*
X679037Y645348D01*
X680793Y645697D01*
X682281Y646691D01*
X682995Y647759D01*
X684635D01*
X690860Y641534D01*
Y639336D01*
X684287D01*
Y626419D01*
X683953Y626174D01*
X683017Y625857D01*
X681793Y626674D01*
X680037Y627024D01*
X678281Y626674D01*
X676857Y625723D01*
X676498Y625798D01*
X675587Y626161D01*
Y639336D01*
X658887D01*
Y631083D01*
X658204Y630947D01*
X657498Y630475D01*
X656633Y629610D01*
X656161Y628904D01*
X655995Y628071D01*
Y582972D01*
X653498Y580475D01*
X653026Y579768D01*
X652860Y578935D01*
Y577893D01*
X651793Y577180D01*
X651457Y576678D01*
X650187Y577063D01*
Y584136D01*
X649412D01*
X648830Y585406D01*
X649485Y586986D01*
X649755Y589036D01*
X649485Y591085D01*
X648694Y592994D01*
X647436Y594634D01*
X645796Y595893D01*
X643886Y596684D01*
X641837Y596953D01*
X639788Y596684D01*
X637878Y595893D01*
X636238Y594634D01*
X634980Y592994D01*
X634189Y591085D01*
X633919Y589036D01*
X634189Y586986D01*
X634844Y585406D01*
X634522Y584703D01*
X633487Y584136D01*
X632238Y583939D01*
X632217Y583940D01*
X630537Y584274D01*
X628781Y583924D01*
X627293Y582930D01*
X626298Y581441D01*
X626057Y580229D01*
X624787Y580354D01*
Y584136D01*
X624012D01*
X623430Y585406D01*
X624085Y586986D01*
X624355Y589036D01*
X624085Y591085D01*
X623294Y592994D01*
X622036Y594634D01*
X620396Y595893D01*
X618486Y596684D01*
X616437Y596953D01*
X614388Y596684D01*
X612478Y595893D01*
X610838Y594634D01*
X609580Y592994D01*
X608789Y591085D01*
X608519Y589036D01*
X608789Y586986D01*
X609444Y585406D01*
X608862Y584136D01*
X608087D01*
Y572813D01*
X605606D01*
X605556Y572865D01*
X605043Y574083D01*
X605776Y575180D01*
X606125Y576936D01*
X605776Y578691D01*
X604782Y580180D01*
X603293Y581175D01*
X601537Y581524D01*
X599782Y581175D01*
X598293Y580180D01*
X597298Y578691D01*
X596949Y576936D01*
X597298Y575180D01*
X598293Y573691D01*
X599361Y572978D01*
Y572435D01*
X599526Y571602D01*
X599998Y570896D01*
X601798Y569097D01*
X602221Y568814D01*
X602504Y568625D01*
X603337Y568459D01*
X607189D01*
X608087Y567561D01*
Y564784D01*
X608087Y564136D01*
X607075Y563514D01*
X607075Y563514D01*
X367115D01*
Y573440D01*
X367276Y573680D01*
X367625Y575436D01*
X367610D01*
X367318Y577655D01*
X366462Y579722D01*
X365099Y581498D01*
X363324Y582860D01*
X361256Y583717D01*
X359037Y584009D01*
Y584024D01*
X357281Y583675D01*
X357041Y583514D01*
X309033D01*
X308793Y583675D01*
X307037Y584024D01*
Y584009D01*
X304818Y583717D01*
X302750Y582860D01*
X300975Y581498D01*
X299612Y579722D01*
X298756Y577655D01*
X298464Y575436D01*
X298449D01*
X298798Y573680D01*
X298959Y573440D01*
Y563514D01*
X245365D01*
X244937Y564710D01*
X245116Y564857D01*
X247240Y567445D01*
X248819Y570398D01*
X249791Y573603D01*
X250119Y576936D01*
X249791Y580268D01*
X248819Y583473D01*
X247240Y586426D01*
X245116Y589015D01*
X242527Y591139D01*
X239574Y592718D01*
X236370Y593690D01*
X233037Y594018D01*
X229704Y593690D01*
X226500Y592718D01*
X223547Y591139D01*
X220958Y589015D01*
X218834Y586426D01*
X217255Y583473D01*
X216283Y580268D01*
X215955Y576936D01*
X216283Y573603D01*
X217255Y570398D01*
X218834Y567445D01*
X220958Y564857D01*
X221137Y564710D01*
X220709Y563514D01*
X215033D01*
X214793Y563675D01*
X213037Y564024D01*
Y564024D01*
X212953Y563948D01*
X208063Y564430D01*
X203280Y565881D01*
X198872Y568237D01*
X195009Y571408D01*
X191838Y575271D01*
X189482Y579679D01*
X188031Y584462D01*
X187549Y589352D01*
X187625Y589436D01*
X187625D01*
X187276Y591192D01*
X187115Y591432D01*
Y842440D01*
X187276Y842680D01*
X187625Y844436D01*
X187625D01*
X187549Y844520D01*
X188031Y849410D01*
X189482Y854193D01*
X191838Y858601D01*
X195009Y862464D01*
X198872Y865635D01*
X203280Y867991D01*
X208063Y869442D01*
X212953Y869923D01*
X213037Y869848D01*
Y869848D01*
X214793Y870197D01*
X215033Y870358D01*
X220710D01*
X221138Y869162D01*
X220958Y869015D01*
X218834Y866426D01*
X217255Y863473D01*
X216283Y860268D01*
X215955Y856936D01*
X216283Y853603D01*
X217255Y850398D01*
X218834Y847445D01*
X220958Y844857D01*
X223547Y842732D01*
X226500Y841154D01*
X229704Y840182D01*
X233037Y839853D01*
X236370Y840182D01*
X239574Y841154D01*
X242527Y842732D01*
X245116Y844857D01*
X247240Y847445D01*
X248819Y850398D01*
X249791Y853603D01*
X250119Y856936D01*
X249791Y860268D01*
X248819Y863473D01*
X247240Y866426D01*
X245116Y869015D01*
X244937Y869162D01*
X245364Y870358D01*
X298959D01*
Y860432D01*
X298798Y860192D01*
X298449Y858436D01*
X298464D01*
X298756Y856217D01*
X299612Y854149D01*
X300975Y852374D01*
X302750Y851011D01*
X304818Y850155D01*
X307037Y849863D01*
Y849848D01*
X308793Y850197D01*
X309033Y850358D01*
X357041D01*
X357281Y850197D01*
X359037Y849848D01*
Y849863D01*
X361256Y850155D01*
X363324Y851011D01*
X365099Y852374D01*
X366462Y854149D01*
X367318Y856217D01*
X367610Y858436D01*
X367625D01*
X367276Y860192D01*
X367115Y860432D01*
Y870358D01*
X998959D01*
Y860432D01*
X998799Y860192D01*
X998449Y858436D01*
X998464D01*
X998756Y856217D01*
X999613Y854149D01*
X1000975Y852374D01*
X1002751Y851011D01*
X1004818Y850155D01*
X1007037Y849863D01*
Y849848D01*
X1008793Y850197D01*
X1009033Y850358D01*
X1057041D01*
X1057282Y850197D01*
X1059037Y849848D01*
Y849863D01*
X1061256Y850155D01*
X1063324Y851011D01*
X1065100Y852374D01*
X1066462Y854149D01*
X1067319Y856217D01*
X1067611Y858436D01*
X1067626D01*
X1067276Y860192D01*
X1067116Y860432D01*
Y870358D01*
X1090710D01*
X1091137Y869162D01*
X1090958Y869015D01*
X1088834Y866426D01*
X1087255Y863473D01*
X1086283Y860268D01*
X1085955Y856936D01*
X1086283Y853603D01*
X1087255Y850398D01*
X1088834Y847445D01*
X1090958Y844857D01*
X1093547Y842732D01*
X1096500Y841154D01*
X1099705Y840182D01*
X1103037Y839853D01*
X1106370Y840182D01*
X1109574Y841154D01*
X1112527Y842732D01*
X1115116Y844857D01*
X1117240Y847445D01*
X1118819Y850398D01*
X1119791Y853603D01*
X1120119Y856936D01*
X1119791Y860268D01*
X1118819Y863473D01*
X1117240Y866426D01*
X1115116Y869015D01*
X1114937Y869162D01*
X1115365Y870358D01*
X1151041D01*
X1151282Y870197D01*
D02*
G37*
%LPC*%
G36*
X1083037Y845524D02*
X1081281Y845174D01*
X1079793Y844180D01*
X1078798Y842691D01*
X1078449Y840936D01*
X1078798Y839180D01*
X1079793Y837691D01*
X1081281Y836697D01*
X1083037Y836348D01*
X1084793Y836697D01*
X1086281Y837691D01*
X1087276Y839180D01*
X1087625Y840936D01*
X1087276Y842691D01*
X1086281Y844180D01*
X1084793Y845174D01*
X1083037Y845524D01*
D02*
G37*
G36*
X777187Y639336D02*
X760487D01*
Y619336D01*
X761262D01*
X761844Y618066D01*
X761189Y616485D01*
X760919Y614436D01*
X761189Y612386D01*
X761980Y610477D01*
X763238Y608837D01*
X764878Y607579D01*
X766788Y606788D01*
X768837Y606518D01*
X770886Y606788D01*
X772796Y607579D01*
X774436Y608837D01*
X775694Y610477D01*
X776485Y612386D01*
X776755Y614436D01*
X776485Y616485D01*
X775830Y618066D01*
X776412Y619336D01*
X777187D01*
Y639336D01*
D02*
G37*
G36*
X794237Y622353D02*
X792188Y622084D01*
X790278Y621293D01*
X788638Y620034D01*
X787380Y618395D01*
X786589Y616485D01*
X786319Y614436D01*
X786589Y612386D01*
X787380Y610477D01*
X788638Y608837D01*
X790278Y607579D01*
X792188Y606788D01*
X794237Y606518D01*
X796286Y606788D01*
X798196Y607579D01*
X799836Y608837D01*
X801094Y610477D01*
X801885Y612386D01*
X802155Y614436D01*
X801885Y616485D01*
X801094Y618395D01*
X799836Y620034D01*
X798196Y621293D01*
X796286Y622084D01*
X794237Y622353D01*
D02*
G37*
G36*
X952038Y667524D02*
X950282Y667175D01*
X948793Y666180D01*
X947799Y664692D01*
X947449Y662936D01*
X947799Y661180D01*
X948793Y659691D01*
X949861Y658978D01*
Y651837D01*
X945098Y647075D01*
X944626Y646369D01*
X944461Y645536D01*
Y639336D01*
X938287D01*
Y619336D01*
X939062D01*
X939644Y618066D01*
X938989Y616485D01*
X938719Y614436D01*
X938989Y612386D01*
X939780Y610477D01*
X941038Y608837D01*
X942678Y607579D01*
X944588Y606788D01*
X946637Y606518D01*
X948686Y606788D01*
X950596Y607579D01*
X952236Y608837D01*
X953494Y610477D01*
X954285Y612386D01*
X954555Y614436D01*
X954285Y616485D01*
X953630Y618066D01*
X954212Y619336D01*
X954987D01*
Y639336D01*
X948814D01*
Y644634D01*
X953577Y649397D01*
X954049Y650103D01*
X954214Y650936D01*
Y658978D01*
X955282Y659691D01*
X956276Y661180D01*
X956626Y662936D01*
X956276Y664692D01*
X955282Y666180D01*
X953793Y667175D01*
X952038Y667524D01*
D02*
G37*
G36*
X1099037Y647024D02*
X1097281Y646675D01*
X1095793Y645680D01*
X1094798Y644191D01*
X1094449Y642436D01*
Y639336D01*
X1090687D01*
Y619336D01*
X1091462D01*
X1092044Y618066D01*
X1091389Y616485D01*
X1091119Y614436D01*
X1091389Y612386D01*
X1092180Y610477D01*
X1093438Y608837D01*
X1095078Y607579D01*
X1096988Y606788D01*
X1099037Y606518D01*
X1101086Y606788D01*
X1102996Y607579D01*
X1104636Y608837D01*
X1105894Y610477D01*
X1106685Y612386D01*
X1106955Y614436D01*
X1106685Y616485D01*
X1106030Y618066D01*
X1106612Y619336D01*
X1107387D01*
Y639336D01*
X1103625D01*
Y642436D01*
X1103276Y644191D01*
X1102281Y645680D01*
X1100793Y646675D01*
X1099037Y647024D01*
D02*
G37*
G36*
X203037Y622024D02*
X201281Y621675D01*
X199793Y620680D01*
X198798Y619191D01*
X198449Y617436D01*
X198798Y615680D01*
X199793Y614191D01*
X201281Y613197D01*
X203037Y612848D01*
X204793Y613197D01*
X206281Y614191D01*
X207276Y615680D01*
X207625Y617436D01*
X207276Y619191D01*
X206281Y620680D01*
X204793Y621675D01*
X203037Y622024D01*
D02*
G37*
G36*
X972038Y660524D02*
X970282Y660175D01*
X968793Y659180D01*
X967798Y657692D01*
X967449Y655936D01*
X967798Y654180D01*
X968793Y652691D01*
X969861Y651978D01*
Y639336D01*
X963687D01*
Y619336D01*
X964462D01*
X965044Y618066D01*
X964389Y616485D01*
X964119Y614436D01*
X964389Y612386D01*
X965180Y610477D01*
X966438Y608837D01*
X968078Y607579D01*
X969988Y606788D01*
X972037Y606518D01*
X974086Y606788D01*
X975996Y607579D01*
X977636Y608837D01*
X978894Y610477D01*
X979685Y612386D01*
X979955Y614436D01*
X979685Y616485D01*
X979030Y618066D01*
X979612Y619336D01*
X980387D01*
Y639336D01*
X974214D01*
Y651978D01*
X975282Y652691D01*
X976276Y654180D01*
X976626Y655936D01*
X976276Y657692D01*
X975282Y659180D01*
X973793Y660175D01*
X972038Y660524D01*
D02*
G37*
G36*
X1061037Y676024D02*
X1059281Y675675D01*
X1057793Y674680D01*
X1056798Y673191D01*
X1056449Y671436D01*
X1056798Y669680D01*
X1057793Y668191D01*
X1059281Y667197D01*
X1061037Y666848D01*
X1062296Y667098D01*
X1071860Y657534D01*
Y639336D01*
X1065287D01*
Y631113D01*
X1064037D01*
X1063204Y630947D01*
X1062498Y630475D01*
X1059998Y627975D01*
X1059526Y627269D01*
X1059360Y626436D01*
Y606393D01*
X1058293Y605680D01*
X1057298Y604191D01*
X1056949Y602436D01*
X1057298Y600680D01*
X1058293Y599191D01*
X1059781Y598197D01*
X1061537Y597848D01*
X1063293Y598197D01*
X1064781Y599191D01*
X1065776Y600680D01*
X1066125Y602436D01*
X1065776Y604191D01*
X1064781Y605680D01*
X1063714Y606393D01*
Y624588D01*
X1064017Y624791D01*
X1065287Y624112D01*
Y619336D01*
X1066062D01*
X1066644Y618066D01*
X1065989Y616485D01*
X1065719Y614436D01*
X1065989Y612386D01*
X1066780Y610477D01*
X1068038Y608837D01*
X1069678Y607579D01*
X1071588Y606788D01*
X1073637Y606518D01*
X1075686Y606788D01*
X1077596Y607579D01*
X1079236Y608837D01*
X1080494Y610477D01*
X1081285Y612386D01*
X1081555Y614436D01*
X1081285Y616485D01*
X1080630Y618066D01*
X1081212Y619336D01*
X1081987D01*
Y639336D01*
X1076214D01*
Y658436D01*
X1076048Y659269D01*
X1075812Y659622D01*
X1075576Y659975D01*
X1065375Y670176D01*
X1065625Y671436D01*
X1065276Y673191D01*
X1064281Y674680D01*
X1062793Y675675D01*
X1061037Y676024D01*
D02*
G37*
G36*
X1044037Y846024D02*
X1042281Y845675D01*
X1040793Y844680D01*
X1039798Y843192D01*
X1039449Y841436D01*
X1039798Y839680D01*
X1040793Y838191D01*
X1042281Y837197D01*
X1044037Y836848D01*
X1045793Y837197D01*
X1047281Y838191D01*
X1048276Y839680D01*
X1048625Y841436D01*
X1048276Y843192D01*
X1047281Y844680D01*
X1045793Y845675D01*
X1044037Y846024D01*
D02*
G37*
G36*
X692637Y596953D02*
X690588Y596684D01*
X688678Y595893D01*
X687038Y594634D01*
X685780Y592994D01*
X684989Y591085D01*
X684719Y589036D01*
X684989Y586986D01*
X685780Y585077D01*
X687038Y583437D01*
X688678Y582179D01*
X690588Y581388D01*
X692637Y581118D01*
X694686Y581388D01*
X696596Y582179D01*
X698236Y583437D01*
X699494Y585077D01*
X700285Y586986D01*
X700555Y589036D01*
X700285Y591085D01*
X699494Y592994D01*
X698236Y594634D01*
X696596Y595893D01*
X694686Y596684D01*
X692637Y596953D01*
D02*
G37*
G36*
X743437D02*
X741388Y596684D01*
X739478Y595893D01*
X737838Y594634D01*
X736580Y592994D01*
X735789Y591085D01*
X735519Y589036D01*
X735789Y586986D01*
X736580Y585077D01*
X737838Y583437D01*
X739478Y582179D01*
X741388Y581388D01*
X743437Y581118D01*
X745486Y581388D01*
X747396Y582179D01*
X749036Y583437D01*
X750294Y585077D01*
X751085Y586986D01*
X751355Y589036D01*
X751085Y591085D01*
X750294Y592994D01*
X749036Y594634D01*
X747396Y595893D01*
X745486Y596684D01*
X743437Y596953D01*
D02*
G37*
G36*
X203037Y848024D02*
X201281Y847674D01*
X199793Y846680D01*
X198798Y845191D01*
X198449Y843436D01*
X198798Y841680D01*
X199793Y840191D01*
X201281Y839197D01*
X203037Y838848D01*
X204793Y839197D01*
X206281Y840191D01*
X207276Y841680D01*
X207625Y843436D01*
X207276Y845191D01*
X206281Y846680D01*
X204793Y847674D01*
X203037Y848024D01*
D02*
G37*
G36*
X568037Y629019D02*
X563801Y628686D01*
X559668Y627694D01*
X555742Y626067D01*
X552118Y623847D01*
X548886Y621087D01*
X546126Y617855D01*
X543906Y614231D01*
X542280Y610305D01*
X541287Y606173D01*
X540954Y601936D01*
X541287Y597699D01*
X542280Y593567D01*
X543906Y589640D01*
X546126Y586017D01*
X548886Y582785D01*
X552118Y580025D01*
X555742Y577804D01*
X559668Y576178D01*
X563801Y575186D01*
X568037Y574852D01*
X572274Y575186D01*
X576407Y576178D01*
X580333Y577804D01*
X583957Y580025D01*
X587188Y582785D01*
X589949Y586017D01*
X592169Y589640D01*
X593795Y593567D01*
X594787Y597699D01*
X595121Y601936D01*
X594787Y606173D01*
X593795Y610305D01*
X592169Y614231D01*
X589949Y617855D01*
X587188Y621087D01*
X583957Y623847D01*
X580333Y626067D01*
X576407Y627694D01*
X572274Y628686D01*
X568037Y629019D01*
D02*
G37*
G36*
X870437Y596953D02*
X868388Y596684D01*
X866478Y595893D01*
X864838Y594634D01*
X863580Y592994D01*
X862789Y591085D01*
X862519Y589036D01*
X862789Y586986D01*
X863580Y585077D01*
X864838Y583437D01*
X866478Y582179D01*
X868388Y581388D01*
X870437Y581118D01*
X872486Y581388D01*
X874396Y582179D01*
X876036Y583437D01*
X877294Y585077D01*
X878085Y586986D01*
X878355Y589036D01*
X878085Y591085D01*
X877294Y592994D01*
X876036Y594634D01*
X874396Y595893D01*
X872486Y596684D01*
X870437Y596953D01*
D02*
G37*
G36*
X616437Y622353D02*
X614388Y622084D01*
X612478Y621293D01*
X610838Y620034D01*
X609580Y618395D01*
X608789Y616485D01*
X608519Y614436D01*
X608789Y612386D01*
X609580Y610477D01*
X610838Y608837D01*
X612478Y607579D01*
X614388Y606788D01*
X616437Y606518D01*
X618486Y606788D01*
X620396Y607579D01*
X622036Y608837D01*
X623294Y610477D01*
X624085Y612386D01*
X624355Y614436D01*
X624085Y616485D01*
X623294Y618395D01*
X622036Y620034D01*
X620396Y621293D01*
X618486Y622084D01*
X616437Y622353D01*
D02*
G37*
G36*
X625537Y650113D02*
X602537D01*
X601704Y649947D01*
X601421Y649758D01*
X600998Y649475D01*
X588135Y636613D01*
X534037D01*
X533204Y636447D01*
X532851Y636211D01*
X532498Y635975D01*
X524498Y627975D01*
X524026Y627269D01*
X523860Y626436D01*
Y598337D01*
X510635Y585112D01*
X442891D01*
X442625Y585436D01*
X442276Y587191D01*
X441281Y588680D01*
X439793Y589674D01*
X438037Y590024D01*
X436281Y589674D01*
X434793Y588680D01*
X433798Y587191D01*
X433449Y585436D01*
X433798Y583680D01*
X434793Y582191D01*
X436281Y581197D01*
X438037Y580848D01*
X439410Y581121D01*
X439704Y580924D01*
X440537Y580759D01*
X511537D01*
X512370Y580924D01*
X513076Y581396D01*
X527576Y595896D01*
X527859Y596320D01*
X528048Y596603D01*
X528214Y597436D01*
Y625534D01*
X534939Y632259D01*
X589037D01*
X589870Y632425D01*
X590576Y632896D01*
X603439Y645759D01*
X624635D01*
X627860Y642534D01*
Y635436D01*
X628026Y634603D01*
X628498Y633896D01*
X631298Y631097D01*
X632004Y630625D01*
X632837Y630459D01*
X633487D01*
Y619336D01*
X634262D01*
X634844Y618066D01*
X634189Y616485D01*
X633919Y614436D01*
X634189Y612386D01*
X634980Y610477D01*
X636238Y608837D01*
X637878Y607579D01*
X639788Y606788D01*
X641837Y606518D01*
X643886Y606788D01*
X645796Y607579D01*
X647436Y608837D01*
X648694Y610477D01*
X649485Y612386D01*
X649755Y614436D01*
X649485Y616485D01*
X648830Y618066D01*
X649412Y619336D01*
X650187D01*
Y639336D01*
X633487D01*
Y638247D01*
X632217Y637569D01*
X632214Y637571D01*
Y643436D01*
X632048Y644269D01*
X631812Y644622D01*
X631576Y644975D01*
X627076Y649475D01*
X626370Y649947D01*
X625537Y650113D01*
D02*
G37*
G36*
X946637Y596953D02*
X944588Y596684D01*
X942678Y595893D01*
X941038Y594634D01*
X939780Y592994D01*
X938989Y591085D01*
X938719Y589036D01*
X938989Y586986D01*
X939780Y585077D01*
X941038Y583437D01*
X942678Y582179D01*
X944588Y581388D01*
X946637Y581118D01*
X948686Y581388D01*
X950596Y582179D01*
X952236Y583437D01*
X953494Y585077D01*
X954285Y586986D01*
X954555Y589036D01*
X954285Y591085D01*
X953494Y592994D01*
X952236Y594634D01*
X950596Y595893D01*
X948686Y596684D01*
X946637Y596953D01*
D02*
G37*
G36*
X1048237D02*
X1046188Y596684D01*
X1044278Y595893D01*
X1042638Y594634D01*
X1041380Y592994D01*
X1040589Y591085D01*
X1040319Y589036D01*
X1040589Y586986D01*
X1041380Y585077D01*
X1042638Y583437D01*
X1044278Y582179D01*
X1046188Y581388D01*
X1048237Y581118D01*
X1050286Y581388D01*
X1052196Y582179D01*
X1053836Y583437D01*
X1055094Y585077D01*
X1055885Y586986D01*
X1056155Y589036D01*
X1055885Y591085D01*
X1055094Y592994D01*
X1053836Y594634D01*
X1052196Y595893D01*
X1050286Y596684D01*
X1048237Y596953D01*
D02*
G37*
G36*
X504037Y831524D02*
X502281Y831174D01*
X500793Y830180D01*
X500170Y829247D01*
X454172D01*
X453339Y829082D01*
X452633Y828610D01*
X450182Y826159D01*
X448915Y826232D01*
X448281Y827180D01*
X446793Y828175D01*
X445037Y828524D01*
X443281Y828175D01*
X441793Y827180D01*
X440798Y825691D01*
X440449Y823936D01*
X440798Y822180D01*
X440400Y821218D01*
X439891Y821116D01*
X439599Y820921D01*
X433723D01*
X432683Y821617D01*
X430537Y822043D01*
X428391Y821617D01*
X426572Y820401D01*
X425356Y818582D01*
X424929Y816436D01*
X425356Y814290D01*
X426572Y812470D01*
X428391Y811255D01*
X430537Y810828D01*
X431150Y810950D01*
X439599D01*
X439891Y810755D01*
X442037Y810328D01*
X444183Y810755D01*
X446002Y811970D01*
X447218Y813790D01*
X447645Y815936D01*
X447218Y818082D01*
X446921Y818526D01*
X447397Y820100D01*
X448281Y820691D01*
X448995Y821759D01*
X451037D01*
X451870Y821925D01*
X452576Y822396D01*
X455074Y824894D01*
X499989D01*
X500793Y823691D01*
X502281Y822697D01*
X504037Y822347D01*
X505793Y822697D01*
X507281Y823691D01*
X508276Y825180D01*
X508625Y826936D01*
X508276Y828691D01*
X507281Y830180D01*
X505793Y831174D01*
X504037Y831524D01*
D02*
G37*
G36*
X247037Y740024D02*
X245281Y739675D01*
X243793Y738680D01*
X242798Y737191D01*
X242449Y735436D01*
X242798Y733680D01*
X243793Y732191D01*
X245281Y731197D01*
X247037Y730847D01*
X248793Y731197D01*
X249033Y731357D01*
X253017D01*
X253402Y730087D01*
X252793Y729680D01*
X251798Y728191D01*
X251449Y726436D01*
X251798Y724680D01*
X252793Y723191D01*
X254281Y722197D01*
X256037Y721848D01*
X257793Y722197D01*
X259281Y723191D01*
X260276Y724680D01*
X260625Y726436D01*
X260547Y726827D01*
X260770Y727145D01*
X261650Y727794D01*
X262837Y727558D01*
X262837Y727558D01*
X268387D01*
Y726636D01*
X291387D01*
Y736636D01*
X268387D01*
Y735714D01*
X264526D01*
X261921Y738319D01*
X260598Y739204D01*
X260339Y739255D01*
X259037Y739514D01*
X259037Y739514D01*
X249033D01*
X248793Y739675D01*
X247037Y740024D01*
D02*
G37*
G36*
X1127577Y735976D02*
X1108497D01*
Y716896D01*
X1115042D01*
X1115294Y715626D01*
X1113226Y714769D01*
X1111233Y713240D01*
X1109704Y711247D01*
X1108743Y708926D01*
X1108415Y706436D01*
X1108743Y703945D01*
X1109704Y701625D01*
X1111233Y699632D01*
X1113226Y698102D01*
X1115547Y697141D01*
X1118037Y696813D01*
X1120527Y697141D01*
X1122848Y698102D01*
X1124841Y699632D01*
X1126370Y701625D01*
X1127331Y703945D01*
X1127659Y706436D01*
X1127331Y708926D01*
X1126370Y711247D01*
X1124841Y713240D01*
X1122848Y714769D01*
X1120780Y715626D01*
X1121032Y716896D01*
X1127577D01*
Y735976D01*
D02*
G37*
G36*
X1088037Y762024D02*
X1086281Y761674D01*
X1084793Y760680D01*
X1083798Y759191D01*
X1083449Y757436D01*
X1083798Y755680D01*
X1084793Y754191D01*
X1086281Y753197D01*
X1088037Y752848D01*
X1089793Y753197D01*
X1091281Y754191D01*
X1092276Y755680D01*
X1092625Y757436D01*
X1092276Y759191D01*
X1091281Y760680D01*
X1089793Y761674D01*
X1088037Y762024D01*
D02*
G37*
G36*
X519037Y747024D02*
X517281Y746674D01*
X515793Y745680D01*
X514798Y744191D01*
X514449Y742436D01*
X514798Y740680D01*
X515793Y739191D01*
X517281Y738197D01*
X519037Y737848D01*
X520793Y738197D01*
X522281Y739191D01*
X523276Y740680D01*
X523625Y742436D01*
X523276Y744191D01*
X522281Y745680D01*
X520793Y746674D01*
X519037Y747024D01*
D02*
G37*
G36*
X512207Y714853D02*
X510452Y714504D01*
X508963Y713510D01*
X507969Y712021D01*
X507619Y710265D01*
X507969Y708509D01*
X508963Y707021D01*
X510452Y706026D01*
X512207Y705677D01*
X513963Y706026D01*
X515452Y707021D01*
X516446Y708509D01*
X516796Y710265D01*
X516446Y712021D01*
X515452Y713510D01*
X513963Y714504D01*
X512207Y714853D01*
D02*
G37*
G36*
X1034037Y829524D02*
X1032282Y829175D01*
X1030793Y828180D01*
X1029799Y826692D01*
X1029449Y824936D01*
X1029799Y823180D01*
X1030793Y821692D01*
X1032282Y820697D01*
X1034037Y820348D01*
X1035400Y820619D01*
X1036368Y819928D01*
X1036555Y819678D01*
Y782741D01*
X1036720Y781908D01*
X1037192Y781202D01*
X1055860Y762534D01*
Y723436D01*
X1056026Y722603D01*
X1056498Y721896D01*
X1057783Y720612D01*
X1057449Y718936D01*
X1057798Y717180D01*
X1058793Y715692D01*
X1060282Y714697D01*
X1062037Y714348D01*
X1063793Y714697D01*
X1065282Y715692D01*
X1066276Y717180D01*
X1066626Y718936D01*
X1066276Y720692D01*
X1065282Y722180D01*
X1063793Y723175D01*
X1062037Y723524D01*
X1061195Y723356D01*
X1060214Y724337D01*
Y763436D01*
X1060048Y764269D01*
X1059812Y764622D01*
X1059576Y764975D01*
X1040908Y783643D01*
Y821242D01*
X1040743Y822075D01*
X1040271Y822781D01*
X1038541Y824511D01*
X1038626Y824936D01*
X1038276Y826692D01*
X1037282Y828180D01*
X1035793Y829175D01*
X1034037Y829524D01*
D02*
G37*
G36*
X260037Y707024D02*
X258281Y706674D01*
X256793Y705680D01*
X255798Y704191D01*
X255449Y702436D01*
X255798Y700680D01*
X256793Y699191D01*
X258281Y698197D01*
X260037Y697848D01*
X261793Y698197D01*
X263281Y699191D01*
X264276Y700680D01*
X264625Y702436D01*
X264276Y704191D01*
X263281Y705680D01*
X261793Y706674D01*
X260037Y707024D01*
D02*
G37*
G36*
X1088037Y727024D02*
X1086281Y726674D01*
X1084793Y725680D01*
X1083798Y724191D01*
X1083449Y722436D01*
X1083798Y720680D01*
X1084793Y719191D01*
X1086281Y718197D01*
X1088037Y717848D01*
X1089793Y718197D01*
X1091281Y719191D01*
X1092276Y720680D01*
X1092625Y722436D01*
X1092276Y724191D01*
X1091281Y725680D01*
X1089793Y726674D01*
X1088037Y727024D01*
D02*
G37*
G36*
X596537Y868543D02*
X542537D01*
X540391Y868117D01*
X538572Y866901D01*
X535214Y863543D01*
X390037D01*
X387891Y863117D01*
X386072Y861901D01*
X338072Y813901D01*
X322214Y798043D01*
X292037D01*
X289891Y797617D01*
X288072Y796401D01*
X278072Y786401D01*
X276856Y784582D01*
X276429Y782436D01*
Y776636D01*
X268387D01*
Y767906D01*
X268387Y766636D01*
X268387Y766636D01*
Y766636D01*
X268387D01*
X268387Y766636D01*
Y757906D01*
X268387Y756636D01*
Y756636D01*
D01*
X268387Y755366D01*
Y746636D01*
X291387D01*
Y749459D01*
X292237D01*
X293070Y749625D01*
X293776Y750097D01*
X303939Y760259D01*
X313870D01*
X314255Y758989D01*
X313793Y758680D01*
X312798Y757191D01*
X312449Y755436D01*
X312798Y753680D01*
X313793Y752191D01*
X315281Y751197D01*
X317037Y750847D01*
X318793Y751197D01*
X320281Y752191D01*
X321276Y753680D01*
X321625Y755436D01*
X321276Y757191D01*
X320281Y758680D01*
X319819Y758989D01*
X320204Y760259D01*
X337062D01*
X337183Y760149D01*
X337094Y759345D01*
X336803Y758778D01*
X336281Y758674D01*
X334793Y757680D01*
X333798Y756191D01*
X333449Y754436D01*
X333798Y752680D01*
X334793Y751191D01*
X336281Y750197D01*
X338037Y749847D01*
X339793Y750197D01*
X341281Y751191D01*
X341665Y751765D01*
X341720Y751785D01*
X343134Y751678D01*
X343793Y750692D01*
X345282Y749697D01*
X347038Y749348D01*
X348793Y749697D01*
X350282Y750692D01*
X351276Y752180D01*
X351626Y753936D01*
X351276Y755692D01*
X350282Y757180D01*
X349214Y757893D01*
Y758435D01*
X349049Y759268D01*
X348577Y759975D01*
X344576Y763975D01*
X343870Y764447D01*
X343037Y764613D01*
X303037D01*
X302204Y764447D01*
X301851Y764211D01*
X301498Y763975D01*
X292561Y755038D01*
X291387Y755524D01*
X291387Y756636D01*
X291433Y757887D01*
X291661Y758436D01*
Y774436D01*
X291387Y775095D01*
Y776636D01*
X287645D01*
Y780113D01*
X294360Y786828D01*
X324537D01*
X326683Y787255D01*
X328502Y788470D01*
X343755Y803723D01*
X366363Y781115D01*
Y772111D01*
X365943Y771830D01*
X364949Y770342D01*
X364599Y768586D01*
X364949Y766830D01*
X365943Y765342D01*
X367432Y764347D01*
X369188Y763998D01*
X370943Y764347D01*
X372432Y765342D01*
X373426Y766830D01*
X373776Y768586D01*
X373426Y770342D01*
X372432Y771830D01*
X372012Y772111D01*
Y782285D01*
X371797Y783366D01*
X371185Y784282D01*
X347749Y807717D01*
X392360Y852328D01*
X537537D01*
X539683Y852755D01*
X541502Y853970D01*
X544860Y857328D01*
X555530D01*
X555778Y856082D01*
X555742Y856067D01*
X552118Y853847D01*
X548886Y851087D01*
X546126Y847855D01*
X543906Y844231D01*
X542280Y840305D01*
X541287Y836173D01*
X540954Y831936D01*
X541287Y827699D01*
X542280Y823567D01*
X543906Y819640D01*
X546126Y816017D01*
X548886Y812785D01*
X552118Y810025D01*
X555742Y807804D01*
X559668Y806178D01*
X563801Y805186D01*
X568037Y804852D01*
X572274Y805186D01*
X576407Y806178D01*
X580333Y807804D01*
X583957Y810025D01*
X587188Y812785D01*
X589949Y816017D01*
X592169Y819640D01*
X593795Y823567D01*
X594787Y827699D01*
X595121Y831936D01*
X594787Y836173D01*
X593795Y840305D01*
X592169Y844231D01*
X589949Y847855D01*
X587188Y851087D01*
X583957Y853847D01*
X580333Y856067D01*
X580297Y856082D01*
X580545Y857328D01*
X594214D01*
X597572Y853970D01*
X599391Y852755D01*
X601537Y852328D01*
X909715D01*
X931929Y830114D01*
Y764256D01*
X931037Y763524D01*
X929281Y763175D01*
X928072Y762367D01*
X927389Y762084D01*
X926913Y760936D01*
Y760864D01*
X926798Y760691D01*
X926449Y758936D01*
X926680Y757774D01*
X925913Y756617D01*
X925736Y756504D01*
X921037D01*
X919671Y756233D01*
X918514Y755459D01*
X909059Y746004D01*
X828515D01*
X810560Y763959D01*
X809403Y764733D01*
X808037Y765004D01*
X666037D01*
X664671Y764733D01*
X663514Y763959D01*
X641559Y742004D01*
X601606D01*
Y753936D01*
X601334Y755302D01*
X600560Y756460D01*
X597031Y759989D01*
X597557Y761259D01*
X646037D01*
X646870Y761424D01*
X647576Y761896D01*
X652439Y766759D01*
X814635D01*
X830498Y750896D01*
X831204Y750424D01*
X832037Y750258D01*
X832870Y750424D01*
X833371Y750759D01*
X870973D01*
X871686Y749691D01*
X873175Y748697D01*
X874931Y748347D01*
X876686Y748697D01*
X878175Y749691D01*
X879169Y751180D01*
X879519Y752936D01*
X879169Y754691D01*
X878175Y756180D01*
X876686Y757175D01*
X877051Y758342D01*
X877276Y758680D01*
X877626Y760436D01*
X877276Y762192D01*
X876338Y763596D01*
Y770680D01*
X875862Y771828D01*
X874714Y772303D01*
X862037D01*
X860889Y771828D01*
X860414Y770680D01*
Y770500D01*
X838884D01*
X817743Y791641D01*
X816072Y792924D01*
X815034Y793354D01*
X815286Y794624D01*
X833402D01*
X834235Y794790D01*
X834941Y795261D01*
X840939Y801259D01*
X867135D01*
X885861Y782534D01*
Y756725D01*
X885793Y756680D01*
X884798Y755191D01*
X884449Y753436D01*
X884798Y751680D01*
X885793Y750191D01*
X887281Y749197D01*
X889037Y748848D01*
X890793Y749197D01*
X892281Y750191D01*
X893276Y751680D01*
X893625Y753436D01*
X893276Y755191D01*
X892281Y756680D01*
X890793Y757674D01*
X890214Y757790D01*
Y783435D01*
X890049Y784268D01*
X889860Y784551D01*
X889577Y784975D01*
X869576Y804975D01*
X868870Y805447D01*
X868037Y805612D01*
X840037D01*
X839204Y805447D01*
X838921Y805258D01*
X838498Y804975D01*
X832500Y798978D01*
X688617D01*
X688276Y800691D01*
X687281Y802180D01*
X685793Y803175D01*
X684037Y803524D01*
X682281Y803175D01*
X680793Y802180D01*
X679931Y800890D01*
X679062Y800956D01*
X678661Y801101D01*
Y805435D01*
X678877Y805759D01*
X801635D01*
X805498Y801896D01*
X805851Y801660D01*
X806204Y801424D01*
X807037Y801259D01*
X829037D01*
X829870Y801424D01*
X830576Y801896D01*
X837576Y808896D01*
X837812Y809249D01*
X838048Y809603D01*
X838214Y810436D01*
Y816534D01*
X839939Y818259D01*
X845752D01*
X846173Y817005D01*
X845536Y816337D01*
X844964Y816451D01*
X843208Y816101D01*
X841720Y815107D01*
X840725Y813618D01*
X840376Y811862D01*
X840725Y810107D01*
X841720Y808618D01*
X843208Y807624D01*
X844964Y807274D01*
X846720Y807624D01*
X848208Y808618D01*
X849203Y810107D01*
X849552Y811862D01*
X849470Y812277D01*
X850275Y813259D01*
X899635D01*
X904860Y808034D01*
Y756893D01*
X903793Y756180D01*
X902798Y754691D01*
X902449Y752936D01*
X902798Y751180D01*
X903793Y749691D01*
X905281Y748697D01*
X907037Y748347D01*
X908793Y748697D01*
X910281Y749691D01*
X911276Y751180D01*
X911625Y752936D01*
X911276Y754691D01*
X910281Y756180D01*
X909214Y756893D01*
Y808936D01*
X909048Y809769D01*
X908812Y810122D01*
X908576Y810475D01*
X902076Y816975D01*
X902055Y816989D01*
X902441Y818259D01*
X915652D01*
X916331Y816989D01*
X915798Y816191D01*
X915449Y814436D01*
X915798Y812680D01*
X916793Y811191D01*
X918281Y810197D01*
X920037Y809847D01*
X921793Y810197D01*
X923281Y811191D01*
X924276Y812680D01*
X924625Y814436D01*
X924276Y816191D01*
X923281Y817680D01*
X922214Y818393D01*
Y818436D01*
X922048Y819269D01*
X921576Y819975D01*
X919576Y821975D01*
X918870Y822447D01*
X918037Y822613D01*
X839037D01*
X838204Y822447D01*
X837851Y822211D01*
X837498Y821975D01*
X834498Y818975D01*
X834026Y818269D01*
X833860Y817436D01*
Y811337D01*
X828135Y805612D01*
X826488D01*
X825639Y806882D01*
X825661Y806936D01*
Y821936D01*
X825185Y823084D01*
X824037Y823559D01*
X822466D01*
X822293Y823675D01*
X820537Y824024D01*
X818782Y823675D01*
X818609Y823559D01*
X810037D01*
X808889Y823084D01*
X808756Y822762D01*
X641307D01*
X639610Y822538D01*
X638955Y822267D01*
X638029Y821883D01*
X636671Y820842D01*
X616822Y800992D01*
X533593D01*
Y817436D01*
X533370Y819133D01*
X532715Y820714D01*
X531673Y822072D01*
X530315Y823113D01*
X528734Y823768D01*
X527037Y823992D01*
X525340Y823768D01*
X523759Y823113D01*
X522401Y822072D01*
X521359Y820714D01*
X520704Y819133D01*
X520481Y817436D01*
Y800992D01*
X494537D01*
X492840Y800768D01*
X492185Y800497D01*
X491259Y800113D01*
X489901Y799072D01*
X480321Y789492D01*
X451524D01*
X451138Y790762D01*
X451781Y791191D01*
X452776Y792680D01*
X453125Y794436D01*
X452776Y796191D01*
X451781Y797680D01*
X450293Y798674D01*
X448537Y799024D01*
X446781Y798674D01*
X445293Y797680D01*
X444298Y796191D01*
X443949Y794436D01*
X444298Y792680D01*
X445293Y791191D01*
X445936Y790762D01*
X445550Y789492D01*
X430900D01*
X430125Y790436D01*
X429776Y792191D01*
X429661Y792364D01*
Y792936D01*
X429185Y794084D01*
X428037Y794559D01*
X427465D01*
X427293Y794675D01*
X425537Y795024D01*
X423781Y794675D01*
X423609Y794559D01*
X420465D01*
X420293Y794675D01*
X418537Y795024D01*
X416781Y794675D01*
X416609Y794559D01*
X416037D01*
X414889Y794084D01*
X414413Y792936D01*
Y792364D01*
X414298Y792191D01*
X413949Y790436D01*
X414298Y788680D01*
X414413Y788507D01*
Y784364D01*
X414298Y784191D01*
X413949Y782436D01*
X414298Y780680D01*
X414413Y780507D01*
Y779936D01*
X414889Y778788D01*
X416037Y778312D01*
X416609D01*
X416781Y778197D01*
X418537Y777848D01*
X420293Y778197D01*
X420465Y778312D01*
X421392D01*
X421401Y778300D01*
X422759Y777258D01*
X424340Y776603D01*
X426037Y776379D01*
X483037D01*
X484734Y776603D01*
X485524Y776930D01*
X486315Y777258D01*
X487673Y778300D01*
X497253Y787880D01*
X578302D01*
X578664Y786995D01*
X578746Y786610D01*
X577798Y785191D01*
X577449Y783436D01*
X577798Y781680D01*
X578793Y780191D01*
X580281Y779197D01*
X582037Y778848D01*
X583793Y779197D01*
X585281Y780191D01*
X586276Y781680D01*
X586625Y783436D01*
X586276Y785191D01*
X585328Y786610D01*
X585410Y786995D01*
X585772Y787880D01*
X619537D01*
X621234Y788103D01*
X621889Y788374D01*
X622815Y788758D01*
X624173Y789800D01*
X644023Y809650D01*
X645876D01*
X646403Y808380D01*
X612500Y774477D01*
X486402D01*
X485569Y774312D01*
X484863Y773840D01*
X451248Y740225D01*
X450776Y739519D01*
X450610Y738686D01*
Y725393D01*
X449543Y724680D01*
X448548Y723191D01*
X448199Y721436D01*
X448548Y719680D01*
X448837Y719248D01*
X448158Y717978D01*
X446166D01*
X445487Y719248D01*
X445776Y719680D01*
X446125Y721436D01*
X445776Y723191D01*
X444781Y724680D01*
X443714Y725393D01*
Y727436D01*
X443548Y728269D01*
X443076Y728975D01*
X442214Y729837D01*
Y757478D01*
X443281Y758191D01*
X444276Y759680D01*
X444625Y761436D01*
X444276Y763191D01*
X443281Y764680D01*
X441793Y765675D01*
X440037Y766024D01*
X438281Y765675D01*
X436793Y764680D01*
X435798Y763191D01*
X435449Y761436D01*
X435798Y759680D01*
X436793Y758191D01*
X437860Y757478D01*
Y728936D01*
X438026Y728103D01*
X438498Y727396D01*
X439314Y726580D01*
X439241Y725313D01*
X438293Y724680D01*
X437298Y723191D01*
X436949Y721436D01*
X437298Y719680D01*
X437587Y719248D01*
X436908Y717978D01*
X428666D01*
X427987Y719248D01*
X428276Y719680D01*
X428625Y721436D01*
X428276Y723191D01*
X427281Y724680D01*
X426214Y725393D01*
Y753436D01*
X426048Y754269D01*
X425576Y754975D01*
X424375Y756177D01*
X424625Y757436D01*
X424276Y759191D01*
X423281Y760680D01*
X421793Y761674D01*
X420037Y762024D01*
X418281Y761674D01*
X416793Y760680D01*
X415798Y759191D01*
X415449Y757436D01*
X415798Y755680D01*
X416793Y754191D01*
X418281Y753197D01*
X420037Y752848D01*
X420781Y752996D01*
X421860Y752064D01*
Y725393D01*
X420793Y724680D01*
X419798Y723191D01*
X419449Y721436D01*
X419798Y719680D01*
X420793Y718191D01*
X422281Y717197D01*
X422299Y717193D01*
X422498Y716896D01*
X425133Y714261D01*
X425839Y713790D01*
X426672Y713624D01*
X473402D01*
X474235Y713790D01*
X474941Y714261D01*
X481576Y720896D01*
X481859Y721320D01*
X482048Y721603D01*
X482214Y722436D01*
Y742534D01*
X495939Y756259D01*
X565037D01*
X565870Y756424D01*
X566576Y756896D01*
X570939Y761259D01*
X582318D01*
X582997Y759989D01*
X582799Y759692D01*
X582449Y757936D01*
X582799Y756180D01*
X583793Y754691D01*
X585282Y753697D01*
X587038Y753348D01*
X588793Y753697D01*
X589796Y754367D01*
X592559D01*
X594468Y752458D01*
Y738436D01*
Y734413D01*
X593128Y733072D01*
X591793Y732180D01*
X590798Y730691D01*
X590449Y728936D01*
X590798Y727180D01*
X591793Y725691D01*
X593281Y724697D01*
X595037Y724347D01*
X596793Y724697D01*
X598281Y725691D01*
X599276Y727180D01*
X599625Y728936D01*
X599536Y729386D01*
X600560Y730411D01*
X601334Y731569D01*
X601606Y732934D01*
Y734867D01*
X643037D01*
X644403Y735139D01*
X645560Y735912D01*
X648295Y738646D01*
X649520Y738076D01*
X649798Y736680D01*
X650793Y735191D01*
X651213Y734911D01*
Y724436D01*
X651213Y724436D01*
X651428Y723355D01*
X652040Y722439D01*
X656040Y718439D01*
X656040Y718439D01*
X656589Y718072D01*
X656956Y717826D01*
X658037Y717611D01*
X680367D01*
X685040Y712939D01*
X685956Y712326D01*
X687037Y712111D01*
X701512D01*
X701793Y711691D01*
X703281Y710697D01*
X705037Y710348D01*
X706793Y710697D01*
X708281Y711691D01*
X709276Y713180D01*
X709625Y714936D01*
X709276Y716691D01*
X708281Y718180D01*
X706793Y719174D01*
X705037Y719524D01*
X703281Y719174D01*
X701793Y718180D01*
X701512Y717760D01*
X688207D01*
X683534Y722433D01*
X682618Y723045D01*
X681537Y723260D01*
X681537Y723260D01*
X662079D01*
X661954Y724530D01*
X662793Y724697D01*
X664282Y725692D01*
X664995Y726759D01*
X691537D01*
X692370Y726925D01*
X693076Y727397D01*
X696076Y730396D01*
X696359Y730820D01*
X696548Y731103D01*
X696714Y731936D01*
Y747978D01*
X697781Y748691D01*
X698776Y750180D01*
X699125Y751936D01*
X698776Y753691D01*
X697781Y755180D01*
X696293Y756174D01*
X694537Y756524D01*
X692781Y756174D01*
X691293Y755180D01*
X690298Y753691D01*
X689949Y751936D01*
X690298Y750180D01*
X691293Y748691D01*
X692360Y747978D01*
Y732837D01*
X690636Y731113D01*
X664995D01*
X664282Y732180D01*
X662793Y733175D01*
X661038Y733524D01*
X659282Y733175D01*
X658131Y732406D01*
X656861Y732897D01*
Y734911D01*
X657281Y735191D01*
X658276Y736680D01*
X658625Y738436D01*
X658276Y740191D01*
X657281Y741680D01*
X655793Y742674D01*
X654397Y742952D01*
X653826Y744178D01*
X667515Y757867D01*
X806559D01*
X824514Y739912D01*
X825671Y739139D01*
X827037Y738867D01*
X910537D01*
X911903Y739139D01*
X913060Y739912D01*
X922515Y749367D01*
X926913D01*
Y745936D01*
X927389Y744788D01*
X928537Y744312D01*
X945037D01*
X946185Y744788D01*
X946661Y745936D01*
Y760936D01*
X946185Y762084D01*
X945037Y762559D01*
X943714D01*
X943145Y762939D01*
Y832436D01*
X942718Y834582D01*
X941502Y836402D01*
X916003Y861901D01*
X914184Y863117D01*
X912038Y863543D01*
X603860D01*
X600502Y866901D01*
X598683Y868117D01*
X596537Y868543D01*
D02*
G37*
G36*
X462038Y822008D02*
X459599Y821523D01*
X457532Y820142D01*
X456150Y818074D01*
X455665Y815636D01*
X456150Y813197D01*
X457532Y811130D01*
X459599Y809748D01*
X462038Y809263D01*
X464476Y809748D01*
X466544Y811130D01*
X467925Y813197D01*
X468410Y815636D01*
X467925Y818074D01*
X466544Y820142D01*
X464476Y821523D01*
X462038Y822008D01*
D02*
G37*
G36*
X1148037Y859019D02*
X1143801Y858686D01*
X1139668Y857694D01*
X1135742Y856067D01*
X1132118Y853847D01*
X1128886Y851087D01*
X1126126Y847855D01*
X1123906Y844231D01*
X1122280Y840305D01*
X1121287Y836173D01*
X1120954Y831936D01*
X1121287Y827699D01*
X1122280Y823567D01*
X1123906Y819640D01*
X1126126Y816017D01*
X1128886Y812785D01*
X1132118Y810025D01*
X1135742Y807804D01*
X1139668Y806178D01*
X1143801Y805186D01*
X1148037Y804852D01*
X1152274Y805186D01*
X1156407Y806178D01*
X1160333Y807804D01*
X1163957Y810025D01*
X1167188Y812785D01*
X1169949Y816017D01*
X1172169Y819640D01*
X1173795Y823567D01*
X1174788Y827699D01*
X1175121Y831936D01*
X1174788Y836173D01*
X1173795Y840305D01*
X1172169Y844231D01*
X1169949Y847855D01*
X1167188Y851087D01*
X1163957Y853847D01*
X1160333Y856067D01*
X1156407Y857694D01*
X1152274Y858686D01*
X1148037Y859019D01*
D02*
G37*
G36*
X975037Y810024D02*
X973282Y809675D01*
X971793Y808680D01*
X970798Y807192D01*
X970449Y805436D01*
X970798Y803680D01*
X971793Y802191D01*
X973282Y801197D01*
X975037Y800848D01*
X976793Y801197D01*
X978282Y802191D01*
X979121Y802274D01*
X981361Y800034D01*
Y794393D01*
X980294Y793680D01*
X979299Y792192D01*
X978950Y790436D01*
X979299Y788680D01*
X980294Y787192D01*
X981782Y786197D01*
X983538Y785848D01*
X985294Y786197D01*
X986782Y787192D01*
X987777Y788680D01*
X988126Y790436D01*
X987777Y792192D01*
X986782Y793680D01*
X985715Y794393D01*
Y800936D01*
X985549Y801768D01*
X985077Y802475D01*
X980577Y806975D01*
X979871Y807447D01*
X979037Y807613D01*
X978995D01*
X978282Y808680D01*
X976793Y809675D01*
X975037Y810024D01*
D02*
G37*
G36*
X782037Y834024D02*
X780281Y833674D01*
X778793Y832680D01*
X777798Y831191D01*
X777449Y829436D01*
X777798Y827680D01*
X778793Y826191D01*
X780281Y825197D01*
X782037Y824847D01*
X783793Y825197D01*
X785281Y826191D01*
X786276Y827680D01*
X786625Y829436D01*
X786276Y831191D01*
X785281Y832680D01*
X783793Y833674D01*
X782037Y834024D01*
D02*
G37*
G36*
X421037Y829524D02*
X419281Y829174D01*
X417793Y828180D01*
X416798Y826691D01*
X416782Y826612D01*
X382037D01*
X381204Y826447D01*
X380498Y825975D01*
X369635Y815113D01*
X365995D01*
X365281Y816180D01*
X363793Y817175D01*
X362037Y817524D01*
X360281Y817175D01*
X358793Y816180D01*
X357798Y814691D01*
X357449Y812936D01*
X357798Y811180D01*
X358793Y809691D01*
X360281Y808697D01*
X362037Y808347D01*
X363793Y808697D01*
X365281Y809691D01*
X365995Y810759D01*
X370537D01*
X371370Y810925D01*
X372076Y811396D01*
X382939Y822259D01*
X400614D01*
X400999Y820989D01*
X399731Y820142D01*
X398350Y818074D01*
X397865Y815636D01*
X398350Y813197D01*
X399731Y811130D01*
X401799Y809748D01*
X404238Y809263D01*
X406676Y809748D01*
X408744Y811130D01*
X410125Y813197D01*
X410610Y815636D01*
X410125Y818074D01*
X408744Y820142D01*
X407476Y820989D01*
X407861Y822259D01*
X417413D01*
X417793Y821691D01*
X419281Y820697D01*
X421037Y820348D01*
X422793Y820697D01*
X424281Y821691D01*
X425276Y823180D01*
X425625Y824936D01*
X425276Y826691D01*
X424281Y828180D01*
X422793Y829174D01*
X421037Y829524D01*
D02*
G37*
G36*
X1087001Y791524D02*
X1085246Y791175D01*
X1083757Y790180D01*
X1082763Y788692D01*
X1082413Y786936D01*
X1082763Y785180D01*
X1083757Y783691D01*
X1085246Y782697D01*
X1087001Y782348D01*
X1088757Y782697D01*
X1090246Y783691D01*
X1091240Y785180D01*
X1091590Y786936D01*
X1091240Y788692D01*
X1090246Y790180D01*
X1088757Y791175D01*
X1087001Y791524D01*
D02*
G37*
%LPD*%
G36*
X660413Y805435D02*
Y791936D01*
X660889Y790788D01*
X662037Y790312D01*
X662360D01*
X663281Y789697D01*
X663308Y789691D01*
X664050Y787901D01*
X664864Y786840D01*
X656136Y778112D01*
X641537D01*
X640704Y777947D01*
X640421Y777758D01*
X639998Y777475D01*
X632135Y769613D01*
X615508D01*
X615130Y770378D01*
X615062Y770882D01*
X649939Y805759D01*
X660197D01*
X660413Y805435D01*
D02*
G37*
G36*
X671332Y780230D02*
X673003Y778948D01*
X674949Y778142D01*
X677038Y777867D01*
X789237D01*
X789760Y776889D01*
X789780Y776597D01*
X789449Y774936D01*
X789799Y773180D01*
X790331Y772383D01*
X789653Y771113D01*
X651537D01*
X650704Y770947D01*
X650351Y770711D01*
X649998Y770475D01*
X645135Y765612D01*
X636088D01*
X635562Y766882D01*
X642439Y773759D01*
X657038D01*
X657870Y773924D01*
X658577Y774396D01*
X667871Y783691D01*
X671332Y780230D01*
D02*
G37*
G36*
X531309Y769359D02*
X531377Y768854D01*
X528636Y766113D01*
X487038D01*
X486205Y765947D01*
X485498Y765475D01*
X462498Y742475D01*
X462026Y741769D01*
X461860Y740936D01*
Y725393D01*
X460793Y724680D01*
X459798Y723191D01*
X459449Y721436D01*
X459798Y719680D01*
X460087Y719248D01*
X459408Y717978D01*
X457416D01*
X456737Y719248D01*
X457026Y719680D01*
X457375Y721436D01*
X457026Y723191D01*
X456031Y724680D01*
X454964Y725393D01*
Y737784D01*
X487304Y770124D01*
X530931D01*
X531309Y769359D01*
D02*
G37*
G36*
X494418Y760489D02*
X494204Y760447D01*
X493498Y759975D01*
X478498Y744975D01*
X478026Y744269D01*
X477860Y743436D01*
Y723337D01*
X472500Y717978D01*
X468666D01*
X467987Y719248D01*
X468276Y719680D01*
X468625Y721436D01*
X468276Y723191D01*
X467281Y724680D01*
X466214Y725393D01*
Y740034D01*
X487939Y761759D01*
X494293D01*
X494418Y760489D01*
D02*
G37*
D10*
X1103037Y856936D02*
D03*
X233037Y576936D02*
D03*
Y856936D02*
D03*
D60*
X649037Y807936D02*
X802537D01*
X613402Y772301D02*
X649037Y807936D01*
X486402Y772301D02*
X613402D01*
X657038Y775936D02*
X671037Y789936D01*
X641537Y775936D02*
X657038D01*
X633037Y767436D02*
X641537Y775936D01*
X686172Y796801D02*
X833402D01*
X684037Y798936D02*
X686172Y796801D01*
X705037D01*
X671037Y789936D02*
Y791936D01*
X802537Y807936D02*
X807037Y803436D01*
X888037Y754435D02*
X889037Y753436D01*
X888037Y754435D02*
Y783435D01*
X868037Y803436D02*
X888037Y783435D01*
X840037Y803436D02*
X868037D01*
X833402Y796801D02*
X840037Y803436D01*
X962837Y570636D02*
X972038D01*
X959037Y574436D02*
X962837Y570636D01*
X959037Y574436D02*
Y579436D01*
X513037Y596436D02*
X515037Y598436D01*
X425037Y596436D02*
X513037D01*
X423037Y598436D02*
X425037Y596436D01*
X680037Y579436D02*
Y622436D01*
X675137Y574536D02*
X680037Y579436D01*
X667237Y574536D02*
X675137D01*
X1037037Y597436D02*
Y628436D01*
X1040037Y631436D02*
X1047037D01*
X1037037Y628436D02*
X1040037Y631436D01*
X303037Y762436D02*
X343037D01*
X292237Y751636D02*
X303037Y762436D01*
X279887Y751636D02*
X292237D01*
X347038Y753936D02*
Y758435D01*
X343037Y762436D02*
X347038Y758435D01*
X860537Y665936D02*
X883037D01*
X529538Y763936D02*
X533037Y767436D01*
X480037Y743436D02*
X495037Y758436D01*
X570037Y763436D02*
X576037D01*
X802037Y720436D02*
Y728436D01*
X792037Y710436D02*
X802037Y720436D01*
X745036Y710436D02*
X792037D01*
X331037Y598436D02*
X423037D01*
X322037Y607436D02*
X331037Y598436D01*
X322037Y607436D02*
Y648436D01*
X308837Y661636D02*
X322037Y648436D01*
X279887Y661636D02*
X308837D01*
X800037Y742436D02*
X816037D01*
X743037Y633036D02*
X744037Y634035D01*
X910837Y570636D02*
X921237D01*
X886837D02*
X895837D01*
X883037Y574435D02*
X886837Y570636D01*
X883037Y574435D02*
Y665936D01*
X835837Y570636D02*
X845038D01*
X832037Y574436D02*
X835837Y570636D01*
X832037Y574436D02*
Y652436D01*
X1013037Y573936D02*
Y685435D01*
X1008037Y572936D02*
Y674435D01*
X944537Y713936D02*
X947037Y711436D01*
X388037Y638436D02*
Y654436D01*
X395842Y662241D01*
X373037Y638436D02*
Y657436D01*
X358704Y633769D02*
Y638269D01*
Y633769D02*
X360037Y632436D01*
X345037Y634936D02*
X352538Y627436D01*
X345037Y634936D02*
Y637436D01*
X526037Y597436D02*
Y626436D01*
X704037Y575936D02*
X709337Y570636D01*
X704037Y575936D02*
Y648436D01*
X360037Y632436D02*
X390037D01*
X352538Y627436D02*
X397037D01*
X480037Y722436D02*
Y743436D01*
X424037Y718436D02*
Y721436D01*
X529037Y643436D02*
X589037D01*
X515037Y629436D02*
X529037Y643436D01*
X515037Y598436D02*
Y629436D01*
X783037Y651436D02*
Y652436D01*
X781037Y649436D02*
X783037Y651436D01*
X1034037Y824936D02*
X1035038D01*
X709337Y570636D02*
X718037D01*
X972038Y655936D02*
X972038Y655936D01*
Y632636D02*
Y655936D01*
X952038Y650936D02*
Y662936D01*
X946637Y645536D02*
X952038Y650936D01*
X946637Y632636D02*
Y645536D01*
X1005737Y570636D02*
X1008037Y572936D01*
X997438Y570636D02*
X1005737D01*
X1013037Y573936D02*
X1016338Y570636D01*
X1022838D01*
X983538Y790436D02*
Y800936D01*
X979037Y805436D02*
X983538Y800936D01*
X975037Y805436D02*
X979037D01*
X641837Y570636D02*
Y573136D01*
X638037Y576936D02*
X641837Y573136D01*
X420037Y757436D02*
X424037Y753436D01*
Y721436D02*
Y753436D01*
X526037Y626436D02*
X534037Y634436D01*
X784837Y570636D02*
X794238D01*
X781037Y574436D02*
X784837Y570636D01*
X781037Y574436D02*
Y649436D01*
X440037Y728936D02*
Y761436D01*
X844964Y811862D02*
Y812363D01*
X848037Y815436D01*
X815537Y768936D02*
X832037Y752435D01*
X1048037Y632436D02*
Y648936D01*
X1060632Y671031D02*
X1061037Y671436D01*
X1021037Y634436D02*
X1022838Y632636D01*
X810837Y570636D02*
X819638D01*
X991037Y695436D02*
X1003037D01*
X1013037Y685435D01*
X1051037Y714435D02*
X1055037Y710436D01*
X1067037D01*
X1035537Y773936D02*
X1051037Y758435D01*
Y714435D02*
Y758435D01*
X1061037Y671436D02*
X1074037Y658436D01*
Y630436D02*
Y658436D01*
Y630436D02*
X1075037Y629436D01*
X630037Y635436D02*
X632837Y632636D01*
X641837D01*
X630037Y635436D02*
Y643436D01*
X534037Y634436D02*
X589037D01*
X651537Y768936D02*
X815537D01*
X279887Y681636D02*
X308837D01*
X317037Y673436D01*
X646037Y763436D02*
X651537Y768936D01*
X693037Y633035D02*
Y642436D01*
X692637Y632636D02*
X693037Y633035D01*
X845038Y632636D02*
Y654435D01*
X819638Y632636D02*
Y653835D01*
X769037Y704436D02*
X839037D01*
X871037Y689436D02*
X886037D01*
X630537Y578435D02*
Y579686D01*
X1006037Y676436D02*
X1008037Y674435D01*
X1006037Y676436D02*
Y682436D01*
X1058037Y723436D02*
X1062037Y719436D01*
X1058037Y723436D02*
Y763436D01*
X1038732Y782741D02*
X1058037Y763436D01*
X1035038Y824936D02*
X1038732Y821242D01*
X1035038Y773936D02*
X1035537D01*
X1023949Y737523D02*
X1024037Y737436D01*
X1038732Y782741D02*
Y821242D01*
X1013537Y804436D02*
X1024784D01*
X1020216Y793936D02*
X1024372D01*
X996037Y777436D02*
X1003716D01*
X1020216Y793936D01*
X508037Y724436D02*
X588037D01*
X395842Y662241D02*
X407882D01*
X317037Y673436D02*
X326037D01*
X733037Y680436D02*
X734037Y679436D01*
X680037Y686436D02*
X733037D01*
X729037Y680436D02*
X733037D01*
X734037Y679436D02*
X832037D01*
X380037Y705936D02*
X384037Y709936D01*
X493537D01*
X508037Y724436D01*
X279887Y711636D02*
X291837D01*
X293171Y710301D01*
X438037Y585436D02*
X440537Y582936D01*
X511537D01*
X526037Y597436D01*
X451037Y611936D02*
Y650935D01*
X451037Y650936D01*
X442537Y603436D02*
X451037Y611936D01*
X443037Y623936D02*
X443537Y624436D01*
Y636936D01*
X319037Y680436D02*
X327037Y688436D01*
X512037D01*
X326037Y673436D02*
X337537Y684936D01*
X426672Y715801D02*
X473402D01*
X424037Y718436D02*
X426672Y715801D01*
X473402D02*
X480037Y722436D01*
X920037Y814436D02*
Y818436D01*
X918037Y820436D02*
X920037Y818436D01*
X839037Y820436D02*
X918037D01*
X836037Y817436D02*
X839037Y820436D01*
X836037Y810436D02*
Y817436D01*
X829037Y803436D02*
X836037Y810436D01*
X807037Y803436D02*
X829037D01*
X445037Y823936D02*
X451037D01*
X420537Y824436D02*
X421037Y824936D01*
X382037Y824436D02*
X420537D01*
X362037Y812936D02*
X370537D01*
X382037Y824436D01*
X782037Y716936D02*
Y729436D01*
X785037Y700436D02*
X887537D01*
X896037Y708936D01*
X944537Y713936D02*
X944537Y713936D01*
X898164Y714071D02*
X898299Y713936D01*
X944537D01*
X848672Y714071D02*
X898164D01*
X839037Y704436D02*
X848672Y714071D01*
X937537Y718936D02*
X996037Y777436D01*
X816037Y742436D02*
X835537Y722936D01*
X932037D01*
X1013537Y804436D01*
X832037Y694436D02*
X834537Y696936D01*
X863537D01*
X871037Y689436D01*
X556037Y684936D02*
X571037D01*
X588037Y724436D02*
X604037Y708436D01*
X1026537Y717936D02*
Y732674D01*
X1025415Y804936D02*
X1029507Y800844D01*
X1026537Y732674D02*
X1029507Y735644D01*
Y800844D01*
X1023949Y737523D02*
X1024372Y737946D01*
Y793936D01*
X574724Y690071D02*
X791402D01*
X733037Y686436D02*
X735037Y684436D01*
X821537D01*
X822537Y685436D01*
X846037D01*
X832037Y752435D02*
X832538Y752936D01*
X874931D01*
X848037Y815436D02*
X900537D01*
X907037Y808936D01*
Y752936D02*
Y808936D01*
X834037Y718936D02*
X937537D01*
X512037Y688436D02*
X515672Y692071D01*
X373172Y698301D02*
X506402D01*
X604037Y708436D02*
X657037D01*
X506402Y698301D02*
X508037Y699936D01*
X728037D01*
X511037Y695936D02*
X710186D01*
X337537Y684936D02*
X494037D01*
X673037Y679436D02*
X680037Y686436D01*
X494037Y684936D02*
X499537Y679436D01*
X673037D01*
X515672Y692071D02*
X572724D01*
X574724Y690071D01*
X846037Y685436D02*
X858537Y672936D01*
X886038D01*
X870437Y632636D02*
Y649535D01*
X793672Y687801D02*
X806862D01*
X791402Y690071D02*
X793672Y687801D01*
X806862D02*
X807997Y688936D01*
X849275D01*
X859775Y678436D01*
X867037D01*
X807037Y631444D02*
Y651936D01*
Y631444D02*
X810172Y628309D01*
Y610071D02*
Y628309D01*
X808037Y573436D02*
X810837Y570636D01*
X808037Y573436D02*
Y607936D01*
X810172Y610071D01*
X910037Y571436D02*
X910837Y570636D01*
X886038Y672936D02*
X904902Y654072D01*
X655037Y578935D02*
X658172Y582070D01*
X655037Y573936D02*
Y578935D01*
X373037Y657436D02*
X382537Y666936D01*
X403737D01*
X503902Y827071D02*
X504037Y826936D01*
X454172Y827071D02*
X503902D01*
X451037Y823936D02*
X454172Y827071D01*
X508037Y692936D02*
X511037Y695936D01*
X279887Y691636D02*
X305737D01*
X307037Y692936D01*
X508037D01*
X293171Y710301D02*
X361171D01*
X373172Y698301D01*
X468537Y649936D02*
X580537D01*
X473492Y653481D02*
X574232D01*
X478222Y656751D02*
X566852D01*
X589037Y634436D02*
X602537Y647936D01*
X625537D01*
X630037Y643436D01*
X1025037Y671936D02*
Y673936D01*
Y671936D02*
X1048037Y648936D01*
X1021037Y634436D02*
X1023037Y636436D01*
Y650936D01*
X1075037Y718436D02*
Y718936D01*
X1067037Y710436D02*
X1075037Y718436D01*
X789037Y738897D02*
X790633Y737301D01*
X815672D01*
X834037Y718936D01*
X778537Y693936D02*
X785037Y700436D01*
X710186Y695936D02*
X712187Y693936D01*
X761902Y697300D02*
X769037Y704436D01*
X728037Y699936D02*
X730672Y697300D01*
X712187Y693936D02*
X778537D01*
X730672Y697300D02*
X761902D01*
X737036Y702435D02*
X745036Y710436D01*
X742038Y636035D02*
X744037Y634035D01*
X742038Y636035D02*
Y649936D01*
X574982Y664881D02*
X834592D01*
X582362Y661611D02*
X811862D01*
X588942Y658341D02*
X800633D01*
X600672Y655071D02*
X748402D01*
X589037Y643436D02*
X600672Y655071D01*
X748402D02*
X754037Y649436D01*
X580537Y649936D02*
X588942Y658341D01*
X800633D02*
X807037Y651936D01*
X574232Y653481D02*
X582362Y661611D01*
X811862D02*
X819638Y653835D01*
X566852Y656751D02*
X574982Y664881D01*
X834592D02*
X845038Y654435D01*
X852537Y673936D02*
X860537Y665936D01*
X850417Y669556D02*
X870437Y649535D01*
X468687Y666286D02*
X478222Y656751D01*
X465077Y661896D02*
X473492Y653481D01*
X395767Y672166D02*
X397537Y673936D01*
X403737Y666936D02*
X406357Y669556D01*
X407882Y662241D02*
X411927Y666286D01*
X390037Y632436D02*
X419497Y661896D01*
X397537Y673936D02*
X852537D01*
X406357Y669556D02*
X850417D01*
X411927Y666286D02*
X468687D01*
X419497Y661896D02*
X465077D01*
X462037Y656436D02*
X468537Y649936D01*
X397037Y627436D02*
X426037Y656436D01*
X462037D01*
X439037Y641436D02*
Y650936D01*
Y641436D02*
X443537Y636936D01*
X440037Y728936D02*
X441537Y727436D01*
Y721436D02*
Y727436D01*
X452787Y721436D02*
Y738686D01*
X486402Y772301D01*
X464037Y721436D02*
Y740936D01*
X487038Y763936D01*
X529538D01*
X495037Y758436D02*
X565037D01*
X570037Y763436D01*
X646037D01*
X533037Y767436D02*
X633037D01*
X632037Y576936D02*
X638037D01*
X632037Y576935D02*
Y576936D01*
X630537Y578435D02*
X632037Y576935D01*
X1064037Y628936D02*
X1073637D01*
X1061537Y626436D02*
X1064037Y628936D01*
X1061537Y602436D02*
Y626436D01*
X915387Y653586D02*
X921237Y647735D01*
Y632636D02*
Y647735D01*
X903037Y663936D02*
X909037D01*
X915387Y657586D01*
Y653586D02*
Y657586D01*
X904902Y624071D02*
Y654072D01*
Y624071D02*
X910037Y618936D01*
Y571436D02*
Y618936D01*
X718037Y628936D02*
X729037D01*
X731037Y626936D01*
Y614436D02*
Y626936D01*
X658172Y582070D02*
Y628071D01*
X659037Y628936D01*
X667237D01*
X601537Y572435D02*
Y576936D01*
Y572435D02*
X603337Y570636D01*
X616437D01*
X694537Y731936D02*
Y751936D01*
X679037Y649936D02*
X685537D01*
X693037Y642436D01*
X691537Y728936D02*
X694537Y731936D01*
X661038Y728936D02*
X691537D01*
D61*
X865638Y575436D02*
X870437Y570636D01*
X369188Y768586D02*
Y782285D01*
X582037Y783436D02*
Y793436D01*
X279887Y671636D02*
X295237D01*
X681537Y720436D02*
X687037Y714936D01*
X658037Y720436D02*
X681537D01*
X687037Y714936D02*
X705037D01*
X295237Y671636D02*
X300037Y676436D01*
X342037Y809436D02*
Y809936D01*
Y809436D02*
X369188Y782285D01*
X654037Y724436D02*
X658037Y720436D01*
X654037Y724436D02*
Y738436D01*
D63*
X666037Y761436D02*
X808037D01*
X827037Y742436D01*
X594037Y757936D02*
X598037Y753936D01*
X595037Y729934D02*
X598037Y732934D01*
X595037Y728936D02*
Y729934D01*
X598037Y732934D02*
Y738436D01*
Y753936D01*
X827037Y742436D02*
X910537D01*
X921037Y752936D01*
X932037D01*
X598037Y738436D02*
X643037D01*
X587038Y757936D02*
X594037D01*
X643037Y738436D02*
X666037Y761436D01*
D64*
X857837Y569436D02*
X865337D01*
X681037Y569436D02*
X689838D01*
X895837Y632636D02*
Y650635D01*
X934037Y569436D02*
X943838D01*
X1036037Y569636D02*
X1048238D01*
X731037Y569436D02*
X744037D01*
X616437Y628936D02*
Y641936D01*
X1099037Y628936D02*
Y642436D01*
D66*
X247037Y735436D02*
X259037D01*
X262837Y731636D01*
X279887D01*
X986037Y627936D02*
X996437D01*
X997437Y628936D01*
D72*
X1115037Y578436D02*
Y653436D01*
X1112037Y575436D02*
X1115037Y578436D01*
X1103837Y575436D02*
X1112037D01*
X1099037Y570636D02*
X1103837Y575436D01*
X937537Y753995D02*
Y832436D01*
X542537Y862936D02*
X596537D01*
X292037Y792436D02*
X324537D01*
X282037Y782436D02*
X292037Y792436D01*
X282037Y768436D02*
Y782436D01*
X324537Y792436D02*
X342037Y809936D01*
X390037Y857936D01*
X537537D01*
X542537Y862936D01*
X596537D02*
X601537Y857936D01*
X912038D01*
X937537Y832436D01*
D73*
X440638Y815936D02*
X440837Y815736D01*
X430537Y815936D02*
X440638D01*
X440837Y815736D02*
X441037Y815936D01*
X442037D01*
D81*
X462038Y815636D02*
D03*
X404238D02*
D03*
D82*
X1118037Y706436D02*
D03*
D83*
Y726436D02*
D03*
D84*
X941037Y758936D02*
D03*
X931037D02*
D03*
X652037Y784936D02*
D03*
X644037D02*
D03*
Y791936D02*
D03*
X684037Y798936D02*
D03*
X674037Y793936D02*
D03*
X665037D02*
D03*
Y801936D02*
D03*
X674037D02*
D03*
X889037Y753436D02*
D03*
X498037Y567436D02*
D03*
X413037Y578436D02*
D03*
X798037Y647436D02*
D03*
X724037D02*
D03*
X541037Y749936D02*
D03*
X414037Y716436D02*
D03*
X430037Y704436D02*
D03*
X485037Y661936D02*
D03*
X392037Y704436D02*
D03*
X857837Y569436D02*
D03*
X959037Y579436D02*
D03*
X985037Y569436D02*
D03*
X326037Y586936D02*
D03*
X337037Y640436D02*
D03*
X380537Y640936D02*
D03*
X438037Y585436D02*
D03*
X457037Y588436D02*
D03*
X375037Y566436D02*
D03*
X372037Y866436D02*
D03*
X432037Y727936D02*
D03*
X394037Y729436D02*
D03*
X629037Y593436D02*
D03*
X756037Y588436D02*
D03*
X934037Y589436D02*
D03*
X985037Y588436D02*
D03*
Y612436D02*
D03*
X934037D02*
D03*
X858037Y611436D02*
D03*
X617037Y837436D02*
D03*
X608037Y749436D02*
D03*
X1099037Y704436D02*
D03*
X1100037Y722436D02*
D03*
Y757436D02*
D03*
X1119037Y770436D02*
D03*
X1139037Y702436D02*
D03*
X1111037Y672936D02*
D03*
X991037Y647436D02*
D03*
X958037D02*
D03*
X912037D02*
D03*
X853037D02*
D03*
X1033037D02*
D03*
X1066537Y656436D02*
D03*
X681037Y569436D02*
D03*
X680037Y622436D02*
D03*
X1037037Y597436D02*
D03*
X320037Y740436D02*
D03*
X317037Y755436D02*
D03*
X848037Y841436D02*
D03*
X833037D02*
D03*
X794037Y802436D02*
D03*
X1138037Y749436D02*
D03*
X1119037Y791436D02*
D03*
X1140037Y665936D02*
D03*
X1132087Y641936D02*
D03*
X1058037Y774436D02*
D03*
X989037Y725436D02*
D03*
X971037D02*
D03*
X953037D02*
D03*
X999537Y748436D02*
D03*
X1006537D02*
D03*
Y755436D02*
D03*
X1008037Y790436D02*
D03*
X984037Y834436D02*
D03*
X944037Y843436D02*
D03*
X898037Y807436D02*
D03*
X883037D02*
D03*
X882037Y756436D02*
D03*
X870037Y728436D02*
D03*
X856037D02*
D03*
X842037D02*
D03*
X861037Y651436D02*
D03*
X896037D02*
D03*
X854037Y691436D02*
D03*
X582037Y783436D02*
D03*
X401037Y795436D02*
D03*
X389037Y786436D02*
D03*
X534037Y778436D02*
D03*
X548037D02*
D03*
X562037D02*
D03*
X338037Y754436D02*
D03*
X319037Y680436D02*
D03*
X754037Y649436D02*
D03*
X346037Y704436D02*
D03*
X802037Y728436D02*
D03*
X815037D02*
D03*
X800037Y742436D02*
D03*
X512207Y710265D02*
D03*
X947037Y711436D02*
D03*
X388037Y637936D02*
D03*
X373037Y638436D02*
D03*
X358704D02*
D03*
X345037Y637936D02*
D03*
X256037Y726436D02*
D03*
X244037D02*
D03*
X484037Y601936D02*
D03*
X484037Y617436D02*
D03*
X471037Y631436D02*
D03*
X482037Y644436D02*
D03*
X1003037Y813436D02*
D03*
X214037Y754436D02*
D03*
X198037Y774436D02*
D03*
X222037Y690436D02*
D03*
X339537Y656436D02*
D03*
X308037Y637436D02*
D03*
X305037Y645436D02*
D03*
X313037Y808436D02*
D03*
X285037Y835436D02*
D03*
X338037Y838436D02*
D03*
X284037Y598436D02*
D03*
Y609436D02*
D03*
X203037Y589436D02*
D03*
X333037Y621436D02*
D03*
X782037Y829436D02*
D03*
X903037Y663936D02*
D03*
X1106037Y796436D02*
D03*
Y812436D02*
D03*
X1073037Y849436D02*
D03*
X1044037Y841436D02*
D03*
X1035037Y757436D02*
D03*
X1029037Y701436D02*
D03*
X704037Y649936D02*
D03*
X395767Y672166D02*
D03*
X380037Y705936D02*
D03*
X535537Y621436D02*
D03*
X499037Y622436D02*
D03*
X783037Y652436D02*
D03*
X794037Y774936D02*
D03*
X553037Y749936D02*
D03*
X620037Y714936D02*
D03*
Y726936D02*
D03*
X614038Y720936D02*
D03*
X1034037Y824936D02*
D03*
X1062037Y718936D02*
D03*
X347038Y753936D02*
D03*
X820537Y819436D02*
D03*
X451037Y650936D02*
D03*
X972038Y655936D02*
D03*
X952038Y662936D02*
D03*
X873037Y760436D02*
D03*
X983538Y790436D02*
D03*
X975037Y805436D02*
D03*
X1087001Y786936D02*
D03*
X1081837Y739936D02*
D03*
X883037Y665936D02*
D03*
X420037Y757436D02*
D03*
X424037Y721436D02*
D03*
X867037Y678436D02*
D03*
X832037Y652436D02*
D03*
X440037Y761436D02*
D03*
X844964Y811862D02*
D03*
X271037Y648436D02*
D03*
X286037D02*
D03*
X297037Y748436D02*
D03*
X329037Y775436D02*
D03*
X369188Y768586D02*
D03*
X297037Y629436D02*
D03*
X193037D02*
D03*
X212037Y568936D02*
D03*
X252037D02*
D03*
X292037D02*
D03*
X399317Y578436D02*
D03*
X382037Y590436D02*
D03*
Y604436D02*
D03*
X492037Y742436D02*
D03*
X577037D02*
D03*
X921037Y688436D02*
D03*
X974037D02*
D03*
X898037Y756436D02*
D03*
X731037Y569436D02*
D03*
X934037D02*
D03*
X1036037D02*
D03*
X1086037Y578436D02*
D03*
Y570436D02*
D03*
X1062037Y583436D02*
D03*
X1124037Y574436D02*
D03*
X884037Y679436D02*
D03*
X1088037Y757436D02*
D03*
X1075037Y695436D02*
D03*
X1049037Y694436D02*
D03*
X1026037Y661436D02*
D03*
X1061037Y671436D02*
D03*
X363037Y723436D02*
D03*
X307037Y775436D02*
D03*
X357037Y768436D02*
D03*
X1150037Y739436D02*
D03*
X653037Y626936D02*
D03*
X382037Y794436D02*
D03*
X432037Y742436D02*
D03*
X430037Y769436D02*
D03*
X502037Y817436D02*
D03*
X510037D02*
D03*
X991037Y695436D02*
D03*
X1006037Y682436D02*
D03*
X203037Y815436D02*
D03*
Y843436D02*
D03*
Y617436D02*
D03*
X356037Y591436D02*
D03*
X499037Y589436D02*
D03*
X487037Y632436D02*
D03*
X514037Y826936D02*
D03*
X695037Y846436D02*
D03*
X731037D02*
D03*
X993037Y864436D02*
D03*
X956037D02*
D03*
X616437Y641936D02*
D03*
X464037Y721436D02*
D03*
X349037Y789436D02*
D03*
X470537Y703436D02*
D03*
X481037Y715436D02*
D03*
X471037Y725436D02*
D03*
X474037Y739436D02*
D03*
X492037Y727436D02*
D03*
X519037Y742436D02*
D03*
X635537Y643436D02*
D03*
X955037Y783436D02*
D03*
X963037Y787936D02*
D03*
Y778936D02*
D03*
X971037Y783436D02*
D03*
X717037Y750436D02*
D03*
X741037D02*
D03*
Y726436D02*
D03*
X717037D02*
D03*
X729036Y738435D02*
D03*
X260037Y702436D02*
D03*
X247037Y735436D02*
D03*
X275037Y629436D02*
D03*
X238037D02*
D03*
X285337Y823686D02*
D03*
X657037Y708436D02*
D03*
X674987Y735436D02*
D03*
X782037Y716436D02*
D03*
Y729436D02*
D03*
X886037Y689436D02*
D03*
X832037Y694436D02*
D03*
X398037Y652436D02*
D03*
X217537Y780936D02*
D03*
X237037D02*
D03*
X269537Y780436D02*
D03*
X194037Y800436D02*
D03*
X193037Y842936D02*
D03*
X292037Y864436D02*
D03*
X261704D02*
D03*
X1130037D02*
D03*
X1073037Y865436D02*
D03*
X1173037Y801435D02*
D03*
Y772769D02*
D03*
Y744102D02*
D03*
Y715436D02*
D03*
Y686769D02*
D03*
Y658102D02*
D03*
Y629436D02*
D03*
X586037Y567436D02*
D03*
X542037D02*
D03*
X530037Y586436D02*
D03*
X193037Y594936D02*
D03*
X233037Y700936D02*
D03*
X1083037Y840936D02*
D03*
X452787Y721436D02*
D03*
X917037Y783936D02*
D03*
X896037Y845936D02*
D03*
X936037Y735936D02*
D03*
X907037Y734936D02*
D03*
X792037Y752936D02*
D03*
X212037Y639936D02*
D03*
X201037Y715936D02*
D03*
X712037Y774436D02*
D03*
X704037Y801936D02*
D03*
X775537Y774436D02*
D03*
X776537Y745436D02*
D03*
X428537Y650936D02*
D03*
X240537Y826936D02*
D03*
X276537Y806936D02*
D03*
X531037Y867436D02*
D03*
X607537D02*
D03*
X601537Y576936D02*
D03*
X630537Y579686D02*
D03*
X1035038Y773936D02*
D03*
X1024037Y737436D02*
D03*
X1024372Y793936D02*
D03*
X1025415Y804936D02*
D03*
X847037Y773436D02*
D03*
X858037Y784436D02*
D03*
X836037D02*
D03*
X847037D02*
D03*
Y795436D02*
D03*
X538248Y686723D02*
D03*
X297036Y715436D02*
D03*
X310037Y702436D02*
D03*
Y728436D02*
D03*
X294187Y728386D02*
D03*
X294087Y702236D02*
D03*
X517337Y661886D02*
D03*
X470037Y679436D02*
D03*
X490037Y644436D02*
D03*
X483037Y679436D02*
D03*
X718037Y680936D02*
D03*
X729037Y680436D02*
D03*
X832037Y679436D02*
D03*
X489037Y703936D02*
D03*
X381037Y620436D02*
D03*
X482537Y577436D02*
D03*
X442537Y603436D02*
D03*
X443037Y623936D02*
D03*
X441537Y721436D02*
D03*
X920037Y814436D02*
D03*
X445037Y823936D02*
D03*
X421037Y824936D02*
D03*
X511037Y847436D02*
D03*
X504037Y826936D02*
D03*
X362037Y812936D02*
D03*
X705037Y714936D02*
D03*
X896037Y708936D02*
D03*
X799037Y692936D02*
D03*
X571037Y684936D02*
D03*
X556037D02*
D03*
X595037Y728936D02*
D03*
X668037Y705936D02*
D03*
X664037Y647436D02*
D03*
X756037Y628436D02*
D03*
X805037Y616936D02*
D03*
X858037Y628436D02*
D03*
X959037D02*
D03*
X934037D02*
D03*
X1099037Y642436D02*
D03*
X731037Y614436D02*
D03*
X1061537Y602436D02*
D03*
X1088037Y722436D02*
D03*
X1026537Y717936D02*
D03*
X1065037Y804436D02*
D03*
X1079037Y669436D02*
D03*
X910037Y628436D02*
D03*
X798037Y846435D02*
D03*
X874931Y752936D02*
D03*
X907037Y752936D02*
D03*
X522037Y686936D02*
D03*
X646037Y684936D02*
D03*
X195037Y676436D02*
D03*
X986037Y627936D02*
D03*
X655037Y573936D02*
D03*
X865537Y760436D02*
D03*
X870537Y767436D02*
D03*
X999537Y755436D02*
D03*
X936037Y748936D02*
D03*
X448537Y794436D02*
D03*
X587037Y713936D02*
D03*
X300037Y676436D02*
D03*
X1025037Y673936D02*
D03*
X1023037Y649936D02*
D03*
X1075037Y718936D02*
D03*
X789037Y738897D02*
D03*
X737036Y702435D02*
D03*
X742038Y649936D02*
D03*
X439037Y650936D02*
D03*
X576037Y778436D02*
D03*
X215037Y864936D02*
D03*
X362037Y845936D02*
D03*
X843037Y866936D02*
D03*
X593037Y781936D02*
D03*
X587038Y757936D02*
D03*
X384037Y772436D02*
D03*
X384037Y677936D02*
D03*
X694537Y751936D02*
D03*
X527037Y817436D02*
D03*
X465037Y795936D02*
D03*
X637037Y779436D02*
D03*
X536037Y841936D02*
D03*
X418537Y790436D02*
D03*
Y782436D02*
D03*
X425537Y790436D02*
D03*
X679037Y649936D02*
D03*
X646037Y732436D02*
D03*
X654037Y738436D02*
D03*
Y758936D02*
D03*
X638037Y749436D02*
D03*
X661038Y728936D02*
D03*
X430537Y816436D02*
D03*
X442037Y815936D02*
D03*
D85*
X540037Y730436D02*
D03*
X564037D02*
D03*
X541128Y707526D02*
D03*
X552036Y718435D02*
D03*
X564037Y706436D02*
D03*
D86*
X279887Y661636D02*
D03*
Y671636D02*
D03*
Y681636D02*
D03*
Y691636D02*
D03*
Y701636D02*
D03*
Y711636D02*
D03*
Y721636D02*
D03*
Y731636D02*
D03*
Y741636D02*
D03*
Y751636D02*
D03*
Y761636D02*
D03*
Y771636D02*
D03*
D87*
X256387Y631636D02*
D03*
Y801636D02*
D03*
D88*
X1099037Y629336D02*
D03*
Y574136D02*
D03*
X1073637Y629336D02*
D03*
Y574136D02*
D03*
X1048237Y629336D02*
D03*
Y574136D02*
D03*
X1022837Y629336D02*
D03*
Y574136D02*
D03*
X997437Y629336D02*
D03*
Y574136D02*
D03*
X972037Y629336D02*
D03*
Y574136D02*
D03*
X946637Y629336D02*
D03*
Y574136D02*
D03*
X921237Y629336D02*
D03*
Y574136D02*
D03*
X895837Y629336D02*
D03*
Y574136D02*
D03*
X870437Y629336D02*
D03*
Y574136D02*
D03*
X845037Y629336D02*
D03*
Y574136D02*
D03*
X819637Y629336D02*
D03*
Y574136D02*
D03*
X794237Y629336D02*
D03*
Y574136D02*
D03*
X768837Y629336D02*
D03*
Y574136D02*
D03*
X743437Y629336D02*
D03*
Y574136D02*
D03*
X718037Y629336D02*
D03*
Y574136D02*
D03*
X692637Y629336D02*
D03*
Y574136D02*
D03*
X667237Y629336D02*
D03*
Y574136D02*
D03*
X641837Y629336D02*
D03*
Y574136D02*
D03*
X616437Y629336D02*
D03*
Y574136D02*
D03*
D89*
X671037Y791936D02*
X677038Y785936D01*
X812038D02*
X835037Y762936D01*
X677038Y785936D02*
X812038D01*
D90*
X619537Y794436D02*
X641307Y816206D01*
X814768D01*
X1002038Y752936D02*
X1003037Y751936D01*
Y711436D02*
Y751936D01*
X1086037Y682436D02*
X1115037Y653436D01*
X1073037Y682436D02*
X1086037D01*
X1003037Y711436D02*
X1030037Y684436D01*
X1071037D01*
X1073037Y682436D01*
X494537Y794436D02*
X527037D01*
X426037Y782936D02*
X483037D01*
X494537Y794436D01*
X527037D02*
X619537D01*
X527037D02*
Y817436D01*
D91*
X835037Y762936D02*
X867038D01*
X937537Y753995D02*
X939037Y752495D01*
D92*
X280037Y766436D02*
D03*
D93*
X1003037Y752436D02*
D03*
D94*
X817037Y814436D02*
D03*
D95*
X868376Y763808D02*
D03*
D96*
X669537Y798686D02*
D03*
D97*
X1085537Y574436D02*
D03*
D98*
X422037Y786436D02*
D03*
D99*
X936787Y753436D02*
D03*
M02*
