G04*
G04 #@! TF.GenerationSoftware,Altium Limited,CircuitStudio,1.5.2 (30)*
G04*
G04 Layer_Physical_Order=2*
G04 Layer_Color=16765976*
%FSLAX44Y44*%
%MOMM*%
G71*
G01*
G75*
%ADD84C,0.5000*%
%ADD85C,0.6000*%
G36*
X1151282Y870197D02*
X1153037Y869848D01*
Y869848D01*
X1153121Y869923D01*
X1158011Y869442D01*
X1162794Y867991D01*
X1167202Y865635D01*
X1171066Y862464D01*
X1174236Y858601D01*
X1176592Y854193D01*
X1178043Y849410D01*
X1178525Y844520D01*
X1178449Y844436D01*
X1178449D01*
X1178799Y842680D01*
X1178959Y842440D01*
Y591432D01*
X1178799Y591192D01*
X1178449Y589436D01*
X1178449D01*
X1178525Y589352D01*
X1178043Y584462D01*
X1176592Y579679D01*
X1174236Y575271D01*
X1171066Y571408D01*
X1167202Y568237D01*
X1162794Y565881D01*
X1158011Y564430D01*
X1153121Y563948D01*
X1153037Y564024D01*
Y564024D01*
X1151282Y563675D01*
X1151041Y563514D01*
X367115D01*
Y573440D01*
X367276Y573680D01*
X367625Y575436D01*
X367610D01*
X367318Y577655D01*
X366462Y579722D01*
X365099Y581498D01*
X363324Y582860D01*
X361256Y583717D01*
X359037Y584009D01*
Y584024D01*
X357281Y583675D01*
X357041Y583514D01*
X309033D01*
X308793Y583675D01*
X307037Y584024D01*
Y584009D01*
X304818Y583717D01*
X302750Y582860D01*
X300975Y581498D01*
X299612Y579722D01*
X298756Y577655D01*
X298464Y575436D01*
X298449D01*
X298798Y573680D01*
X298959Y573440D01*
Y563514D01*
X245365D01*
X244937Y564710D01*
X245116Y564857D01*
X247240Y567445D01*
X248819Y570398D01*
X249791Y573603D01*
X250119Y576936D01*
X249791Y580268D01*
X248819Y583473D01*
X247240Y586426D01*
X245116Y589015D01*
X242527Y591139D01*
X239574Y592718D01*
X236370Y593690D01*
X233037Y594018D01*
X229704Y593690D01*
X226500Y592718D01*
X223547Y591139D01*
X220958Y589015D01*
X218834Y586426D01*
X217255Y583473D01*
X216283Y580268D01*
X215955Y576936D01*
X216283Y573603D01*
X217255Y570398D01*
X218834Y567445D01*
X220958Y564857D01*
X221137Y564710D01*
X220709Y563514D01*
X215033D01*
X214793Y563675D01*
X213037Y564024D01*
Y564024D01*
X212953Y563948D01*
X208063Y564430D01*
X203280Y565881D01*
X198872Y568237D01*
X195009Y571408D01*
X191838Y575271D01*
X189482Y579679D01*
X188031Y584462D01*
X187549Y589352D01*
X187625Y589436D01*
X187625D01*
X187276Y591192D01*
X187115Y591432D01*
Y842440D01*
X187276Y842680D01*
X187625Y844436D01*
X187625D01*
X187549Y844520D01*
X188031Y849410D01*
X189482Y854193D01*
X191838Y858601D01*
X195009Y862464D01*
X198872Y865635D01*
X203280Y867991D01*
X208063Y869442D01*
X212953Y869923D01*
X213037Y869848D01*
Y869848D01*
X214793Y870197D01*
X215033Y870358D01*
X220710D01*
X221138Y869162D01*
X220958Y869015D01*
X218834Y866426D01*
X217255Y863473D01*
X216283Y860268D01*
X215955Y856936D01*
X216283Y853603D01*
X217255Y850398D01*
X218834Y847445D01*
X220958Y844857D01*
X223547Y842732D01*
X226500Y841154D01*
X229704Y840182D01*
X233037Y839853D01*
X236370Y840182D01*
X239574Y841154D01*
X242527Y842732D01*
X245116Y844857D01*
X247240Y847445D01*
X248819Y850398D01*
X249791Y853603D01*
X250119Y856936D01*
X249791Y860268D01*
X248819Y863473D01*
X247240Y866426D01*
X245116Y869015D01*
X244937Y869162D01*
X245364Y870358D01*
X298959D01*
Y860432D01*
X298798Y860192D01*
X298449Y858436D01*
X298464D01*
X298756Y856217D01*
X299612Y854149D01*
X300975Y852374D01*
X302750Y851011D01*
X304818Y850155D01*
X307037Y849863D01*
Y849848D01*
X308793Y850197D01*
X309033Y850358D01*
X357041D01*
X357281Y850197D01*
X359037Y849848D01*
Y849863D01*
X361256Y850155D01*
X363324Y851011D01*
X365099Y852374D01*
X366462Y854149D01*
X367318Y856217D01*
X367610Y858436D01*
X367625D01*
X367276Y860192D01*
X367115Y860432D01*
Y870358D01*
X998959D01*
Y860432D01*
X998799Y860192D01*
X998449Y858436D01*
X998464D01*
X998756Y856217D01*
X999613Y854149D01*
X1000975Y852374D01*
X1002751Y851011D01*
X1004818Y850155D01*
X1007037Y849863D01*
Y849848D01*
X1008793Y850197D01*
X1009033Y850358D01*
X1057041D01*
X1057282Y850197D01*
X1059037Y849848D01*
Y849863D01*
X1061256Y850155D01*
X1063324Y851011D01*
X1065100Y852374D01*
X1066462Y854149D01*
X1067319Y856217D01*
X1067611Y858436D01*
X1067626D01*
X1067276Y860192D01*
X1067116Y860432D01*
Y870358D01*
X1090710D01*
X1091137Y869162D01*
X1090958Y869015D01*
X1088834Y866426D01*
X1087255Y863473D01*
X1086283Y860268D01*
X1085955Y856936D01*
X1086283Y853603D01*
X1087255Y850398D01*
X1088834Y847445D01*
X1090958Y844857D01*
X1093547Y842732D01*
X1096500Y841154D01*
X1099705Y840182D01*
X1103037Y839853D01*
X1106370Y840182D01*
X1109574Y841154D01*
X1112527Y842732D01*
X1115116Y844857D01*
X1117240Y847445D01*
X1118819Y850398D01*
X1119791Y853603D01*
X1120119Y856936D01*
X1119791Y860268D01*
X1118819Y863473D01*
X1117240Y866426D01*
X1115116Y869015D01*
X1114937Y869162D01*
X1115365Y870358D01*
X1151041D01*
X1151282Y870197D01*
D02*
G37*
%LPC*%
G36*
X388037Y642524D02*
X386281Y642175D01*
X384793Y641180D01*
X383798Y639692D01*
X383449Y637936D01*
X383798Y636180D01*
X384793Y634692D01*
X386281Y633697D01*
X388037Y633348D01*
X389793Y633697D01*
X391281Y634692D01*
X392276Y636180D01*
X392625Y637936D01*
X392276Y639692D01*
X391281Y641180D01*
X389793Y642175D01*
X388037Y642524D01*
D02*
G37*
G36*
X358704Y643024D02*
X356948Y642674D01*
X355459Y641680D01*
X354465Y640191D01*
X354115Y638436D01*
X354465Y636680D01*
X355459Y635191D01*
X356948Y634197D01*
X358704Y633848D01*
X360460Y634197D01*
X361948Y635191D01*
X362943Y636680D01*
X363292Y638436D01*
X362943Y640191D01*
X361948Y641680D01*
X360460Y642674D01*
X358704Y643024D01*
D02*
G37*
G36*
X345037Y642524D02*
X343281Y642175D01*
X341793Y641180D01*
X340798Y639692D01*
X340449Y637936D01*
X340798Y636180D01*
X341793Y634692D01*
X343281Y633697D01*
X345037Y633348D01*
X346793Y633697D01*
X348281Y634692D01*
X349276Y636180D01*
X349625Y637936D01*
X349276Y639692D01*
X348281Y641180D01*
X346793Y642175D01*
X345037Y642524D01*
D02*
G37*
G36*
X680037Y627024D02*
X678281Y626674D01*
X676793Y625680D01*
X675798Y624191D01*
X675449Y622436D01*
X675798Y620680D01*
X676793Y619191D01*
X678281Y618197D01*
X680037Y617848D01*
X681793Y618197D01*
X683281Y619191D01*
X684276Y620680D01*
X684625Y622436D01*
X684276Y624191D01*
X683281Y625680D01*
X681793Y626674D01*
X680037Y627024D01*
D02*
G37*
G36*
X443037Y628524D02*
X441281Y628175D01*
X439793Y627180D01*
X438798Y625691D01*
X438449Y623936D01*
X438798Y622180D01*
X439793Y620691D01*
X441281Y619697D01*
X443037Y619347D01*
X444793Y619697D01*
X446281Y620691D01*
X447276Y622180D01*
X447625Y623936D01*
X447276Y625691D01*
X446281Y627180D01*
X444793Y628175D01*
X443037Y628524D01*
D02*
G37*
G36*
X933037Y670048D02*
X929644Y669601D01*
X926481Y668291D01*
X923766Y666208D01*
X921682Y663492D01*
X920372Y660330D01*
X919925Y656936D01*
X920372Y653542D01*
X921682Y650380D01*
X923766Y647664D01*
X926481Y645580D01*
X929644Y644270D01*
X933037Y643824D01*
X936431Y644270D01*
X939594Y645580D01*
X942309Y647664D01*
X944393Y650380D01*
X945703Y653542D01*
X946150Y656936D01*
X945703Y660330D01*
X944393Y663492D01*
X942309Y666208D01*
X939594Y668291D01*
X936431Y669601D01*
X933037Y670048D01*
D02*
G37*
G36*
X754037Y654024D02*
X752281Y653674D01*
X750793Y652680D01*
X749798Y651191D01*
X749449Y649436D01*
X749798Y647680D01*
X750793Y646191D01*
X752281Y645197D01*
X754037Y644847D01*
X755793Y645197D01*
X757281Y646191D01*
X758276Y647680D01*
X758625Y649436D01*
X758276Y651191D01*
X757281Y652680D01*
X755793Y653674D01*
X754037Y654024D01*
D02*
G37*
G36*
X490037Y649024D02*
X488281Y648674D01*
X486793Y647680D01*
X485798Y646191D01*
X485449Y644436D01*
X485798Y642680D01*
X486793Y641191D01*
X488281Y640197D01*
X490037Y639847D01*
X491793Y640197D01*
X493281Y641191D01*
X494276Y642680D01*
X494625Y644436D01*
X494276Y646191D01*
X493281Y647680D01*
X491793Y648674D01*
X490037Y649024D01*
D02*
G37*
G36*
X373037Y643024D02*
X371281Y642674D01*
X369793Y641680D01*
X368798Y640191D01*
X368449Y638436D01*
X368798Y636680D01*
X369793Y635191D01*
X371281Y634197D01*
X373037Y633848D01*
X374793Y634197D01*
X376281Y635191D01*
X377276Y636680D01*
X377625Y638436D01*
X377276Y640191D01*
X376281Y641680D01*
X374793Y642674D01*
X373037Y643024D01*
D02*
G37*
G36*
X1099037Y647024D02*
X1097281Y646675D01*
X1095793Y645680D01*
X1094798Y644191D01*
X1094449Y642436D01*
X1094798Y640680D01*
X1095793Y639191D01*
X1097281Y638197D01*
X1099037Y637848D01*
X1100793Y638197D01*
X1102281Y639191D01*
X1103276Y640680D01*
X1103625Y642436D01*
X1103276Y644191D01*
X1102281Y645680D01*
X1100793Y646675D01*
X1099037Y647024D01*
D02*
G37*
G36*
X997437Y622353D02*
X995388Y622084D01*
X993478Y621293D01*
X991838Y620034D01*
X990580Y618395D01*
X989789Y616485D01*
X989519Y614436D01*
X989789Y612386D01*
X990580Y610477D01*
X991838Y608837D01*
X993478Y607579D01*
X995388Y606788D01*
X997437Y606518D01*
X999486Y606788D01*
X1001396Y607579D01*
X1003036Y608837D01*
X1004294Y610477D01*
X1005085Y612386D01*
X1005355Y614436D01*
X1005085Y616485D01*
X1004294Y618395D01*
X1003036Y620034D01*
X1001396Y621293D01*
X999486Y622084D01*
X997437Y622353D01*
D02*
G37*
G36*
X1022837D02*
X1020788Y622084D01*
X1018878Y621293D01*
X1017238Y620034D01*
X1015980Y618395D01*
X1015189Y616485D01*
X1014919Y614436D01*
X1015189Y612386D01*
X1015980Y610477D01*
X1017238Y608837D01*
X1018878Y607579D01*
X1020788Y606788D01*
X1022837Y606518D01*
X1024886Y606788D01*
X1026796Y607579D01*
X1028436Y608837D01*
X1029694Y610477D01*
X1030485Y612386D01*
X1030755Y614436D01*
X1030485Y616485D01*
X1029694Y618395D01*
X1028436Y620034D01*
X1026796Y621293D01*
X1024886Y622084D01*
X1022837Y622353D01*
D02*
G37*
G36*
X972037D02*
X969988Y622084D01*
X968078Y621293D01*
X966438Y620034D01*
X965180Y618395D01*
X964389Y616485D01*
X964119Y614436D01*
X964389Y612386D01*
X965180Y610477D01*
X966438Y608837D01*
X968078Y607579D01*
X969988Y606788D01*
X972037Y606518D01*
X974086Y606788D01*
X975996Y607579D01*
X977636Y608837D01*
X978894Y610477D01*
X979685Y612386D01*
X979955Y614436D01*
X979685Y616485D01*
X978894Y618395D01*
X977636Y620034D01*
X975996Y621293D01*
X974086Y622084D01*
X972037Y622353D01*
D02*
G37*
G36*
X921237D02*
X919188Y622084D01*
X917278Y621293D01*
X915638Y620034D01*
X914380Y618395D01*
X913589Y616485D01*
X913319Y614436D01*
X913589Y612386D01*
X914380Y610477D01*
X915638Y608837D01*
X917278Y607579D01*
X919188Y606788D01*
X921237Y606518D01*
X923286Y606788D01*
X925196Y607579D01*
X926836Y608837D01*
X928094Y610477D01*
X928885Y612386D01*
X929155Y614436D01*
X928885Y616485D01*
X928094Y618395D01*
X926836Y620034D01*
X925196Y621293D01*
X923286Y622084D01*
X921237Y622353D01*
D02*
G37*
G36*
X946637D02*
X944588Y622084D01*
X942678Y621293D01*
X941038Y620034D01*
X939780Y618395D01*
X938989Y616485D01*
X938719Y614436D01*
X938989Y612386D01*
X939780Y610477D01*
X941038Y608837D01*
X942678Y607579D01*
X944588Y606788D01*
X946637Y606518D01*
X948686Y606788D01*
X950596Y607579D01*
X952236Y608837D01*
X953494Y610477D01*
X954285Y612386D01*
X954555Y614436D01*
X954285Y616485D01*
X953494Y618395D01*
X952236Y620034D01*
X950596Y621293D01*
X948686Y622084D01*
X946637Y622353D01*
D02*
G37*
G36*
X203037Y622024D02*
X201281Y621675D01*
X199793Y620680D01*
X198798Y619191D01*
X198449Y617436D01*
X198798Y615680D01*
X199793Y614191D01*
X201281Y613197D01*
X203037Y612848D01*
X204793Y613197D01*
X206281Y614191D01*
X207276Y615680D01*
X207625Y617436D01*
X207276Y619191D01*
X206281Y620680D01*
X204793Y621675D01*
X203037Y622024D01*
D02*
G37*
G36*
X743437Y622353D02*
X741388Y622084D01*
X739478Y621293D01*
X737838Y620034D01*
X736580Y618395D01*
X736102Y617241D01*
X734669Y617100D01*
X734281Y617680D01*
X732793Y618675D01*
X731037Y619024D01*
X729281Y618675D01*
X727793Y617680D01*
X726971Y616450D01*
X725947Y616478D01*
X725646Y616579D01*
X724894Y618395D01*
X723636Y620034D01*
X721996Y621293D01*
X720086Y622084D01*
X718037Y622353D01*
X715988Y622084D01*
X714078Y621293D01*
X712438Y620034D01*
X711180Y618395D01*
X710389Y616485D01*
X710119Y614436D01*
X710389Y612386D01*
X711180Y610477D01*
X712438Y608837D01*
X714078Y607579D01*
X715988Y606788D01*
X718037Y606518D01*
X720086Y606788D01*
X721996Y607579D01*
X723636Y608837D01*
X724894Y610477D01*
X725646Y612292D01*
X725947Y612393D01*
X726971Y612422D01*
X727793Y611191D01*
X729281Y610197D01*
X731037Y609847D01*
X732793Y610197D01*
X734281Y611191D01*
X734669Y611772D01*
X736102Y611631D01*
X736580Y610477D01*
X737838Y608837D01*
X739478Y607579D01*
X741388Y606788D01*
X743437Y606518D01*
X745486Y606788D01*
X747396Y607579D01*
X749036Y608837D01*
X750294Y610477D01*
X751085Y612386D01*
X751355Y614436D01*
X751085Y616485D01*
X750294Y618395D01*
X749036Y620034D01*
X747396Y621293D01*
X745486Y622084D01*
X743437Y622353D01*
D02*
G37*
G36*
X1099037D02*
X1096988Y622084D01*
X1095078Y621293D01*
X1093438Y620034D01*
X1092180Y618395D01*
X1091389Y616485D01*
X1091119Y614436D01*
X1091389Y612386D01*
X1092180Y610477D01*
X1093438Y608837D01*
X1095078Y607579D01*
X1096988Y606788D01*
X1099037Y606518D01*
X1101086Y606788D01*
X1102996Y607579D01*
X1104636Y608837D01*
X1105894Y610477D01*
X1106685Y612386D01*
X1106955Y614436D01*
X1106685Y616485D01*
X1105894Y618395D01*
X1104636Y620034D01*
X1102996Y621293D01*
X1101086Y622084D01*
X1099037Y622353D01*
D02*
G37*
G36*
X1048237D02*
X1046188Y622084D01*
X1044278Y621293D01*
X1042638Y620034D01*
X1041380Y618395D01*
X1040589Y616485D01*
X1040319Y614436D01*
X1040589Y612386D01*
X1041380Y610477D01*
X1042638Y608837D01*
X1044278Y607579D01*
X1046188Y606788D01*
X1048237Y606518D01*
X1050286Y606788D01*
X1052196Y607579D01*
X1053836Y608837D01*
X1055094Y610477D01*
X1055885Y612386D01*
X1056155Y614436D01*
X1055885Y616485D01*
X1055094Y618395D01*
X1053836Y620034D01*
X1052196Y621293D01*
X1050286Y622084D01*
X1048237Y622353D01*
D02*
G37*
G36*
X1073637D02*
X1071588Y622084D01*
X1069678Y621293D01*
X1068038Y620034D01*
X1066780Y618395D01*
X1065989Y616485D01*
X1065719Y614436D01*
X1065989Y612386D01*
X1066780Y610477D01*
X1068038Y608837D01*
X1069678Y607579D01*
X1071588Y606788D01*
X1073637Y606518D01*
X1075686Y606788D01*
X1077596Y607579D01*
X1079236Y608837D01*
X1080494Y610477D01*
X1081285Y612386D01*
X1081555Y614436D01*
X1081285Y616485D01*
X1080494Y618395D01*
X1079236Y620034D01*
X1077596Y621293D01*
X1075686Y622084D01*
X1073637Y622353D01*
D02*
G37*
G36*
X679037Y654524D02*
X677281Y654174D01*
X675793Y653180D01*
X674798Y651691D01*
X674449Y649936D01*
X674798Y648180D01*
X675793Y646691D01*
X677281Y645697D01*
X679037Y645348D01*
X680793Y645697D01*
X682281Y646691D01*
X683276Y648180D01*
X683625Y649936D01*
X683276Y651691D01*
X682281Y653180D01*
X680793Y654174D01*
X679037Y654524D01*
D02*
G37*
G36*
X1061037Y676024D02*
X1059281Y675675D01*
X1057793Y674680D01*
X1056798Y673191D01*
X1056449Y671436D01*
X1056798Y669680D01*
X1057793Y668191D01*
X1059281Y667197D01*
X1061037Y666848D01*
X1062793Y667197D01*
X1064281Y668191D01*
X1065276Y669680D01*
X1065625Y671436D01*
X1065276Y673191D01*
X1064281Y674680D01*
X1062793Y675675D01*
X1061037Y676024D01*
D02*
G37*
G36*
X395767Y676754D02*
X394011Y676404D01*
X392523Y675410D01*
X391528Y673921D01*
X391179Y672166D01*
X391528Y670410D01*
X392523Y668921D01*
X394011Y667927D01*
X395767Y667578D01*
X397523Y667927D01*
X399011Y668921D01*
X400006Y670410D01*
X400355Y672166D01*
X400006Y673921D01*
X399011Y675410D01*
X397523Y676404D01*
X395767Y676754D01*
D02*
G37*
G36*
X883037Y670524D02*
X881282Y670175D01*
X879793Y669180D01*
X878799Y667692D01*
X878449Y665936D01*
X878799Y664180D01*
X879793Y662691D01*
X881282Y661697D01*
X883037Y661348D01*
X884793Y661697D01*
X886282Y662691D01*
X887276Y664180D01*
X887626Y665936D01*
X887276Y667692D01*
X886282Y669180D01*
X884793Y670175D01*
X883037Y670524D01*
D02*
G37*
G36*
X952038Y667524D02*
X950282Y667175D01*
X948793Y666180D01*
X947799Y664692D01*
X947449Y662936D01*
X947799Y661180D01*
X948793Y659691D01*
X950282Y658697D01*
X952038Y658348D01*
X953793Y658697D01*
X955282Y659691D01*
X956276Y661180D01*
X956626Y662936D01*
X956276Y664692D01*
X955282Y666180D01*
X953793Y667175D01*
X952038Y667524D01*
D02*
G37*
G36*
X903037Y668524D02*
X901282Y668175D01*
X899793Y667180D01*
X898799Y665692D01*
X898449Y663936D01*
X898799Y662180D01*
X899793Y660692D01*
X901282Y659697D01*
X903037Y659348D01*
X904793Y659697D01*
X906282Y660692D01*
X907276Y662180D01*
X907626Y663936D01*
X907276Y665692D01*
X906282Y667180D01*
X904793Y668175D01*
X903037Y668524D01*
D02*
G37*
G36*
X886037Y694024D02*
X884281Y693674D01*
X882793Y692680D01*
X881798Y691191D01*
X881449Y689436D01*
X881798Y687680D01*
X882793Y686191D01*
X884281Y685197D01*
X884037Y684024D01*
X882281Y683674D01*
X880793Y682680D01*
X879798Y681191D01*
X879449Y679436D01*
X879798Y677680D01*
X880793Y676191D01*
X882281Y675197D01*
X884037Y674847D01*
X885793Y675197D01*
X887281Y676191D01*
X888276Y677680D01*
X888625Y679436D01*
X888276Y681191D01*
X887281Y682680D01*
X885793Y683674D01*
X886037Y684847D01*
X887793Y685197D01*
X889281Y686191D01*
X890276Y687680D01*
X890625Y689436D01*
X890276Y691191D01*
X889281Y692680D01*
X887793Y693674D01*
X886037Y694024D01*
D02*
G37*
G36*
X319037Y685024D02*
X317281Y684675D01*
X315793Y683680D01*
X314798Y682191D01*
X314449Y680436D01*
X314798Y678680D01*
X315793Y677191D01*
X317281Y676197D01*
X319037Y675847D01*
X320793Y676197D01*
X322281Y677191D01*
X323276Y678680D01*
X323625Y680436D01*
X323276Y682191D01*
X322281Y683680D01*
X320793Y684675D01*
X319037Y685024D01*
D02*
G37*
G36*
X832037Y684024D02*
X830281Y683674D01*
X828793Y682680D01*
X827798Y681191D01*
X827449Y679436D01*
X827798Y677680D01*
X828793Y676191D01*
X830281Y675197D01*
X832037Y674847D01*
X833793Y675197D01*
X835281Y676191D01*
X836276Y677680D01*
X836625Y679436D01*
X836276Y681191D01*
X835281Y682680D01*
X833793Y683674D01*
X832037Y684024D01*
D02*
G37*
G36*
X1025037Y678524D02*
X1023281Y678175D01*
X1021793Y677180D01*
X1020798Y675691D01*
X1020449Y673936D01*
X1020798Y672180D01*
X1021793Y670691D01*
X1023281Y669697D01*
X1025037Y669348D01*
X1026793Y669697D01*
X1028281Y670691D01*
X1029276Y672180D01*
X1029625Y673936D01*
X1029276Y675691D01*
X1028281Y677180D01*
X1026793Y678175D01*
X1025037Y678524D01*
D02*
G37*
G36*
X867037Y683024D02*
X865281Y682674D01*
X863793Y681680D01*
X862798Y680191D01*
X862449Y678436D01*
X862798Y676680D01*
X863793Y675191D01*
X865281Y674197D01*
X867037Y673848D01*
X868793Y674197D01*
X870281Y675191D01*
X871276Y676680D01*
X871625Y678436D01*
X871276Y680191D01*
X870281Y681680D01*
X868793Y682674D01*
X867037Y683024D01*
D02*
G37*
G36*
X439037Y655524D02*
X437281Y655174D01*
X435793Y654180D01*
X434798Y652691D01*
X434449Y650936D01*
X434798Y649180D01*
X435793Y647691D01*
X437281Y646697D01*
X439037Y646348D01*
X440793Y646697D01*
X442281Y647691D01*
X443276Y649180D01*
X443625Y650936D01*
X443276Y652691D01*
X442281Y654180D01*
X440793Y655174D01*
X439037Y655524D01*
D02*
G37*
G36*
X451037Y655524D02*
X449282Y655175D01*
X447793Y654180D01*
X446799Y652692D01*
X446449Y650936D01*
X446799Y649180D01*
X447793Y647691D01*
X449282Y646697D01*
X451037Y646348D01*
X452793Y646697D01*
X454282Y647691D01*
X455276Y649180D01*
X455626Y650936D01*
X455276Y652692D01*
X454282Y654180D01*
X452793Y655175D01*
X451037Y655524D01*
D02*
G37*
G36*
X1023037Y654524D02*
X1021281Y654174D01*
X1019793Y653180D01*
X1018798Y651691D01*
X1018449Y649936D01*
X1018798Y648180D01*
X1019793Y646691D01*
X1021281Y645697D01*
X1023037Y645348D01*
X1024793Y645697D01*
X1026281Y646691D01*
X1027276Y648180D01*
X1027625Y649936D01*
X1027276Y651691D01*
X1026281Y653180D01*
X1024793Y654174D01*
X1023037Y654524D01*
D02*
G37*
G36*
X704037D02*
X702281Y654174D01*
X700793Y653180D01*
X699798Y651691D01*
X699449Y649936D01*
X699798Y648180D01*
X700793Y646691D01*
X702281Y645697D01*
X704037Y645348D01*
X705793Y645697D01*
X707281Y646691D01*
X708276Y648180D01*
X708625Y649936D01*
X708276Y651691D01*
X707281Y653180D01*
X705793Y654174D01*
X704037Y654524D01*
D02*
G37*
G36*
X742038D02*
X740282Y654174D01*
X738793Y653180D01*
X737799Y651691D01*
X737449Y649936D01*
X737799Y648180D01*
X738793Y646691D01*
X740282Y645697D01*
X742038Y645348D01*
X743793Y645697D01*
X745282Y646691D01*
X746277Y648180D01*
X746626Y649936D01*
X746277Y651691D01*
X745282Y653180D01*
X743793Y654174D01*
X742038Y654524D01*
D02*
G37*
G36*
X972038Y660524D02*
X970282Y660175D01*
X968793Y659180D01*
X967798Y657692D01*
X967449Y655936D01*
X967798Y654180D01*
X968793Y652691D01*
X970282Y651697D01*
X972038Y651348D01*
X973793Y651697D01*
X975282Y652691D01*
X976276Y654180D01*
X976626Y655936D01*
X976276Y657692D01*
X975282Y659180D01*
X973793Y660175D01*
X972038Y660524D01*
D02*
G37*
G36*
X1026037Y666024D02*
X1024281Y665675D01*
X1022793Y664680D01*
X1021798Y663191D01*
X1021449Y661436D01*
X1021798Y659680D01*
X1022793Y658191D01*
X1024281Y657197D01*
X1026037Y656848D01*
X1027793Y657197D01*
X1029281Y658191D01*
X1030276Y659680D01*
X1030625Y661436D01*
X1030276Y663191D01*
X1029281Y664680D01*
X1027793Y665675D01*
X1026037Y666024D01*
D02*
G37*
G36*
X832037Y657024D02*
X830281Y656674D01*
X828793Y655680D01*
X827798Y654191D01*
X827449Y652436D01*
X827798Y650680D01*
X828793Y649191D01*
X830281Y648197D01*
X832037Y647848D01*
X833793Y648197D01*
X835281Y649191D01*
X836276Y650680D01*
X836625Y652436D01*
X836276Y654191D01*
X835281Y655680D01*
X833793Y656674D01*
X832037Y657024D01*
D02*
G37*
G36*
X896037Y656024D02*
X894281Y655675D01*
X892793Y654680D01*
X891798Y653191D01*
X891449Y651436D01*
X891798Y649680D01*
X892793Y648191D01*
X894281Y647197D01*
X896037Y646848D01*
X897793Y647197D01*
X899281Y648191D01*
X900276Y649680D01*
X900625Y651436D01*
X900276Y653191D01*
X899281Y654680D01*
X897793Y655675D01*
X896037Y656024D01*
D02*
G37*
G36*
X783037Y657024D02*
X781281Y656674D01*
X779793Y655680D01*
X778798Y654191D01*
X778449Y652436D01*
X778798Y650680D01*
X779793Y649191D01*
X781281Y648197D01*
X783037Y647848D01*
X784793Y648197D01*
X786281Y649191D01*
X787276Y650680D01*
X787625Y652436D01*
X787276Y654191D01*
X786281Y655680D01*
X784793Y656674D01*
X783037Y657024D01*
D02*
G37*
G36*
X743437Y596953D02*
X741388Y596684D01*
X739478Y595893D01*
X737838Y594634D01*
X736580Y592994D01*
X735789Y591085D01*
X735519Y589036D01*
X735789Y586986D01*
X736580Y585077D01*
X737838Y583437D01*
X739478Y582179D01*
X741388Y581388D01*
X743437Y581118D01*
X745486Y581388D01*
X747396Y582179D01*
X749036Y583437D01*
X750294Y585077D01*
X751085Y586986D01*
X751355Y589036D01*
X751085Y591085D01*
X750294Y592994D01*
X749036Y594634D01*
X747396Y595893D01*
X745486Y596684D01*
X743437Y596953D01*
D02*
G37*
G36*
X768837D02*
X766788Y596684D01*
X764878Y595893D01*
X763238Y594634D01*
X761980Y592994D01*
X761189Y591085D01*
X760919Y589036D01*
X761189Y586986D01*
X761980Y585077D01*
X763238Y583437D01*
X764878Y582179D01*
X766788Y581388D01*
X768837Y581118D01*
X770886Y581388D01*
X772796Y582179D01*
X774436Y583437D01*
X775694Y585077D01*
X776485Y586986D01*
X776755Y589036D01*
X776485Y591085D01*
X775694Y592994D01*
X774436Y594634D01*
X772796Y595893D01*
X770886Y596684D01*
X768837Y596953D01*
D02*
G37*
G36*
X718037D02*
X715988Y596684D01*
X714078Y595893D01*
X712438Y594634D01*
X711180Y592994D01*
X710389Y591085D01*
X710119Y589036D01*
X710389Y586986D01*
X711180Y585077D01*
X712438Y583437D01*
X714078Y582179D01*
X715988Y581388D01*
X718037Y581118D01*
X720086Y581388D01*
X721996Y582179D01*
X723636Y583437D01*
X724894Y585077D01*
X725685Y586986D01*
X725955Y589036D01*
X725685Y591085D01*
X724894Y592994D01*
X723636Y594634D01*
X721996Y595893D01*
X720086Y596684D01*
X718037Y596953D01*
D02*
G37*
G36*
X667237D02*
X665188Y596684D01*
X663278Y595893D01*
X661638Y594634D01*
X660380Y592994D01*
X659589Y591085D01*
X659319Y589036D01*
X659589Y586986D01*
X660380Y585077D01*
X661638Y583437D01*
X663278Y582179D01*
X665188Y581388D01*
X667237Y581118D01*
X669286Y581388D01*
X671196Y582179D01*
X672836Y583437D01*
X674094Y585077D01*
X674885Y586986D01*
X675155Y589036D01*
X674885Y591085D01*
X674094Y592994D01*
X672836Y594634D01*
X671196Y595893D01*
X669286Y596684D01*
X667237Y596953D01*
D02*
G37*
G36*
X692637D02*
X690588Y596684D01*
X688678Y595893D01*
X687038Y594634D01*
X685780Y592994D01*
X684989Y591085D01*
X684719Y589036D01*
X684989Y586986D01*
X685780Y585077D01*
X687038Y583437D01*
X688678Y582179D01*
X690588Y581388D01*
X692637Y581118D01*
X694686Y581388D01*
X696596Y582179D01*
X698236Y583437D01*
X699494Y585077D01*
X700285Y586986D01*
X700555Y589036D01*
X700285Y591085D01*
X699494Y592994D01*
X698236Y594634D01*
X696596Y595893D01*
X694686Y596684D01*
X692637Y596953D01*
D02*
G37*
G36*
X870437D02*
X868388Y596684D01*
X866478Y595893D01*
X864838Y594634D01*
X863580Y592994D01*
X862789Y591085D01*
X862519Y589036D01*
X862789Y586986D01*
X863580Y585077D01*
X864838Y583437D01*
X866478Y582179D01*
X868388Y581388D01*
X870437Y581118D01*
X872486Y581388D01*
X874396Y582179D01*
X876036Y583437D01*
X877294Y585077D01*
X878085Y586986D01*
X878355Y589036D01*
X878085Y591085D01*
X877294Y592994D01*
X876036Y594634D01*
X874396Y595893D01*
X872486Y596684D01*
X870437Y596953D01*
D02*
G37*
G36*
X895837D02*
X893788Y596684D01*
X891878Y595893D01*
X890238Y594634D01*
X888980Y592994D01*
X888189Y591085D01*
X887919Y589036D01*
X888189Y586986D01*
X888980Y585077D01*
X890238Y583437D01*
X891878Y582179D01*
X893788Y581388D01*
X895837Y581118D01*
X897886Y581388D01*
X899796Y582179D01*
X901436Y583437D01*
X902694Y585077D01*
X903485Y586986D01*
X903755Y589036D01*
X903485Y591085D01*
X902694Y592994D01*
X901436Y594634D01*
X899796Y595893D01*
X897886Y596684D01*
X895837Y596953D01*
D02*
G37*
G36*
X845037D02*
X842988Y596684D01*
X841078Y595893D01*
X839438Y594634D01*
X838180Y592994D01*
X837389Y591085D01*
X837119Y589036D01*
X837389Y586986D01*
X838180Y585077D01*
X839438Y583437D01*
X841078Y582179D01*
X842988Y581388D01*
X845037Y581118D01*
X847086Y581388D01*
X848996Y582179D01*
X850636Y583437D01*
X851894Y585077D01*
X852685Y586986D01*
X852955Y589036D01*
X852685Y591085D01*
X851894Y592994D01*
X850636Y594634D01*
X848996Y595893D01*
X847086Y596684D01*
X845037Y596953D01*
D02*
G37*
G36*
X794237D02*
X792188Y596684D01*
X790278Y595893D01*
X788638Y594634D01*
X787380Y592994D01*
X786589Y591085D01*
X786319Y589036D01*
X786589Y586986D01*
X787380Y585077D01*
X788638Y583437D01*
X790278Y582179D01*
X792188Y581388D01*
X794237Y581118D01*
X796286Y581388D01*
X798196Y582179D01*
X799836Y583437D01*
X801094Y585077D01*
X801885Y586986D01*
X802155Y589036D01*
X801885Y591085D01*
X801094Y592994D01*
X799836Y594634D01*
X798196Y595893D01*
X796286Y596684D01*
X794237Y596953D01*
D02*
G37*
G36*
X819637D02*
X817588Y596684D01*
X815678Y595893D01*
X814038Y594634D01*
X812780Y592994D01*
X811989Y591085D01*
X811719Y589036D01*
X811989Y586986D01*
X812780Y585077D01*
X814038Y583437D01*
X815678Y582179D01*
X817588Y581388D01*
X819637Y581118D01*
X821686Y581388D01*
X823596Y582179D01*
X825236Y583437D01*
X826494Y585077D01*
X827285Y586986D01*
X827555Y589036D01*
X827285Y591085D01*
X826494Y592994D01*
X825236Y594634D01*
X823596Y595893D01*
X821686Y596684D01*
X819637Y596953D01*
D02*
G37*
G36*
X959037Y584024D02*
X957281Y583675D01*
X955793Y582680D01*
X954798Y581191D01*
X954449Y579436D01*
X954798Y577680D01*
X955793Y576191D01*
X957281Y575197D01*
X959037Y574847D01*
X960793Y575197D01*
X962281Y576191D01*
X963276Y577680D01*
X963625Y579436D01*
X963276Y581191D01*
X962281Y582680D01*
X960793Y583675D01*
X959037Y584024D01*
D02*
G37*
G36*
X568037Y629019D02*
X563801Y628686D01*
X559668Y627694D01*
X555742Y626067D01*
X552118Y623847D01*
X548886Y621087D01*
X546126Y617855D01*
X543906Y614231D01*
X542280Y610305D01*
X541287Y606173D01*
X540954Y601936D01*
X541287Y597699D01*
X542280Y593567D01*
X543906Y589640D01*
X546126Y586017D01*
X548886Y582785D01*
X552118Y580025D01*
X555742Y577804D01*
X559668Y576178D01*
X563801Y575186D01*
X568037Y574852D01*
X572274Y575186D01*
X576407Y576178D01*
X580333Y577804D01*
X583957Y580025D01*
X587188Y582785D01*
X589949Y586017D01*
X592169Y589640D01*
X593795Y593567D01*
X594787Y597699D01*
X595121Y601936D01*
X594787Y606173D01*
X593795Y610305D01*
X592169Y614231D01*
X589949Y617855D01*
X587188Y621087D01*
X583957Y623847D01*
X580333Y626067D01*
X576407Y627694D01*
X572274Y628686D01*
X568037Y629019D01*
D02*
G37*
G36*
X601537Y581524D02*
X599782Y581175D01*
X598293Y580180D01*
X597298Y578691D01*
X596949Y576936D01*
X597298Y575180D01*
X598293Y573691D01*
X599782Y572697D01*
X601537Y572347D01*
X603293Y572697D01*
X604782Y573691D01*
X605776Y575180D01*
X606125Y576936D01*
X605776Y578691D01*
X604782Y580180D01*
X603293Y581175D01*
X601537Y581524D01*
D02*
G37*
G36*
X1086037Y583024D02*
X1084281Y582674D01*
X1082793Y581680D01*
X1081798Y580191D01*
X1081449Y578436D01*
X1081798Y576680D01*
X1082793Y575191D01*
X1082973Y575071D01*
Y573801D01*
X1082793Y573680D01*
X1081798Y572191D01*
X1081449Y570436D01*
X1081798Y568680D01*
X1082793Y567191D01*
X1084281Y566197D01*
X1086037Y565848D01*
X1087793Y566197D01*
X1089281Y567191D01*
X1090276Y568680D01*
X1090625Y570436D01*
X1090276Y572191D01*
X1089281Y573680D01*
X1089101Y573801D01*
Y575071D01*
X1089281Y575191D01*
X1090276Y576680D01*
X1090625Y578436D01*
X1090276Y580191D01*
X1089281Y581680D01*
X1087793Y582674D01*
X1086037Y583024D01*
D02*
G37*
G36*
X655037Y578524D02*
X653281Y578175D01*
X651793Y577180D01*
X650798Y575691D01*
X650449Y573936D01*
X650798Y572180D01*
X651793Y570691D01*
X653281Y569697D01*
X655037Y569347D01*
X656793Y569697D01*
X658281Y570691D01*
X659276Y572180D01*
X659625Y573936D01*
X659276Y575691D01*
X658281Y577180D01*
X656793Y578175D01*
X655037Y578524D01*
D02*
G37*
G36*
X616437Y596953D02*
X614388Y596684D01*
X612478Y595893D01*
X610838Y594634D01*
X609580Y592994D01*
X608789Y591085D01*
X608519Y589036D01*
X608789Y586986D01*
X609580Y585077D01*
X610838Y583437D01*
X612478Y582179D01*
X614388Y581388D01*
X616437Y581118D01*
X618486Y581388D01*
X620396Y582179D01*
X622036Y583437D01*
X623294Y585077D01*
X624085Y586986D01*
X624355Y589036D01*
X624085Y591085D01*
X623294Y592994D01*
X622036Y594634D01*
X620396Y595893D01*
X618486Y596684D01*
X616437Y596953D01*
D02*
G37*
G36*
X641837D02*
X639788Y596684D01*
X637878Y595893D01*
X636238Y594634D01*
X634980Y592994D01*
X634189Y591085D01*
X633919Y589036D01*
X634189Y586986D01*
X634980Y585077D01*
X636238Y583437D01*
X637878Y582179D01*
X639788Y581388D01*
X641837Y581118D01*
X643886Y581388D01*
X645796Y582179D01*
X647436Y583437D01*
X648694Y585077D01*
X649485Y586986D01*
X649755Y589036D01*
X649485Y591085D01*
X648694Y592994D01*
X647436Y594634D01*
X645796Y595893D01*
X643886Y596684D01*
X641837Y596953D01*
D02*
G37*
G36*
X438037Y590024D02*
X436281Y589674D01*
X434793Y588680D01*
X433798Y587191D01*
X433449Y585436D01*
X433798Y583680D01*
X434793Y582191D01*
X436281Y581197D01*
X438037Y580848D01*
X439793Y581197D01*
X441281Y582191D01*
X442276Y583680D01*
X442625Y585436D01*
X442276Y587191D01*
X441281Y588680D01*
X439793Y589674D01*
X438037Y590024D01*
D02*
G37*
G36*
X1148037Y629019D02*
X1143801Y628686D01*
X1139668Y627694D01*
X1135742Y626067D01*
X1132118Y623847D01*
X1128886Y621087D01*
X1126126Y617855D01*
X1123906Y614231D01*
X1122280Y610305D01*
X1121287Y606173D01*
X1120954Y601936D01*
X1121287Y597699D01*
X1122280Y593567D01*
X1123906Y589640D01*
X1126126Y586017D01*
X1128886Y582785D01*
X1132118Y580025D01*
X1135742Y577804D01*
X1139668Y576178D01*
X1143801Y575186D01*
X1148037Y574852D01*
X1152274Y575186D01*
X1156407Y576178D01*
X1160333Y577804D01*
X1163957Y580025D01*
X1167188Y582785D01*
X1169949Y586017D01*
X1172169Y589640D01*
X1173795Y593567D01*
X1174788Y597699D01*
X1175121Y601936D01*
X1174788Y606173D01*
X1173795Y610305D01*
X1172169Y614231D01*
X1169949Y617855D01*
X1167188Y621087D01*
X1163957Y623847D01*
X1160333Y626067D01*
X1156407Y627694D01*
X1152274Y628686D01*
X1148037Y629019D01*
D02*
G37*
G36*
X630537Y584274D02*
X628781Y583924D01*
X627293Y582930D01*
X626298Y581441D01*
X625949Y579686D01*
X626298Y577930D01*
X627293Y576441D01*
X628781Y575447D01*
X630537Y575097D01*
X632293Y575447D01*
X633781Y576441D01*
X634776Y577930D01*
X635125Y579686D01*
X634776Y581441D01*
X633781Y582930D01*
X632293Y583924D01*
X630537Y584274D01*
D02*
G37*
G36*
X921237Y596953D02*
X919188Y596684D01*
X917278Y595893D01*
X915638Y594634D01*
X914380Y592994D01*
X913589Y591085D01*
X913319Y589036D01*
X913589Y586986D01*
X914380Y585077D01*
X915638Y583437D01*
X917278Y582179D01*
X919188Y581388D01*
X921237Y581118D01*
X923286Y581388D01*
X925196Y582179D01*
X926836Y583437D01*
X928094Y585077D01*
X928885Y586986D01*
X929155Y589036D01*
X928885Y591085D01*
X928094Y592994D01*
X926836Y594634D01*
X925196Y595893D01*
X923286Y596684D01*
X921237Y596953D01*
D02*
G37*
G36*
X692637Y622353D02*
X690588Y622084D01*
X688678Y621293D01*
X687038Y620034D01*
X685780Y618395D01*
X684989Y616485D01*
X684719Y614436D01*
X684989Y612386D01*
X685780Y610477D01*
X687038Y608837D01*
X688678Y607579D01*
X690588Y606788D01*
X692637Y606518D01*
X694686Y606788D01*
X696596Y607579D01*
X698236Y608837D01*
X699494Y610477D01*
X700285Y612386D01*
X700555Y614436D01*
X700285Y616485D01*
X699494Y618395D01*
X698236Y620034D01*
X696596Y621293D01*
X694686Y622084D01*
X692637Y622353D01*
D02*
G37*
G36*
X768837D02*
X766788Y622084D01*
X764878Y621293D01*
X763238Y620034D01*
X761980Y618395D01*
X761189Y616485D01*
X760919Y614436D01*
X761189Y612386D01*
X761980Y610477D01*
X763238Y608837D01*
X764878Y607579D01*
X766788Y606788D01*
X768837Y606518D01*
X770886Y606788D01*
X772796Y607579D01*
X774436Y608837D01*
X775694Y610477D01*
X776485Y612386D01*
X776755Y614436D01*
X776485Y616485D01*
X775694Y618395D01*
X774436Y620034D01*
X772796Y621293D01*
X770886Y622084D01*
X768837Y622353D01*
D02*
G37*
G36*
X667237D02*
X665188Y622084D01*
X663278Y621293D01*
X661638Y620034D01*
X660380Y618395D01*
X659589Y616485D01*
X659319Y614436D01*
X659589Y612386D01*
X660380Y610477D01*
X661638Y608837D01*
X663278Y607579D01*
X665188Y606788D01*
X667237Y606518D01*
X669286Y606788D01*
X671196Y607579D01*
X672836Y608837D01*
X674094Y610477D01*
X674885Y612386D01*
X675155Y614436D01*
X674885Y616485D01*
X674094Y618395D01*
X672836Y620034D01*
X671196Y621293D01*
X669286Y622084D01*
X667237Y622353D01*
D02*
G37*
G36*
X616437D02*
X614388Y622084D01*
X612478Y621293D01*
X610838Y620034D01*
X609580Y618395D01*
X608789Y616485D01*
X608519Y614436D01*
X608789Y612386D01*
X609580Y610477D01*
X610838Y608837D01*
X612478Y607579D01*
X614388Y606788D01*
X616437Y606518D01*
X618486Y606788D01*
X620396Y607579D01*
X622036Y608837D01*
X623294Y610477D01*
X624085Y612386D01*
X624355Y614436D01*
X624085Y616485D01*
X623294Y618395D01*
X622036Y620034D01*
X620396Y621293D01*
X618486Y622084D01*
X616437Y622353D01*
D02*
G37*
G36*
X641837D02*
X639788Y622084D01*
X637878Y621293D01*
X636238Y620034D01*
X634980Y618395D01*
X634189Y616485D01*
X633919Y614436D01*
X634189Y612386D01*
X634980Y610477D01*
X636238Y608837D01*
X637878Y607579D01*
X639788Y606788D01*
X641837Y606518D01*
X643886Y606788D01*
X645796Y607579D01*
X647436Y608837D01*
X648694Y610477D01*
X649485Y612386D01*
X649755Y614436D01*
X649485Y616485D01*
X648694Y618395D01*
X647436Y620034D01*
X645796Y621293D01*
X643886Y622084D01*
X641837Y622353D01*
D02*
G37*
G36*
X870437D02*
X868388Y622084D01*
X866478Y621293D01*
X864838Y620034D01*
X863580Y618395D01*
X862789Y616485D01*
X862519Y614436D01*
X862789Y612386D01*
X863580Y610477D01*
X864838Y608837D01*
X866478Y607579D01*
X868388Y606788D01*
X870437Y606518D01*
X872486Y606788D01*
X874396Y607579D01*
X876036Y608837D01*
X877294Y610477D01*
X878085Y612386D01*
X878355Y614436D01*
X878085Y616485D01*
X877294Y618395D01*
X876036Y620034D01*
X874396Y621293D01*
X872486Y622084D01*
X870437Y622353D01*
D02*
G37*
G36*
X895837D02*
X893788Y622084D01*
X891878Y621293D01*
X890238Y620034D01*
X888980Y618395D01*
X888189Y616485D01*
X887919Y614436D01*
X888189Y612386D01*
X888980Y610477D01*
X890238Y608837D01*
X891878Y607579D01*
X893788Y606788D01*
X895837Y606518D01*
X897886Y606788D01*
X899796Y607579D01*
X901436Y608837D01*
X902694Y610477D01*
X903485Y612386D01*
X903755Y614436D01*
X903485Y616485D01*
X902694Y618395D01*
X901436Y620034D01*
X899796Y621293D01*
X897886Y622084D01*
X895837Y622353D01*
D02*
G37*
G36*
X845037D02*
X842988Y622084D01*
X841078Y621293D01*
X839438Y620034D01*
X838180Y618395D01*
X837389Y616485D01*
X837119Y614436D01*
X837389Y612386D01*
X838180Y610477D01*
X839438Y608837D01*
X841078Y607579D01*
X842988Y606788D01*
X845037Y606518D01*
X847086Y606788D01*
X848996Y607579D01*
X850636Y608837D01*
X851894Y610477D01*
X852685Y612386D01*
X852955Y614436D01*
X852685Y616485D01*
X851894Y618395D01*
X850636Y620034D01*
X848996Y621293D01*
X847086Y622084D01*
X845037Y622353D01*
D02*
G37*
G36*
X794237D02*
X792188Y622084D01*
X790278Y621293D01*
X788638Y620034D01*
X787380Y618395D01*
X786589Y616485D01*
X786319Y614436D01*
X786589Y612386D01*
X787380Y610477D01*
X788638Y608837D01*
X790278Y607579D01*
X792188Y606788D01*
X794237Y606518D01*
X796286Y606788D01*
X798196Y607579D01*
X799836Y608837D01*
X801094Y610477D01*
X801885Y612386D01*
X802155Y614436D01*
X801885Y616485D01*
X801094Y618395D01*
X799836Y620034D01*
X798196Y621293D01*
X796286Y622084D01*
X794237Y622353D01*
D02*
G37*
G36*
X819637D02*
X817588Y622084D01*
X815678Y621293D01*
X814038Y620034D01*
X812780Y618395D01*
X811989Y616485D01*
X811719Y614436D01*
X811989Y612386D01*
X812780Y610477D01*
X814038Y608837D01*
X815678Y607579D01*
X817588Y606788D01*
X819637Y606518D01*
X821686Y606788D01*
X823596Y607579D01*
X825236Y608837D01*
X826494Y610477D01*
X827285Y612386D01*
X827555Y614436D01*
X827285Y616485D01*
X826494Y618395D01*
X825236Y620034D01*
X823596Y621293D01*
X821686Y622084D01*
X819637Y622353D01*
D02*
G37*
G36*
X1022837Y596953D02*
X1020788Y596684D01*
X1018878Y595893D01*
X1017238Y594634D01*
X1015980Y592994D01*
X1015189Y591085D01*
X1014919Y589036D01*
X1015189Y586986D01*
X1015980Y585077D01*
X1017238Y583437D01*
X1018878Y582179D01*
X1020788Y581388D01*
X1022837Y581118D01*
X1024886Y581388D01*
X1026796Y582179D01*
X1028436Y583437D01*
X1029694Y585077D01*
X1030485Y586986D01*
X1030755Y589036D01*
X1030485Y591085D01*
X1029694Y592994D01*
X1028436Y594634D01*
X1026796Y595893D01*
X1024886Y596684D01*
X1022837Y596953D01*
D02*
G37*
G36*
X1048237D02*
X1046188Y596684D01*
X1044278Y595893D01*
X1042638Y594634D01*
X1041380Y592994D01*
X1040589Y591085D01*
X1040319Y589036D01*
X1040589Y586986D01*
X1041380Y585077D01*
X1042638Y583437D01*
X1044278Y582179D01*
X1046188Y581388D01*
X1048237Y581118D01*
X1050286Y581388D01*
X1052196Y582179D01*
X1053836Y583437D01*
X1055094Y585077D01*
X1055885Y586986D01*
X1056155Y589036D01*
X1055885Y591085D01*
X1055094Y592994D01*
X1053836Y594634D01*
X1052196Y595893D01*
X1050286Y596684D01*
X1048237Y596953D01*
D02*
G37*
G36*
X997437D02*
X995388Y596684D01*
X993478Y595893D01*
X991838Y594634D01*
X990580Y592994D01*
X989789Y591085D01*
X989519Y589036D01*
X989789Y586986D01*
X990580Y585077D01*
X991838Y583437D01*
X993478Y582179D01*
X995388Y581388D01*
X997437Y581118D01*
X999486Y581388D01*
X1001396Y582179D01*
X1003036Y583437D01*
X1004294Y585077D01*
X1005085Y586986D01*
X1005355Y589036D01*
X1005085Y591085D01*
X1004294Y592994D01*
X1003036Y594634D01*
X1001396Y595893D01*
X999486Y596684D01*
X997437Y596953D01*
D02*
G37*
G36*
X946637D02*
X944588Y596684D01*
X942678Y595893D01*
X941038Y594634D01*
X939780Y592994D01*
X938989Y591085D01*
X938719Y589036D01*
X938989Y586986D01*
X939780Y585077D01*
X941038Y583437D01*
X942678Y582179D01*
X944588Y581388D01*
X946637Y581118D01*
X948686Y581388D01*
X950596Y582179D01*
X952236Y583437D01*
X953494Y585077D01*
X954285Y586986D01*
X954555Y589036D01*
X954285Y591085D01*
X953494Y592994D01*
X952236Y594634D01*
X950596Y595893D01*
X948686Y596684D01*
X946637Y596953D01*
D02*
G37*
G36*
X972037D02*
X969988Y596684D01*
X968078Y595893D01*
X966438Y594634D01*
X965180Y592994D01*
X964389Y591085D01*
X964119Y589036D01*
X964389Y586986D01*
X965180Y585077D01*
X966438Y583437D01*
X968078Y582179D01*
X969988Y581388D01*
X972037Y581118D01*
X974086Y581388D01*
X975996Y582179D01*
X977636Y583437D01*
X978894Y585077D01*
X979685Y586986D01*
X979955Y589036D01*
X979685Y591085D01*
X978894Y592994D01*
X977636Y594634D01*
X975996Y595893D01*
X974086Y596684D01*
X972037Y596953D01*
D02*
G37*
G36*
X1061537Y607024D02*
X1059781Y606674D01*
X1058293Y605680D01*
X1057298Y604191D01*
X1056949Y602436D01*
X1057298Y600680D01*
X1058293Y599191D01*
X1059781Y598197D01*
X1061537Y597848D01*
X1063293Y598197D01*
X1064781Y599191D01*
X1065776Y600680D01*
X1066125Y602436D01*
X1065776Y604191D01*
X1064781Y605680D01*
X1063293Y606674D01*
X1061537Y607024D01*
D02*
G37*
G36*
X442537Y608024D02*
X440781Y607674D01*
X439293Y606680D01*
X438298Y605191D01*
X437949Y603436D01*
X438298Y601680D01*
X439293Y600191D01*
X440781Y599197D01*
X442537Y598848D01*
X444293Y599197D01*
X445781Y600191D01*
X446776Y601680D01*
X447125Y603436D01*
X446776Y605191D01*
X445781Y606680D01*
X444293Y607674D01*
X442537Y608024D01*
D02*
G37*
G36*
X1037037Y602024D02*
X1035281Y601674D01*
X1033793Y600680D01*
X1032798Y599191D01*
X1032449Y597436D01*
X1032798Y595680D01*
X1033793Y594191D01*
X1035281Y593197D01*
X1037037Y592848D01*
X1038793Y593197D01*
X1040281Y594191D01*
X1041276Y595680D01*
X1041625Y597436D01*
X1041276Y599191D01*
X1040281Y600680D01*
X1038793Y601674D01*
X1037037Y602024D01*
D02*
G37*
G36*
X1073637Y596953D02*
X1071588Y596684D01*
X1069678Y595893D01*
X1068038Y594634D01*
X1066780Y592994D01*
X1065989Y591085D01*
X1065719Y589036D01*
X1065989Y586986D01*
X1066780Y585077D01*
X1068038Y583437D01*
X1069678Y582179D01*
X1071588Y581388D01*
X1073637Y581118D01*
X1075686Y581388D01*
X1077596Y582179D01*
X1079236Y583437D01*
X1080494Y585077D01*
X1081285Y586986D01*
X1081555Y589036D01*
X1081285Y591085D01*
X1080494Y592994D01*
X1079236Y594634D01*
X1077596Y595893D01*
X1075686Y596684D01*
X1073637Y596953D01*
D02*
G37*
G36*
X1099037D02*
X1096988Y596684D01*
X1095078Y595893D01*
X1093438Y594634D01*
X1092180Y592994D01*
X1091389Y591085D01*
X1091119Y589036D01*
X1091389Y586986D01*
X1092180Y585077D01*
X1093438Y583437D01*
X1095078Y582179D01*
X1096988Y581388D01*
X1099037Y581118D01*
X1101086Y581388D01*
X1102996Y582179D01*
X1104636Y583437D01*
X1105894Y585077D01*
X1106685Y586986D01*
X1106955Y589036D01*
X1106685Y591085D01*
X1105894Y592994D01*
X1104636Y594634D01*
X1102996Y595893D01*
X1101086Y596684D01*
X1099037Y596953D01*
D02*
G37*
G36*
X729037Y685024D02*
X727281Y684675D01*
X725793Y683680D01*
X724798Y682191D01*
X724449Y680436D01*
X724798Y678680D01*
X725793Y677191D01*
X727281Y676197D01*
X729037Y675847D01*
X730793Y676197D01*
X732281Y677191D01*
X733276Y678680D01*
X733625Y680436D01*
X733276Y682191D01*
X732281Y683680D01*
X730793Y684675D01*
X729037Y685024D01*
D02*
G37*
G36*
X794037Y779524D02*
X792282Y779175D01*
X790793Y778180D01*
X789799Y776692D01*
X789449Y774936D01*
X789799Y773180D01*
X790793Y771692D01*
X792282Y770697D01*
X794037Y770348D01*
X795793Y770697D01*
X797282Y771692D01*
X798276Y773180D01*
X798626Y774936D01*
X798276Y776692D01*
X797282Y778180D01*
X795793Y779175D01*
X794037Y779524D01*
D02*
G37*
G36*
X582037Y788024D02*
X580281Y787674D01*
X578793Y786680D01*
X577798Y785191D01*
X577449Y783436D01*
X577798Y781680D01*
X578793Y780191D01*
X580281Y779197D01*
X582037Y778848D01*
X583793Y779197D01*
X585281Y780191D01*
X586276Y781680D01*
X586625Y783436D01*
X586276Y785191D01*
X585281Y786680D01*
X583793Y787674D01*
X582037Y788024D01*
D02*
G37*
G36*
X1035038Y778524D02*
X1033282Y778175D01*
X1031793Y777180D01*
X1030798Y775692D01*
X1030449Y773936D01*
X1030798Y772180D01*
X1031793Y770692D01*
X1033282Y769697D01*
X1035038Y769348D01*
X1036793Y769697D01*
X1038282Y770692D01*
X1039276Y772180D01*
X1039626Y773936D01*
X1039276Y775692D01*
X1038282Y777180D01*
X1036793Y778175D01*
X1035038Y778524D01*
D02*
G37*
G36*
X941037Y763524D02*
X939281Y763175D01*
X937793Y762180D01*
X936798Y760691D01*
X936684Y760120D01*
X935390D01*
X935276Y760691D01*
X934281Y762180D01*
X932793Y763175D01*
X931037Y763524D01*
X929281Y763175D01*
X927793Y762180D01*
X926798Y760691D01*
X926449Y758936D01*
X926798Y757180D01*
X927793Y755691D01*
X929281Y754697D01*
X931037Y754348D01*
X932793Y754697D01*
X934281Y755691D01*
X935276Y757180D01*
X935390Y757751D01*
X936684D01*
X936798Y757180D01*
X937793Y755691D01*
X939281Y754697D01*
X941037Y754348D01*
X942793Y754697D01*
X944281Y755691D01*
X945276Y757180D01*
X945625Y758936D01*
X945276Y760691D01*
X944281Y762180D01*
X942793Y763175D01*
X941037Y763524D01*
D02*
G37*
G36*
X369188Y773174D02*
X367432Y772825D01*
X365943Y771830D01*
X364949Y770342D01*
X364599Y768586D01*
X364949Y766830D01*
X365943Y765342D01*
X367432Y764347D01*
X369188Y763998D01*
X370943Y764347D01*
X372432Y765342D01*
X373426Y766830D01*
X373776Y768586D01*
X373426Y770342D01*
X372432Y771830D01*
X370943Y772825D01*
X369188Y773174D01*
D02*
G37*
G36*
X448537Y799024D02*
X446781Y798674D01*
X445293Y797680D01*
X444298Y796191D01*
X443949Y794436D01*
X444298Y792680D01*
X445293Y791191D01*
X446781Y790197D01*
X448537Y789847D01*
X450293Y790197D01*
X451781Y791191D01*
X452776Y792680D01*
X453125Y794436D01*
X452776Y796191D01*
X451781Y797680D01*
X450293Y798674D01*
X448537Y799024D01*
D02*
G37*
G36*
X425537Y795024D02*
X423781Y794675D01*
X422293Y793680D01*
X421781D01*
X420293Y794675D01*
X418537Y795024D01*
X416781Y794675D01*
X415293Y793680D01*
X414298Y792191D01*
X413949Y790436D01*
X414298Y788680D01*
X415293Y787191D01*
X415473Y787071D01*
Y785801D01*
X415293Y785680D01*
X414298Y784191D01*
X413949Y782436D01*
X414298Y780680D01*
X415293Y779191D01*
X416781Y778197D01*
X418537Y777848D01*
X420293Y778197D01*
X421781Y779191D01*
X422776Y780680D01*
X423125Y782436D01*
X422776Y784191D01*
X422204Y785048D01*
X422494Y786562D01*
X422554Y786636D01*
X422871Y786805D01*
X423781Y786197D01*
X425537Y785847D01*
X427293Y786197D01*
X428781Y787191D01*
X429776Y788680D01*
X430125Y790436D01*
X429776Y792191D01*
X428781Y793680D01*
X427293Y794675D01*
X425537Y795024D01*
D02*
G37*
G36*
X1024372Y798524D02*
X1022616Y798175D01*
X1021128Y797180D01*
X1020133Y795691D01*
X1019784Y793936D01*
X1020133Y792180D01*
X1021128Y790691D01*
X1022616Y789697D01*
X1024372Y789348D01*
X1026128Y789697D01*
X1027617Y790691D01*
X1028611Y792180D01*
X1028960Y793936D01*
X1028611Y795691D01*
X1027617Y797180D01*
X1026128Y798175D01*
X1024372Y798524D01*
D02*
G37*
G36*
X1087001Y791524D02*
X1085246Y791175D01*
X1083757Y790180D01*
X1082763Y788692D01*
X1082413Y786936D01*
X1082763Y785180D01*
X1083757Y783691D01*
X1085246Y782697D01*
X1087001Y782348D01*
X1088757Y782697D01*
X1090246Y783691D01*
X1091240Y785180D01*
X1091590Y786936D01*
X1091240Y788692D01*
X1090246Y790180D01*
X1088757Y791175D01*
X1087001Y791524D01*
D02*
G37*
G36*
X983538Y795024D02*
X981782Y794675D01*
X980294Y793680D01*
X979299Y792192D01*
X978950Y790436D01*
X979299Y788680D01*
X980294Y787192D01*
X981782Y786197D01*
X983538Y785848D01*
X985294Y786197D01*
X986782Y787192D01*
X987777Y788680D01*
X988126Y790436D01*
X987777Y792192D01*
X986782Y793680D01*
X985294Y794675D01*
X983538Y795024D01*
D02*
G37*
G36*
X317037Y760024D02*
X315281Y759675D01*
X313793Y758680D01*
X312798Y757191D01*
X312449Y755436D01*
X312798Y753680D01*
X313793Y752191D01*
X315281Y751197D01*
X317037Y750847D01*
X318793Y751197D01*
X320281Y752191D01*
X321276Y753680D01*
X321625Y755436D01*
X321276Y757191D01*
X320281Y758680D01*
X318793Y759675D01*
X317037Y760024D01*
D02*
G37*
G36*
X420037Y762024D02*
X418281Y761674D01*
X416793Y760680D01*
X415798Y759191D01*
X415449Y757436D01*
X415798Y755680D01*
X416793Y754191D01*
X418281Y753197D01*
X420037Y752848D01*
X421793Y753197D01*
X423281Y754191D01*
X424276Y755680D01*
X424625Y757436D01*
X424276Y759191D01*
X423281Y760680D01*
X421793Y761674D01*
X420037Y762024D01*
D02*
G37*
G36*
X338037Y759024D02*
X336281Y758674D01*
X334793Y757680D01*
X333798Y756191D01*
X333449Y754436D01*
X333798Y752680D01*
X334793Y751191D01*
X336281Y750197D01*
X338037Y749847D01*
X339793Y750197D01*
X341281Y751191D01*
X341665Y751765D01*
X341720Y751785D01*
X343134Y751678D01*
X343793Y750692D01*
X345282Y749697D01*
X347038Y749348D01*
X348793Y749697D01*
X350282Y750692D01*
X351276Y752180D01*
X351626Y753936D01*
X351276Y755692D01*
X350282Y757180D01*
X348793Y758175D01*
X347038Y758524D01*
X345282Y758175D01*
X343793Y757180D01*
X343410Y756606D01*
X343355Y756586D01*
X341940Y756693D01*
X341281Y757680D01*
X339793Y758674D01*
X338037Y759024D01*
D02*
G37*
G36*
X907037Y757524D02*
X905281Y757175D01*
X903793Y756180D01*
X902798Y754691D01*
X902449Y752936D01*
X902798Y751180D01*
X903793Y749691D01*
X905281Y748697D01*
X907037Y748347D01*
X908793Y748697D01*
X910281Y749691D01*
X911276Y751180D01*
X911625Y752936D01*
X911276Y754691D01*
X910281Y756180D01*
X908793Y757175D01*
X907037Y757524D01*
D02*
G37*
G36*
X889037Y758024D02*
X887281Y757674D01*
X885793Y756680D01*
X884798Y755191D01*
X884449Y753436D01*
X884798Y751680D01*
X885793Y750191D01*
X887281Y749197D01*
X889037Y748848D01*
X890793Y749197D01*
X892281Y750191D01*
X893276Y751680D01*
X893625Y753436D01*
X893276Y755191D01*
X892281Y756680D01*
X890793Y757674D01*
X889037Y758024D01*
D02*
G37*
G36*
X440037Y766024D02*
X438281Y765675D01*
X436793Y764680D01*
X435798Y763191D01*
X435449Y761436D01*
X435798Y759680D01*
X436793Y758191D01*
X438281Y757197D01*
X440037Y756848D01*
X441793Y757197D01*
X443281Y758191D01*
X444276Y759680D01*
X444625Y761436D01*
X444276Y763191D01*
X443281Y764680D01*
X441793Y765675D01*
X440037Y766024D01*
D02*
G37*
G36*
X1006537Y760024D02*
X1004782Y759675D01*
X1003293Y758680D01*
X1002782D01*
X1001293Y759675D01*
X999537Y760024D01*
X997782Y759675D01*
X996293Y758680D01*
X995298Y757192D01*
X994949Y755436D01*
X995298Y753680D01*
X996293Y752191D01*
Y751680D01*
X995298Y750192D01*
X994949Y748436D01*
X995298Y746680D01*
X996293Y745191D01*
X997782Y744197D01*
X999537Y743848D01*
X1001293Y744197D01*
X1002782Y745191D01*
X1003293D01*
X1004782Y744197D01*
X1006537Y743848D01*
X1008293Y744197D01*
X1009782Y745191D01*
X1010776Y746680D01*
X1011126Y748436D01*
X1010776Y750192D01*
X1010251Y750978D01*
X1009881Y751936D01*
X1010251Y752894D01*
X1010776Y753680D01*
X1011126Y755436D01*
X1010776Y757192D01*
X1009782Y758680D01*
X1008293Y759675D01*
X1006537Y760024D01*
D02*
G37*
G36*
X587038Y762524D02*
X585282Y762175D01*
X583793Y761180D01*
X582799Y759692D01*
X582449Y757936D01*
X582799Y756180D01*
X583793Y754691D01*
X585282Y753697D01*
X587038Y753348D01*
X588793Y753697D01*
X590282Y754691D01*
X591276Y756180D01*
X591626Y757936D01*
X591276Y759692D01*
X590282Y761180D01*
X588793Y762175D01*
X587038Y762524D01*
D02*
G37*
G36*
X1035037Y762024D02*
X1033281Y761674D01*
X1031793Y760680D01*
X1030798Y759191D01*
X1030449Y757436D01*
X1030798Y755680D01*
X1031793Y754191D01*
X1033281Y753197D01*
X1035037Y752848D01*
X1036793Y753197D01*
X1038281Y754191D01*
X1039276Y755680D01*
X1039625Y757436D01*
X1039276Y759191D01*
X1038281Y760680D01*
X1036793Y761674D01*
X1035037Y762024D01*
D02*
G37*
G36*
X1088037D02*
X1086281Y761674D01*
X1084793Y760680D01*
X1083798Y759191D01*
X1083449Y757436D01*
X1083798Y755680D01*
X1084793Y754191D01*
X1086281Y753197D01*
X1088037Y752848D01*
X1089793Y753197D01*
X1091281Y754191D01*
X1092276Y755680D01*
X1092625Y757436D01*
X1092276Y759191D01*
X1091281Y760680D01*
X1089793Y761674D01*
X1088037Y762024D01*
D02*
G37*
G36*
X684037Y803524D02*
X682281Y803175D01*
X680793Y802180D01*
X679798Y800691D01*
X679449Y798936D01*
X679798Y797180D01*
X680793Y795691D01*
X682281Y794697D01*
X684037Y794348D01*
X685793Y794697D01*
X687281Y795691D01*
X688276Y797180D01*
X688625Y798936D01*
X688276Y800691D01*
X687281Y802180D01*
X685793Y803175D01*
X684037Y803524D01*
D02*
G37*
G36*
X421037Y829524D02*
X419281Y829174D01*
X417793Y828180D01*
X416798Y826691D01*
X416449Y824936D01*
X416798Y823180D01*
X417793Y821691D01*
X419281Y820697D01*
X421037Y820348D01*
X422793Y820697D01*
X424281Y821691D01*
X425276Y823180D01*
X425625Y824936D01*
X425276Y826691D01*
X424281Y828180D01*
X422793Y829174D01*
X421037Y829524D01*
D02*
G37*
G36*
X1034037Y829524D02*
X1032282Y829175D01*
X1030793Y828180D01*
X1029799Y826692D01*
X1029449Y824936D01*
X1029799Y823180D01*
X1030793Y821692D01*
X1032282Y820697D01*
X1034037Y820348D01*
X1035793Y820697D01*
X1037282Y821692D01*
X1038276Y823180D01*
X1038626Y824936D01*
X1038276Y826692D01*
X1037282Y828180D01*
X1035793Y829175D01*
X1034037Y829524D01*
D02*
G37*
G36*
X445037Y828524D02*
X443281Y828175D01*
X441793Y827180D01*
X440798Y825691D01*
X440449Y823936D01*
X440798Y822180D01*
X440400Y821218D01*
X439891Y821116D01*
X438072Y819901D01*
X437053Y818377D01*
X435840Y818470D01*
X435732Y818511D01*
X435718Y818582D01*
X434502Y820401D01*
X432683Y821617D01*
X430537Y822043D01*
X428391Y821617D01*
X426572Y820401D01*
X425356Y818582D01*
X424929Y816436D01*
X425356Y814290D01*
X426572Y812470D01*
X428391Y811255D01*
X430537Y810828D01*
X432683Y811255D01*
X434502Y812470D01*
X435521Y813994D01*
X436734Y813902D01*
X436842Y813860D01*
X436856Y813790D01*
X438072Y811970D01*
X439891Y810755D01*
X442037Y810328D01*
X444183Y810755D01*
X446002Y811970D01*
X447218Y813790D01*
X447645Y815936D01*
X447218Y818082D01*
X446921Y818526D01*
X447397Y820100D01*
X448281Y820691D01*
X449276Y822180D01*
X449625Y823936D01*
X449276Y825691D01*
X448281Y827180D01*
X446793Y828175D01*
X445037Y828524D01*
D02*
G37*
G36*
X527037Y822024D02*
X525281Y821674D01*
X523793Y820680D01*
X522798Y819191D01*
X522449Y817436D01*
X522798Y815680D01*
X523793Y814191D01*
X525281Y813197D01*
X527037Y812848D01*
X528793Y813197D01*
X530281Y814191D01*
X531276Y815680D01*
X531625Y817436D01*
X531276Y819191D01*
X530281Y820680D01*
X528793Y821674D01*
X527037Y822024D01*
D02*
G37*
G36*
X820537Y824024D02*
X818782Y823675D01*
X817293Y822680D01*
X816299Y821192D01*
X815949Y819436D01*
X816299Y817680D01*
X817293Y816191D01*
X818782Y815197D01*
X820537Y814848D01*
X822293Y815197D01*
X823782Y816191D01*
X824776Y817680D01*
X825126Y819436D01*
X824776Y821192D01*
X823782Y822680D01*
X822293Y823675D01*
X820537Y824024D01*
D02*
G37*
G36*
X1044037Y846024D02*
X1042281Y845675D01*
X1040793Y844680D01*
X1039798Y843192D01*
X1039449Y841436D01*
X1039798Y839680D01*
X1040793Y838191D01*
X1042281Y837197D01*
X1044037Y836848D01*
X1045793Y837197D01*
X1047281Y838191D01*
X1048276Y839680D01*
X1048625Y841436D01*
X1048276Y843192D01*
X1047281Y844680D01*
X1045793Y845675D01*
X1044037Y846024D01*
D02*
G37*
G36*
X203037Y848024D02*
X201281Y847674D01*
X199793Y846680D01*
X198798Y845191D01*
X198449Y843436D01*
X198798Y841680D01*
X199793Y840191D01*
X201281Y839197D01*
X203037Y838848D01*
X204793Y839197D01*
X206281Y840191D01*
X207276Y841680D01*
X207625Y843436D01*
X207276Y845191D01*
X206281Y846680D01*
X204793Y847674D01*
X203037Y848024D01*
D02*
G37*
G36*
X1083037Y845524D02*
X1081281Y845174D01*
X1079793Y844180D01*
X1078798Y842691D01*
X1078449Y840936D01*
X1078798Y839180D01*
X1079793Y837691D01*
X1081281Y836697D01*
X1083037Y836348D01*
X1084793Y836697D01*
X1086281Y837691D01*
X1087276Y839180D01*
X1087625Y840936D01*
X1087276Y842691D01*
X1086281Y844180D01*
X1084793Y845174D01*
X1083037Y845524D01*
D02*
G37*
G36*
X504037Y831524D02*
X502281Y831174D01*
X500793Y830180D01*
X499798Y828691D01*
X499449Y826936D01*
X499798Y825180D01*
X500793Y823691D01*
X502281Y822697D01*
X504037Y822347D01*
X505793Y822697D01*
X507281Y823691D01*
X508276Y825180D01*
X508625Y826936D01*
X508276Y828691D01*
X507281Y830180D01*
X505793Y831174D01*
X504037Y831524D01*
D02*
G37*
G36*
X782037Y834024D02*
X780281Y833674D01*
X778793Y832680D01*
X777798Y831191D01*
X777449Y829436D01*
X777798Y827680D01*
X778793Y826191D01*
X780281Y825197D01*
X782037Y824847D01*
X783793Y825197D01*
X785281Y826191D01*
X786276Y827680D01*
X786625Y829436D01*
X786276Y831191D01*
X785281Y832680D01*
X783793Y833674D01*
X782037Y834024D01*
D02*
G37*
G36*
X568037Y859019D02*
X563801Y858686D01*
X559668Y857694D01*
X555742Y856067D01*
X552118Y853847D01*
X548886Y851087D01*
X546126Y847855D01*
X543906Y844231D01*
X542280Y840305D01*
X541287Y836173D01*
X540954Y831936D01*
X541287Y827699D01*
X542280Y823567D01*
X543906Y819640D01*
X546126Y816017D01*
X548886Y812785D01*
X552118Y810025D01*
X555742Y807804D01*
X559668Y806178D01*
X563801Y805186D01*
X568037Y804852D01*
X572274Y805186D01*
X576407Y806178D01*
X580333Y807804D01*
X583957Y810025D01*
X587188Y812785D01*
X589949Y816017D01*
X592169Y819640D01*
X593795Y823567D01*
X594787Y827699D01*
X595121Y831936D01*
X594787Y836173D01*
X593795Y840305D01*
X592169Y844231D01*
X589949Y847855D01*
X587188Y851087D01*
X583957Y853847D01*
X580333Y856067D01*
X576407Y857694D01*
X572274Y858686D01*
X568037Y859019D01*
D02*
G37*
G36*
X1148037D02*
X1143801Y858686D01*
X1139668Y857694D01*
X1135742Y856067D01*
X1132118Y853847D01*
X1128886Y851087D01*
X1126126Y847855D01*
X1123906Y844231D01*
X1122280Y840305D01*
X1121287Y836173D01*
X1120954Y831936D01*
X1121287Y827699D01*
X1122280Y823567D01*
X1123906Y819640D01*
X1126126Y816017D01*
X1128886Y812785D01*
X1132118Y810025D01*
X1135742Y807804D01*
X1139668Y806178D01*
X1143801Y805186D01*
X1148037Y804852D01*
X1152274Y805186D01*
X1156407Y806178D01*
X1160333Y807804D01*
X1163957Y810025D01*
X1167188Y812785D01*
X1169949Y816017D01*
X1172169Y819640D01*
X1173795Y823567D01*
X1174788Y827699D01*
X1175121Y831936D01*
X1174788Y836173D01*
X1173795Y840305D01*
X1172169Y844231D01*
X1169949Y847855D01*
X1167188Y851087D01*
X1163957Y853847D01*
X1160333Y856067D01*
X1156407Y857694D01*
X1152274Y858686D01*
X1148037Y859019D01*
D02*
G37*
G36*
X674037Y806524D02*
X672281Y806174D01*
X670793Y805180D01*
X670301Y804444D01*
X668773D01*
X668281Y805180D01*
X666793Y806174D01*
X665037Y806524D01*
X663281Y806174D01*
X661793Y805180D01*
X660798Y803691D01*
X660449Y801936D01*
X660798Y800180D01*
X661793Y798691D01*
X661973Y798571D01*
Y797301D01*
X661793Y797180D01*
X660798Y795691D01*
X660449Y793936D01*
X660798Y792180D01*
X661793Y790691D01*
X663281Y789697D01*
X665037Y789348D01*
X666793Y789697D01*
X668281Y790691D01*
X668773Y791428D01*
X670301D01*
X670793Y790691D01*
X672281Y789697D01*
X674037Y789348D01*
X675793Y789697D01*
X677281Y790691D01*
X678276Y792180D01*
X678625Y793936D01*
X678276Y795691D01*
X677281Y797180D01*
X677101Y797301D01*
Y798571D01*
X677281Y798691D01*
X678276Y800180D01*
X678625Y801936D01*
X678276Y803691D01*
X677281Y805180D01*
X675793Y806174D01*
X674037Y806524D01*
D02*
G37*
G36*
X1025415Y809524D02*
X1023660Y809174D01*
X1022171Y808180D01*
X1021177Y806691D01*
X1020827Y804936D01*
X1021177Y803180D01*
X1022171Y801691D01*
X1023660Y800697D01*
X1025415Y800348D01*
X1027171Y800697D01*
X1028660Y801691D01*
X1029654Y803180D01*
X1030004Y804936D01*
X1029654Y806691D01*
X1028660Y808180D01*
X1027171Y809174D01*
X1025415Y809524D01*
D02*
G37*
G36*
X975037Y810024D02*
X973282Y809675D01*
X971793Y808680D01*
X970798Y807192D01*
X970449Y805436D01*
X970798Y803680D01*
X971793Y802191D01*
X973282Y801197D01*
X975037Y800848D01*
X976793Y801197D01*
X978282Y802191D01*
X979276Y803680D01*
X979626Y805436D01*
X979276Y807192D01*
X978282Y808680D01*
X976793Y809675D01*
X975037Y810024D01*
D02*
G37*
G36*
X462038Y822008D02*
X459599Y821523D01*
X457532Y820142D01*
X456150Y818074D01*
X455665Y815636D01*
X456150Y813197D01*
X457532Y811130D01*
X459599Y809748D01*
X462038Y809263D01*
X464476Y809748D01*
X466544Y811130D01*
X467925Y813197D01*
X468410Y815636D01*
X467925Y818074D01*
X466544Y820142D01*
X464476Y821523D01*
X462038Y822008D01*
D02*
G37*
G36*
X920037Y819024D02*
X918281Y818674D01*
X916793Y817680D01*
X915798Y816191D01*
X915449Y814436D01*
X915798Y812680D01*
X916793Y811191D01*
X918281Y810197D01*
X920037Y809847D01*
X921793Y810197D01*
X923281Y811191D01*
X924276Y812680D01*
X924625Y814436D01*
X924276Y816191D01*
X923281Y817680D01*
X921793Y818674D01*
X920037Y819024D01*
D02*
G37*
G36*
X404238Y822008D02*
X401799Y821523D01*
X399731Y820142D01*
X398350Y818074D01*
X397865Y815636D01*
X398350Y813197D01*
X399731Y811130D01*
X401799Y809748D01*
X404238Y809263D01*
X406676Y809748D01*
X408744Y811130D01*
X410125Y813197D01*
X410610Y815636D01*
X410125Y818074D01*
X408744Y820142D01*
X406676Y821523D01*
X404238Y822008D01*
D02*
G37*
G36*
X844964Y816451D02*
X843208Y816101D01*
X841720Y815107D01*
X840725Y813618D01*
X840376Y811862D01*
X840725Y810107D01*
X841720Y808618D01*
X843208Y807624D01*
X844964Y807274D01*
X846720Y807624D01*
X848208Y808618D01*
X849203Y810107D01*
X849552Y811862D01*
X849203Y813618D01*
X848208Y815107D01*
X846720Y816101D01*
X844964Y816451D01*
D02*
G37*
G36*
X362037Y817524D02*
X360281Y817175D01*
X358793Y816180D01*
X357798Y814691D01*
X357449Y812936D01*
X357798Y811180D01*
X358793Y809691D01*
X360281Y808697D01*
X362037Y808347D01*
X363793Y808697D01*
X365281Y809691D01*
X366276Y811180D01*
X366625Y812936D01*
X366276Y814691D01*
X365281Y816180D01*
X363793Y817175D01*
X362037Y817524D01*
D02*
G37*
G36*
X896037Y713524D02*
X894281Y713175D01*
X892793Y712180D01*
X891798Y710691D01*
X891449Y708936D01*
X891798Y707180D01*
X892793Y705691D01*
X894281Y704697D01*
X896037Y704348D01*
X897793Y704697D01*
X899281Y705691D01*
X900276Y707180D01*
X900625Y708936D01*
X900276Y710691D01*
X899281Y712180D01*
X897793Y713175D01*
X896037Y713524D01*
D02*
G37*
G36*
X512207Y714853D02*
X510452Y714504D01*
X508963Y713510D01*
X507969Y712021D01*
X507619Y710265D01*
X507969Y708509D01*
X508963Y707021D01*
X510452Y706026D01*
X512207Y705677D01*
X513963Y706026D01*
X515452Y707021D01*
X516446Y708509D01*
X516796Y710265D01*
X516446Y712021D01*
X515452Y713510D01*
X513963Y714504D01*
X512207Y714853D01*
D02*
G37*
G36*
X657037Y713024D02*
X655281Y712674D01*
X653793Y711680D01*
X652798Y710191D01*
X652449Y708436D01*
X652798Y706680D01*
X653793Y705191D01*
X655281Y704197D01*
X657037Y703848D01*
X658793Y704197D01*
X660281Y705191D01*
X661276Y706680D01*
X661625Y708436D01*
X661276Y710191D01*
X660281Y711680D01*
X658793Y712674D01*
X657037Y713024D01*
D02*
G37*
G36*
X260037Y707024D02*
X258281Y706674D01*
X256793Y705680D01*
X255798Y704191D01*
X255449Y702436D01*
X255798Y700680D01*
X256793Y699191D01*
X258281Y698197D01*
X260037Y697848D01*
X261793Y698197D01*
X263281Y699191D01*
X264276Y700680D01*
X264625Y702436D01*
X264276Y704191D01*
X263281Y705680D01*
X261793Y706674D01*
X260037Y707024D01*
D02*
G37*
G36*
X380037Y710524D02*
X378282Y710175D01*
X376793Y709180D01*
X375799Y707692D01*
X375449Y705936D01*
X375799Y704180D01*
X376793Y702691D01*
X378282Y701697D01*
X380037Y701348D01*
X381793Y701697D01*
X383282Y702691D01*
X384276Y704180D01*
X384626Y705936D01*
X384276Y707692D01*
X383282Y709180D01*
X381793Y710175D01*
X380037Y710524D01*
D02*
G37*
G36*
X1026537Y722524D02*
X1024781Y722175D01*
X1023293Y721180D01*
X1022298Y719691D01*
X1021949Y717936D01*
X1022298Y716180D01*
X1023293Y714691D01*
X1024781Y713697D01*
X1026537Y713347D01*
X1028293Y713697D01*
X1029781Y714691D01*
X1030776Y716180D01*
X1031125Y717936D01*
X1030776Y719691D01*
X1029781Y721180D01*
X1028293Y722175D01*
X1026537Y722524D01*
D02*
G37*
G36*
X1062037Y723524D02*
X1060282Y723175D01*
X1058793Y722180D01*
X1057798Y720692D01*
X1057449Y718936D01*
X1057798Y717180D01*
X1058793Y715692D01*
X1060282Y714697D01*
X1062037Y714348D01*
X1063793Y714697D01*
X1065282Y715692D01*
X1066276Y717180D01*
X1066626Y718936D01*
X1066276Y720692D01*
X1065282Y722180D01*
X1063793Y723175D01*
X1062037Y723524D01*
D02*
G37*
G36*
X782037Y721024D02*
X780281Y720675D01*
X778793Y719680D01*
X777798Y718191D01*
X777449Y716436D01*
X777798Y714680D01*
X778793Y713191D01*
X780281Y712197D01*
X782037Y711848D01*
X783793Y712197D01*
X785281Y713191D01*
X786276Y714680D01*
X786625Y716436D01*
X786276Y718191D01*
X785281Y719680D01*
X783793Y720675D01*
X782037Y721024D01*
D02*
G37*
G36*
X947037Y716024D02*
X945281Y715675D01*
X943793Y714680D01*
X942798Y713191D01*
X942449Y711436D01*
X942798Y709680D01*
X943793Y708191D01*
X945281Y707197D01*
X947037Y706848D01*
X948793Y707197D01*
X950281Y708191D01*
X951276Y709680D01*
X951625Y711436D01*
X951276Y713191D01*
X950281Y714680D01*
X948793Y715675D01*
X947037Y716024D01*
D02*
G37*
G36*
X705037Y719524D02*
X703281Y719174D01*
X701793Y718180D01*
X700798Y716691D01*
X700449Y714936D01*
X700798Y713180D01*
X701793Y711691D01*
X703281Y710697D01*
X705037Y710348D01*
X706793Y710697D01*
X708281Y711691D01*
X709276Y713180D01*
X709625Y714936D01*
X709276Y716691D01*
X708281Y718180D01*
X706793Y719174D01*
X705037Y719524D01*
D02*
G37*
G36*
X538248Y691312D02*
X536492Y690962D01*
X535003Y689968D01*
X534009Y688479D01*
X533660Y686723D01*
X534009Y684968D01*
X535003Y683479D01*
X536492Y682485D01*
X538248Y682135D01*
X540004Y682485D01*
X541492Y683479D01*
X542487Y684968D01*
X542836Y686723D01*
X542487Y688479D01*
X541492Y689968D01*
X540004Y690962D01*
X538248Y691312D01*
D02*
G37*
G36*
X832037Y699024D02*
X830281Y698674D01*
X828793Y697680D01*
X827798Y696191D01*
X827449Y694436D01*
X827798Y692680D01*
X828793Y691191D01*
X830281Y690197D01*
X832037Y689847D01*
X833793Y690197D01*
X835281Y691191D01*
X836276Y692680D01*
X836625Y694436D01*
X836276Y696191D01*
X835281Y697680D01*
X833793Y698674D01*
X832037Y699024D01*
D02*
G37*
G36*
X571037Y689524D02*
X569282Y689175D01*
X567793Y688180D01*
X566798Y686692D01*
X566449Y684936D01*
X566798Y683180D01*
X567793Y681691D01*
X569282Y680697D01*
X571037Y680348D01*
X572793Y680697D01*
X574282Y681691D01*
X575276Y683180D01*
X575625Y684936D01*
X575276Y686692D01*
X574282Y688180D01*
X572793Y689175D01*
X571037Y689524D01*
D02*
G37*
G36*
X1006037Y687024D02*
X1004281Y686674D01*
X1002793Y685680D01*
X1001798Y684191D01*
X1001449Y682436D01*
X1001798Y680680D01*
X1002793Y679191D01*
X1004281Y678197D01*
X1006037Y677848D01*
X1007793Y678197D01*
X1009281Y679191D01*
X1010276Y680680D01*
X1010625Y682436D01*
X1010276Y684191D01*
X1009281Y685680D01*
X1007793Y686674D01*
X1006037Y687024D01*
D02*
G37*
G36*
X556037Y689524D02*
X554282Y689175D01*
X552793Y688180D01*
X551798Y686692D01*
X551449Y684936D01*
X551798Y683180D01*
X552793Y681691D01*
X554282Y680697D01*
X556037Y680348D01*
X557793Y680697D01*
X559282Y681691D01*
X560276Y683180D01*
X560625Y684936D01*
X560276Y686692D01*
X559282Y688180D01*
X557793Y689175D01*
X556037Y689524D01*
D02*
G37*
G36*
X1029037Y706024D02*
X1027281Y705675D01*
X1025793Y704680D01*
X1024798Y703191D01*
X1024449Y701436D01*
X1024798Y699680D01*
X1025793Y698191D01*
X1027281Y697197D01*
X1029037Y696848D01*
X1030793Y697197D01*
X1032281Y698191D01*
X1033276Y699680D01*
X1033625Y701436D01*
X1033276Y703191D01*
X1032281Y704680D01*
X1030793Y705675D01*
X1029037Y706024D01*
D02*
G37*
G36*
X737036Y707023D02*
X735280Y706674D01*
X733792Y705680D01*
X732797Y704191D01*
X732448Y702435D01*
X732797Y700679D01*
X733792Y699191D01*
X735280Y698196D01*
X737036Y697847D01*
X738792Y698196D01*
X740280Y699191D01*
X741275Y700679D01*
X741624Y702435D01*
X741275Y704191D01*
X740280Y705680D01*
X738792Y706674D01*
X737036Y707023D01*
D02*
G37*
G36*
X1127577Y735976D02*
X1108497D01*
Y716896D01*
X1115042D01*
X1115294Y715626D01*
X1113226Y714769D01*
X1111233Y713240D01*
X1109704Y711247D01*
X1108743Y708926D01*
X1108415Y706436D01*
X1108743Y703945D01*
X1109704Y701625D01*
X1111233Y699632D01*
X1113226Y698102D01*
X1115547Y697141D01*
X1118037Y696813D01*
X1120527Y697141D01*
X1122848Y698102D01*
X1124841Y699632D01*
X1126370Y701625D01*
X1127331Y703945D01*
X1127659Y706436D01*
X1127331Y708926D01*
X1126370Y711247D01*
X1124841Y713240D01*
X1122848Y714769D01*
X1120780Y715626D01*
X1121032Y716896D01*
X1127577D01*
Y735976D01*
D02*
G37*
G36*
X991037Y700024D02*
X989281Y699675D01*
X987793Y698680D01*
X986798Y697191D01*
X986449Y695436D01*
X986798Y693680D01*
X987793Y692191D01*
X989281Y691197D01*
X991037Y690847D01*
X992793Y691197D01*
X994281Y692191D01*
X995276Y693680D01*
X995625Y695436D01*
X995276Y697191D01*
X994281Y698680D01*
X992793Y699675D01*
X991037Y700024D01*
D02*
G37*
G36*
X1075037D02*
X1073281Y699675D01*
X1071793Y698680D01*
X1070798Y697191D01*
X1070449Y695436D01*
X1070798Y693680D01*
X1071793Y692191D01*
X1073281Y691197D01*
X1075037Y690847D01*
X1076793Y691197D01*
X1078281Y692191D01*
X1079276Y693680D01*
X1079625Y695436D01*
X1079276Y697191D01*
X1078281Y698680D01*
X1076793Y699675D01*
X1075037Y700024D01*
D02*
G37*
G36*
Y723524D02*
X1073281Y723175D01*
X1071793Y722180D01*
X1070798Y720692D01*
X1070449Y718936D01*
X1070798Y717180D01*
X1071793Y715692D01*
X1073281Y714697D01*
X1075037Y714348D01*
X1076793Y714697D01*
X1078281Y715692D01*
X1079276Y717180D01*
X1079625Y718936D01*
X1079276Y720692D01*
X1078281Y722180D01*
X1076793Y723175D01*
X1075037Y723524D01*
D02*
G37*
G36*
X654037Y743024D02*
X652281Y742674D01*
X650793Y741680D01*
X649798Y740191D01*
X649449Y738436D01*
X649798Y736680D01*
X650793Y735191D01*
X652281Y734197D01*
X654037Y733848D01*
X655793Y734197D01*
X657281Y735191D01*
X658276Y736680D01*
X658625Y738436D01*
X658276Y740191D01*
X657281Y741680D01*
X655793Y742674D01*
X654037Y743024D01*
D02*
G37*
G36*
X789037Y743485D02*
X787281Y743136D01*
X785793Y742141D01*
X784798Y740653D01*
X784449Y738897D01*
X784798Y737141D01*
X785793Y735652D01*
X787281Y734658D01*
X789037Y734309D01*
X790793Y734658D01*
X792281Y735652D01*
X793276Y737141D01*
X793625Y738897D01*
X793276Y740653D01*
X792281Y742141D01*
X790793Y743136D01*
X789037Y743485D01*
D02*
G37*
G36*
X1024037Y742024D02*
X1022281Y741674D01*
X1020793Y740680D01*
X1019798Y739191D01*
X1019449Y737436D01*
X1019798Y735680D01*
X1020793Y734191D01*
X1022281Y733197D01*
X1024037Y732848D01*
X1025793Y733197D01*
X1027281Y734191D01*
X1028276Y735680D01*
X1028625Y737436D01*
X1028276Y739191D01*
X1027281Y740680D01*
X1025793Y741674D01*
X1024037Y742024D01*
D02*
G37*
G36*
X782037Y734024D02*
X780281Y733674D01*
X778793Y732680D01*
X777798Y731191D01*
X777449Y729436D01*
X777798Y727680D01*
X778793Y726191D01*
X780281Y725197D01*
X782037Y724847D01*
X783793Y725197D01*
X785281Y726191D01*
X786276Y727680D01*
X786625Y729436D01*
X786276Y731191D01*
X785281Y732680D01*
X783793Y733674D01*
X782037Y734024D01*
D02*
G37*
G36*
X247037Y740024D02*
X245281Y739675D01*
X243793Y738680D01*
X242798Y737191D01*
X242449Y735436D01*
X242798Y733680D01*
X243793Y732191D01*
X245281Y731197D01*
X247037Y730847D01*
X248793Y731197D01*
X250281Y732191D01*
X251276Y733680D01*
X251625Y735436D01*
X251276Y737191D01*
X250281Y738680D01*
X248793Y739675D01*
X247037Y740024D01*
D02*
G37*
G36*
X694537Y756524D02*
X692781Y756174D01*
X691293Y755180D01*
X690298Y753691D01*
X689949Y751936D01*
X690298Y750180D01*
X691293Y748691D01*
X692781Y747697D01*
X694537Y747347D01*
X696293Y747697D01*
X697781Y748691D01*
X698776Y750180D01*
X699125Y751936D01*
X698776Y753691D01*
X697781Y755180D01*
X696293Y756174D01*
X694537Y756524D01*
D02*
G37*
G36*
X870537Y772024D02*
X868781Y771674D01*
X867293Y770680D01*
X866298Y769191D01*
X865949Y767436D01*
X866197Y766188D01*
X865666Y765250D01*
X865247Y764966D01*
X863782Y764675D01*
X862293Y763680D01*
X861299Y762192D01*
X860949Y760436D01*
X861299Y758680D01*
X862293Y757191D01*
X863782Y756197D01*
X865537Y755848D01*
X867293Y756197D01*
X868425Y756953D01*
X869287Y757103D01*
X870150Y756953D01*
X870513Y756710D01*
X870943Y755068D01*
X870692Y754691D01*
X870342Y752936D01*
X870692Y751180D01*
X871686Y749691D01*
X873175Y748697D01*
X874931Y748347D01*
X876686Y748697D01*
X878175Y749691D01*
X879169Y751180D01*
X879519Y752936D01*
X879169Y754691D01*
X878175Y756180D01*
X877455Y756661D01*
X877025Y758304D01*
X877276Y758680D01*
X877626Y760436D01*
X877276Y762192D01*
X876282Y763680D01*
X875241Y764375D01*
X874776Y765680D01*
X875125Y767436D01*
X874776Y769191D01*
X873781Y770680D01*
X872293Y771674D01*
X870537Y772024D01*
D02*
G37*
G36*
X936037Y753524D02*
X934281Y753175D01*
X932793Y752180D01*
X931798Y750691D01*
X931449Y748936D01*
X931798Y747180D01*
X932793Y745691D01*
X934281Y744697D01*
X936037Y744348D01*
X937793Y744697D01*
X939281Y745691D01*
X940276Y747180D01*
X940625Y748936D01*
X940276Y750691D01*
X939281Y752180D01*
X937793Y753175D01*
X936037Y753524D01*
D02*
G37*
G36*
X519037Y747024D02*
X517281Y746674D01*
X515793Y745680D01*
X514798Y744191D01*
X514449Y742436D01*
X514798Y740680D01*
X515793Y739191D01*
X517281Y738197D01*
X519037Y737848D01*
X520793Y738197D01*
X522281Y739191D01*
X523276Y740680D01*
X523625Y742436D01*
X523276Y744191D01*
X522281Y745680D01*
X520793Y746674D01*
X519037Y747024D01*
D02*
G37*
G36*
X800037D02*
X798281Y746674D01*
X796793Y745680D01*
X795798Y744191D01*
X795449Y742436D01*
X795798Y740680D01*
X796793Y739191D01*
X798281Y738197D01*
X800037Y737848D01*
X801793Y738197D01*
X803281Y739191D01*
X804276Y740680D01*
X804625Y742436D01*
X804276Y744191D01*
X803281Y745680D01*
X801793Y746674D01*
X800037Y747024D01*
D02*
G37*
G36*
X464037Y726024D02*
X462281Y725675D01*
X460793Y724680D01*
X459798Y723191D01*
X459449Y721436D01*
X459798Y719680D01*
X460793Y718191D01*
X462281Y717197D01*
X464037Y716848D01*
X465793Y717197D01*
X467281Y718191D01*
X468276Y719680D01*
X468625Y721436D01*
X468276Y723191D01*
X467281Y724680D01*
X465793Y725675D01*
X464037Y726024D01*
D02*
G37*
G36*
X1088037Y727024D02*
X1086281Y726674D01*
X1084793Y725680D01*
X1083798Y724191D01*
X1083449Y722436D01*
X1083798Y720680D01*
X1084793Y719191D01*
X1086281Y718197D01*
X1088037Y717848D01*
X1089793Y718197D01*
X1091281Y719191D01*
X1092276Y720680D01*
X1092625Y722436D01*
X1092276Y724191D01*
X1091281Y725680D01*
X1089793Y726674D01*
X1088037Y727024D01*
D02*
G37*
G36*
X452787Y726024D02*
X451031Y725675D01*
X449543Y724680D01*
X448548Y723191D01*
X448199Y721436D01*
X448548Y719680D01*
X449543Y718191D01*
X451031Y717197D01*
X452787Y716848D01*
X454543Y717197D01*
X456031Y718191D01*
X457026Y719680D01*
X457375Y721436D01*
X457026Y723191D01*
X456031Y724680D01*
X454543Y725675D01*
X452787Y726024D01*
D02*
G37*
G36*
X424037D02*
X422281Y725675D01*
X420793Y724680D01*
X419798Y723191D01*
X419449Y721436D01*
X419798Y719680D01*
X420793Y718191D01*
X422281Y717197D01*
X424037Y716848D01*
X425793Y717197D01*
X427281Y718191D01*
X428276Y719680D01*
X428625Y721436D01*
X428276Y723191D01*
X427281Y724680D01*
X425793Y725675D01*
X424037Y726024D01*
D02*
G37*
G36*
X441537D02*
X439781Y725675D01*
X438293Y724680D01*
X437298Y723191D01*
X436949Y721436D01*
X437298Y719680D01*
X438293Y718191D01*
X439781Y717197D01*
X441537Y716848D01*
X443293Y717197D01*
X444781Y718191D01*
X445776Y719680D01*
X446125Y721436D01*
X445776Y723191D01*
X444781Y724680D01*
X443293Y725675D01*
X441537Y726024D01*
D02*
G37*
G36*
X595037Y733524D02*
X593281Y733175D01*
X591793Y732180D01*
X590798Y730691D01*
X590449Y728936D01*
X590798Y727180D01*
X591793Y725691D01*
X593281Y724697D01*
X595037Y724347D01*
X596793Y724697D01*
X598281Y725691D01*
X599276Y727180D01*
X599625Y728936D01*
X599276Y730691D01*
X598281Y732180D01*
X596793Y733175D01*
X595037Y733524D01*
D02*
G37*
G36*
X661038Y733524D02*
X659282Y733175D01*
X657793Y732180D01*
X656799Y730692D01*
X656449Y728936D01*
X656799Y727180D01*
X657793Y725692D01*
X659282Y724697D01*
X661038Y724348D01*
X662793Y724697D01*
X664282Y725692D01*
X665276Y727180D01*
X665626Y728936D01*
X665276Y730692D01*
X664282Y732180D01*
X662793Y733175D01*
X661038Y733524D01*
D02*
G37*
G36*
X815037Y733024D02*
X813281Y732674D01*
X811793Y731680D01*
X810798Y730191D01*
X810449Y728436D01*
X810798Y726680D01*
X811793Y725191D01*
X813281Y724197D01*
X815037Y723848D01*
X816793Y724197D01*
X818281Y725191D01*
X819276Y726680D01*
X819625Y728436D01*
X819276Y730191D01*
X818281Y731680D01*
X816793Y732674D01*
X815037Y733024D01*
D02*
G37*
G36*
X256037Y731024D02*
X254281Y730675D01*
X252793Y729680D01*
X251798Y728191D01*
X251449Y726436D01*
X251798Y724680D01*
X252793Y723191D01*
X254281Y722197D01*
X256037Y721848D01*
X257793Y722197D01*
X259281Y723191D01*
X260276Y724680D01*
X260625Y726436D01*
X260276Y728191D01*
X259281Y729680D01*
X257793Y730675D01*
X256037Y731024D01*
D02*
G37*
G36*
X802037Y733024D02*
X800281Y732674D01*
X798793Y731680D01*
X797798Y730191D01*
X797449Y728436D01*
X797798Y726680D01*
X798793Y725191D01*
X800281Y724197D01*
X802037Y723848D01*
X803793Y724197D01*
X805281Y725191D01*
X806276Y726680D01*
X806625Y728436D01*
X806276Y730191D01*
X805281Y731680D01*
X803793Y732674D01*
X802037Y733024D01*
D02*
G37*
%LPD*%
D84*
X652037Y784936D02*
D03*
X644037D02*
D03*
Y791936D02*
D03*
X498037Y567436D02*
D03*
X413037Y578436D02*
D03*
X798037Y647436D02*
D03*
X724037D02*
D03*
X541037Y749936D02*
D03*
X414037Y716436D02*
D03*
X430037Y704436D02*
D03*
X485037Y661936D02*
D03*
X392037Y704436D02*
D03*
X857837Y569436D02*
D03*
X985037Y569436D02*
D03*
X326037Y586936D02*
D03*
X337037Y640436D02*
D03*
X380537Y640936D02*
D03*
X457037Y588436D02*
D03*
X375037Y566436D02*
D03*
X372037Y866436D02*
D03*
X432037Y727936D02*
D03*
X394037Y729436D02*
D03*
X629037Y593436D02*
D03*
X756037Y588436D02*
D03*
X934037Y589436D02*
D03*
X985037Y588436D02*
D03*
Y612436D02*
D03*
X934037D02*
D03*
X858037Y611436D02*
D03*
X617037Y837436D02*
D03*
X608037Y749436D02*
D03*
X1099037Y704436D02*
D03*
X1100037Y722436D02*
D03*
Y757436D02*
D03*
X1119037Y770436D02*
D03*
X1139037Y702436D02*
D03*
X1111037Y672936D02*
D03*
X991037Y647436D02*
D03*
X958037D02*
D03*
X912037D02*
D03*
X853037D02*
D03*
X1033037D02*
D03*
X1066537Y656436D02*
D03*
X681037Y569436D02*
D03*
X320037Y740436D02*
D03*
X848037Y841436D02*
D03*
X833037D02*
D03*
X794037Y802436D02*
D03*
X1138037Y749436D02*
D03*
X1119037Y791436D02*
D03*
X1140037Y665936D02*
D03*
X1132087Y641936D02*
D03*
X1058037Y774436D02*
D03*
X989037Y725436D02*
D03*
X971037D02*
D03*
X953037D02*
D03*
X1008037Y790436D02*
D03*
X984037Y834436D02*
D03*
X944037Y843436D02*
D03*
X898037Y807436D02*
D03*
X883037D02*
D03*
X882037Y756436D02*
D03*
X870037Y728436D02*
D03*
X856037D02*
D03*
X842037D02*
D03*
X861037Y651436D02*
D03*
X854037Y691436D02*
D03*
X401037Y795436D02*
D03*
X389037Y786436D02*
D03*
X534037Y778436D02*
D03*
X548037D02*
D03*
X562037D02*
D03*
X346037Y704436D02*
D03*
X244037Y726436D02*
D03*
X484037Y601936D02*
D03*
X484037Y617436D02*
D03*
X471037Y631436D02*
D03*
X482037Y644436D02*
D03*
X1003037Y813436D02*
D03*
X214037Y754436D02*
D03*
X198037Y774436D02*
D03*
X222037Y690436D02*
D03*
X339537Y656436D02*
D03*
X308037Y637436D02*
D03*
X305037Y645436D02*
D03*
X313037Y808436D02*
D03*
X285037Y835436D02*
D03*
X338037Y838436D02*
D03*
X284037Y598436D02*
D03*
Y609436D02*
D03*
X203037Y589436D02*
D03*
X333037Y621436D02*
D03*
X1106037Y796436D02*
D03*
Y812436D02*
D03*
X1073037Y849436D02*
D03*
X535537Y621436D02*
D03*
X499037Y622436D02*
D03*
X553037Y749936D02*
D03*
X620037Y714936D02*
D03*
Y726936D02*
D03*
X614038Y720936D02*
D03*
X1081837Y739936D02*
D03*
X271037Y648436D02*
D03*
X286037D02*
D03*
X297037Y748436D02*
D03*
X329037Y775436D02*
D03*
X297037Y629436D02*
D03*
X193037D02*
D03*
X212037Y568936D02*
D03*
X252037D02*
D03*
X292037D02*
D03*
X399317Y578436D02*
D03*
X382037Y590436D02*
D03*
Y604436D02*
D03*
X492037Y742436D02*
D03*
X577037D02*
D03*
X921037Y688436D02*
D03*
X974037D02*
D03*
X898037Y756436D02*
D03*
X731037Y569436D02*
D03*
X934037D02*
D03*
X1036037D02*
D03*
X1062037Y583436D02*
D03*
X1124037Y574436D02*
D03*
X1049037Y694436D02*
D03*
X363037Y723436D02*
D03*
X307037Y775436D02*
D03*
X357037Y768436D02*
D03*
X1150037Y739436D02*
D03*
X653037Y626936D02*
D03*
X382037Y794436D02*
D03*
X432037Y742436D02*
D03*
X430037Y769436D02*
D03*
X502037Y817436D02*
D03*
X510037D02*
D03*
X203037Y815436D02*
D03*
X356037Y591436D02*
D03*
X499037Y589436D02*
D03*
X487037Y632436D02*
D03*
X514037Y826936D02*
D03*
X695037Y846436D02*
D03*
X731037D02*
D03*
X993037Y864436D02*
D03*
X956037D02*
D03*
X616437Y641936D02*
D03*
X349037Y789436D02*
D03*
X470537Y703436D02*
D03*
X481037Y715436D02*
D03*
X471037Y725436D02*
D03*
X474037Y739436D02*
D03*
X492037Y727436D02*
D03*
X635537Y643436D02*
D03*
X955037Y783436D02*
D03*
X963037Y787936D02*
D03*
Y778936D02*
D03*
X971037Y783436D02*
D03*
X717037Y750436D02*
D03*
X741037D02*
D03*
Y726436D02*
D03*
X717037D02*
D03*
X729036Y738435D02*
D03*
X275037Y629436D02*
D03*
X238037D02*
D03*
X285337Y823686D02*
D03*
X674987Y735436D02*
D03*
X398037Y652436D02*
D03*
X217537Y780936D02*
D03*
X237037D02*
D03*
X269537Y780436D02*
D03*
X194037Y800436D02*
D03*
X193037Y842936D02*
D03*
X292037Y864436D02*
D03*
X261704D02*
D03*
X1130037D02*
D03*
X1073037Y865436D02*
D03*
X1173037Y801435D02*
D03*
Y772769D02*
D03*
Y744102D02*
D03*
Y715436D02*
D03*
Y686769D02*
D03*
Y658102D02*
D03*
Y629436D02*
D03*
X586037Y567436D02*
D03*
X542037D02*
D03*
X530037Y586436D02*
D03*
X193037Y594936D02*
D03*
X233037Y700936D02*
D03*
X917037Y783936D02*
D03*
X896037Y845936D02*
D03*
X936037Y735936D02*
D03*
X907037Y734936D02*
D03*
X792037Y752936D02*
D03*
X212037Y639936D02*
D03*
X201037Y715936D02*
D03*
X712037Y774436D02*
D03*
X704037Y801936D02*
D03*
X775537Y774436D02*
D03*
X776537Y745436D02*
D03*
X428537Y650936D02*
D03*
X240537Y826936D02*
D03*
X276537Y806936D02*
D03*
X531037Y867436D02*
D03*
X607537D02*
D03*
X847037Y773436D02*
D03*
X858037Y784436D02*
D03*
X836037D02*
D03*
X847037D02*
D03*
Y795436D02*
D03*
X297036Y715436D02*
D03*
X310037Y702436D02*
D03*
Y728436D02*
D03*
X294187Y728386D02*
D03*
X294087Y702236D02*
D03*
X517337Y661886D02*
D03*
X470037Y679436D02*
D03*
X483037D02*
D03*
X718037Y680936D02*
D03*
X489037Y703936D02*
D03*
X381037Y620436D02*
D03*
X482537Y577436D02*
D03*
X511037Y847436D02*
D03*
X799037Y692936D02*
D03*
X668037Y705936D02*
D03*
X664037Y647436D02*
D03*
X756037Y628436D02*
D03*
X805037Y616936D02*
D03*
X858037Y628436D02*
D03*
X959037D02*
D03*
X934037D02*
D03*
X1065037Y804436D02*
D03*
X1079037Y669436D02*
D03*
X910037Y628436D02*
D03*
X798037Y846435D02*
D03*
X522037Y686936D02*
D03*
X646037Y684936D02*
D03*
X195037Y676436D02*
D03*
X986037Y627936D02*
D03*
X587037Y713936D02*
D03*
X300037Y676436D02*
D03*
X576037Y778436D02*
D03*
X215037Y864936D02*
D03*
X362037Y845936D02*
D03*
X843037Y866936D02*
D03*
X593037Y781936D02*
D03*
X384037Y772436D02*
D03*
X384037Y677936D02*
D03*
X465037Y795936D02*
D03*
X637037Y779436D02*
D03*
X536037Y841936D02*
D03*
X646037Y732436D02*
D03*
X654037Y758936D02*
D03*
X638037Y749436D02*
D03*
D85*
X540037Y730436D02*
D03*
X564037D02*
D03*
X541128Y707526D02*
D03*
X552036Y718435D02*
D03*
X564037Y706436D02*
D03*
M02*
