M48
;Layer_Color=6321
;FILE_FORMAT=4:4
METRIC,LZ
;TYPE=PLATED
T1F00S00C0.2000
;TYPE=NON_PLATED
T2F00S00C1.0000
%
T01
X0045513Y0086217
X0049513Y0091217
X0049313Y0094817
X0048413Y0096717
X0045488Y0095717
Y0097717
Y0099717
Y0102717
X0041763Y0103217
Y0095717
X0051313Y0098017
X0050513Y0098817
X0052113Y0101017
X0053113Y0102817
X0053013Y0104717
X0054313Y0103917
X0049313Y0104417
X0045513Y0110217
X0059513Y0105467
X0061113Y0101217
X0060113Y0098657
X0058413
X0053913Y0095817
X0053113Y0091967
X0056113Y0093017
X0059513Y0091217
X0069513
X0067963Y0097367
X0075563
X0069513Y0105467
X0079513
X0089513
X0092513Y0103417
X0092963Y0097367
X0100563
X0108413Y0098657
X0110113
X0111113Y0101217
X0115513Y0103467
X0117963Y0097367
X0115513Y0092967
X0105513
Y0103467
X0086113Y0101217
X0085113Y0098657
X0083413
X0079513Y0091217
X0089513
X0125513Y0092967
X0125563Y0097367
X0125513Y0103467
X0135513
X0136113Y0101217
X0135113Y0098657
X0133413
X0135513Y0092967
X0145513
X0142963Y0097367
X0150563
X0158413Y0098657
X0155513Y0103467
X0145513
X0155513Y0092967
X0165513
X0167963Y0097367
X0175563
X0175513Y0092967
X0185513
X0185113Y0098657
X0183413
X0186113Y0101217
X0185513Y0103467
X0175513
X0165513
X0161113Y0101217
X0160113Y0098657
X0192963Y0097367
X0195513Y0092967
Y0103467
X0205513
X0208413Y0098657
X0210113
X0211113Y0101217
X0215513Y0103467
X0217963Y0097367
X0215513Y0092967
X0225513
X0225563Y0097367
X0225513Y0103467
X0235513
X0236113Y0101217
X0235113Y0098657
X0233413
X0235513Y0092967
X0205513
X0200563Y0097367
X0242963
X0245513Y0092967
X0250563Y0097367
X0258413Y0098657
X0260113
X0261113Y0101217
X0259513Y0103467
X0245513
X0255513Y0092967
X0265513
X0267963Y0097367
X0274313Y0098817
X0276613Y0098617
X0276763Y0101467
X0275413Y0101817
X0272713Y0100417
X0275213Y0096617
X0276113Y0094617
X0275513Y0092967
X0272913Y0094017
X0277513Y0095617
X0279813Y0096417
X0281313Y0098217
X0280913Y0100417
X02835507Y0100017
X0282713Y0102617
X0279213Y0101917
X0283613Y0096217
X0282913Y0094817
X02831125Y0093017
X0287713Y0098217
T02
X0042613Y0093317
M30
